<svg width="30" height="30" viewBox="0 0 30 30" fill="none" xmlns="http://www.w3.org/2000/svg">
<rect width="30" height="30" rx="7" fill="#007AFF"/>
<path fill-rule="evenodd" clip-rule="evenodd" d="M15 15C17.2091 15 19 12.9853 19 10.5C19 8.01472 17.2091 6 15 6C12.7909 6 11 8.01472 11 10.5C11 12.9853 12.7909 15 15 15ZM8.40488 24H21.6049C22.3054 24 22.6557 24 23.033 23.7492C23.2968 23.5738 23.6086 23.111 23.6721 22.8007C23.7629 22.3568 23.6703 22.1281 23.4851 21.6708C22.6601 19.6343 20.526 17 15.0049 17C9.4838 17 7.34965 19.6343 6.52469 21.6708C6.33944 22.1281 6.24682 22.3568 6.33765 22.8007C6.40115 23.111 6.71298 23.5738 6.97678 23.7492C7.3541 24 7.70436 24 8.40488 24Z" fill="white"/>
</svg>
