<svg width="30" height="30" viewBox="0 0 30 30" fill="none" xmlns="http://www.w3.org/2000/svg">
<rect width="30" height="30" rx="7" fill="#8E8E93"/>
<path d="M15 23.5517C14.7979 23.5517 14.5957 23.5429 14.3936 23.5254L13.9189 24.4218C13.7783 24.6679 13.5586 24.791 13.2773 24.7382C13.0137 24.6855 12.8291 24.5009 12.7939 24.2197L12.6533 23.2265C12.2578 23.1123 11.8799 22.9716 11.5195 22.8047L10.7637 23.4814C10.5527 23.666 10.2979 23.7011 10.0518 23.5605C9.81445 23.4199 9.71777 23.1826 9.77051 22.9101L9.98145 21.9257C9.65625 21.6884 9.33984 21.4336 9.0498 21.1435L8.11816 21.5214C7.85449 21.6269 7.6084 21.5742 7.42383 21.3545C7.24805 21.1435 7.23047 20.8798 7.37988 20.6425L7.91602 19.7988C7.6875 19.456 7.48535 19.1045 7.30957 18.7441L6.30762 18.7705C6.01758 18.7793 5.80664 18.6474 5.70996 18.3838C5.62207 18.1201 5.68359 17.8652 5.91211 17.6982L6.70312 17.083C6.60645 16.6875 6.53613 16.292 6.49219 15.8789L5.53418 15.5713C5.26172 15.4834 5.1123 15.2724 5.1123 15C5.1123 14.7187 5.26172 14.5078 5.53418 14.4287L6.49219 14.1211C6.53613 13.708 6.60645 13.3125 6.70312 12.917L5.91211 12.3017C5.68359 12.1259 5.61328 11.8798 5.70996 11.625C5.80664 11.3613 6.01758 11.2119 6.30762 11.2207L7.30957 11.2646C7.48535 10.8955 7.6875 10.5439 7.91602 10.2099L7.37988 9.35739C7.23047 9.12008 7.23926 8.85641 7.42383 8.64547C7.6084 8.43453 7.85449 8.36422 8.11816 8.47848L9.0498 8.85641C9.33984 8.57516 9.64746 8.31149 9.98145 8.07418L9.77051 7.08981C9.71777 6.81735 9.80566 6.57125 10.0518 6.43942C10.2979 6.30758 10.5615 6.32516 10.7637 6.51852L11.502 7.18649C11.8799 7.02828 12.249 6.88766 12.6445 6.7734L12.7939 5.77145C12.8379 5.49899 13.0049 5.30563 13.2861 5.26168C13.5586 5.21774 13.7871 5.332 13.9189 5.57809L14.3936 6.47457C14.5957 6.457 14.7979 6.44821 15 6.44821C15.2021 6.44821 15.4043 6.457 15.6064 6.47457L16.0811 5.57809C16.2129 5.332 16.4414 5.20895 16.7139 5.26168C16.9863 5.31442 17.1621 5.49899 17.2061 5.78024L17.3379 6.7734C17.7334 6.88766 18.1201 7.0195 18.4805 7.18649L19.2363 6.51852C19.4385 6.33395 19.7021 6.29 19.9482 6.43942C20.1855 6.58004 20.2822 6.80856 20.2295 7.08981L20.0098 8.06539C20.3438 8.3027 20.6602 8.56637 20.9502 8.85641L21.8818 8.47848C22.1367 8.37301 22.3916 8.42575 22.5762 8.64547C22.7432 8.85641 22.7695 9.12008 22.6201 9.35739L22.084 10.2011C22.3037 10.5351 22.5146 10.8867 22.6904 11.2558L23.6924 11.2295C23.9736 11.2207 24.1934 11.3437 24.29 11.6162C24.3779 11.8798 24.3164 12.1347 24.0879 12.3017L23.2881 12.917C23.3936 13.3037 23.4639 13.708 23.5078 14.1211L24.4658 14.4287C24.7295 14.5078 24.8877 14.7187 24.8877 15C24.8877 15.2724 24.7295 15.4834 24.4658 15.5713L23.5078 15.8789C23.4639 16.292 23.3936 16.6875 23.2881 17.083L24.0879 17.6982C24.3164 17.874 24.3867 18.1201 24.29 18.375C24.1934 18.6386 23.9736 18.7881 23.6924 18.7793L22.6904 18.7353C22.5146 19.1045 22.3037 19.456 22.084 19.79L22.6201 20.6425C22.7695 20.8798 22.7607 21.1435 22.5762 21.3545C22.3916 21.5654 22.1455 21.6269 21.873 21.5214L20.9502 21.1435C20.6602 21.4248 20.3525 21.6884 20.0098 21.917L20.2207 22.9101C20.2822 23.1826 20.1855 23.4199 19.9395 23.5605C19.7021 23.6923 19.4385 23.6748 19.2363 23.4814L18.4893 22.8047C18.1201 22.9716 17.7422 23.1123 17.3467 23.2265L17.1973 24.2197C17.1621 24.5009 16.9951 24.6943 16.7139 24.7382C16.4414 24.7734 16.2129 24.6679 16.0811 24.4218L15.6064 23.5254C15.4043 23.5429 15.2021 23.5517 15 23.5517ZM15 12.5478C16.0986 12.5478 17.0303 13.2685 17.3467 14.2705H21.8115C21.4512 10.8252 18.542 8.1445 15 8.1445C13.9893 8.1445 13.0312 8.36422 12.1611 8.75973L14.4111 12.6181C14.6045 12.5742 14.7979 12.5478 15 12.5478ZM8.14453 15C8.14453 17.2324 9.20801 19.2099 10.8604 20.4668L13.1895 16.6523C12.7939 16.2129 12.5479 15.6328 12.5479 15C12.5479 14.3672 12.7939 13.7959 13.1807 13.3564L10.9219 9.48922C9.23438 10.7373 8.14453 12.7412 8.14453 15ZM15 15.9931C15.5537 15.9931 15.9932 15.5449 15.9932 15C15.9932 14.4463 15.5537 14.0068 15 14.0068C14.4551 14.0068 14.0068 14.4463 14.0068 15C14.0068 15.5449 14.4551 15.9931 15 15.9931ZM15 21.8554C18.5508 21.8554 21.46 19.1572 21.8203 15.7031H17.3555C17.0479 16.7138 16.1074 17.4521 15 17.4521C14.7979 17.4521 14.6045 17.4257 14.4199 17.3818L12.0908 21.205C12.9785 21.6181 13.9629 21.8554 15 21.8554Z" fill="white"/>
</svg>
