<svg width="30" height="30" viewBox="0 0 30 30" fill="none" xmlns="http://www.w3.org/2000/svg">
<rect width="30" height="30" rx="7" fill="#32ADE6"/>
<path d="M8.88662 18.0092C7.78199 18.0092 6.9414 17.729 6.36484 17.1686C5.78828 16.6082 5.5 15.7972 5.5 14.7357V13.5556C5.5 12.4941 5.78828 11.6832 6.36484 11.1228C6.9414 10.5624 7.78199 10.2822 8.88662 10.2822H10.6244V18.0092H8.88662ZM11.7317 18.0173V10.2822C12.4268 10.2067 13.2027 10.0801 14.0595 9.9023C14.9216 9.72448 15.7892 9.49817 16.6621 9.22336C17.5404 8.94855 18.3541 8.62794 19.1031 8.26153C19.1031 8.31002 19.1031 8.35582 19.1031 8.39893C19.1031 8.44204 19.1031 8.48784 19.1031 8.53634V19.7793C19.1031 19.8224 19.1031 19.8655 19.1031 19.9086C19.1031 19.9517 19.1031 19.9921 19.1031 20.0298C18.3648 19.6688 17.57 19.3536 16.7187 19.0842C15.8673 18.8093 15.0132 18.583 14.1565 18.4052C13.2997 18.2274 12.4915 18.0981 11.7317 18.0173ZM21.8511 22.002C21.5278 22.002 21.2423 21.9319 20.9944 21.7918C20.7465 21.6571 20.5525 21.4658 20.4124 21.218C20.2777 20.9701 20.2104 20.6845 20.2104 20.3612V7.88164C20.2104 7.55834 20.2777 7.27275 20.4124 7.02489C20.5525 6.77163 20.7465 6.57765 20.9944 6.44294C21.2423 6.30284 21.5278 6.23279 21.8511 6.23279C22.1798 6.23279 22.4681 6.30284 22.716 6.44294C22.9639 6.57765 23.1551 6.77163 23.2899 7.02489C23.43 7.27275 23.5 7.55834 23.5 7.88164V20.3612C23.5 20.6845 23.43 20.9701 23.2899 21.218C23.1551 21.4658 22.9639 21.6571 22.716 21.7918C22.4681 21.9319 22.1798 22.002 21.8511 22.002ZM12.1035 23.4811C11.6347 23.4811 11.2602 23.3572 10.98 23.1093C10.7052 22.8614 10.4654 22.5166 10.2607 22.0747L8.90278 19.1084C9.03211 19.1084 9.15604 19.1111 9.27458 19.1165C9.39313 19.1219 9.48743 19.1246 9.55748 19.1246C10.5813 19.1515 11.3545 19.1838 11.8772 19.2216C12.4053 19.2593 12.8229 19.3051 13.13 19.359L13.5826 21.5332C13.6688 21.9481 13.6554 22.301 13.5422 22.592C13.4291 22.883 13.2432 23.1039 12.9845 23.2548C12.7313 23.4057 12.4376 23.4811 12.1035 23.4811Z" fill="white"/>
</svg>
