<svg width="30" height="30" viewBox="0 0 30 30" fill="none" xmlns="http://www.w3.org/2000/svg">
<rect width="30" height="30" rx="7" fill="#007AFF"/>
<path fill-rule="evenodd" clip-rule="evenodd" d="M5.71799 6.59202C5.5 7.01984 5.5 7.5799 5.5 8.7V10.3C5.5 11.4201 5.5 11.9802 5.71799 12.408C5.90973 12.7843 6.21569 13.0903 6.59202 13.282C7.01984 13.5 7.5799 13.5 8.7 13.5H10.3C11.4201 13.5 11.9802 13.5 12.408 13.282C12.7843 13.0903 13.0903 12.7843 13.282 12.408C13.5 11.9802 13.5 11.4201 13.5 10.3V8.7C13.5 7.5799 13.5 7.01984 13.282 6.59202C13.0903 6.21569 12.7843 5.90973 12.408 5.71799C11.9802 5.5 11.4201 5.5 10.3 5.5H8.7C7.5799 5.5 7.01984 5.5 6.59202 5.71799C6.21569 5.90973 5.90973 6.21569 5.71799 6.59202ZM5.71799 17.592C5.5 18.0198 5.5 18.5799 5.5 19.7V21.3C5.5 22.4201 5.5 22.9802 5.71799 23.408C5.90973 23.7843 6.21569 24.0903 6.59202 24.282C7.01984 24.5 7.5799 24.5 8.7 24.5H10.3C11.4201 24.5 11.9802 24.5 12.408 24.282C12.7843 24.0903 13.0903 23.7843 13.282 23.408C13.5 22.9802 13.5 22.4201 13.5 21.3V19.7C13.5 18.5799 13.5 18.0198 13.282 17.592C13.0903 17.2157 12.7843 16.9097 12.408 16.718C11.9802 16.5 11.4201 16.5 10.3 16.5H8.7C7.5799 16.5 7.01984 16.5 6.59202 16.718C6.21569 16.9097 5.90973 17.2157 5.71799 17.592ZM16.5 8.7C16.5 7.5799 16.5 7.01984 16.718 6.59202C16.9097 6.21569 17.2157 5.90973 17.592 5.71799C18.0198 5.5 18.5799 5.5 19.7 5.5H21.3C22.4201 5.5 22.9802 5.5 23.408 5.71799C23.7843 5.90973 24.0903 6.21569 24.282 6.59202C24.5 7.01984 24.5 7.5799 24.5 8.7V10.3C24.5 11.4201 24.5 11.9802 24.282 12.408C24.0903 12.7843 23.7843 13.0903 23.408 13.282C22.9802 13.5 22.4201 13.5 21.3 13.5H19.7C18.5799 13.5 18.0198 13.5 17.592 13.282C17.2157 13.0903 16.9097 12.7843 16.718 12.408C16.5 11.9802 16.5 11.4201 16.5 10.3V8.7ZM17.318 22.6214L17.318 22.6214L18.3787 23.6821C19.1212 24.4246 19.4925 24.7959 19.9206 24.935C20.2972 25.0574 20.7028 25.0574 21.0794 24.935C21.5075 24.7959 21.8788 24.4246 22.6213 23.6821L23.682 22.6214C24.4245 21.8789 24.7958 21.5076 24.9349 21.0795C25.0572 20.7029 25.0572 20.2973 24.9349 19.9207C24.7958 19.4926 24.4245 19.1213 23.682 18.3788L22.6213 17.3181C21.8788 16.5756 21.5075 16.2043 21.0794 16.0652C20.7028 15.9429 20.2972 15.9429 19.9206 16.0652C19.4925 16.2043 19.1212 16.5756 18.3787 17.3181L17.318 18.3788C16.5755 19.1213 16.2042 19.4926 16.0651 19.9207C15.9428 20.2973 15.9428 20.7029 16.0651 21.0795C16.2042 21.5076 16.5755 21.8789 17.318 22.6214Z" fill="white"/>
</svg>
