<svg width="30" height="30" viewBox="0 0 30 30" fill="none" xmlns="http://www.w3.org/2000/svg">
<rect width="30" height="30" rx="7" fill="#007AFF"/>
<path fill-rule="evenodd" clip-rule="evenodd" d="M6.27248 7.36502C6 7.8998 6 8.59987 6 10V16C6 17.4001 6 18.1002 6.27248 18.635C6.51217 19.1054 6.89462 19.4878 7.36502 19.7275C7.8998 20 8.59987 20 10 20H20C21.4001 20 22.1002 20 22.635 19.7275C23.1054 19.4878 23.4878 19.1054 23.7275 18.635C24 18.1002 24 17.4001 24 16V10C24 8.59987 24 7.8998 23.7275 7.36502C23.4878 6.89462 23.1054 6.51217 22.635 6.27248C22.1002 6 21.4001 6 20 6H10C8.59987 6 7.8998 6 7.36502 6.27248C6.89462 6.51217 6.51217 6.89462 6.27248 7.36502ZM8.07593 21.2751C8.09804 21.3613 8.12659 21.4387 8.16346 21.511C8.30727 21.7932 8.53674 22.0227 8.81898 22.1665C9.13985 22.33 9.55989 22.33 10.4 22.33H19.6C20.44 22.33 20.8601 22.33 21.181 22.1665C21.4632 22.0227 21.6927 21.7932 21.8365 21.511C21.8733 21.4387 21.9019 21.3613 21.924 21.2752C21.8661 21.2814 21.8082 21.2868 21.7503 21.2915C21.2788 21.33 20.7075 21.33 20.0507 21.33H20.0507H20.0507H20.0506H9.94939H9.94932H9.9493H9.94929C9.29251 21.33 8.72122 21.33 8.24971 21.2915C8.19183 21.2868 8.13389 21.2814 8.07593 21.2751ZM10.0366 23.6595C10.0567 23.7872 10.0879 23.8926 10.1363 23.9875C10.2561 24.2227 10.4474 24.4139 10.6826 24.5338C10.95 24.67 11.3 24.67 12.0001 24.67H18.0001C18.7001 24.67 19.0502 24.67 19.3176 24.5338C19.5528 24.4139 19.744 24.2227 19.8638 23.9875C19.9122 23.8926 19.9434 23.7872 19.9635 23.6595C19.8593 23.66 19.7526 23.66 19.6443 23.66H10.3559C10.2476 23.66 10.1409 23.66 10.0366 23.6595Z" fill="white"/>
</svg>
