<svg width="30" height="30" viewBox="0 0 30 30" fill="none" xmlns="http://www.w3.org/2000/svg">
<rect width="30" height="30" rx="7" fill="#8E8E93"/>
<path d="M14.9539 25.4375C14.3797 25.4375 14.0047 25.0742 14.0047 24.4766V23.1523C11.5906 22.8711 9.79767 21.6055 9.30548 19.8828C9.23517 19.6836 9.20001 19.4844 9.20001 19.2969C9.20001 18.6406 9.65704 18.1953 10.3602 18.1953C10.9813 18.1953 11.3094 18.5703 11.5203 19.0742C12.0008 20.3867 13.1961 21.0781 15.0594 21.0781C17.0399 21.0781 18.3172 20.2812 18.3172 18.7695C18.3172 17.4922 17.157 16.8359 15.3055 16.3906L13.7 16.0156C11.157 15.4297 9.42267 13.918 9.42267 11.7617C9.42267 9.16016 11.4734 7.61328 14.0047 7.30859V5.96094C14.0047 5.35156 14.3797 5 14.9539 5C15.5281 5 15.9149 5.35156 15.9149 5.96094V7.29688C18.1531 7.56641 19.8406 8.79688 20.3445 10.5898C20.4031 10.7891 20.4383 11 20.4383 11.1875C20.4383 11.8086 19.9813 12.1953 19.325 12.1953C18.6922 12.1953 18.3758 11.8672 18.1297 11.3516C17.6024 10.0273 16.6531 9.37109 14.9774 9.37109C13.0789 9.37109 11.9305 10.2266 11.9305 11.5742C11.9305 12.7344 13.0672 13.4375 14.6375 13.8008L16.1844 14.1641C19.1375 14.8438 20.8016 16.2852 20.8016 18.5469C20.8016 21.4062 18.5047 22.9062 15.9149 23.1758V24.4766C15.9149 25.0742 15.5281 25.4375 14.9539 25.4375Z" fill="white"/>
</svg>
