<svg width="30" height="30" viewBox="0 0 30 30" fill="none" xmlns="http://www.w3.org/2000/svg">
<rect width="30" height="30" rx="7" fill="#FF9500"/>
<path d="M25.221 11.2152C25.4834 11.33 25.6775 11.4858 25.8032 11.6826C25.9344 11.8793 26 12.0816 26 12.2893C26 12.5025 25.9344 12.7048 25.8032 12.8961C25.6775 13.0874 25.4834 13.2432 25.221 13.3635L17.1934 17.0452C16.7725 17.2365 16.3844 17.3759 16.0291 17.4634C15.6792 17.5509 15.3348 17.5919 14.9959 17.5864C14.6624 17.5919 14.3181 17.5509 13.9627 17.4634C13.6129 17.3759 13.2247 17.2365 12.7984 17.0452L9.29706 15.4381L14.2497 13.1175C14.4902 13.1886 14.7499 13.2241 15.0287 13.2241C15.3239 13.2241 15.6027 13.1831 15.8651 13.1011C16.1329 13.0191 16.3489 12.9098 16.5129 12.7731C16.6823 12.631 16.7671 12.4697 16.7671 12.2893C16.7671 12.1144 16.6823 11.9586 16.5129 11.822C16.3489 11.6853 16.1329 11.5787 15.8651 11.5022C15.6027 11.4202 15.3239 11.3792 15.0287 11.3792C14.739 11.3792 14.4602 11.4202 14.1923 11.5022C13.9245 11.5787 13.7058 11.6853 13.5363 11.822C13.3669 11.9586 13.2821 12.1144 13.2821 12.2893C13.2821 12.3549 13.304 12.4151 13.3477 12.4697L8.15729 14.9051L4.77898 13.3635C4.51659 13.2432 4.31979 13.0874 4.18859 12.8961C4.06286 12.7048 4 12.5025 4 12.2893C4 12.0816 4.06286 11.8793 4.18859 11.6826C4.31979 11.4858 4.51659 11.33 4.77898 11.2152L12.7984 7.54167C13.2193 7.35034 13.6074 7.21094 13.9627 7.12348C14.3181 7.03601 14.6624 6.99502 14.9959 7.00048C15.3348 6.99502 15.6792 7.03601 16.0291 7.12348C16.3844 7.21094 16.7725 7.35034 17.1934 7.54167L25.221 11.2152ZM9.26426 16.6516L12.331 18.0538C13.304 18.4966 14.1923 18.7152 14.9959 18.7098C15.8049 18.7152 16.6933 18.4966 17.6608 18.0538L22.9497 15.6348V18.4556C22.9497 19.0678 22.7611 19.6473 22.3839 20.1939C22.0122 20.7406 21.4792 21.2216 20.7849 21.6371C20.0907 22.058 19.2543 22.386 18.2758 22.6211C17.2973 22.8616 16.204 22.9818 14.9959 22.9818C13.8042 22.9818 12.7218 22.8616 11.7488 22.6211C10.7812 22.386 9.95304 22.058 9.26426 21.6371V16.6516ZM7.05032 15.6348L8.19829 16.1678V20.8089C7.82656 20.4317 7.5423 20.0354 7.34551 19.6199C7.14871 19.199 7.05032 18.8109 7.05032 18.4556V15.6348ZM8.19829 23.5394V20.8089C8.34588 20.962 8.50988 21.1068 8.69027 21.2435C8.87067 21.3802 9.062 21.5114 9.26426 21.6371V23.5394H8.19829ZM7.5505 23.5968C7.5505 23.2743 7.64617 23.0146 7.8375 22.8179C8.03429 22.6265 8.29395 22.5309 8.61647 22.5309H8.83787C9.16039 22.5309 9.41732 22.6265 9.60865 22.8179C9.80544 23.0146 9.90384 23.2743 9.90384 23.5968V25.7534C9.90384 26.0759 9.80544 26.3328 9.60865 26.5242C9.41732 26.7209 9.16039 26.8193 8.83787 26.8193H8.61647C8.29395 26.8193 8.03429 26.7209 7.8375 26.5242C7.64617 26.3328 7.5505 26.0759 7.5505 25.7534V23.5968Z" fill="white"/>
</svg>
