<svg width="30" height="30" viewBox="0 0 30 30" fill="none" xmlns="http://www.w3.org/2000/svg">
<rect width="30" height="30" rx="7" fill="#34C759"/>
<path fill-rule="evenodd" clip-rule="evenodd" d="M9.70001 5.66998H9.66689H9.66688C9.13504 5.66997 8.68636 5.66996 8.31883 5.69999C7.934 5.73143 7.56564 5.79989 7.21522 5.97844C6.68272 6.24976 6.24979 6.68269 5.97847 7.21519C5.79992 7.56561 5.73146 7.93397 5.70002 8.3188C5.66999 8.68633 5.67 9.13501 5.67001 9.66684V9.66686V9.69998V11C5.67001 11.4584 6.04162 11.83 6.50001 11.83C6.95841 11.83 7.33001 11.4584 7.33001 11V9.69998C7.33001 9.12624 7.33066 8.74584 7.35451 8.45398C7.37756 8.1718 7.4181 8.04622 7.45754 7.96881C7.56971 7.74867 7.7487 7.56968 7.96885 7.45751C8.04625 7.41807 8.17183 7.37753 8.45401 7.35448C8.74587 7.33063 9.12627 7.32998 9.70001 7.32998H11C11.4584 7.32998 11.83 6.95838 11.83 6.49998C11.83 6.04159 11.4584 5.66998 11 5.66998H9.70001ZM9.70001 24.33H9.66689C9.13505 24.33 8.68637 24.33 8.31883 24.3C7.934 24.2685 7.56564 24.2001 7.21522 24.0215C6.68272 23.7502 6.24979 23.3173 5.97847 22.7848C5.79992 22.4344 5.73146 22.066 5.70002 21.6812C5.66999 21.3136 5.67 20.865 5.67001 20.3331V20.3331V20.3V19C5.67001 18.5416 6.04162 18.17 6.50001 18.17C6.95841 18.17 7.33001 18.5416 7.33001 19V20.3C7.33001 20.8737 7.33066 21.2541 7.35451 21.546C7.37756 21.8282 7.4181 21.9538 7.45754 22.0312C7.56971 22.2513 7.7487 22.4303 7.96885 22.5425C8.04625 22.5819 8.17183 22.6224 8.45401 22.6455C8.74587 22.6693 9.12627 22.67 9.70001 22.67H11C11.4584 22.67 11.83 23.0416 11.83 23.5C11.83 23.9584 11.4584 24.33 11 24.33H9.70001ZM20.3331 5.66998H20.3H19C18.5416 5.66998 18.17 6.04159 18.17 6.49998C18.17 6.95838 18.5416 7.32998 19 7.32998H20.3C20.8738 7.32998 21.2542 7.33063 21.546 7.35448C21.8282 7.37753 21.9538 7.41807 22.0312 7.45751C22.2513 7.56968 22.4303 7.74867 22.5425 7.96881C22.5819 8.04622 22.6225 8.1718 22.6455 8.45398C22.6694 8.74584 22.67 9.12624 22.67 9.69998V11C22.67 11.4584 23.0416 11.83 23.5 11.83C23.9584 11.83 24.33 11.4584 24.33 11V9.69998V9.66686C24.33 9.13502 24.33 8.68634 24.3 8.3188C24.2686 7.93397 24.2001 7.56561 24.0216 7.21519C23.7502 6.68269 23.3173 6.24976 22.7848 5.97844C22.4344 5.79989 22.066 5.73143 21.6812 5.69999C21.3137 5.66996 20.865 5.66997 20.3332 5.66998H20.3331ZM20.3 24.33H20.3331C20.865 24.33 21.3137 24.33 21.6812 24.3C22.066 24.2685 22.4344 24.2001 22.7848 24.0215C23.3173 23.7502 23.7502 23.3173 24.0216 22.7848C24.2001 22.4344 24.2686 22.066 24.3 21.6812C24.33 21.3136 24.33 20.8649 24.33 20.3331V20.3V19C24.33 18.5416 23.9584 18.17 23.5 18.17C23.0416 18.17 22.67 18.5416 22.67 19V20.3C22.67 20.8737 22.6694 21.2541 22.6455 21.546C22.6225 21.8282 22.5819 21.9538 22.5425 22.0312C22.4303 22.2513 22.2513 22.4303 22.0312 22.5425C21.9538 22.5819 21.8282 22.6224 21.546 22.6455C21.2542 22.6693 20.8738 22.67 20.3 22.67H19C18.5416 22.67 18.17 23.0416 18.17 23.5C18.17 23.9584 18.5416 24.33 19 24.33H20.3ZM11.5 11.25C11.9142 11.25 12.25 11.5858 12.25 12V13.5C12.25 13.9142 11.9142 14.25 11.5 14.25C11.0858 14.25 10.75 13.9142 10.75 13.5V12C10.75 11.5858 11.0858 11.25 11.5 11.25ZM19.75 12C19.75 11.5858 19.4142 11.25 19 11.25C18.5858 11.25 18.25 11.5858 18.25 12V13.5C18.25 13.9142 18.5858 14.25 19 14.25C19.4142 14.25 19.75 13.9142 19.75 13.5V12ZM15.5 11.25C15.9142 11.25 16.25 11.5858 16.25 12V15.2L16.25 15.2202C16.25 15.3424 16.2501 15.4748 16.2407 15.5895C16.2301 15.7192 16.2039 15.8906 16.1138 16.0675C15.9939 16.3027 15.8027 16.4939 15.5675 16.6137C15.3907 16.7038 15.2192 16.7301 15.0895 16.7407C14.9748 16.75 14.8424 16.75 14.7202 16.75L14.7 16.75H14.5C14.0858 16.75 13.75 16.4142 13.75 16C13.75 15.5858 14.0858 15.25 14.5 15.25H14.7L14.75 15.25L14.75 15.2V12C14.75 11.5858 15.0858 11.25 15.5 11.25ZM12.5303 17.9697C12.2375 17.6768 11.7626 17.6768 11.4697 17.9697C11.1768 18.2625 11.1768 18.7374 11.4697 19.0303C12.3922 19.9528 13.7262 20.375 15 20.375C16.2739 20.375 17.6079 19.9528 18.5303 19.0303C18.8232 18.7374 18.8232 18.2625 18.5303 17.9697C18.2375 17.6768 17.7626 17.6768 17.4697 17.9697C16.8922 18.5472 15.9762 18.875 15 18.875C14.0239 18.875 13.1079 18.5472 12.5303 17.9697Z" fill="white"/>
</svg>
