<svg width="30" height="30" viewBox="0 0 30 30" fill="none" xmlns="http://www.w3.org/2000/svg">
<rect width="30" height="30" rx="7" fill="#32ADE6"/>
<path fill-rule="evenodd" clip-rule="evenodd" d="M25 15C25 20.5228 20.5228 25 15 25C9.47715 25 5 20.5228 5 15C5 9.47715 9.47715 5 15 5C20.5228 5 25 9.47715 25 15ZM17.5535 10.2406C18.2859 10.875 18.75 11.8152 18.75 13C18.75 13.8846 18.5244 14.5406 18.1007 15.035C17.7195 15.4797 17.2258 15.726 16.8746 15.9013L16.8354 15.9208C16.4384 16.1193 16.2051 16.2465 16.0382 16.4412C15.8994 16.6031 15.75 16.8846 15.75 17.5C15.75 17.9142 15.4142 18.25 15 18.25C14.5858 18.25 14.25 17.9142 14.25 17.5C14.25 16.6154 14.4756 15.9594 14.8993 15.4651C15.2805 15.0203 15.7742 14.774 16.1254 14.5988L16.1254 14.5988L16.1646 14.5792C16.5616 14.3807 16.7949 14.2535 16.9618 14.0588C17.1006 13.8969 17.25 13.6154 17.25 13C17.25 12.236 16.9641 11.7146 16.5715 11.3745C16.1636 11.0212 15.5954 10.8267 15 10.8267C14.4046 10.8267 13.8364 11.0212 13.4285 11.3745C13.0359 11.7146 12.75 12.236 12.75 13C12.75 13.4142 12.4142 13.75 12 13.75C11.5858 13.75 11.25 13.4142 11.25 13C11.25 11.8152 11.7141 10.875 12.4465 10.2406C13.1636 9.61951 14.0954 9.32672 15 9.32672C15.9046 9.32672 16.8364 9.61951 17.5535 10.2406ZM15 21C15.4612 21 15.835 20.6262 15.835 20.165C15.835 19.7039 15.4612 19.33 15 19.33C14.5388 19.33 14.165 19.7039 14.165 20.165C14.165 20.6262 14.5388 21 15 21Z" fill="white"/>
</svg>
