<svg width="30" height="30" viewBox="0 0 30 30" fill="none" xmlns="http://www.w3.org/2000/svg">
<rect width="30" height="30" rx="7" fill="#FFCC00"/>
<path fill-rule="evenodd" clip-rule="evenodd" d="M16.6708 20.699C16.4803 20.75 16.1644 20.75 15.5325 20.75H14.4675C13.8356 20.75 13.5197 20.75 13.3292 20.699C13.1956 20.6633 13.1344 20.648 13.0782 20.6218C13.022 20.5957 12.9708 20.5586 12.8575 20.4794C12.6959 20.3665 12.3229 19.923 11.577 19.0362C11.2875 18.6921 10.9558 18.3544 10.6136 18.0061C9.37515 16.7453 8 15.3453 8 13C8 9 9.5 5.25 15 5.25C20.5 5.25 22 9 22 13C22 15.3453 20.6249 16.7453 19.3864 18.0061C19.0442 18.3544 18.7125 18.6921 18.423 19.0362C17.6771 19.923 17.3041 20.3665 17.1425 20.4794C17.0292 20.5586 16.978 20.5957 16.9218 20.6218C16.8656 20.648 16.8044 20.6633 16.6708 20.699ZM12.5 22.75C12.5 22.1977 12.9477 21.75 13.5 21.75H16.5C17.0523 21.75 17.5 22.1977 17.5 22.75C17.5 23.8546 16.6046 24.75 15.5 24.75H14.5C13.3954 24.75 12.5 23.8546 12.5 22.75Z" fill="white"/>
</svg>
