<svg width="30" height="30" viewBox="0 0 30 30" fill="none" xmlns="http://www.w3.org/2000/svg">
    <g clip-path="url(#clip0_1070_3194)">
        <path d="M0 11.2C0 7.27963 0 5.31945 0.762954 3.82207C1.43407 2.50493 2.50493 1.43407 3.82207 0.762954C5.31945 0 7.27963 0 11.2 0H18.8C22.7204 0 24.6805 0 26.1779 0.762954C27.4951 1.43407 28.5659 2.50493 29.237 3.82207C30 5.31945 30 7.27963 30 11.2V18.8C30 22.7204 30 24.6805 29.237 26.1779C28.5659 27.4951 27.4951 28.5659 26.1779 29.237C24.6805 30 22.7204 30 18.8 30H11.2C7.27963 30 5.31945 30 3.82207 29.237C2.50493 28.5659 1.43407 27.4951 0.762954 26.1779C0 24.6805 0 22.7204 0 18.8V11.2Z" fill="#AEAEB2"/>
        <path d="M15 7C19.416 7 23 10.584 23 15C23 19.416 19.416 23 15 23C10.584 23 7 19.416 7 15C7 10.584 10.584 7 15 7ZM15 14.0588C14.5322 14.0588 14.1529 14.4381 14.1529 14.9059V18.3882C14.1529 18.8561 14.5322 19.2353 15 19.2353C15.4678 19.2353 15.8471 18.8561 15.8471 18.3882V14.9059C15.8471 14.4381 15.4678 14.0588 15 14.0588ZM15 10.7647C14.4802 10.7647 14.0588 11.1861 14.0588 11.7059C14.0588 12.2257 14.4802 12.6471 15 12.6471C15.5198 12.6471 15.9412 12.2257 15.9412 11.7059C15.9412 11.1861 15.5198 10.7647 15 10.7647Z" fill="white"/>
    </g>
    <defs>
        <clipPath id="clip0_1070_3194">
            <rect width="30" height="30" fill="white"/>
        </clipPath>
    </defs>
</svg>
