<svg width="30" height="30" viewBox="0 0 30 30" fill="none" xmlns="http://www.w3.org/2000/svg">
<rect width="30" height="30" rx="7" fill="#AF52DE"/>
<path d="M15.3676 22.2061C14.858 22.2061 14.471 22.0739 14.2065 21.8094C13.9421 21.5449 13.7582 21.2095 13.655 20.8031C13.5583 20.3967 13.5034 19.9742 13.4905 19.5356C13.4841 19.0905 13.4808 18.6905 13.4808 18.3358C13.4808 17.8842 13.3228 17.5133 13.0067 17.223C12.6907 16.9263 12.2875 16.7779 11.7972 16.7779C10.9845 16.7779 10.3523 16.5586 9.90078 16.12C9.44924 15.6749 9.22347 15.0556 9.22347 14.2622C9.22347 13.6559 9.40086 13.1011 9.75564 12.598C10.1169 12.0948 10.5974 11.6917 11.1973 11.3885C11.7972 11.0789 12.4552 10.924 13.1712 10.924C13.4937 10.924 13.8163 10.966 14.1388 11.0498C14.4613 11.1337 14.7516 11.2143 15.0096 11.2917C15.2677 11.3691 15.4644 11.4078 15.5999 11.4078C15.7289 11.4078 15.8289 11.3433 15.8998 11.2143C15.9708 11.0789 16.0062 10.9144 16.0062 10.7209C16.0062 10.5918 15.9417 10.4403 15.8127 10.2661C15.6902 10.0919 15.5321 9.94356 15.3386 9.821C15.1451 9.69199 14.9451 9.62748 14.7387 9.62748C14.6807 9.62748 14.6355 9.64361 14.6032 9.67586C14.571 9.70811 14.5484 9.75649 14.5355 9.821C14.5226 9.96291 14.4742 10.079 14.3904 10.1693C14.313 10.2532 14.2001 10.2951 14.0517 10.2951C13.8131 10.2951 13.6099 10.2435 13.4421 10.1403C13.2744 10.0371 13.1228 9.93388 12.9874 9.83067C12.8519 9.72101 12.7165 9.66618 12.581 9.66618C12.4455 9.66618 12.3262 9.72746 12.223 9.85003C12.1262 9.96614 12.023 10.1048 11.9134 10.2661C11.8101 10.4209 11.6779 10.5564 11.5166 10.6725C11.3554 10.7886 11.1393 10.8466 10.8684 10.8466C10.6039 10.8466 10.3942 10.7757 10.2394 10.6338C10.0911 10.4919 10.0169 10.3016 10.0169 10.0629C10.0169 9.86293 10.0685 9.68876 10.1717 9.5404C10.2749 9.38558 10.3942 9.22754 10.5297 9.06628C10.6652 8.89857 10.7845 8.70505 10.8877 8.48573C10.9909 8.26641 11.0425 7.99226 11.0425 7.66328C11.0425 7.3085 11.1748 6.96662 11.4392 6.63764C11.7102 6.30866 12.1327 6.04096 12.7068 5.83454C13.2873 5.62167 14.0453 5.51524 14.9806 5.51524C16.2836 5.51524 17.506 5.76359 18.6478 6.26028C19.7895 6.75698 20.7926 7.44074 21.6569 8.31156C22.5278 9.18239 23.2083 10.1887 23.6986 11.3304C24.1888 12.4657 24.4339 13.672 24.4339 14.9492C24.4339 15.362 24.3597 15.7265 24.2114 16.0426C24.063 16.3522 23.8759 16.6199 23.6502 16.8457C23.2502 16.6522 22.9309 16.3651 22.6923 15.9845C22.4536 15.6039 22.2665 15.2105 22.1311 14.8041C21.9956 14.3912 21.8795 14.0429 21.7827 13.7591C21.686 13.4688 21.5795 13.3237 21.4634 13.3237C21.3925 13.3237 21.3344 13.3559 21.2893 13.4204C21.2506 13.4785 21.199 13.5398 21.1344 13.6043C21.0764 13.6623 20.9861 13.6913 20.8635 13.6913C20.7152 13.6913 20.5442 13.6236 20.3507 13.4881C20.1636 13.3462 19.9701 13.185 19.7702 13.0044C19.5766 12.8173 19.3928 12.656 19.2186 12.5206C19.0509 12.3786 18.9122 12.3077 18.8026 12.3077C18.6865 12.3077 18.58 12.3657 18.4833 12.4819C18.3865 12.598 18.3381 12.727 18.3381 12.8689C18.3381 12.9915 18.4381 13.1269 18.6381 13.2753C18.838 13.4172 19.067 13.572 19.3251 13.7397C19.5831 13.9074 19.8121 14.0848 20.0121 14.2719C20.212 14.459 20.312 14.6525 20.312 14.8524C20.312 15.1298 20.2281 15.3943 20.0604 15.6459C19.8927 15.891 19.7218 16.1103 19.5476 16.3038C19.3799 16.4973 19.296 16.6489 19.296 16.7586C19.296 16.9973 19.3122 17.3004 19.3444 17.6681C19.3831 18.0358 19.2799 18.4196 19.0348 18.8195C18.938 18.9808 18.7768 19.2453 18.551 19.613C18.3252 19.9742 18.0479 20.3548 17.7189 20.7547C17.3963 21.1547 17.0319 21.4965 16.6255 21.7804C16.2256 22.0642 15.8063 22.2061 15.3676 22.2061ZM17.8447 9.24045C17.9414 9.24045 18.0414 9.27592 18.1446 9.34688C18.2478 9.41139 18.3865 9.44364 18.5607 9.44364C18.6768 9.44364 18.7735 9.39849 18.8509 9.30818C18.9284 9.21142 18.9671 9.09531 18.9671 8.95985C18.9671 8.73408 18.8509 8.54378 18.6187 8.38897C18.393 8.22771 18.1124 8.14707 17.7769 8.14707C17.377 8.14707 17.0641 8.21158 16.8384 8.34059C16.619 8.4696 16.5094 8.65022 16.5094 8.88244C16.5094 9.0437 16.561 9.17272 16.6642 9.26947C16.7739 9.36623 16.9061 9.41461 17.0609 9.41461C17.2222 9.41461 17.3512 9.38558 17.4479 9.32753C17.5512 9.26947 17.6834 9.24045 17.8447 9.24045ZM14.9903 24.9444C13.6228 24.9444 12.3359 24.6831 11.1296 24.1606C9.92335 23.6446 8.85901 22.9253 7.93658 22.0029C7.0206 21.0805 6.30136 20.0161 5.77886 18.8099C5.25637 17.6036 4.99512 16.3167 4.99512 14.9492C4.99512 13.5817 5.25637 12.2948 5.77886 11.0885C6.30136 9.88228 7.0206 8.82116 7.93658 7.90518C8.85901 6.98275 9.92013 6.26028 11.1199 5.73779C12.3262 5.21529 13.6131 4.95404 14.9806 4.95404C16.3546 4.95404 17.6447 5.21529 18.8509 5.73779C20.0572 6.26028 21.1215 6.98275 22.044 7.90518C22.9664 8.82116 23.6889 9.88228 24.2114 11.0885C24.7339 12.2948 24.9951 13.5817 24.9951 14.9492C24.9951 16.3167 24.7339 17.6036 24.2114 18.8099C23.6889 20.0161 22.9664 21.0805 22.044 22.0029C21.1215 22.9253 20.0572 23.6446 18.8509 24.1606C17.6447 24.6831 16.3578 24.9444 14.9903 24.9444ZM14.9903 23.3962C16.1449 23.3962 17.2319 23.1737 18.251 22.7286C19.2702 22.29 20.1669 21.6836 20.9409 20.9095C21.7215 20.129 22.331 19.2292 22.7697 18.21C23.2148 17.1908 23.4373 16.1039 23.4373 14.9492C23.4373 13.7945 23.2148 12.7076 22.7697 11.6884C22.331 10.6692 21.7215 9.77262 20.9409 8.99855C20.1604 8.22448 19.2606 7.61813 18.2414 7.17949C17.2222 6.7344 16.1353 6.51185 14.9806 6.51185C13.8324 6.51185 12.7487 6.7344 11.7295 7.17949C10.7103 7.61813 9.81369 8.22448 9.03963 8.99855C8.26556 9.77262 7.65598 10.6692 7.21089 11.6884C6.77225 12.7076 6.55293 13.7945 6.55293 14.9492C6.55293 16.1039 6.77225 17.1908 7.21089 18.21C7.65598 19.2292 8.26556 20.129 9.03963 20.9095C9.81369 21.6836 10.7103 22.29 11.7295 22.7286C12.7487 23.1737 13.8356 23.3962 14.9903 23.3962Z" fill="white"/>
</svg>
