<svg width="30" height="30" viewBox="0 0 30 30" fill="none" xmlns="http://www.w3.org/2000/svg">
<rect width="30" height="30" rx="7" fill="#8E8E93"/>
<path fill-rule="evenodd" clip-rule="evenodd" d="M10.5 13C12.433 13 14 11.433 14 9.5C14 7.567 12.433 6 10.5 6C8.567 6 7 7.567 7 9.5C7 11.433 8.567 13 10.5 13ZM24 14.5C24 16.433 22.433 18 20.5 18C18.567 18 17 16.433 17 14.5C17 12.567 18.567 11 20.5 11C22.433 11 24 12.567 24 14.5ZM14 20.5C14 22.433 12.433 24 10.5 24C8.567 24 7 22.433 7 20.5C7 18.567 8.567 17 10.5 17C12.433 17 14 18.567 14 20.5Z" fill="white"/>
</svg>
