<svg width="30" height="30" viewBox="0 0 30 30" fill="none" xmlns="http://www.w3.org/2000/svg">
    <g clip-path="url(#clip0_1070_3210)">
        <path d="M0 11.2C0 7.27963 0 5.31945 0.762954 3.82207C1.43407 2.50493 2.50493 1.43407 3.82207 0.762954C5.31945 0 7.27963 0 11.2 0H18.8C22.7204 0 24.6805 0 26.1779 0.762954C27.4951 1.43407 28.5659 2.50493 29.237 3.82207C30 5.31945 30 7.27963 30 11.2V18.8C30 22.7204 30 24.6805 29.237 26.1779C28.5659 27.4951 27.4951 28.5659 26.1779 29.237C24.6805 30 22.7204 30 18.8 30H11.2C7.27963 30 5.31945 30 3.82207 29.237C2.50493 28.5659 1.43407 27.4951 0.762954 26.1779C0 24.6805 0 22.7204 0 18.8V11.2Z" fill="#007AFF"/>
        <path d="M13.672 14.4676C13.9701 15.0518 13.7382 15.767 13.154 16.0651C12.5698 16.3632 11.8546 16.1312 11.5565 15.547C10.6283 13.7279 10.9635 11.4962 12.43 10.0297L14.9491 7.51063C16.8041 5.65564 19.8116 5.65564 21.6666 7.51063C23.5216 9.36562 23.5216 12.3732 21.6666 14.2281C21.2029 14.6919 20.451 14.6919 19.9872 14.2281C19.5235 13.7644 19.5235 13.0125 19.9872 12.5488C20.9147 11.6213 20.9147 10.1175 19.9872 9.19001C19.0597 8.26251 17.556 8.26251 16.6285 9.19001L14.1094 11.7091C13.3761 12.4424 13.2084 13.5589 13.672 14.4676ZM15.5086 14.7062C15.2105 14.122 15.4425 13.4068 16.0267 13.1087C16.6108 12.8106 17.3261 13.0426 17.6241 13.6268C18.5523 15.446 18.2171 17.6777 16.7506 19.1441L14.2315 21.6632C12.3766 23.5182 9.36902 23.5182 7.51403 21.6632C5.65904 19.8082 5.65904 16.8007 7.51403 14.9457C7.97778 14.4819 8.72966 14.4819 9.19341 14.9457C9.65716 15.4094 9.65716 16.1613 9.19341 16.6251C8.26591 17.5526 8.26591 19.0563 9.19341 19.9838C10.1209 20.9113 11.6247 20.9113 12.5522 19.9838L15.0712 17.4648C15.8045 16.7315 15.9723 15.6149 15.5086 14.7062Z" fill="white"/>
    </g>
    <defs>
        <clipPath id="clip0_1070_3210">
            <rect width="30" height="30" fill="white"/>
        </clipPath>
    </defs>
</svg>
