<svg width="30" height="30" viewBox="0 0 30 30" fill="none" xmlns="http://www.w3.org/2000/svg">
<rect width="30" height="30" rx="7" fill="#FF3B30"/>
<path d="M17.0462 6.12148C16.6038 5.42778 15.8345 5 15.0002 5C14.0809 5 13.2405 5.51939 12.8294 6.34164L12.692 6.61641C12.5698 6.86083 12.3506 7.04272 12.0878 7.11775L11.6096 7.25429C10.0331 7.70445 8.89084 9.07112 8.7277 10.7025L8.17554 16.224C8.0607 17.3725 7.55204 18.4459 6.73589 19.2621L6.70505 19.2929C6.07509 19.9229 6.52126 21 7.41216 21H22.5837C23.4746 21 23.9208 19.9229 23.2908 19.2929L23.26 19.2621C22.4439 18.4459 21.9352 17.3725 21.8204 16.224L21.6179 14.1995C21.2585 14.2848 20.8835 14.33 20.4979 14.33C17.8304 14.33 15.6679 12.1675 15.6679 9.5C15.6679 8.18485 16.1936 6.99247 17.0462 6.12148Z" fill="white"/>
<path d="M17.9292 7.12266C17.3512 7.74688 16.9979 8.58219 16.9979 9.5C16.9979 11.433 18.5649 13 20.4979 13C20.5193 13 20.5407 12.9998 20.562 12.9994C20.8816 12.9937 21.1907 12.9451 21.4839 12.8592C22.9368 12.4335 23.9979 11.0906 23.9979 9.5C23.9979 7.567 22.4309 6 20.4979 6C19.4828 6 18.5685 6.43221 17.9292 7.12266Z" fill="white"/>
<path d="M15.0002 24.5C16.3809 24.5 17.5002 23.3807 17.5002 22H12.5002C12.5002 23.3807 13.6194 24.5 15.0002 24.5Z" fill="white"/>
</svg>
