<svg width="30" height="30" viewBox="0 0 30 30" fill="none" xmlns="http://www.w3.org/2000/svg">
<rect width="30" height="30" rx="7" fill="#007AFF"/>
<path fill-rule="evenodd" clip-rule="evenodd" d="M5 11C5 9.59987 5 8.8998 5.27248 8.36502C5.51217 7.89462 5.89462 7.51217 6.36502 7.27248C6.8998 7 7.59987 7 9 7H21C22.4001 7 23.1002 7 23.635 7.27248C24.1054 7.51217 24.4878 7.89462 24.7275 8.36502C25 8.8998 25 9.59987 25 11V19C25 20.4001 25 21.1002 24.7275 21.635C24.4878 22.1054 24.1054 22.4878 23.635 22.7275C23.1002 23 22.4001 23 21 23H9C7.59987 23 6.8998 23 6.36502 22.7275C5.89462 22.4878 5.51217 22.1054 5.27248 21.635C5 21.1002 5 20.4001 5 19V11ZM16.335 11.6699C16.335 11.3027 16.6327 11.0049 17 11.0049H22C22.3673 11.0049 22.665 11.3027 22.665 11.6699C22.665 12.0372 22.3673 12.3349 22 12.3349H17C16.6327 12.3349 16.335 12.0372 16.335 11.6699ZM17 14.335C16.6327 14.335 16.335 14.6327 16.335 15C16.335 15.3673 16.6327 15.665 17 15.665H22C22.3673 15.665 22.665 15.3673 22.665 15C22.665 14.6327 22.3673 14.335 22 14.335H17ZM16.335 18.3301C16.335 17.9628 16.6327 17.6651 17 17.6651H22C22.3673 17.6651 22.665 17.9628 22.665 18.3301C22.665 18.6973 22.3673 18.9951 22 18.9951H17C16.6327 18.9951 16.335 18.6973 16.335 18.3301ZM13.1055 13C13.1055 14.1046 12.322 15 11.3555 15C10.389 15 9.60547 14.1046 9.60547 13C9.60547 11.8954 10.389 11 11.3555 11C12.322 11 13.1055 11.8954 13.1055 13ZM14.2883 19H8.42224C8.11753 19 7.96518 19 7.79608 18.8858C7.67942 18.807 7.53975 18.5941 7.5139 18.4557C7.47643 18.2552 7.51785 18.1597 7.60069 17.9688C7.97729 17.1008 8.93255 16 11.3556 16C13.7789 16 14.7337 17.101 15.11 17.969C15.1927 18.1599 15.2341 18.2554 15.1966 18.4559C15.1707 18.5943 15.031 18.8071 14.9143 18.8858C14.7453 19 14.5929 19 14.2883 19Z" fill="white"/>
</svg>
