<svg width="30" height="30" viewBox="0 0 30 30" fill="none" xmlns="http://www.w3.org/2000/svg">
<rect width="30" height="30" rx="7" fill="#8E8E93"/>
<path fill-rule="evenodd" clip-rule="evenodd" d="M25.5 11.5C25.5 15.0899 22.5899 18 19 18C18.1141 18 17.2696 17.8228 16.5 17.5018V20.2C16.5 20.48 16.5 20.62 16.4455 20.727C16.3976 20.8211 16.3211 20.8976 16.227 20.9455C16.12 21 15.98 21 15.7 21H12.3C12.02 21 11.88 21 11.773 21.0545C11.6789 21.1024 11.6024 21.1789 11.5545 21.273C11.5 21.38 11.5 21.52 11.5 21.8V23.7C11.5 23.98 11.5 24.12 11.4455 24.227C11.3976 24.3211 11.3211 24.3976 11.227 24.4455C11.12 24.5 10.98 24.5 10.7 24.5H6.3C6.01997 24.5 5.87996 24.5 5.773 24.4455C5.67892 24.3976 5.60243 24.3211 5.5545 24.227C5.5 24.12 5.5 23.98 5.5 23.7V22.784C5.5 22.3097 5.5 22.0726 5.55219 21.8486C5.59847 21.65 5.67485 21.4597 5.77867 21.2842C5.89576 21.0862 6.05969 20.9149 6.38753 20.5721L6.38755 20.5721L12.9036 13.7599C12.6426 13.056 12.5 12.2947 12.5 11.5C12.5 7.91015 15.4101 5 19 5C22.5899 5 25.5 7.91015 25.5 11.5ZM20.5 12C21.6046 12 22.5 11.1046 22.5 10C22.5 8.89543 21.6046 8 20.5 8C19.3954 8 18.5 8.89543 18.5 10C18.5 11.1046 19.3954 12 20.5 12Z" fill="white"/>
</svg>
