<svg width="30" height="30" viewBox="0 0 30 30" fill="none" xmlns="http://www.w3.org/2000/svg">
<rect width="30" height="30" rx="7" fill="#007AFF"/>
<path d="M5.00552 11C5.02026 10.2304 5.0743 9.75399 5.27248 9.36502C5.51217 8.89462 5.89462 8.51217 6.36502 8.27248C6.8998 8 7.59987 8 9 8H21C22.4001 8 23.1002 8 23.635 8.27248C24.1054 8.51217 24.4878 8.89462 24.7275 9.36502C24.9257 9.75399 24.9797 10.2304 24.9945 11H5.00552Z" fill="white"/>
<path fill-rule="evenodd" clip-rule="evenodd" d="M5 13H25V18C25 19.4001 25 20.1002 24.7275 20.635C24.4878 21.1054 24.1054 21.4878 23.635 21.7275C23.1002 22 22.4001 22 21 22H9C7.59987 22 6.8998 22 6.36502 21.7275C5.89462 21.4878 5.51217 21.1054 5.27248 20.635C5 20.1002 5 19.4001 5 18V13ZM7.07612 17.6173C7 17.8011 7 18.0341 7 18.5C7 18.9659 7 19.1989 7.07612 19.3827C7.17761 19.6277 7.37229 19.8224 7.61732 19.9239C7.80109 20 8.03406 20 8.5 20H9.5C9.96594 20 10.1989 20 10.3827 19.9239C10.6277 19.8224 10.8224 19.6277 10.9239 19.3827C11 19.1989 11 18.9659 11 18.5C11 18.0341 11 17.8011 10.9239 17.6173C10.8224 17.3723 10.6277 17.1776 10.3827 17.0761C10.1989 17 9.96594 17 9.5 17H8.5C8.03406 17 7.80109 17 7.61732 17.0761C7.37229 17.1776 7.17761 17.3723 7.07612 17.6173Z" fill="white"/>
</svg>
