<svg width="30" height="30" viewBox="0 0 30 30" fill="none" xmlns="http://www.w3.org/2000/svg">
<rect width="30" height="30" rx="7" fill="#007AFF"/>
<path d="M6.04834 18.6431C5.50342 18.6431 5.13428 18.2651 5.13428 17.7466C5.13428 17.6851 5.14307 17.6147 5.16064 17.5444L5.42432 16.0679L4.23779 17.0522C4.05322 17.2104 3.82471 17.2983 3.60498 17.2983C3.13916 17.2983 2.73486 16.894 2.73486 16.3931C2.73486 16.0151 2.98096 15.6899 3.37646 15.5405L4.82666 15.0044L3.36768 14.4595C2.96338 14.3101 2.72607 14.0024 2.72607 13.6245C2.72607 13.1323 3.13916 12.7192 3.60498 12.7192C3.84229 12.7192 4.06201 12.8159 4.23779 12.9741L5.43311 13.9849L5.16064 12.4556C5.15186 12.3853 5.14307 12.3325 5.14307 12.2622C5.14307 11.7524 5.51221 11.3569 6.04834 11.3569C6.56689 11.3569 6.91846 11.7349 6.91846 12.2446C6.91846 12.3149 6.90967 12.3853 6.90088 12.4556L6.62842 13.9849L7.83252 12.9829C8.01709 12.8159 8.23682 12.7192 8.47412 12.7192C8.93994 12.7192 9.34424 13.1235 9.34424 13.6245C9.34424 14.0024 9.10693 14.3276 8.70264 14.4595L7.23486 15.0044L8.70264 15.5493C9.10693 15.6899 9.34424 16.0151 9.34424 16.3931C9.34424 16.894 8.93994 17.3071 8.47412 17.3071C8.23682 17.3071 8.01709 17.2104 7.83252 17.0522L6.65479 16.0679L6.90967 17.5444C6.92725 17.6147 6.92725 17.6851 6.92725 17.7466C6.93604 18.2651 6.57568 18.6431 6.04834 18.6431Z" fill="white"/>
<path d="M15.0132 18.6431C14.4683 18.6431 14.0991 18.2651 14.0991 17.7466C14.0991 17.6851 14.1079 17.6147 14.1255 17.5444L14.3892 16.0679L13.2026 17.0522C13.0181 17.2104 12.7896 17.2983 12.5698 17.2983C12.104 17.2983 11.6997 16.894 11.6997 16.3931C11.6997 16.0151 11.9458 15.6899 12.3413 15.5405L13.7915 15.0044L12.3325 14.4595C11.9282 14.3101 11.6909 14.0024 11.6909 13.6245C11.6909 13.1323 12.104 12.7192 12.5698 12.7192C12.8071 12.7192 13.0269 12.8159 13.2026 12.9741L14.3979 13.9849L14.1255 12.4556C14.1167 12.3853 14.1079 12.3325 14.1079 12.2622C14.1079 11.7524 14.4771 11.3569 15.0132 11.3569C15.5317 11.3569 15.8833 11.7349 15.8833 12.2446C15.8833 12.3149 15.8745 12.3853 15.8657 12.4556L15.5933 13.9849L16.7974 12.9829C16.9819 12.8159 17.2017 12.7192 17.439 12.7192C17.9048 12.7192 18.3091 13.1235 18.3091 13.6245C18.3091 14.0024 18.0718 14.3276 17.6675 14.4595L16.1997 15.0044L17.6675 15.5493C18.0718 15.6899 18.3091 16.0151 18.3091 16.3931C18.3091 16.894 17.9048 17.3071 17.439 17.3071C17.2017 17.3071 16.9819 17.2104 16.7974 17.0522L15.6196 16.0679L15.8745 17.5444C15.8921 17.6147 15.8921 17.6851 15.8921 17.7466C15.9009 18.2651 15.5405 18.6431 15.0132 18.6431Z" fill="white"/>
<path d="M23.978 18.6431C23.4331 18.6431 23.064 18.2651 23.064 17.7466C23.064 17.6851 23.0728 17.6147 23.0903 17.5444L23.354 16.0679L22.1675 17.0522C21.9829 17.2104 21.7544 17.2983 21.5347 17.2983C21.0688 17.2983 20.6646 16.894 20.6646 16.3931C20.6646 16.0151 20.9106 15.6899 21.3062 15.5405L22.7563 15.0044L21.2974 14.4595C20.8931 14.3101 20.6558 14.0024 20.6558 13.6245C20.6558 13.1323 21.0688 12.7192 21.5347 12.7192C21.772 12.7192 21.9917 12.8159 22.1675 12.9741L23.3628 13.9849L23.0903 12.4556C23.0815 12.3853 23.0728 12.3325 23.0728 12.2622C23.0728 11.7524 23.4419 11.3569 23.978 11.3569C24.4966 11.3569 24.8481 11.7349 24.8481 12.2446C24.8481 12.3149 24.8394 12.3853 24.8306 12.4556L24.5581 13.9849L25.7622 12.9829C25.9468 12.8159 26.1665 12.7192 26.4038 12.7192C26.8696 12.7192 27.2739 13.1235 27.2739 13.6245C27.2739 14.0024 27.0366 14.3276 26.6323 14.4595L25.1646 15.0044L26.6323 15.5493C27.0366 15.6899 27.2739 16.0151 27.2739 16.3931C27.2739 16.894 26.8696 17.3071 26.4038 17.3071C26.1665 17.3071 25.9468 17.2104 25.7622 17.0522L24.5845 16.0679L24.8394 17.5444C24.8569 17.6147 24.8569 17.6851 24.8569 17.7466C24.8657 18.2651 24.5054 18.6431 23.978 18.6431Z" fill="white"/>
</svg>
