<svg width="30" height="30" viewBox="0 0 30 30" fill="none" xmlns="http://www.w3.org/2000/svg">
<rect width="30" height="30" rx="7" fill="url(#paint0_linear_2960_89)"/>
<path fill-rule="evenodd" clip-rule="evenodd" d="M11.4468 10.5554L13.9724 5.62638C14.2637 5.05775 14.9681 4.8293 15.5457 5.11613C15.7725 5.22873 15.956 5.41084 16.0684 5.63501L18.4536 10.3884C18.6484 10.7768 19.0293 11.0419 19.4662 11.0933L24.4608 11.6804C25.1389 11.7602 25.6229 12.3659 25.5419 13.0334C25.5086 13.3083 25.381 13.5639 25.1803 13.7578L21.2325 17.5724C21.0732 17.7264 20.9959 17.9448 21.0237 18.163L21.6797 23.3129C21.7736 24.0501 21.2427 24.7227 20.4938 24.8152C20.21 24.8502 19.9221 24.7967 19.6709 24.6622L15.5 22.4293C15.1983 22.2678 14.835 22.2632 14.5291 22.417L10.2077 24.5892C9.5995 24.8949 8.85473 24.6574 8.54421 24.0587C8.42804 23.8347 8.38522 23.5807 8.42158 23.3317L8.76692 20.969C8.93591 19.8133 9.6655 18.8109 10.7227 18.2819L15.5223 15.88C15.6504 15.8159 15.7015 15.6616 15.6364 15.5354C15.5859 15.4377 15.4778 15.3824 15.3676 15.3978L9.49769 16.2218C8.60039 16.3477 7.69036 16.0995 6.98686 15.5369L5.03172 13.9734C4.47379 13.5272 4.38891 12.7202 4.84213 12.171C5.05289 11.9155 5.35541 11.7497 5.68696 11.7079L10.6993 11.0758C11.0208 11.0352 11.3008 10.8402 11.4468 10.5554Z" fill="white"/>
<defs>
<linearGradient id="paint0_linear_2960_89" x1="30" y1="0" x2="0" y2="30" gradientUnits="userSpaceOnUse">
<stop stop-color="#DB6202"/>
<stop offset="1" stop-color="#FCB704"/>
</linearGradient>
</defs>
</svg>
