<svg width="30" height="30" viewBox="0 0 30 30" fill="none" xmlns="http://www.w3.org/2000/svg">
<rect width="30" height="30" rx="7" fill="#AF52DE"/>
<path fill-rule="evenodd" clip-rule="evenodd" d="M9.5 13.5C11.433 13.5 13 11.933 13 10C13 8.067 11.433 6.5 9.5 6.5C7.567 6.5 6 8.067 6 10C6 11.933 7.567 13.5 9.5 13.5ZM11.4132 9.03155C11.5687 8.80335 11.5098 8.4923 11.2816 8.33681C11.0534 8.18131 10.7423 8.24025 10.5868 8.46845L9.05253 10.7201L8.38174 9.9271C8.2034 9.71627 7.88792 9.68993 7.67709 9.86827C7.46626 10.0466 7.43992 10.3621 7.61826 10.5729L8.71371 11.868C8.8146 11.9872 8.96543 12.0525 9.12143 12.0444C9.27743 12.0362 9.42068 11.9557 9.50864 11.8266L11.4132 9.03155Z" fill="white"/>
<path d="M14.835 10C14.835 9.63273 15.1327 9.335 15.5 9.335H23.5C23.8673 9.335 24.165 9.63273 24.165 10C24.165 10.3673 23.8673 10.665 23.5 10.665H15.5C15.1327 10.665 14.835 10.3673 14.835 10Z" fill="white"/>
<path fill-rule="evenodd" clip-rule="evenodd" d="M9.5 23.5C11.433 23.5 13 21.933 13 20C13 18.067 11.433 16.5 9.5 16.5C7.567 16.5 6 18.067 6 20C6 21.933 7.567 23.5 9.5 23.5ZM9.5 22.17C10.6985 22.17 11.67 21.1985 11.67 20C11.67 18.8015 10.6985 17.83 9.5 17.83C8.30154 17.83 7.33 18.8015 7.33 20C7.33 21.1985 8.30154 22.17 9.5 22.17Z" fill="white"/>
<path d="M14.835 20C14.835 19.6327 15.1327 19.335 15.5 19.335H23.5C23.8673 19.335 24.165 19.6327 24.165 20C24.165 20.3673 23.8673 20.665 23.5 20.665H15.5C15.1327 20.665 14.835 20.3673 14.835 20Z" fill="white"/>
</svg>
