<svg width="30" height="30" viewBox="0 0 30 30" fill="none" xmlns="http://www.w3.org/2000/svg">
<rect width="30" height="30" rx="7" fill="#FF2D55"/>
<path d="M6.45304 18.3184C6.28312 18.3711 6.11906 18.3564 5.96085 18.2744C5.80851 18.1924 5.70304 18.0576 5.64445 17.8701C5.47452 17.2432 5.36027 16.6514 5.30167 16.0947C5.24894 15.5381 5.24015 15.002 5.27531 14.4863C5.29288 14.2871 5.36613 14.1318 5.49503 14.0205C5.62394 13.9092 5.788 13.8652 5.98722 13.8887C6.14542 13.9062 6.27433 13.9736 6.37394 14.0908C6.47941 14.208 6.52921 14.3574 6.52335 14.5391C6.51163 15.1543 6.53214 15.6904 6.58488 16.1475C6.64347 16.5986 6.73136 17.0557 6.84855 17.5186C6.88956 17.7002 6.87198 17.8672 6.79581 18.0195C6.7255 18.166 6.61124 18.2656 6.45304 18.3184ZM6.02238 12.834C5.85245 12.7695 5.72941 12.6465 5.65323 12.4648C5.58292 12.2773 5.59464 12.0635 5.68839 11.8232C6.09269 10.7568 6.61417 9.81641 7.25284 9.00195C7.89152 8.18164 8.62394 7.49316 9.45011 6.93652C10.2763 6.37402 11.1728 5.95215 12.1396 5.6709C13.1122 5.38379 14.1347 5.24023 15.2069 5.24023C16.0566 5.24023 16.8359 5.32227 17.5448 5.48633C18.2538 5.64453 18.954 5.93457 19.6454 6.35645C19.8095 6.45605 19.9237 6.57617 19.9882 6.7168C20.0526 6.85742 20.0439 7.00977 19.9618 7.17383C19.8798 7.35547 19.748 7.45508 19.5663 7.47266C19.3905 7.48438 19.2001 7.4375 18.995 7.33203C18.4618 7.0625 17.8905 6.85449 17.2812 6.70801C16.6718 6.56152 15.9804 6.48828 15.2069 6.48828C13.9999 6.48828 12.8485 6.71973 11.7528 7.18262C10.663 7.64551 9.6962 8.31641 8.85245 9.19531C8.01456 10.0742 7.36124 11.1465 6.89249 12.4121C6.82218 12.5996 6.70499 12.7344 6.54093 12.8164C6.37687 12.8926 6.20402 12.8984 6.02238 12.834ZM24.8222 16.2441C24.6523 16.2441 24.5116 16.1855 24.4003 16.0684C24.289 15.9453 24.2216 15.79 24.1982 15.6025C24.0575 14.0498 23.706 12.7227 23.1435 11.6211C22.5868 10.5195 21.8515 9.52637 20.9374 8.6416C20.7909 8.50098 20.7089 8.34863 20.6913 8.18457C20.6796 8.01465 20.7323 7.86816 20.8495 7.74512C20.955 7.62207 21.0927 7.55176 21.2626 7.53418C21.4384 7.5166 21.5995 7.5752 21.746 7.70996C22.4374 8.34863 23.0351 9.04004 23.539 9.78418C24.0429 10.5225 24.4501 11.3633 24.7607 12.3066C25.0712 13.2441 25.2851 14.3311 25.4023 15.5674C25.4198 15.7549 25.373 15.916 25.2616 16.0508C25.1503 16.1797 25.0038 16.2441 24.8222 16.2441ZM7.3671 20.8936C7.27921 20.7646 7.24698 20.6211 7.27042 20.4629C7.29386 20.2988 7.37003 20.1523 7.49894 20.0234C7.68644 19.8477 7.83292 19.6309 7.93839 19.373C8.04972 19.1152 8.10538 18.834 8.10538 18.5293C8.09952 18.2246 8.04972 17.9053 7.95597 17.5713C7.86222 17.2373 7.76847 16.874 7.67472 16.4814C7.58097 16.083 7.53409 15.6377 7.53409 15.1455C7.53409 14.0967 7.73331 13.1123 8.13175 12.1924C8.53019 11.2666 9.08097 10.4551 9.78409 9.75781C10.4872 9.05469 11.2987 8.50391 12.2187 8.10547C13.1444 7.70117 14.1318 7.49902 15.1806 7.49902C16.411 7.49902 17.5243 7.7334 18.5204 8.20215C19.5224 8.6709 20.3808 9.33887 21.0956 10.2061C21.8105 11.0674 22.3612 12.0986 22.748 13.2998C23.1347 14.4951 23.328 15.8252 23.328 17.29C23.328 18.4092 23.2431 19.3643 23.0732 20.1553C22.9091 20.9404 22.7421 21.5586 22.5722 22.0098C22.5077 22.1855 22.3847 22.3027 22.203 22.3613C22.0273 22.4258 21.8603 22.4199 21.7021 22.3438C21.5556 22.2734 21.453 22.1562 21.3944 21.9922C21.3417 21.8281 21.3505 21.6641 21.4208 21.5C21.579 21.125 21.7284 20.5889 21.8691 19.8916C22.0097 19.1885 22.08 18.3242 22.08 17.2988C22.0741 15.5938 21.787 14.0996 21.2187 12.8164C20.6503 11.5273 19.8476 10.5283 18.8105 9.81934C17.7792 9.10449 16.5693 8.74707 15.1806 8.74707C14.3017 8.74707 13.4755 8.91406 12.7021 9.24805C11.9286 9.58203 11.2489 10.0449 10.663 10.6367C10.0771 11.2227 9.6171 11.9023 9.28312 12.6758C8.94913 13.4434 8.78214 14.2666 8.78214 15.1455C8.78214 15.6436 8.82609 16.0684 8.91398 16.4199C9.00187 16.7656 9.08976 17.1025 9.17765 17.4307C9.2714 17.7529 9.31827 18.1221 9.31827 18.5381C9.31827 19.0303 9.23038 19.4932 9.0546 19.9268C8.88468 20.3604 8.63566 20.7178 8.30753 20.999C8.15519 21.1221 7.9882 21.1748 7.80656 21.1572C7.62491 21.1338 7.47843 21.0459 7.3671 20.8936ZM9.65226 22.6074C9.46476 22.707 9.28605 22.7305 9.11613 22.6777C8.95206 22.625 8.83488 22.5195 8.76456 22.3613C8.70597 22.2207 8.70011 22.0742 8.74698 21.9219C8.79972 21.7695 8.91398 21.6318 9.08976 21.5088C9.40031 21.292 9.65519 21.0459 9.85441 20.7705C10.0595 20.4951 10.2235 20.1758 10.3466 19.8125C10.4052 19.6367 10.5077 19.5078 10.6542 19.4258C10.8066 19.3438 10.9618 19.3291 11.12 19.3818C11.2841 19.4404 11.4013 19.5488 11.4716 19.707C11.5478 19.8652 11.5595 20.0234 11.5068 20.1816C11.4189 20.4863 11.2724 20.8027 11.0673 21.1309C10.8681 21.459 10.6425 21.7549 10.3905 22.0186C10.1386 22.2881 9.89249 22.4844 9.65226 22.6074ZM11.5859 17.4307C11.6444 17.6123 11.6444 17.7852 11.5859 17.9492C11.5273 18.1074 11.4159 18.2188 11.2519 18.2832C11.0585 18.3594 10.8798 18.3623 10.7157 18.292C10.5517 18.2217 10.4345 18.0928 10.3642 17.9053C10.2235 17.5479 10.0917 17.1377 9.96866 16.6748C9.85148 16.2061 9.79288 15.7051 9.79288 15.1719C9.79288 14.4219 9.93351 13.7217 10.2148 13.0713C10.496 12.415 10.8827 11.8408 11.3749 11.3486C11.873 10.8506 12.4472 10.4609 13.0976 10.1797C13.7538 9.89844 14.4569 9.75781 15.2069 9.75781C15.6698 9.75781 16.1034 9.81055 16.5077 9.91602C16.912 10.0156 17.2665 10.1562 17.5712 10.3379C17.7528 10.4375 17.8671 10.5723 17.914 10.7422C17.9609 10.9121 17.9433 11.0762 17.8612 11.2344C17.7968 11.3633 17.6913 11.4482 17.5448 11.4893C17.4042 11.5303 17.2519 11.5127 17.0878 11.4365C16.8417 11.3252 16.6308 11.2402 16.455 11.1816C16.2851 11.1172 16.1064 11.0732 15.9189 11.0498C15.7314 11.0264 15.4941 11.0146 15.2069 11.0146C14.4335 11.0146 13.7333 11.2021 13.1064 11.5771C12.4794 11.9463 11.9784 12.4443 11.6034 13.0713C11.2343 13.6982 11.0497 14.3984 11.0497 15.1719C11.0497 15.6465 11.1112 16.0684 11.2343 16.4375C11.3573 16.8008 11.4745 17.1318 11.5859 17.4307ZM18.6083 12.7461C18.497 12.5645 18.456 12.3828 18.4853 12.2012C18.5204 12.0137 18.623 11.876 18.7929 11.7881C18.9452 11.7061 19.1064 11.6914 19.2763 11.7441C19.4521 11.7969 19.5927 11.9082 19.6982 12.0781C19.9501 12.5176 20.1786 12.9922 20.3837 13.502C20.5946 14.0059 20.7616 14.5977 20.8847 15.2773C21.0077 15.957 21.0693 16.7715 21.0693 17.7207C21.0693 18.9688 20.8993 20.1641 20.5595 21.3066C20.2255 22.4434 19.7773 23.3926 19.2148 24.1543C19.1034 24.3008 18.954 24.3799 18.7665 24.3916C18.579 24.4092 18.415 24.3535 18.2743 24.2246C18.1571 24.1133 18.0985 23.9727 18.0985 23.8027C18.0985 23.6387 18.1484 23.4893 18.248 23.3545C18.7343 22.7568 19.121 21.957 19.4081 20.9551C19.6952 19.9531 19.8388 18.8867 19.8388 17.7559C19.8388 16.7012 19.7333 15.7607 19.5224 14.9346C19.3173 14.1025 19.0126 13.373 18.6083 12.7461ZM11.5595 23.7939C11.4189 23.917 11.2577 23.9697 11.0761 23.9521C10.8944 23.9404 10.748 23.8525 10.6366 23.6885C10.5429 23.5479 10.5077 23.3984 10.5312 23.2402C10.5605 23.082 10.6454 22.9414 10.786 22.8184C11.3896 22.332 11.8495 21.7139 12.1659 20.9639C12.4882 20.2139 12.6464 19.3965 12.6405 18.5117C12.6347 18.0957 12.5849 17.6826 12.4911 17.2725C12.4032 16.8623 12.3124 16.4639 12.2187 16.0771C12.1308 15.6846 12.0868 15.3125 12.0868 14.9609C12.0868 14.3809 12.2216 13.874 12.4911 13.4404C12.7607 13.001 13.1298 12.6582 13.5985 12.4121C14.0673 12.1602 14.5976 12.0342 15.1894 12.0342C16.0097 12.0342 16.6776 12.2656 17.1933 12.7285C17.7089 13.1855 18.0868 13.8301 18.3271 14.6621C18.5732 15.4941 18.6962 16.4697 18.6962 17.5889C18.7021 18.5967 18.5907 19.5752 18.3622 20.5244C18.1337 21.4736 17.8202 22.3262 17.4218 23.082C17.0234 23.8438 16.578 24.4502 16.0859 24.9014C15.9394 25.0361 15.7724 25.0918 15.5849 25.0684C15.4032 25.0449 15.2597 24.957 15.1542 24.8047C15.0663 24.6699 15.0341 24.5234 15.0575 24.3652C15.0868 24.207 15.1659 24.0723 15.2948 23.9609C15.7519 23.5684 16.1532 23.0498 16.4989 22.4053C16.8446 21.7666 17.1083 21.043 17.29 20.2344C17.4775 19.4258 17.5566 18.5732 17.5273 17.6768C17.5038 16.7979 17.4101 16.0303 17.246 15.374C17.0819 14.7119 16.8329 14.1992 16.4989 13.8359C16.165 13.4668 15.7284 13.2822 15.1894 13.2822C14.6269 13.2822 14.1728 13.4434 13.8271 13.7656C13.4872 14.0879 13.3173 14.5215 13.3173 15.0664C13.3173 15.3477 13.3642 15.6523 13.4579 15.9805C13.5517 16.3027 13.6454 16.6689 13.7392 17.0791C13.8388 17.4893 13.8915 17.9668 13.8974 18.5117C13.9032 19.5781 13.7011 20.5742 13.2909 21.5C12.8866 22.4258 12.3095 23.1904 11.5595 23.7939ZM13.6952 24.5234C13.5429 24.6348 13.373 24.6758 13.1855 24.6465C13.0038 24.623 12.8691 24.5381 12.7812 24.3916C12.6874 24.251 12.6552 24.0986 12.6845 23.9346C12.7138 23.7705 12.7987 23.6299 12.9394 23.5127C13.2441 23.2666 13.5194 22.9736 13.7655 22.6338C14.0116 22.2939 14.2314 21.8838 14.4247 21.4033C14.495 21.2334 14.6005 21.1104 14.7411 21.0342C14.8876 20.9521 15.0546 20.9434 15.2421 21.0078C15.412 21.0605 15.5234 21.1719 15.5761 21.3418C15.6347 21.5059 15.6347 21.667 15.5761 21.8252C15.3827 22.3818 15.1103 22.9033 14.7587 23.3896C14.4071 23.8818 14.0526 24.2598 13.6952 24.5234ZM16.1825 19.4434C16.1474 19.6367 16.0566 19.7832 15.9101 19.8828C15.7694 19.9824 15.6083 20.0176 15.4267 19.9883C15.245 19.959 15.1132 19.874 15.0312 19.7334C14.9491 19.5928 14.9228 19.4375 14.9521 19.2676C15.0165 18.8809 15.0487 18.4912 15.0487 18.0986C15.0546 17.7061 15.0282 17.3047 14.9696 16.8945C14.911 16.4785 14.8144 16.0508 14.6796 15.6113C14.6269 15.4297 14.6386 15.2686 14.7148 15.1279C14.7968 14.9814 14.9198 14.8818 15.0839 14.8291C15.2538 14.7764 15.412 14.791 15.5585 14.873C15.7109 14.9551 15.8193 15.0957 15.8837 15.2949C16.0302 15.752 16.1357 16.2207 16.2001 16.7012C16.2704 17.1758 16.3026 17.6475 16.2968 18.1162C16.2968 18.5791 16.2587 19.0215 16.1825 19.4434Z" fill="white"/>
</svg>
