<svg width="30" height="30" viewBox="0 0 30 30" fill="none" xmlns="http://www.w3.org/2000/svg">
<rect width="30" height="30" rx="7" fill="#30B0C7"/>
<path d="M12.5659 6.06588C12.8783 5.75346 12.8783 5.24693 12.5659 4.93451C12.2535 4.62209 11.7469 4.62209 11.4345 4.93451L6.93451 9.43451C6.62209 9.74693 6.62209 10.2535 6.93451 10.5659L11.4345 15.0659C11.7469 15.3783 12.2535 15.3783 12.5659 15.0659C12.8783 14.7535 12.8783 14.2469 12.5659 13.9345L9.43157 10.8002H21.5002C21.942 10.8002 22.3002 10.442 22.3002 10.0002C22.3002 9.55837 21.942 9.2002 21.5002 9.2002H9.43157L12.5659 6.06588Z" fill="white"/>
<path d="M17.4345 23.9345C17.1221 24.2469 17.1221 24.7535 17.4345 25.0659C17.7469 25.3783 18.2535 25.3783 18.5659 25.0659L23.0659 20.5659C23.3783 20.2535 23.3783 19.7469 23.0659 19.4345L18.5659 14.9345C18.2535 14.6221 17.7469 14.6221 17.4345 14.9345C17.1221 15.2469 17.1221 15.7535 17.4345 16.0659L20.5688 19.2002H8.5002C8.05837 19.2002 7.7002 19.5584 7.7002 20.0002C7.7002 20.442 8.05837 20.8002 8.5002 20.8002H20.5688L17.4345 23.9345Z" fill="white"/>
</svg>
