<svg width="30" height="30" viewBox="0 0 30 30" fill="none" xmlns="http://www.w3.org/2000/svg">
<rect width="30" height="30" rx="7" fill="#8E8E93"/>
<path fill-rule="evenodd" clip-rule="evenodd" d="M7.76916 7.05499C7.85455 6.84967 8.14542 6.84967 8.23082 7.05499L8.6026 7.94888C8.63861 8.03544 8.72001 8.09458 8.81346 8.10207L9.77848 8.17944C10.0001 8.19721 10.09 8.47383 9.92114 8.6185L9.18589 9.24832C9.1147 9.3093 9.0836 9.405 9.10536 9.49619L9.32998 10.4379C9.38158 10.6542 9.14627 10.8252 8.95649 10.7092L8.1303 10.2046C8.0503 10.1557 7.94968 10.1557 7.86967 10.2046L7.04348 10.7092C6.8537 10.8252 6.61839 10.6542 6.66999 10.4379L6.89462 9.49619C6.91637 9.405 6.88528 9.3093 6.81408 9.24832L6.07883 8.6185C5.90995 8.47383 5.99983 8.19721 6.22149 8.17944L7.18652 8.10207C7.27996 8.09458 7.36137 8.03544 7.39737 7.94888L7.76916 7.05499ZM8.23082 13.055C8.14542 12.8497 7.85455 12.8497 7.76916 13.055L7.39737 13.9489C7.36137 14.0354 7.27996 14.0946 7.18652 14.1021L6.22149 14.1794C5.99983 14.1972 5.90995 14.4738 6.07883 14.6185L6.81408 15.2483C6.88528 15.3093 6.91637 15.405 6.89462 15.4962L6.66999 16.4379C6.61839 16.6542 6.8537 16.8252 7.04348 16.7092L7.86967 16.2046C7.94968 16.1557 8.0503 16.1557 8.1303 16.2046L8.95649 16.7092C9.14627 16.8252 9.38158 16.6542 9.32998 16.4379L9.10536 15.4962C9.0836 15.405 9.1147 15.3093 9.18589 15.2483L9.92114 14.6185C10.09 14.4738 10.0001 14.1972 9.77848 14.1794L8.81346 14.1021C8.72001 14.0946 8.63861 14.0354 8.6026 13.9489L8.23082 13.055ZM13 14.25C12.5858 14.25 12.25 14.5858 12.25 15C12.25 15.4142 12.5858 15.75 13 15.75H23.5C23.9142 15.75 24.25 15.4142 24.25 15C24.25 14.5858 23.9142 14.25 23.5 14.25H13ZM13 8.25001C12.5858 8.25001 12.25 8.5858 12.25 9.00001C12.25 9.41422 12.5858 9.75001 13 9.75001H23.5C23.9142 9.75001 24.25 9.41422 24.25 9.00001C24.25 8.5858 23.9142 8.25001 23.5 8.25001H13ZM7.76916 19.055C7.85455 18.8497 8.14542 18.8497 8.23082 19.055L8.6026 19.9489C8.63861 20.0354 8.72001 20.0946 8.81346 20.1021L9.77848 20.1794C10.0001 20.1972 10.09 20.4738 9.92114 20.6185L9.18589 21.2483C9.1147 21.3093 9.0836 21.405 9.10536 21.4962L9.32998 22.4379C9.38158 22.6542 9.14627 22.8252 8.95649 22.7092L8.1303 22.2046C8.0503 22.1557 7.94968 22.1557 7.86967 22.2046L7.04348 22.7092C6.8537 22.8252 6.61839 22.6542 6.66999 22.4379L6.89462 21.4962C6.91637 21.405 6.88528 21.3093 6.81408 21.2483L6.07883 20.6185C5.90995 20.4738 5.99983 20.1972 6.22149 20.1794L7.18652 20.1021C7.27996 20.0946 7.36137 20.0354 7.39737 19.9489L7.76916 19.055ZM13 20.25C12.5858 20.25 12.25 20.5858 12.25 21C12.25 21.4142 12.5858 21.75 13 21.75H23.5C23.9142 21.75 24.25 21.4142 24.25 21C24.25 20.5858 23.9142 20.25 23.5 20.25H13Z" fill="white"/>
</svg>
