<svg width="30" height="30" viewBox="0 0 30 30" fill="none" xmlns="http://www.w3.org/2000/svg">
    <g clip-path="url(#clip0_1070_3241)">
        <path d="M0 11.2C0 7.27963 0 5.31945 0.762954 3.82207C1.43407 2.50493 2.50493 1.43407 3.82207 0.762954C5.31945 0 7.27963 0 11.2 0H18.8C22.7204 0 24.6805 0 26.1779 0.762954C27.4951 1.43407 28.5659 2.50493 29.237 3.82207C30 5.31945 30 7.27963 30 11.2V18.8C30 22.7204 30 24.6805 29.237 26.1779C28.5659 27.4951 27.4951 28.5659 26.1779 29.237C24.6805 30 22.7204 30 18.8 30H11.2C7.27963 30 5.31945 30 3.82207 29.237C2.50493 28.5659 1.43407 27.4951 0.762954 26.1779C0 24.6805 0 22.7204 0 18.8V11.2Z" fill="#FF9500"/>
        <path d="M18.3568 15.5C19.8897 15.5 22.7 16.0714 22.7 18.3571C22.7 19.3571 22.4445 19.5 21.9336 19.5L17.864 19.5012C17.9697 19.175 18.0227 18.7924 18.0227 18.3571C18.0227 17.2084 17.6007 16.3123 16.9053 15.6489C17.4283 15.5423 17.9398 15.5 18.3568 15.5ZM12.3432 15.5C13.8761 15.5 16.6864 16.0714 16.6864 18.3571C16.6864 19.3571 16.4309 19.5 15.9199 19.5H8.76644C8.25548 19.5 8 19.3571 8 18.3571C8 16.0714 10.8103 15.5 12.3432 15.5ZM12.3432 10.5C13.4507 10.5 14.3477 11.395 14.3477 12.5C14.3477 13.605 13.4507 14.5 12.3432 14.5C11.2357 14.5 10.3386 13.605 10.3386 12.5C10.3386 11.395 11.2357 10.5 12.3432 10.5ZM18.3568 10.5C19.4643 10.5 20.3614 11.395 20.3614 12.5C20.3614 13.605 19.4643 14.5 18.3568 14.5C17.2493 14.5 16.3523 13.605 16.3523 12.5C16.3523 11.395 17.2493 10.5 18.3568 10.5Z" fill="white"/>
    </g>
    <defs>
        <clipPath id="clip0_1070_3241">
            <rect width="30" height="30" fill="white"/>
        </clipPath>
    </defs>
</svg>
