<svg width="72" height="66" fill="none" xmlns="http://www.w3.org/2000/svg">
  <g clip-path="url(#a)" filter="url(#b)" fill="#000">
    <circle opacity=".75" cx="37.5" cy="8.5" r=".5"/>
    <circle cx="4" cy="36" r="1"/>
    <circle opacity=".5" cx="51.5" cy="29.5" r=".5"/>
    <circle cx="63.5" cy="29.5" r=".5"/>
    <circle opacity=".75" cx="43.5" cy="20.5" r="1.5"/>
    <circle opacity=".75" cx="2" cy="41" r="1"/>
    <circle opacity=".75" cx="34.5" cy="11.5" r="1.5"/>
    <circle cx="20" cy="17" r="1"/>
    <circle opacity=".5" cx="29.5" cy="32.5" r=".5"/>
    <circle cx="14.5" cy="1.5" r=".5"/>
    <circle opacity=".75" cx="68.5" cy="32.5" r="1.5"/>
    <circle cx="35" cy="54" r="1"/>
    <circle opacity=".75" cx="35" cy="2" r="1"/>
    <circle opacity=".5" cx="31.5" cy="59.5" r="1.5"/>
    <circle opacity=".5" cx="68" cy="40" r="1"/>
    <circle opacity=".5" cx="4.5" cy="20.5" r="1.5"/>
    <circle opacity=".5" cx="7.5" cy="28.5" r=".5"/>
    <circle opacity=".5" cx="30.5" cy="33.5" r=".5"/>
    <circle opacity=".5" cx="67.5" cy="3.5" r="1.5"/>
    <circle cx="43.5" cy="20.5" r="1.5"/>
    <circle opacity=".5" cx=".5" cy="26.5" r=".5"/>
    <circle opacity=".5" cx="25.5" cy="9.5" r=".5"/>
    <circle cx="36.5" cy="26.5" r=".5"/>
    <circle cx="54.5" cy="20.5" r="1.5"/>
    <circle opacity=".5" cx="18.5" cy="36.5" r="1.5"/>
    <circle opacity=".75" cx="3.5" cy="63.5" r="1.5"/>
    <circle opacity=".75" cx="70.5" cy="48.5" r=".5"/>
    <circle opacity=".75" cx="26.5" cy="8.5" r="1.5"/>
    <circle opacity=".5" cx="57.5" cy="31.5" r=".5"/>
    <circle cx="34" cy="17" r="1"/>
    <circle opacity=".75" cx="45" cy="31" r="1"/>
    <circle cx="44.5" cy="46.5" r="1.5"/>
    <circle cx="33" cy="36" r="1"/>
    <circle cx="28.5" cy="33.5" r=".5"/>
    <circle cx="61.5" cy="27.5" r=".5"/>
    <circle opacity=".5" cx="44.5" cy="43.5" r=".5"/>
    <circle cx="54.5" cy="37.5" r="1.5"/>
    <circle opacity=".5" cx="1.5" cy="30.5" r=".5"/>
    <circle opacity=".75" cx="64" cy="16" r="1"/>
    <circle opacity=".5" cx="1.5" cy="47.5" r=".5"/>
    <circle opacity=".75" cx="59.5" cy=".5" r=".5"/>
    <circle cx="5.5" cy="50.5" r="1.5"/>
    <circle opacity=".5" cx="24.5" cy="35.5" r="1.5"/>
    <circle cx="30" cy="60" r="1"/>
    <circle opacity=".75" cx="57" cy="33" r="1"/>
    <circle opacity=".5" cx="8" cy="54" r="1"/>
    <circle opacity=".5" cx="35.5" cy="40.5" r=".5"/>
    <circle opacity=".5" cx="11.5" cy="54.5" r=".5"/>
    <circle opacity=".75" cx="46.5" cy="29.5" r=".5"/>
    <circle cx="19" cy="13" r="1"/>
    <circle opacity=".5" cx="5.5" cy="14.5" r="1.5"/>
    <circle cx="3.5" cy="2.5" r="1.5"/>
    <circle opacity=".5" cx="46" cy="29" r="1"/>
    <circle opacity=".75" cx="43" cy="25" r="1"/>
    <circle cx="4.5" cy="6.5" r="1.5"/>
    <circle opacity=".5" cx="12" cy="34" r="1"/>
    <circle opacity=".75" cx="10.5" cy="18.5" r=".5"/>
    <circle cx="61.5" cy="3.5" r=".5"/>
    <circle opacity=".5" cx="68.5" cy="28.5" r="1.5"/>
    <circle cx="42.5" cy="59.5" r="1.5"/>
    <circle cx="65.5" cy="46.5" r="1.5"/>
    <circle cx="62.5" cy="65.5" r=".5"/>
    <circle opacity=".5" cx="24.5" cy="63.5" r=".5"/>
    <circle cx="19.5" cy="16.5" r="1.5"/>
    <circle opacity=".5" cx="9.5" cy="29.5" r=".5"/>
    <circle opacity=".75" cx="27" cy="3" r="1"/>
    <circle cx="40" cy="48" r="1"/>
    <circle opacity=".5" cx="9" cy="7" r="1"/>
    <circle cx="52.5" cy="38.5" r="1.5"/>
    <circle opacity=".75" cx="71" cy="15" r="1"/>
    <circle cx="11.5" cy="20.5" r="1.5"/>
    <circle cx="31.5" cy="16.5" r=".5"/>
    <circle opacity=".75" cx="10.5" cy="53.5" r=".5"/>
    <circle cx="41.5" cy="55.5" r=".5"/>
    <circle opacity=".5" cx="52.5" cy="62.5" r="1.5"/>
    <circle opacity=".75" cx="27" cy="19" r="1"/>
    <circle opacity=".5" cx="1.5" cy="7.5" r="1.5"/>
    <circle cx="50" cy="62" r="1"/>
    <circle cx="47" cy="1" r="1"/>
    <circle opacity=".5" cx="24.5" cy="54.5" r=".5"/>
    <circle opacity=".5" cx="38" cy="21" r="1"/>
    <circle cx="59" cy="62" r="1"/>
    <circle cx="54.5" cy="32.5" r=".5"/>
    <circle opacity=".5" cx="11" cy="9" r="1"/>
    <circle opacity=".5" cx="15.5" cy="37.5" r="1.5"/>
    <circle opacity=".5" cx="6.5" cy="41.5" r="1.5"/>
    <circle cx="67.5" cy="22.5" r="1.5"/>
    <circle cx="12.5" cy="16.5" r="1.5"/>
    <circle opacity=".75" cx="17" cy="31" r="1"/>
    <circle cx="14.5" cy="58.5" r=".5"/>
    <circle opacity=".5" cx="69" cy="19" r="1"/>
    <circle opacity=".5" cx="57" cy="46" r="1"/>
    <circle opacity=".75" cx="2" cy="25" r="1"/>
    <circle opacity=".5" cx="32" cy="35" r="1"/>
    <circle opacity=".75" cx="26" cy="16" r="1"/>
    <circle opacity=".5" cx="55" cy="57" r="1"/>
    <circle opacity=".75" cx="9.5" cy="6.5" r=".5"/>
    <circle cx="61.5" cy="35.5" r="1.5"/>
    <circle opacity=".75" cx="5.5" cy="33.5" r=".5"/>
    <circle opacity=".75" cx="65.5" cy="23.5" r=".5"/>
    <circle opacity=".5" cx="38.5" cy="23.5" r=".5"/>
    <circle opacity=".75" cx="22" cy="3" r="1"/>
    <circle cx="18.5" cy="28.5" r="1.5"/>
    <circle cx="54.5" cy="52.5" r=".5"/>
    <circle cx="69.5" cy="54.5" r="1.5"/>
    <circle opacity=".75" cx="63.5" cy="24.5" r=".5"/>
    <circle cx="6.5" cy="34.5" r="1.5"/>
    <circle cx="60" cy="4" r="1"/>
    <circle opacity=".5" cx="35" cy="34" r="1"/>
    <circle cx="43.5" cy="64.5" r="1.5"/>
    <circle opacity=".75" cx="5.5" cy="33.5" r="1.5"/>
    <circle opacity=".75" cx="71.5" cy="14.5" r=".5"/>
    <circle opacity=".5" cx="6.5" cy="49.5" r=".5"/>
    <circle opacity=".5" cx="66" cy="33" r="1"/>
    <circle opacity=".5" cx="41" cy="54" r="1"/>
    <circle opacity=".5" cx="7" cy="13" r="1"/>
    <circle cx="47.5" cy="30.5" r=".5"/>
    <circle opacity=".5" cx="13" cy="31" r="1"/>
    <circle opacity=".75" cx="51.5" cy="8.5" r=".5"/>
    <circle opacity=".5" cx="45.5" cy="6.5" r="1.5"/>
    <circle opacity=".5" cx="4" cy="59" r="1"/>
    <circle cx="15" cy="23" r="1"/>
    <circle opacity=".5" cx="63" cy="47" r="1"/>
    <circle cx="7" cy="31" r="1"/>
    <circle opacity=".75" cx="2" cy="12" r="1"/>
    <circle opacity=".5" cx="50.5" cy="35.5" r=".5"/>
    <circle cx="12" cy="35" r="1"/>
    <circle cx="22.5" cy="54.5" r="1.5"/>
    <circle opacity=".75" cx="60.5" cy="53.5" r=".5"/>
    <circle opacity=".5" cx="39.5" cy="7.5" r="1.5"/>
    <circle opacity=".75" cx="68.5" cy="64.5" r=".5"/>
    <circle opacity=".5" cx="18.5" cy="37.5" r=".5"/>
    <circle opacity=".5" cx="8.5" cy="27.5" r=".5"/>
    <circle opacity=".75" cx="48.5" cy="46.5" r=".5"/>
    <circle cx="60.5" cy="1.5" r="1.5"/>
    <circle cx="11.5" cy="62.5" r="1.5"/>
    <circle opacity=".5" cx="39.5" cy="47.5" r="1.5"/>
    <circle opacity=".5" cx="25.5" cy="1.5" r=".5"/>
    <circle opacity=".5" cx="50.5" cy="8.5" r="1.5"/>
    <circle cx="40.5" cy="28.5" r="1.5"/>
    <circle opacity=".5" cx="9.5" cy="8.5" r="1.5"/>
    <circle opacity=".75" cx="66.5" cy="57.5" r=".5"/>
    <circle cx="16" cy="39" r="1"/>
    <circle opacity=".75" cx="12" cy="44" r="1"/>
    <circle opacity=".5" cx="44.5" cy="28.5" r=".5"/>
    <circle opacity=".75" cx="41.5" cy="4.5" r="1.5"/>
    <circle opacity=".5" cx="27.5" cy="33.5" r=".5"/>
    <circle cx="63.5" cy="56.5" r=".5"/>
    <circle cx="34.5" cy="45.5" r=".5"/>
    <circle cx="10.5" cy="50.5" r="1.5"/>
    <circle opacity=".5" cx="17" cy="2" r="1"/>
    <circle opacity=".75" cx="60.5" cy="36.5" r=".5"/>
    <circle opacity=".75" cx="49.5" cy="34.5" r=".5"/>
    <circle opacity=".75" cx="41" cy="39" r="1"/>
    <circle opacity=".75" cx="32.5" cy="41.5" r=".5"/>
    <circle cx="25.5" cy="2.5" r="1.5"/>
    <circle opacity=".5" cx="36.5" cy="40.5" r=".5"/>
    <circle opacity=".5" cx="49" cy="28" r="1"/>
    <circle opacity=".5" cx="27" cy="41" r="1"/>
    <circle cx="2.5" cy="26.5" r=".5"/>
    <circle opacity=".5" cx="40.5" cy="19.5" r=".5"/>
    <circle cx="11.5" cy="52.5" r=".5"/>
    <circle cx="65.5" cy="33.5" r=".5"/>
    <circle opacity=".75" cx="52.5" cy="19.5" r=".5"/>
    <circle opacity=".5" cx="17" cy="15" r="1"/>
    <circle opacity=".5" cx="16.5" cy="11.5" r="1.5"/>
    <circle cx="20.5" cy="9.5" r=".5"/>
    <circle opacity=".5" cx="36.5" cy="4.5" r="1.5"/>
    <circle opacity=".5" cx="31.5" cy="9.5" r="1.5"/>
    <circle opacity=".75" cx="71" cy="18" r="1"/>
    <circle opacity=".75" cx="40" cy="50" r="1"/>
    <circle opacity=".5" cx="22.5" cy="37.5" r=".5"/>
    <circle opacity=".5" cx="47" cy="51" r="1"/>
    <circle opacity=".75" cx="61.5" cy="5.5" r="1.5"/>
    <circle cx="70.5" cy="34.5" r=".5"/>
    <circle cx="14" cy="34" r="1"/>
    <circle opacity=".75" cx="20" cy="33" r="1"/>
    <circle cx="7.5" cy="17.5" r="1.5"/>
    <circle opacity=".75" cx="14.5" cy="41.5" r=".5"/>
    <circle opacity=".5" cx="69" cy="63" r="1"/>
    <circle cx="25" cy="35" r="1"/>
    <circle opacity=".75" cx="43" cy="32" r="1"/>
    <circle opacity=".5" cx="5.5" cy="44.5" r="1.5"/>
    <circle opacity=".75" cx="29.5" cy="14.5" r="1.5"/>
    <circle opacity=".5" cx="42.5" cy="57.5" r=".5"/>
    <circle cx="42" cy="42" r="1"/>
    <circle opacity=".75" cx="10.5" cy="13.5" r="1.5"/>
    <circle opacity=".5" cx="57.5" cy="32.5" r=".5"/>
    <circle opacity=".75" cx="19.5" cy="29.5" r="1.5"/>
    <circle opacity=".75" cx="20.5" cy="34.5" r="1.5"/>
    <circle opacity=".5" cx="7.5" cy="17.5" r=".5"/>
    <circle cx="13" cy="61" r="1"/>
    <circle opacity=".75" cx="23.5" cy="49.5" r=".5"/>
    <circle opacity=".75" cx="69.5" cy="10.5" r="1.5"/>
    <circle opacity=".75" cx="15" cy="60" r="1"/>
    <circle opacity=".75" cx="54" cy="53" r="1"/>
    <circle opacity=".5" cx="10" cy="57" r="1"/>
    <circle opacity=".75" cx="45.5" cy="10.5" r="1.5"/>
    <circle opacity=".75" cx="67.5" cy="57.5" r=".5"/>
    <circle cx="60.5" cy="7.5" r="1.5"/>
    <circle opacity=".5" cx="35.5" cy="59.5" r="1.5"/>
    <circle opacity=".5" cx="40" cy="26" r="1"/>
    <circle opacity=".5" cx="35.5" cy="38.5" r=".5"/>
    <circle opacity=".75" cx="54.5" cy="26.5" r="1.5"/>
    <circle cx="52.5" cy="5.5" r=".5"/>
    <circle opacity=".5" cx="37.5" cy="9.5" r="1.5"/>
    <circle opacity=".75" cx="64.5" cy="52.5" r=".5"/>
    <circle opacity=".5" cx="61" cy="7" r="1"/>
    <circle opacity=".75" cx="24.5" cy="19.5" r="1.5"/>
    <circle opacity=".75" cx="4" cy="59" r="1"/>
    <circle opacity=".5" cx="14.5" cy="51.5" r=".5"/>
    <circle opacity=".75" cx="26.5" cy="42.5" r=".5"/>
    <circle opacity=".5" cx="8.5" cy="33.5" r="1.5"/>
    <circle opacity=".75" cx=".5" cy="36.5" r=".5"/>
    <circle opacity=".5" cx="24.5" cy="2.5" r="1.5"/>
    <circle cx="33" cy="61" r="1"/>
    <circle opacity=".75" cx="70.5" cy="24.5" r=".5"/>
    <circle opacity=".75" cx="36.5" cy="18.5" r="1.5"/>
    <circle cx="61.5" cy="57.5" r=".5"/>
    <circle cx="43" cy="31" r="1"/>
    <circle opacity=".75" cx="50" cy="11" r="1"/>
    <circle opacity=".5" cx="44.5" cy="20.5" r=".5"/>
    <circle opacity=".75" cx="59.5" cy="22.5" r=".5"/>
    <circle cx="40.5" cy="58.5" r=".5"/>
    <circle opacity=".75" cx="59.5" cy="44.5" r=".5"/>
    <circle opacity=".5" cx="23.5" cy="30.5" r=".5"/>
    <circle opacity=".75" cx="36" cy="1" r="1"/>
    <circle opacity=".75" cx="28.5" cy="13.5" r="1.5"/>
    <circle opacity=".5" cx="39.5" cy="11.5" r=".5"/>
    <circle opacity=".5" cx="49" cy="38" r="1"/>
    <circle opacity=".75" cx="68" cy="50" r="1"/>
    <circle cx="44.5" cy="32.5" r=".5"/>
    <circle opacity=".5" cx="17.5" cy="27.5" r="1.5"/>
    <circle opacity=".75" cx="23" cy="37" r="1"/>
    <circle cx="-.5" cy="60.5" r="1.5"/>
    <circle opacity=".5" cx="19" cy="26" r="1"/>
    <circle cx="57.5" cy="36.5" r=".5"/>
    <circle opacity=".5" cx="11.5" cy="13.5" r=".5"/>
    <circle opacity=".5" cx="56.5" cy="48.5" r=".5"/>
    <circle opacity=".5" cx="29" cy="53" r="1"/>
    <circle opacity=".75" cx="3" cy="22" r="1"/>
    <circle cx="8.5" cy="63.5" r=".5"/>
    <circle cx="57.5" cy="4.5" r=".5"/>
    <circle opacity=".75" cx="63.5" cy="4.5" r=".5"/>
    <circle opacity=".75" cx="10.5" cy="16.5" r="1.5"/>
    <circle cx="41.5" cy="16.5" r=".5"/>
    <circle opacity=".75" cx="40.5" cy="47.5" r=".5"/>
    <circle opacity=".5" cx="60" cy="22" r="1"/>
    <circle opacity=".5" cx="14.5" cy="37.5" r="1.5"/>
    <circle opacity=".75" cx="15" cy="18" r="1"/>
    <circle opacity=".75" cx="16.5" cy="24.5" r="1.5"/>
    <circle opacity=".5" cx="8.5" cy="64.5" r=".5"/>
    <circle opacity=".75" cx="58" cy="51" r="1"/>
    <circle cx="69" cy="12" r="1"/>
    <circle opacity=".75" cx="39" cy="52" r="1"/>
    <circle cx="51.5" cy="9.5" r="1.5"/>
    <circle opacity=".5" cx="24.5" cy="13.5" r="1.5"/>
    <circle opacity=".75" cx="26.5" cy="38.5" r=".5"/>
    <circle opacity=".5" cx="63" cy="13" r="1"/>
    <circle cx="39.5" cy="36.5" r=".5"/>
    <circle opacity=".75" cx="46" cy="31" r="1"/>
    <circle opacity=".5" cx="40.5" cy="13.5" r=".5"/>
    <circle opacity=".75" cx="33.5" cy="50.5" r=".5"/>
    <circle opacity=".5" cx="1.5" cy="47.5" r=".5"/>
    <circle cx="15.5" cy="5.5" r="1.5"/>
    <circle cx="40.5" cy="24.5" r=".5"/>
    <circle opacity=".5" cx="24.5" cy="59.5" r="1.5"/>
    <circle opacity=".75" cx="45.5" cy="36.5" r=".5"/>
    <circle cx="53.5" cy="28.5" r="1.5"/>
    <circle cx="28" cy="34" r="1"/>
    <circle opacity=".5" cx="25.5" cy="42.5" r=".5"/>
    <circle opacity=".5" cx="63.5" cy="45.5" r=".5"/>
    <circle cx="56.5" cy="25.5" r="1.5"/>
    <circle cx="53.5" cy="60.5" r="1.5"/>
    <circle cx="9.5" cy="3.5" r="1.5"/>
    <circle cx="68" cy="61" r="1"/>
    <circle cx="31.5" cy="14.5" r=".5"/>
    <circle opacity=".5" cx="14.5" cy="25.5" r="1.5"/>
    <circle opacity=".5" cx="8.5" cy="55.5" r="1.5"/>
    <circle opacity=".75" cx="63.5" cy="39.5" r=".5"/>
    <circle opacity=".75" cx="52.5" cy="22.5" r=".5"/>
    <circle opacity=".75" cx="13" cy="48" r="1"/>
    <circle cx="40" cy="22" r="1"/>
    <circle opacity=".75" cx="12" cy="23" r="1"/>
    <circle cx="16.5" cy="42.5" r="1.5"/>
    <circle opacity=".5" cx="17.5" cy="28.5" r="1.5"/>
    <circle cx="63" cy="2" r="1"/>
    <circle opacity=".75" cx="65" cy="12" r="1"/>
    <circle cx="13.5" cy="3.5" r=".5"/>
    <circle opacity=".5" cx="31.5" cy="36.5" r=".5"/>
    <circle opacity=".75" cx="3.5" cy="17.5" r=".5"/>
    <circle opacity=".5" cx="60.5" cy="47.5" r="1.5"/>
    <circle opacity=".75" cx="13.5" cy="45.5" r="1.5"/>
    <circle opacity=".5" cx="50.5" cy="31.5" r=".5"/>
    <circle cx="64" cy="19" r="1"/>
    <circle opacity=".5" cx="30.5" cy="48.5" r=".5"/>
    <circle opacity=".75" cx="19.5" cy="7.5" r="1.5"/>
    <circle opacity=".5" cx="52" cy="22" r="1"/>
    <circle cx="2" cy="6" r="1"/>
    <circle opacity=".5" cx="46" cy="54" r="1"/>
    <circle cx="57.5" cy="13.5" r="1.5"/>
    <circle opacity=".75" cx="30.5" cy="52.5" r=".5"/>
    <circle cx="38.5" cy="60.5" r=".5"/>
    <circle cx="65.5" cy="41.5" r=".5"/>
    <circle cx="60" cy="54" r="1"/>
    <circle opacity=".75" cx="47.5" cy="47.5" r=".5"/>
    <circle opacity=".5" cx="58.5" cy="49.5" r=".5"/>
    <circle opacity=".5" cx="46" cy="62" r="1"/>
    <circle cx="52.5" cy="54.5" r="1.5"/>
    <circle cx="70.5" cy="49.5" r="1.5"/>
    <circle cx="62.5" cy="64.5" r="1.5"/>
    <circle opacity=".75" cx="48" cy="41" r="1"/>
    <circle cx="21.5" cy="62.5" r=".5"/>
    <circle opacity=".5" cx="64" cy="15" r="1"/>
    <circle opacity=".75" cx="49" cy="5" r="1"/>
    <circle opacity=".5" cx="37.5" cy="41.5" r="1.5"/>
    <circle cx="49.5" cy="22.5" r=".5"/>
    <circle opacity=".5" cx="49" cy="18" r="1"/>
    <circle opacity=".75" cx="5.5" cy="27.5" r=".5"/>
    <circle opacity=".75" cx="42.5" cy="49.5" r=".5"/>
    <circle opacity=".75" cx="30.5" cy="5.5" r="1.5"/>
    <circle opacity=".5" cx="6.5" cy="32.5" r="1.5"/>
    <circle cx="8.5" cy="38.5" r="1.5"/>
    <circle cx="17.5" cy="55.5" r="1.5"/>
    <circle opacity=".5" cx="49" cy="25" r="1"/>
    <circle opacity=".5" cx="7.5" cy="32.5" r=".5"/>
    <circle opacity=".5" cx="64" cy="35" r="1"/>
    <circle opacity=".5" cx="26" cy="62" r="1"/>
    <circle opacity=".5" cx="63.5" cy="5.5" r=".5"/>
    <circle cx="29.5" cy="27.5" r="1.5"/>
    <circle opacity=".75" cx="52.5" cy="56.5" r=".5"/>
    <circle opacity=".5" cx="2.5" cy="26.5" r="1.5"/>
    <circle cx="18.5" cy="32.5" r=".5"/>
    <circle opacity=".5" cx="4.5" cy="32.5" r="1.5"/>
    <circle opacity=".75" cx="2.5" cy="22.5" r=".5"/>
    <circle cx="30.5" cy="40.5" r=".5"/>
    <circle opacity=".5" cx="56.5" cy="38.5" r="1.5"/>
    <circle cx="26.5" cy="22.5" r=".5"/>
    <circle cx="22" cy="26" r="1"/>
    <circle opacity=".5" cx="50.5" cy="61.5" r="1.5"/>
    <circle opacity=".5" cx="30.5" cy="33.5" r="1.5"/>
    <circle cx="56.5" cy="25.5" r="1.5"/>
    <circle opacity=".5" cx="15" cy="30" r="1"/>
    <circle opacity=".5" cx="14.5" cy="36.5" r="1.5"/>
    <circle opacity=".5" cx="15.5" cy="61.5" r=".5"/>
    <circle cx="67" cy="16" r="1"/>
    <circle opacity=".5" cx="26" cy="37" r="1"/>
    <circle opacity=".75" cx="17" cy="2" r="1"/>
    <circle cx="50.5" cy="32.5" r="1.5"/>
    <circle opacity=".5" cx="49.5" cy="36.5" r="1.5"/>
    <circle opacity=".75" cx="12" cy="29" r="1"/>
    <circle opacity=".75" cx="66.5" cy="2.5" r="1.5"/>
    <circle opacity=".75" cx="31.5" cy="48.5" r="1.5"/>
  </g>
  <defs>
    <clipPath id="a">
      <path fill="#fff" d="M0 0h72v66H0z"/>
    </clipPath>
    <filter id="b" x="0" y="0" width="72" height="66" filterUnits="userSpaceOnUse" color-interpolation-filters="sRGB">
      <feFlood flood-opacity="0" result="BackgroundImageFix"/>
      <feBlend in="SourceGraphic" in2="BackgroundImageFix" result="shape"/>
      <feColorMatrix in="SourceAlpha" values="0 0 0 0 0 0 0 0 0 0 0 0 0 0 0 0 0 0 127 0" result="hardAlpha"/>
      <feOffset/>
      <feGaussianBlur stdDeviation="1"/>
      <feComposite in2="hardAlpha" operator="arithmetic" k2="-1" k3="1"/>
      <feColorMatrix values="0 0 0 0 1 0 0 0 0 1 0 0 0 0 1 0 0 0 1 0"/>
      <feBlend in2="shape" result="effect1_innerShadow_379_752"/>
    </filter>
  </defs>
</svg>
