<svg width="24" height="24" viewBox="0 0 24 24" fill="none" xmlns="http://www.w3.org/2000/svg">
<path fill-rule="evenodd" clip-rule="evenodd" d="M11.9991 2.50012C6.75244 2.50012 2.49915 6.75342 2.49915 12.0001C2.49915 17.2468 6.75244 21.5001 11.9991 21.5001C17.2459 21.5001 21.4991 17.2468 21.4991 12.0001C21.4991 6.75342 17.2459 2.50012 11.9991 2.50012ZM12.5305 7.18408C12.2376 6.89118 11.7627 6.89118 11.4698 7.18408L8.04122 10.6126C7.74833 10.9055 7.74833 11.3804 8.04122 11.6733C8.33411 11.9662 8.80899 11.9662 9.10188 11.6733L11.2501 9.52507V16.2858C11.2501 16.7 11.5859 17.0358 12.0001 17.0358C12.4143 17.0358 12.7501 16.7 12.7501 16.2858V9.52507L14.8984 11.6733C15.1913 11.9662 15.6661 11.9662 15.959 11.6733C16.2519 11.3804 16.2519 10.9055 15.959 10.6126L12.5305 7.18408Z" fill="black"/>
</svg>
