<svg width="24" height="24" viewBox="0 0 24 24" fill="none" xmlns="http://www.w3.org/2000/svg">
<path fill-rule="evenodd" clip-rule="evenodd" d="M11.9991 21.5001C17.2459 21.5001 21.4991 17.2468 21.4991 12.0001C21.4991 6.75342 17.2459 2.50012 11.9991 2.50012C6.75244 2.50012 2.49915 6.75342 2.49915 12.0001C2.49915 17.2468 6.75244 21.5001 11.9991 21.5001ZM11.4678 16.8162C11.7607 17.1091 12.2356 17.1091 12.5285 16.8162L15.9571 13.3876C16.25 13.0947 16.25 12.6198 15.9571 12.3269C15.6642 12.034 15.1893 12.034 14.8964 12.3269L12.7482 14.4752L12.7482 7.71441C12.7482 7.30019 12.4124 6.96441 11.9982 6.96441C11.584 6.96441 11.2482 7.30019 11.2482 7.71441L11.2482 14.4752L9.09993 12.3269C8.80703 12.034 8.33216 12.034 8.03927 12.3269C7.74637 12.6198 7.74637 13.0947 8.03927 13.3876L11.4678 16.8162Z" fill="black"/>
</svg>
