<svg width="24" height="24" viewBox="0 0 24 24" fill="none" xmlns="http://www.w3.org/2000/svg">
<path fill-rule="evenodd" clip-rule="evenodd" d="M21.4991 12.0001C21.4991 17.2468 17.2459 21.5001 11.9991 21.5001C6.75244 21.5001 2.49915 17.2468 2.49915 12.0001C2.49915 6.75342 6.75244 2.50012 11.9991 2.50012C17.2459 2.50012 21.4991 6.75342 21.4991 12.0001ZM10.5708 6.80806C10.8148 7.05214 10.8148 7.44786 10.5708 7.69194L9.47861 8.78409L15.7425 8.78409C16.0876 8.78409 16.3675 9.06391 16.3675 9.40909C16.3675 9.75427 16.0876 10.0341 15.7425 10.0341L9.47861 10.0341L10.5708 11.1262C10.8148 11.3703 10.8148 11.766 10.5708 12.0101C10.3267 12.2542 9.93095 12.2542 9.68688 12.0101L7.52778 9.85103C7.41057 9.73382 7.34473 9.57485 7.34473 9.40909C7.34473 9.24333 7.41057 9.08436 7.52778 8.96715L9.68688 6.80806C9.93095 6.56398 10.3267 6.56398 10.5708 6.80806ZM13.5704 12.8738C13.3263 12.6297 13.3263 12.234 13.5704 11.9899C13.8144 11.7458 14.2102 11.7458 14.4542 11.9899L16.6133 14.149C16.7305 14.2662 16.7964 14.4252 16.7964 14.5909C16.7964 14.7567 16.7305 14.9156 16.6133 15.0329L14.4542 17.1919C14.2102 17.436 13.8144 17.436 13.5704 17.1919C13.3263 16.9479 13.3263 16.5521 13.5704 16.3081L14.6625 15.2159L8.39866 15.2159C8.05348 15.2159 7.77366 14.9361 7.77366 14.5909C7.77366 14.2457 8.05348 13.9659 8.39866 13.9659L14.6625 13.9659L13.5704 12.8738Z" fill="black"/>
</svg>
