<svg width="24" height="24" viewBox="0 0 24 24" fill="none" xmlns="http://www.w3.org/2000/svg">
<path d="M20 12C20 11.4477 19.5523 11 19 11H7.83L12.71 6.12C13.1017 5.72829 13.1006 5.09284 12.7075 4.70251C12.3164 4.31412 11.6848 4.31524 11.295 4.705L5.13137 10.8686C4.73535 11.2646 4.53735 11.4627 4.46316 11.691C4.3979 11.8918 4.3979 12.1082 4.46316 12.309C4.53735 12.5373 4.73535 12.7354 5.13137 13.1314L11.2947 19.2947C11.6842 19.6842 12.3158 19.6842 12.7053 19.2947C13.0946 18.9054 13.0949 18.2743 12.7059 17.8847L7.83 13H19C19.5523 13 20 12.5523 20 12Z" fill="black"/>
</svg>
