<svg width="24" height="24" viewBox="0 0 24 24" fill="none" xmlns="http://www.w3.org/2000/svg">
<path fill-rule="evenodd" clip-rule="evenodd" d="M2.5 12C2.5 6.75329 6.75329 2.5 12 2.5C17.2467 2.5 21.5 6.75329 21.5 12C21.5 17.2467 17.2467 21.5 12 21.5C6.75329 21.5 2.5 17.2467 2.5 12ZM12.001 5.24999C12.4152 5.24999 12.751 5.58578 12.751 5.99999V12.5C12.751 12.873 12.4787 13.1823 12.1221 13.2403C12.0827 13.2467 12.0422 13.25 12.0009 13.25H7.5C7.08579 13.25 6.75 12.9142 6.75 12.5C6.75 12.0858 7.08579 11.75 7.5 11.75H11.251V5.99999C11.251 5.58578 11.5868 5.24999 12.001 5.24999Z" fill="black"/>
</svg>
