<svg width="24" height="24" viewBox="0 0 24 24" fill="none" xmlns="http://www.w3.org/2000/svg">
<path d="M12.5218 8C13.6696 8 14.6087 7.1 14.6087 6C14.6087 4.9 13.6696 4 12.5218 4C11.3739 4 10.4348 4.9 10.4348 6C10.4348 7.1 11.3739 8 12.5218 8ZM12.5218 10C11.3739 10 10.4348 10.9 10.4348 12C10.4348 13.1 11.3739 14 12.5218 14C13.6696 14 14.6087 13.1 14.6087 12C14.6087 10.9 13.6696 10 12.5218 10ZM12.5218 16C11.3739 16 10.4348 16.9 10.4348 18C10.4348 19.1 11.3739 20 12.5218 20C13.6696 20 14.6087 19.1 14.6087 18C14.6087 16.9 13.6696 16 12.5218 16Z" fill="black"/>
</svg>
