<svg width="24" height="24" viewBox="0 0 24 24" fill="none" xmlns="http://www.w3.org/2000/svg">
<path fill-rule="evenodd" clip-rule="evenodd" d="M2.33951 4.75047L2.57508 4.85297L11.5952 8.83961C11.8234 8.95536 12.118 8.93695 12.4936 8.76922L21.6019 4.7395C22.0879 4.56499 21.8228 4.02194 21.4325 4.0754L21.197 4.07444L2.53826 4C2.01547 4.02194 1.86826 4.54658 2.33951 4.75047ZM1.59577 6.8502L10.3138 20.3963C10.5863 20.8392 11.2711 20.5894 11.2564 20.1923L11.2417 10.8992C11.2344 10.3728 11.0944 10.2578 10.7704 10.1138L2.05224 6.23521C1.72825 6.05599 1.3086 6.3506 1.59577 6.8502ZM12.7586 20.0766L12.7364 10.7302C12.7364 10.5928 12.7512 10.4858 12.7954 10.3965C12.8396 10.3148 12.9058 10.2479 13.0163 10.1857C13.0238 10.1815 13.0332 10.1773 13.0426 10.1731C13.0516 10.1691 13.0606 10.1652 13.0678 10.1612L21.705 6.26711C22.2793 5.99643 22.6695 6.45568 22.4265 6.85919L21.6314 8.08717V8.09336L21.4914 8.30726L21.3295 8.55894L13.7526 20.2961C13.3918 20.8204 12.7659 20.7064 12.7586 20.0766Z" fill="black"/>
</svg>
