<svg width="24" height="24" viewBox="0 0 24 24" fill="none" xmlns="http://www.w3.org/2000/svg">
<path d="M5.25 10.7969C5.25 11.0104 5.30729 11.1771 5.42188 11.2969C5.54167 11.4167 5.70833 11.4766 5.92188 11.4766H7.36719V12.8828C7.36719 13.0911 7.42188 13.2552 7.53125 13.375C7.64583 13.4948 7.80469 13.5547 8.00781 13.5547C8.20573 13.5547 8.36198 13.4948 8.47656 13.375C8.59115 13.2552 8.64844 13.0911 8.64844 12.8828V11.4766H10C10.2292 11.4766 10.4062 11.4167 10.5312 11.2969C10.6615 11.1771 10.7266 11.0104 10.7266 10.7969C10.7266 10.5938 10.6615 10.4349 10.5312 10.3203C10.4062 10.2005 10.2292 10.1406 10 10.1406H8.64844V8.73438C8.64844 8.52604 8.59115 8.36458 8.47656 8.25C8.36198 8.13021 8.20573 8.07031 8.00781 8.07031C7.80469 8.07031 7.64583 8.13021 7.53125 8.25C7.42188 8.36458 7.36719 8.52604 7.36719 8.73438V10.1406H5.92188C5.70833 10.1406 5.54167 10.2005 5.42188 10.3203C5.30729 10.4349 5.25 10.5938 5.25 10.7969ZM16.7812 10.7188C17.1094 10.7188 17.388 10.6042 17.6172 10.375C17.8464 10.1458 17.9609 9.86979 17.9609 9.54688C17.9609 9.21875 17.8464 8.9401 17.6172 8.71094C17.388 8.48177 17.1094 8.36719 16.7812 8.36719C16.4583 8.36719 16.1797 8.48177 15.9453 8.71094C15.7161 8.9401 15.6016 9.21875 15.6016 9.54688C15.6016 9.86979 15.7161 10.1458 15.9453 10.375C16.1797 10.6042 16.4583 10.7188 16.7812 10.7188ZM14.4141 13.1016C14.737 13.1016 15.013 12.9896 15.2422 12.7656C15.4766 12.5365 15.5938 12.2578 15.5938 11.9297C15.5938 11.6068 15.4766 11.3307 15.2422 11.1016C15.013 10.8672 14.737 10.75 14.4141 10.75C14.0911 10.75 13.8125 10.8672 13.5781 11.1016C13.349 11.3307 13.2344 11.6068 13.2344 11.9297C13.2344 12.2578 13.349 12.5365 13.5781 12.7656C13.8125 12.9896 14.0911 13.1016 14.4141 13.1016ZM3.46875 19.4453C2.875 19.4453 2.35417 19.3203 1.90625 19.0703C1.45833 18.8255 1.10938 18.4766 0.859375 18.0234C0.614583 17.5703 0.492188 17.0391 0.492188 16.4297C0.492188 16.0391 0.533854 15.6198 0.617188 15.1719C0.705729 14.724 0.825521 14.2474 0.976562 13.7422C1.13281 13.2057 1.32552 12.6224 1.55469 11.9922C1.78385 11.362 2.02865 10.7266 2.28906 10.0859C2.55469 9.4401 2.82031 8.83594 3.08594 8.27344C3.3099 7.80469 3.52083 7.41406 3.71875 7.10156C3.91667 6.78906 4.16667 6.53385 4.46875 6.33594C4.77604 6.13802 5.20573 5.97656 5.75781 5.85156C6.49219 5.6849 7.36458 5.54948 8.375 5.44531C9.39062 5.34115 10.5234 5.28906 11.7734 5.28906C13.0234 5.28906 14.1536 5.34115 15.1641 5.44531C16.1745 5.54948 17.0469 5.6849 17.7812 5.85156C18.3333 5.97656 18.7604 6.13802 19.0625 6.33594C19.3698 6.53385 19.6224 6.78906 19.8203 7.10156C20.0182 7.41406 20.2292 7.80469 20.4531 8.27344C20.7188 8.83594 20.9818 9.4401 21.2422 10.0859C21.5078 10.7266 21.7552 11.362 21.9844 11.9922C22.2135 12.6224 22.4062 13.2057 22.5625 13.7422C22.7135 14.2474 22.8307 14.724 22.9141 15.1719C23.0026 15.6198 23.0469 16.0391 23.0469 16.4297C23.0469 17.0391 22.9219 17.5703 22.6719 18.0234C22.4271 18.4766 22.0807 18.8255 21.6328 19.0703C21.1849 19.3203 20.6641 19.4453 20.0703 19.4453C19.5339 19.4453 19.0703 19.3464 18.6797 19.1484C18.2943 18.9505 17.9375 18.6484 17.6094 18.2422L16.1953 16.5312C16.0911 16.4062 15.9818 16.3151 15.8672 16.2578C15.7526 16.2005 15.638 16.1719 15.5234 16.1719H8.01562C7.90104 16.1719 7.78646 16.2005 7.67188 16.2578C7.55729 16.3151 7.44792 16.4062 7.34375 16.5312L5.92969 18.2422C5.60156 18.6484 5.24219 18.9505 4.85156 19.1484C4.46615 19.3464 4.00521 19.4453 3.46875 19.4453Z" fill="black"/>
</svg>
