<svg width="24" height="24" viewBox="0 0 24 24" fill="none" xmlns="http://www.w3.org/2000/svg">
<path fill-rule="evenodd" clip-rule="evenodd" d="M12 8.08204C9.83617 8.08204 8.08204 9.83617 8.08204 12C8.08204 14.1638 9.83617 15.918 12 15.918C14.1638 15.918 15.918 14.1638 15.918 12C15.918 9.83617 14.1638 8.08204 12 8.08204ZM9.48204 12C9.48204 10.6094 10.6094 9.48204 12 9.48204C13.3906 9.48204 14.518 10.6094 14.518 12C14.518 13.3906 13.3906 14.518 12 14.518C10.6094 14.518 9.48204 13.3906 9.48204 12Z" fill="black"/>
<path fill-rule="evenodd" clip-rule="evenodd" d="M10.8012 1.5C10.1373 1.5 9.55869 1.95179 9.39769 2.5958L8.97183 4.29924C8.87908 4.33573 8.78716 4.37386 8.69609 4.41357L7.19036 3.51013C6.62113 3.16859 5.89251 3.25829 5.42311 3.72768L3.7277 5.4231C3.2583 5.8925 3.1686 6.62112 3.51014 7.19035L4.41357 8.69608C4.37386 8.78715 4.33574 8.87908 4.29924 8.97183L2.5958 9.39769C1.95179 9.55869 1.5 10.1373 1.5 10.8012V13.1988C1.5 13.8627 1.95178 14.4413 2.5958 14.6023L4.29924 15.0282C4.33573 15.1209 4.37385 15.2128 4.41356 15.3039L3.5101 16.8097C3.16856 17.3789 3.25826 18.1075 3.72766 18.5769L5.42307 20.2723C5.89247 20.7417 6.62109 20.8314 7.19032 20.4899L8.69608 19.5864C8.78715 19.6261 8.87908 19.6643 8.97183 19.7008L9.39769 21.4042C9.55869 22.0482 10.1373 22.5 10.8012 22.5H13.1988C13.8627 22.5 14.4413 22.0482 14.6023 21.4042L15.0282 19.7008C15.1209 19.6643 15.2128 19.6261 15.3039 19.5864L16.8097 20.4899C17.3789 20.8314 18.1075 20.7417 18.5769 20.2723L20.2724 18.5769C20.7418 18.1075 20.8314 17.3789 20.4899 16.8097L19.5864 15.3039C19.6261 15.2128 19.6643 15.1209 19.7008 15.0282L21.4042 14.6023C22.0482 14.4413 22.5 13.8627 22.5 13.1988V10.8012C22.5 10.1373 22.0482 9.55869 21.4042 9.39769L19.7008 8.97183C19.6643 8.87908 19.6261 8.78715 19.5864 8.69608L20.4899 7.19033C20.8314 6.62111 20.7417 5.89248 20.2723 5.42308L18.5769 3.72767C18.1075 3.25827 17.3789 3.16857 16.8097 3.51011L15.3039 4.41356C15.2128 4.37385 15.1209 4.33573 15.0282 4.29924L14.6023 2.5958C14.4413 1.95179 13.8627 1.5 13.1988 1.5H10.8012ZM10.7559 2.93535C10.7611 2.91457 10.7797 2.9 10.8012 2.9H13.1988C13.2203 2.9 13.2389 2.91457 13.2441 2.93534L13.729 4.875C13.8065 5.18486 14.0342 5.42588 14.3225 5.5294C14.5306 5.60409 14.734 5.68855 14.9323 5.78223C15.2095 5.91322 15.5412 5.90386 15.8152 5.73943L17.5299 4.7106C17.5483 4.69958 17.5718 4.70248 17.587 4.71762L19.2824 6.41303C19.2975 6.42817 19.3004 6.45168 19.2894 6.47004L18.2606 8.18475C18.0961 8.4588 18.0868 8.79048 18.2178 9.0677C18.3114 9.26597 18.3959 9.46942 18.4706 9.67748C18.5741 9.96584 18.8151 10.1935 19.125 10.271L21.0647 10.7559C21.0854 10.7611 21.1 10.7797 21.1 10.8012V13.1988C21.1 13.2203 21.0854 13.2389 21.0647 13.2441L19.125 13.729C18.8151 13.8065 18.5741 14.0342 18.4706 14.3225C18.3959 14.5306 18.3115 14.734 18.2178 14.9323C18.0868 15.2095 18.0961 15.5412 18.2606 15.8152L19.2894 17.53C19.3004 17.5483 19.2975 17.5718 19.2824 17.587L17.587 19.2824C17.5718 19.2975 17.5483 19.3004 17.53 19.2894L15.8152 18.2606C15.5412 18.0961 15.2095 18.0868 14.9323 18.2178C14.734 18.3114 14.5306 18.3959 14.3225 18.4706C14.0342 18.5741 13.8065 18.8151 13.729 19.125L13.2441 21.0647C13.2389 21.0854 13.2203 21.1 13.1988 21.1H10.8012C10.7797 21.1 10.7611 21.0854 10.7559 21.0647L10.271 19.125C10.1935 18.8151 9.96584 18.5741 9.67748 18.4706C9.46942 18.3959 9.26598 18.3114 9.06771 18.2178C8.79048 18.0868 8.45881 18.0961 8.18476 18.2606L6.47003 19.2894C6.45166 19.3004 6.42816 19.2975 6.41302 19.2824L4.71761 17.587C4.70246 17.5718 4.69957 17.5483 4.71059 17.53L5.73943 15.8152C5.90386 15.5412 5.91322 15.2095 5.78223 14.9323C5.68855 14.734 5.60409 14.5306 5.5294 14.3225C5.42588 14.0342 5.18486 13.8065 4.875 13.729L2.93534 13.2441C2.91457 13.2389 2.9 13.2203 2.9 13.1988V10.8012C2.9 10.7797 2.91457 10.7611 2.93535 10.7559L4.875 10.271C5.18486 10.1935 5.42588 9.96584 5.5294 9.67748C5.60409 9.46942 5.68855 9.26597 5.78224 9.0677C5.91323 8.79047 5.90387 8.4588 5.73944 8.18475L4.71063 6.47006C4.69961 6.45169 4.7025 6.42819 4.71765 6.41305L6.41306 4.71763C6.4282 4.70249 6.4517 4.6996 6.47007 4.71062L8.18477 5.73944C8.45882 5.90387 8.79049 5.91323 9.06772 5.78223C9.26598 5.68855 9.46942 5.60409 9.67748 5.5294C9.96584 5.42588 10.1935 5.18486 10.271 4.875L10.7559 2.93535Z" fill="black"/>
</svg>
