<svg width="24" height="24" viewBox="0 0 24 24" fill="none" xmlns="http://www.w3.org/2000/svg">
<path fill-rule="evenodd" clip-rule="evenodd" d="M11.9999 8.08203C9.83606 8.08203 8.08193 9.83616 8.08193 12C8.08193 14.1638 9.83606 15.918 11.9999 15.918C14.1637 15.918 15.9178 14.1638 15.9178 12C15.9178 9.83616 14.1637 8.08203 11.9999 8.08203ZM9.48193 12C9.48193 10.6094 10.6093 9.48203 11.9999 9.48203C13.3905 9.48203 14.5178 10.6094 14.5178 12C14.5178 13.3906 13.3905 14.518 11.9999 14.518C10.6093 14.518 9.48193 13.3906 9.48193 12Z" fill="black"/>
<path fill-rule="evenodd" clip-rule="evenodd" d="M10.7769 1.5C9.99989 1.5 9.32175 2.02686 9.12968 2.77978L8.61286 4.80573C8.21031 4.99555 7.82639 5.21809 7.46451 5.46986L5.45023 4.90409C4.70214 4.69397 3.9068 5.01782 3.51828 5.69075L2.29521 7.80918C1.90669 8.48212 2.02389 9.33283 2.57991 9.87563L4.07721 11.3373C4.05914 11.556 4.04995 11.777 4.04995 12C4.04995 12.223 4.05914 12.444 4.0772 12.6626L2.57989 14.1243C2.02387 14.6671 1.90667 15.5178 2.29518 16.1908L3.51826 18.3092C3.90678 18.9821 4.70212 19.306 5.45021 19.0959L7.46449 18.5301C7.82638 18.7819 8.2103 19.0044 8.61285 19.1942L9.12968 21.2202C9.32175 21.9731 9.99989 22.5 10.7769 22.5H13.2231C14.0001 22.5 14.6783 21.9731 14.8703 21.2202L15.3872 19.1942C15.7897 19.0044 16.1736 18.7818 16.5355 18.5301L18.5498 19.0959C19.2979 19.306 20.0932 18.9821 20.4817 18.3092L21.7048 16.1908C22.0933 15.5178 21.9761 14.6671 21.4201 14.1243L19.9227 12.6625C19.9408 12.4439 19.9499 12.2229 19.9499 12C19.9499 11.777 19.9407 11.5561 19.9227 11.3375L21.4201 9.87566C21.9761 9.33285 22.0933 8.48214 21.7048 7.80921L20.4817 5.69078C20.0932 5.01784 19.2979 4.69399 18.5498 4.90411L16.5354 5.4699C16.1736 5.21814 15.7897 4.99561 15.3872 4.80579L14.8703 2.77978C14.6783 2.02686 14.0001 1.5 13.2231 1.5H10.7769ZM10.4862 3.12584C10.5201 2.99298 10.6398 2.9 10.7769 2.9H13.2231C13.3602 2.9 13.4799 2.99298 13.5138 3.12584L14.0959 5.40797C14.1623 5.66798 14.3458 5.87681 14.5851 5.97969C15.0612 6.18444 15.5084 6.44418 15.9187 6.75105C16.1276 6.90725 16.4006 6.96196 16.6591 6.88933L18.9284 6.25195C19.0604 6.21487 19.2007 6.27202 19.2693 6.39078L20.4924 8.50921C20.5609 8.62796 20.5402 8.77808 20.4421 8.87387L18.7558 10.5202C18.564 10.7074 18.4748 10.9704 18.5051 11.2289C18.5347 11.4815 18.5499 11.7388 18.5499 12C18.5499 12.2611 18.5347 12.5184 18.5051 12.7711C18.4748 13.0295 18.564 13.2926 18.7558 13.4798L20.4421 15.1261C20.5403 15.2219 20.5609 15.372 20.4924 15.4908L19.2693 17.6092C19.2007 17.7279 19.0604 17.7851 18.9284 17.748L16.6592 17.1106C16.4006 17.038 16.1276 17.0927 15.9187 17.2489C15.5084 17.5558 15.0612 17.8155 14.5851 18.0203C14.3458 18.1232 14.1623 18.332 14.096 18.592L13.5138 20.8742C13.4799 21.007 13.3602 21.1 13.2231 21.1H10.7769C10.6398 21.1 10.5201 21.007 10.4862 20.8742L9.90407 18.5921C9.83774 18.332 9.65417 18.1232 9.41494 18.0203C8.93877 17.8156 8.49151 17.5558 8.08119 17.2489C7.87235 17.0928 7.59937 17.038 7.34078 17.1107L5.07163 17.748C4.93961 17.7851 4.79926 17.728 4.7307 17.6092L3.50762 15.4908C3.43906 15.372 3.45974 15.2219 3.55786 15.1261L5.24415 13.4799C5.43592 13.2927 5.52508 13.0296 5.4948 12.7712C5.4652 12.5185 5.44995 12.2612 5.44995 12C5.44995 11.7388 5.4652 11.4815 5.4948 11.2288C5.52508 10.9703 5.43593 10.7073 5.24415 10.52L3.55788 8.87385C3.45976 8.77806 3.43908 8.62794 3.50764 8.50918L4.73072 6.39075C4.79928 6.272 4.93963 6.21485 5.07165 6.25193L7.3408 6.88929C7.59939 6.96192 7.87237 6.90721 8.08121 6.75102C8.49152 6.44414 8.93878 6.18439 9.41494 5.97964C9.65418 5.87677 9.83774 5.66793 9.90407 5.40791L10.4862 3.12584Z" fill="black"/>
</svg>
