<svg width="24" height="24" viewBox="0 0 24 24" fill="none" xmlns="http://www.w3.org/2000/svg">
<path d="M2.5 10.1C2.5 7.43975 2.5 6.10963 3.01772 5.09354C3.47312 4.19978 4.19978 3.47312 5.09354 3.01772C6.10963 2.5 7.43975 2.5 10.1 2.5H11.335V8.42237C11.1299 8.00267 10.882 7.6069 10.5701 7.29513C10.0236 6.74903 9.25345 6.2631 8.41688 6.08609C7.55537 5.90381 6.59929 6.05106 5.8298 6.82045C5.43571 7.2145 5.21797 7.67964 5.17038 8.17752C5.12394 8.66335 5.24337 9.13388 5.44107 9.55356C5.75918 10.2288 6.3142 10.8481 6.93022 11.335H2.5V10.1Z" fill="black"/>
<path d="M2.5 12.665V13.9C2.5 16.5602 2.5 17.8904 3.01772 18.9065C3.47312 19.8002 4.19978 20.5269 5.09354 20.9823C6.10963 21.5 7.43975 21.5 10.1 21.5H11.335V14.44C10.0262 16.2489 8.39959 17.4833 6.43042 17.8771C6.07028 17.9491 5.71994 17.7156 5.64791 17.3554C5.57589 16.9953 5.80945 16.6449 6.16958 16.5729C8.01622 16.2036 9.60912 14.8717 10.9062 12.665H2.5Z" fill="black"/>
<path d="M13.0938 12.665C14.3909 14.8717 15.9838 16.2036 17.8304 16.5729C18.1906 16.6449 18.4241 16.9953 18.3521 17.3554C18.2801 17.7156 17.9297 17.9491 17.5696 17.8771C15.6004 17.4833 13.9738 16.2489 12.665 14.44V21.5H13.9C16.5602 21.5 17.8904 21.5 18.9065 20.9823C19.8002 20.5269 20.5269 19.8002 20.9823 18.9065C21.5 17.8904 21.5 16.5602 21.5 13.9V12.665H13.0938Z" fill="black"/>
<path d="M21.5 11.335V10.1C21.5 7.43975 21.5 6.10963 20.9823 5.09354C20.5269 4.19978 19.8002 3.47312 18.9065 3.01772C17.8904 2.5 16.5602 2.5 13.9 2.5H12.665V8.42237C12.8701 8.00267 13.118 7.6069 13.4299 7.29513C13.9764 6.74903 14.7466 6.2631 15.5831 6.08609C16.4446 5.90381 17.4007 6.05106 18.1702 6.82045C18.5643 7.2145 18.782 7.67964 18.8296 8.17752C18.8761 8.66335 18.7566 9.13388 18.5589 9.55356C18.2408 10.2288 17.6858 10.8481 17.0698 11.335H21.5Z" fill="black"/>
<path d="M15.8584 7.38729C15.3228 7.50062 14.7736 7.83264 14.3701 8.2359C14.015 8.59069 13.7337 9.21452 13.4514 10.0191C13.3845 10.2099 13.317 10.4131 13.2479 10.6211C13.1712 10.8518 13.0926 11.0885 13.0107 11.3203C13.1686 11.3055 13.3383 11.2869 13.5153 11.2633C14.3923 11.1464 15.329 10.9227 15.9061 10.538C16.5528 10.1069 17.0994 9.53104 17.3558 8.98676C17.4813 8.72018 17.5235 8.49127 17.5057 8.30408C17.4889 8.12893 17.4163 7.94747 17.2298 7.76097C16.838 7.36926 16.3691 7.27923 15.8584 7.38729Z" fill="black"/>
<path d="M9.62993 8.2359C9.2264 7.83264 8.67718 7.50062 8.14156 7.38729C7.63088 7.27923 7.16196 7.36926 6.7702 7.76097C6.58367 7.94747 6.51109 8.12893 6.49435 8.30408C6.47645 8.49127 6.51867 8.72018 6.64425 8.98676C6.90065 9.53104 7.44724 10.1069 8.09388 10.538C8.67096 10.9227 9.60767 11.1464 10.4847 11.2633C10.6617 11.2869 10.8314 11.3055 10.9893 11.3203C10.9074 11.0884 10.8288 10.8519 10.7521 10.6211C10.683 10.4131 10.6155 10.2099 10.5486 10.0191C10.2663 9.21452 9.98496 8.59069 9.62993 8.2359Z" fill="black"/>
</svg>
