<svg width="24" height="24" viewBox="0 0 24 24" fill="none" xmlns="http://www.w3.org/2000/svg">
<path d="M12.1002 19.1115C11.5848 19.1115 11.1936 18.978 10.9266 18.711C10.6596 18.4502 10.4765 18.118 10.3771 17.7144C10.2778 17.3046 10.2219 16.8824 10.2095 16.4477C10.2033 16.0069 10.2002 15.6126 10.2002 15.2649C10.2002 14.8427 10.0511 14.4981 9.7531 14.2311C9.45506 13.9579 9.07941 13.8213 8.62614 13.8213C7.80653 13.8213 7.1701 13.5977 6.71683 13.1507C6.26977 12.6974 6.04624 12.0796 6.04624 11.2973C6.04624 10.6391 6.23562 10.0585 6.61438 9.55559C6.99934 9.05265 7.48987 8.66147 8.08595 8.38206C8.68823 8.09644 9.31536 7.95363 9.96732 7.95363C10.284 7.95363 10.6007 7.99709 10.9173 8.08402C11.234 8.16474 11.5196 8.24546 11.7742 8.32618C12.0288 8.4069 12.2243 8.44726 12.3609 8.44726C12.4603 8.44726 12.5348 8.37896 12.5845 8.24236C12.6341 8.09955 12.659 7.96915 12.659 7.85118C12.659 7.74562 12.6093 7.64007 12.51 7.53451C12.4106 7.42896 12.2833 7.32961 12.1281 7.23647C11.9791 7.13713 11.8207 7.0502 11.6531 6.97569C11.4855 6.89497 11.3302 6.82977 11.1874 6.7801L11.4482 6.69628C11.4606 6.95706 11.4141 7.15886 11.3085 7.30167C11.2029 7.44448 11.0446 7.51589 10.8335 7.51589C10.5975 7.51589 10.3895 7.46621 10.2095 7.36687C10.0356 7.26131 9.88039 7.15576 9.74379 7.0502C9.60719 6.94464 9.4799 6.89187 9.36193 6.89187C9.25016 6.89187 9.15392 6.95085 9.0732 7.06883C8.99869 7.1868 8.91487 7.3234 8.82173 7.47863C8.72859 7.63386 8.60131 7.77046 8.43987 7.88843C8.27843 8.00641 8.06111 8.0654 7.78791 8.0654C7.48987 8.0654 7.25392 7.98468 7.08006 7.82324C6.90621 7.65559 6.81928 7.43827 6.81928 7.17128C6.81928 6.87324 6.9031 6.61556 7.07075 6.39824C7.2384 6.17471 7.40294 5.93876 7.56438 5.6904C7.73202 5.44203 7.81585 5.13157 7.81585 4.75902V3.92079H8.70065L8.69134 4.6752C8.69134 5.06017 8.60751 5.40788 8.43987 5.71834C8.27222 6.02879 8.10457 6.29889 7.93693 6.52863C7.76928 6.75837 7.68546 6.94154 7.68546 7.07814C7.68546 7.22095 7.75376 7.29236 7.89036 7.29236C8.00833 7.29236 8.10768 7.23337 8.1884 7.1154C8.26912 6.99121 8.35294 6.85151 8.43987 6.69628C8.52679 6.53484 8.63546 6.39513 8.76585 6.27716C8.89624 6.15298 9.0732 6.09089 9.29673 6.09089C9.4768 6.09089 9.64755 6.13124 9.80898 6.21196C9.97663 6.29268 10.1567 6.40445 10.3492 6.54726L10.6472 6.7801L10.4609 6.79873C10.4796 6.5069 10.5417 6.29268 10.6472 6.15608C10.7528 6.01327 10.9204 5.94187 11.1502 5.94187C11.2868 5.94187 11.4855 5.99464 11.7462 6.1002C12.007 6.20575 12.274 6.34857 12.5472 6.52863C12.8266 6.7087 13.0626 6.90739 13.2551 7.12471C13.4475 7.33582 13.5438 7.55004 13.5438 7.76736C13.5438 7.99709 13.4972 8.23925 13.4041 8.49383C13.3172 8.74219 13.193 8.9533 13.0315 9.12716C12.8701 9.30102 12.6869 9.38794 12.482 9.38794C12.2274 9.38794 11.9698 9.34758 11.709 9.26687C11.4482 9.18615 11.175 9.10543 10.8894 9.02471C10.6038 8.93778 10.2964 8.89432 9.96732 8.89432C9.483 8.89432 9.01111 8.99366 8.55163 9.19236C8.09836 9.39105 7.72271 9.67046 7.42467 10.0306C7.13284 10.3907 6.98693 10.8129 6.98693 11.2973C6.98693 12.3528 7.53333 12.8806 8.62614 12.8806C9.34019 12.8806 9.93627 13.1072 10.4144 13.5605C10.8987 14.0138 11.1408 14.5819 11.1408 15.2649C11.1408 15.6126 11.1408 15.9603 11.1408 16.308C11.1471 16.6495 11.175 16.9631 11.2247 17.2487C11.2743 17.5281 11.3644 17.7517 11.4948 17.9193C11.6314 18.087 11.8332 18.1708 12.1002 18.1708C12.3982 18.1708 12.69 18.059 12.9757 17.8355C13.2675 17.6058 13.5407 17.3294 13.7953 17.0066C14.056 16.6775 14.2827 16.3577 14.4752 16.0473C14.6739 15.7368 14.826 15.4977 14.9315 15.3301C15.0185 15.1811 15.0712 15.029 15.0899 14.8737C15.1147 14.7185 15.1147 14.4857 15.0899 14.1752C15.0837 14.1069 15.0774 14.0355 15.0712 13.961C15.065 13.8865 15.0619 13.8089 15.0619 13.7281C15.0619 13.5481 15.1054 13.3773 15.1923 13.2159C15.2855 13.0482 15.4283 12.8589 15.6207 12.6477C15.7884 12.4491 15.9002 12.2969 15.956 12.1914C16.0181 12.0858 16.0492 11.9803 16.0492 11.8747C16.0492 11.7878 15.956 11.6884 15.7698 11.5767C15.5835 11.4587 15.3662 11.3252 15.1178 11.1762C14.8757 11.021 14.6614 10.8471 14.4752 10.6546C14.2889 10.4559 14.1957 10.2293 14.1957 9.97471C14.1957 9.65183 14.3199 9.34758 14.5683 9.06196C14.8167 8.77634 15.0961 8.63353 15.4065 8.63353C15.6611 8.63353 15.866 8.68941 16.0212 8.80118C16.1827 8.91294 16.3286 9.02471 16.459 9.13647C16.6391 9.28549 16.7881 9.40968 16.906 9.50902C17.0302 9.60216 17.1265 9.67357 17.1948 9.72324C17.2693 9.7667 17.3221 9.78843 17.3531 9.78843C17.4338 9.78843 17.5394 9.72945 17.6698 9.61147C17.8002 9.48729 17.9678 9.4252 18.1727 9.4252C18.4273 9.4252 18.6229 9.53386 18.7595 9.75118C18.9023 9.96229 19.014 10.2324 19.0948 10.5615C19.1755 10.8843 19.2562 11.2165 19.3369 11.558C19.4176 11.8933 19.5201 12.1883 19.6443 12.4428C19.7747 12.6974 19.9578 12.8558 20.1938 12.9178L19.8026 13.7747C19.5418 13.6567 19.3245 13.4705 19.1507 13.2159C18.9768 12.9551 18.8309 12.6695 18.7129 12.359C18.5949 12.0424 18.4956 11.7412 18.4149 11.4556C18.3404 11.1638 18.2752 10.9216 18.2193 10.7291C18.1696 10.5366 18.1199 10.4404 18.0703 10.4404C18.0206 10.4404 17.9709 10.4683 17.9212 10.5242C17.8716 10.5801 17.8095 10.636 17.735 10.6919C17.6605 10.7415 17.5611 10.7664 17.4369 10.7664C17.2817 10.7664 17.1078 10.7012 16.9154 10.5708C16.7291 10.4404 16.5397 10.2914 16.3472 10.1237C16.1609 9.94987 15.9871 9.79775 15.8257 9.66736C15.6704 9.53696 15.5462 9.47177 15.4531 9.47177C15.36 9.47177 15.273 9.52765 15.1923 9.63942C15.1178 9.74497 15.0806 9.85363 15.0806 9.9654C15.0806 10.0523 15.1768 10.161 15.3693 10.2914C15.5618 10.4156 15.7822 10.5615 16.0306 10.7291C16.2851 10.8906 16.5087 11.0675 16.7011 11.26C16.8936 11.4525 16.9899 11.6574 16.9899 11.8747C16.9899 12.1541 16.906 12.418 16.7384 12.6664C16.577 12.9085 16.4124 13.1227 16.2448 13.309C16.0833 13.4953 16.0026 13.635 16.0026 13.7281C16.0026 13.9579 16.0181 14.259 16.0492 14.6316C16.0864 14.9979 15.984 15.3798 15.7418 15.7772C15.6487 15.9324 15.4873 16.1901 15.2575 16.5502C15.034 16.9103 14.7608 17.2891 14.4379 17.6865C14.115 18.0777 13.7549 18.4129 13.3575 18.6924C12.9601 18.9718 12.541 19.1115 12.1002 19.1115ZM14.6149 6.27716C14.441 6.27716 14.3013 6.30821 14.1957 6.3703C14.0964 6.42618 13.9691 6.45412 13.8139 6.45412C13.6649 6.45412 13.5407 6.40755 13.4413 6.31441C13.342 6.21507 13.2923 6.09089 13.2923 5.94187C13.2923 5.71213 13.401 5.53517 13.6183 5.41098C13.8356 5.2868 14.143 5.22471 14.5404 5.22471C14.8757 5.22471 15.1551 5.30232 15.3786 5.45755C15.6083 5.61278 15.7232 5.80216 15.7232 6.02569C15.7232 6.14987 15.6859 6.25543 15.6114 6.34236C15.5431 6.42928 15.4562 6.47275 15.3507 6.47275C15.1768 6.47275 15.034 6.4417 14.9222 6.37961C14.8167 6.31131 14.7142 6.27716 14.6149 6.27716ZM11.709 21.4492C10.4113 21.4492 9.18807 21.2009 8.03938 20.7041C6.89689 20.2074 5.88791 19.5213 5.01242 18.6458C4.13693 17.7703 3.45081 16.7613 2.95408 15.6188C2.45735 14.4701 2.20898 13.2469 2.20898 11.9492C2.20898 10.6515 2.45735 9.43141 2.95408 8.28892C3.45081 7.14023 4.13382 6.12814 5.0031 5.25265C5.87859 4.37716 6.88758 3.69105 8.03006 3.19432C9.17876 2.69758 10.402 2.44922 11.6997 2.44922C12.9974 2.44922 14.2206 2.69758 15.3693 3.19432C16.518 3.69105 17.5301 4.37716 18.4056 5.25265C19.281 6.12814 19.9672 7.14023 20.4639 8.28892C20.9606 9.43141 21.209 10.6515 21.209 11.9492C21.209 13.2469 20.9606 14.4701 20.4639 15.6188C19.9672 16.7613 19.281 17.7703 18.4056 18.6458C17.5301 19.5213 16.518 20.2074 15.3693 20.7041C14.2268 21.2009 13.0067 21.4492 11.709 21.4492ZM11.709 20.1826C12.8328 20.1826 13.8915 19.9652 14.885 19.5306C15.8784 19.1022 16.7539 18.5092 17.5114 17.7517C18.269 16.9942 18.8619 16.1187 19.2904 15.1252C19.725 14.1317 19.9423 13.0731 19.9423 11.9492C19.9423 10.8254 19.725 9.7667 19.2904 8.77324C18.8619 7.77977 18.2658 6.90428 17.5021 6.14677C16.7446 5.38925 15.8691 4.79628 14.8757 4.36785C13.8822 3.93321 12.8235 3.71589 11.6997 3.71589C10.5758 3.71589 9.51715 3.93321 8.52369 4.36785C7.53023 4.79628 6.65474 5.38925 5.89722 6.14677C5.14591 6.90428 4.55294 7.77977 4.1183 8.77324C3.68987 9.7667 3.47565 10.8254 3.47565 11.9492C3.47565 13.0731 3.68987 14.1317 4.1183 15.1252C4.55294 16.1187 5.14902 16.9942 5.90653 17.7517C6.66405 18.5092 7.53954 19.1022 8.533 19.5306C9.52647 19.9652 10.5851 20.1826 11.709 20.1826Z" fill="black"/>
</svg>
