<svg width="24" height="24" viewBox="0 0 24 24" fill="none" xmlns="http://www.w3.org/2000/svg">
<path d="M12.5248 19.2833C12.2392 19.2833 11.9536 19.2357 11.668 19.1405C11.3823 19.0453 11.0586 18.8382 10.6969 18.5193L7.76209 16.0629C7.70021 16.0629 7.63832 16.0653 7.57644 16.0701C7.51455 16.0701 7.45505 16.0701 7.39792 16.0701C6.68387 16.0701 6.02694 15.9963 5.42713 15.8487C4.83209 15.6964 4.29417 15.4536 3.81337 15.1204C3.33734 14.7872 2.92318 14.3445 2.57092 13.7923C2.11392 13.797 1.73786 13.6804 1.44271 13.4424C1.14757 13.1996 1 12.8759 1 12.4713C1 12.1047 1.12853 11.8096 1.38559 11.5858C1.64741 11.3573 1.97349 11.2478 2.36384 11.2574C2.68755 10.3243 3.10884 9.55315 3.62772 8.94383C4.1466 8.3345 4.74164 7.88227 5.41285 7.58713C6.08882 7.28722 6.81954 7.13727 7.605 7.13727C8.2048 7.13727 8.76415 7.2063 9.28302 7.34435C9.8019 7.47764 10.3017 7.66329 10.7825 7.90131C11.2681 8.13457 11.7608 8.40353 12.2606 8.70819C12.7652 9.01285 13.3008 9.33656 13.8673 9.6793C14.2719 9.9078 14.6384 10.1077 14.9669 10.2791C15.3001 10.4505 15.6143 10.5362 15.9094 10.5362C16.1141 10.5362 16.2903 10.4957 16.4378 10.4148C16.5902 10.3291 16.7449 10.2148 16.902 10.072L12.8604 7.50144C12.5605 7.31102 12.2487 7.10157 11.925 6.87307C11.6061 6.63981 11.3347 6.41132 11.111 6.18758C10.892 5.95908 10.7825 5.75201 10.7825 5.56635C10.7825 5.3569 10.8754 5.16648 11.061 4.99511C11.2467 4.81898 11.4847 4.66664 11.7751 4.53811C12.0655 4.40482 12.3677 4.30486 12.6819 4.23821C13.0009 4.17157 13.2912 4.13824 13.5531 4.13824C14.2052 4.13824 14.8526 4.30724 15.4953 4.64522C16.1379 4.98321 16.7163 5.51399 17.2304 6.23756L19.0156 8.75817C19.6154 8.74389 20.1581 8.8391 20.6436 9.0438C21.1292 9.24849 21.5481 9.53887 21.9004 9.91494C22.2526 10.291 22.524 10.729 22.7144 11.2288C22.9048 11.7286 23 12.2618 23 12.8283C23 13.4614 22.8977 13.9541 22.693 14.3064C22.493 14.6539 22.1907 14.899 21.7861 15.0418C21.3862 15.1799 20.8888 15.2489 20.2937 15.2489C19.8843 15.2489 19.5083 15.2037 19.1655 15.1133C18.8228 15.0228 18.5015 14.9014 18.2016 14.7491C17.9017 14.5968 17.616 14.4301 17.3447 14.2492C17.0353 14.3968 16.752 14.542 16.495 14.6848C16.2427 14.8276 16.0023 14.9681 15.7738 15.1061C15.5691 15.068 15.3644 15.0418 15.1597 15.0276C14.955 15.0085 14.7455 14.999 14.5313 14.999C14.2695 14.999 14.0077 15.0109 13.7459 15.0347C13.4888 15.0585 13.2413 15.0942 13.0032 15.1418L12.5177 14.0208C12.0036 12.8354 11.3276 11.9524 10.4898 11.3716C9.65195 10.7908 8.68798 10.5005 7.59786 10.5005C7.25035 10.5005 6.93855 10.5433 6.66245 10.629C6.39111 10.7147 6.25544 10.8837 6.25544 11.136C6.25544 11.2931 6.30542 11.4097 6.40539 11.4859C6.50536 11.562 6.63626 11.6001 6.79812 11.6001H7.66212C8.23337 11.6001 8.76415 11.7072 9.25446 11.9214C9.74954 12.1356 10.1923 12.4475 10.5826 12.8568C10.973 13.2662 11.3014 13.7613 11.568 14.3421L12.382 16.1415C12.5962 16.0986 12.8009 16.0558 12.9961 16.013C13.196 15.9654 13.4222 15.9273 13.6745 15.8987C13.9268 15.8654 14.2362 15.8487 14.6027 15.8487C15.3311 15.8487 15.9523 15.9463 16.4664 16.1415C16.9805 16.3367 17.3733 16.6032 17.6446 16.9412C17.9159 17.2745 18.0516 17.6481 18.0516 18.0623C18.0516 18.4479 17.9088 18.7478 17.6232 18.962C17.3376 19.1762 16.9305 19.2833 16.4021 19.2833C16.1641 19.2833 15.9594 19.2619 15.7881 19.2191C15.6167 19.1762 15.431 19.1358 15.2311 19.0977C15.0312 19.0596 14.7717 19.0406 14.4528 19.0406C13.9863 19.0406 13.6102 19.081 13.3246 19.1619C13.0437 19.2429 12.7771 19.2833 12.5248 19.2833ZM7.0766 19.8617C6.31494 19.8617 5.70562 19.7165 5.24862 19.4261C4.79639 19.1405 4.57027 18.7597 4.57027 18.2837C4.57027 17.9647 4.68452 17.71 4.91302 17.5196C5.14627 17.3244 5.46046 17.2269 5.85557 17.2269C6.06026 17.2269 6.2602 17.2364 6.45537 17.2554C6.65055 17.2697 6.82906 17.2864 6.99091 17.3054C7.15752 17.3244 7.29796 17.334 7.4122 17.334C7.48361 17.334 7.54787 17.3316 7.605 17.3268C7.66212 17.3221 7.71687 17.3173 7.76923 17.3125L9.95424 19.1548C9.60673 19.3833 9.20686 19.557 8.75462 19.6761C8.30239 19.7998 7.74305 19.8617 7.0766 19.8617ZM19.8724 12.5498C20.0581 12.5498 20.2152 12.4808 20.3437 12.3427C20.477 12.1999 20.5437 12.0357 20.5437 11.85C20.5437 11.6691 20.4794 11.5144 20.3509 11.3859C20.2223 11.2574 20.0652 11.1931 19.8796 11.1931C19.6987 11.1931 19.5416 11.2621 19.4083 11.4002C19.2798 11.5382 19.2155 11.6977 19.2155 11.8786C19.2155 12.0595 19.2798 12.2166 19.4083 12.3499C19.5368 12.4832 19.6915 12.5498 19.8724 12.5498Z" fill="black"/>
</svg>
