<svg width="24" height="24" viewBox="0 0 24 24" fill="none" xmlns="http://www.w3.org/2000/svg">
<path fill-rule="evenodd" clip-rule="evenodd" d="M12 21.5C17.2467 21.5 21.5 17.2467 21.5 12C21.5 6.75329 17.2467 2.5 12 2.5C6.75329 2.5 2.5 6.75329 2.5 12C2.5 17.2467 6.75329 21.5 12 21.5ZM13.0795 7.46592C13.0795 8.06213 12.5962 8.54546 12 8.54546C11.4038 8.54546 10.9205 8.06213 10.9205 7.46592C10.9205 6.8697 11.4038 6.38637 12 6.38637C12.5962 6.38637 13.0795 6.8697 13.0795 7.46592ZM9.55162 10.7045C9.55162 10.3063 9.87449 9.98341 10.2728 9.98341H12.2159C12.6142 9.98341 12.9371 10.3063 12.9371 10.7045V16.0289H14.1591C14.5574 16.0289 14.8803 16.3517 14.8803 16.75C14.8803 17.1483 14.5574 17.4711 14.1591 17.4711H10.2728C9.87449 17.4711 9.55162 17.1483 9.55162 16.75C9.55162 16.3517 9.87449 16.0289 10.2728 16.0289H11.4948V11.4257H10.2728C9.87449 11.4257 9.55162 11.1028 9.55162 10.7045Z" fill="black"/>
</svg>
