<svg width="24" height="24" viewBox="0 0 24 24" fill="none" xmlns="http://www.w3.org/2000/svg">
<path fill-rule="evenodd" clip-rule="evenodd" d="M16.1046 4.86509C16.3862 4.58346 16.527 4.44265 16.6674 4.34885C17.2439 3.96363 17.9957 3.96363 18.5722 4.34885C18.7126 4.44265 18.8534 4.58346 19.135 4.86508C19.4167 5.14671 19.5575 5.28752 19.6513 5.42791C20.0365 6.00442 20.0365 6.75621 19.6513 7.33272C19.5575 7.47311 19.4167 7.61392 19.135 7.89554L18.226 8.80464L15.1955 5.77421L13.9833 6.98639L17.0138 10.0168L7.31626 19.7143L4.28581 16.6839L16.1046 4.86509ZM4.28577 19.7143V16.6839L7.31621 19.7143L4.28577 19.7143Z" fill="black"/>
</svg>
