<svg width="24" height="24" viewBox="0 0 24 24" fill="none" xmlns="http://www.w3.org/2000/svg">
<path fill-rule="evenodd" clip-rule="evenodd" d="M2.49915 12.0001C2.49915 6.75342 6.75244 2.50012 11.9991 2.50012C17.2459 2.50012 21.4991 6.75342 21.4991 12.0001C21.4991 17.2468 17.2459 21.5001 11.9991 21.5001C6.75244 21.5001 2.49915 17.2468 2.49915 12.0001ZM12.0001 6.96441C12.4143 6.96441 12.7501 7.30019 12.7501 7.71441V11.2501H16.2858C16.7 11.2501 17.0358 11.5859 17.0358 12.0001C17.0358 12.4143 16.7 12.7501 16.2858 12.7501H12.7501V16.2858C12.7501 16.7 12.4143 17.0358 12.0001 17.0358C11.5859 17.0358 11.2501 16.7 11.2501 16.2858V12.7501H7.71441C7.30019 12.7501 6.96441 12.4143 6.96441 12.0001C6.96441 11.5859 7.30019 11.2501 7.71441 11.2501H11.2501V7.71441C11.2501 7.30019 11.5859 6.96441 12.0001 6.96441Z" fill="black"/>
</svg>
