<svg width="24" height="24" viewBox="0 0 24 24" fill="none" xmlns="http://www.w3.org/2000/svg">
<path fill-rule="evenodd" clip-rule="evenodd" d="M19.7527 16.6453C19.5769 15.758 19.469 15.0274 18.9148 11.0097C18.0072 4.43 11.9311 -1.5798 7.30652 5.82435C5.72371 8.35849 5.12607 11.1735 4.52124 14.0224C4.4348 14.4296 4.3482 14.8375 4.25856 15.2453C4.08818 16.0284 4.00697 16.9973 4.20129 17.2826C4.57138 17.8259 5.20977 18.2431 5.86725 18.6728L5.86728 18.6729C6.10253 18.8266 6.34023 18.982 6.56896 19.1453C7.46637 19.786 9.60714 20.9784 10.936 21.6626C12.0903 22.2568 13.2976 21.606 13.9205 21.2702L13.9206 21.2701C14.0148 21.2193 14.0957 21.1757 14.161 21.1448C14.6985 20.8897 18.1372 19.2311 19.2527 18.5137C20.1171 17.9578 19.9265 17.2805 19.8036 16.8435C19.783 16.7701 19.7642 16.7035 19.7527 16.6453ZM14.881 18.766C13.9066 20.0357 12.8912 20.2448 11.9887 20.1796C9.70793 20.0147 8.21474 16.704 7.62497 14.8653C6.78472 12.5506 7.67485 11.94 8.05006 11.6827C8.08598 11.658 8.11719 11.6366 8.1417 11.6173C8.42222 11.3958 9.38062 11.1716 10.1939 11.8387C11 12.5 11.3332 12.625 11.9887 12.6117C12.529 12.6007 13.4076 12.1298 13.9653 11.8309L13.9653 11.8309C14.144 11.7351 14.2898 11.6569 14.3809 11.6173C14.9254 11.3802 15.7894 11.3381 16.5447 12.1333C17.2593 12.8857 17.0577 14.1557 16.7295 15.3518C16.3795 16.6274 15.8555 17.4963 14.881 18.766ZM14.036 18.2094C14.3268 17.7291 14.4854 17.0885 14.3662 16.4577C14.0768 14.9262 11.0732 14.8873 10.2116 15.7789C9.54558 16.4681 9.92946 17.8693 10.5371 18.45C11.465 19.3368 13.3132 19.4037 14.036 18.2094Z" fill="black"/>
</svg>
