<svg width="24" height="24" viewBox="0 0 24 24" fill="none" xmlns="http://www.w3.org/2000/svg">
<path d="M7.50947 2.6286H8.5714C9.01323 2.6286 9.3714 2.98677 9.3714 3.4286C9.3714 3.87043 9.01323 4.2286 8.5714 4.2286H7.54283C6.80956 4.2286 6.30772 4.22922 5.91906 4.26098C5.53974 4.29197 5.33921 4.34858 5.19576 4.42168C4.86244 4.59151 4.59145 4.8625 4.42162 5.19582C4.34852 5.33927 4.29191 5.53981 4.26092 5.91912C4.22916 6.30778 4.22854 6.80962 4.22854 7.54289V8.57146C4.22854 9.01329 3.87037 9.37146 3.42854 9.37146C2.98671 9.37146 2.62854 9.01329 2.62854 8.57146V7.50954C2.62853 6.81781 2.62852 6.25036 2.66623 5.78883C2.70531 5.31057 2.78883 4.87604 2.996 4.46943C3.31923 3.83506 3.835 3.3193 4.46937 2.99607C4.87598 2.78889 5.31051 2.70537 5.78877 2.66629C6.2503 2.62858 6.81775 2.62859 7.50947 2.6286Z" fill="black"/>
<path d="M7.50947 21.3715L8.5714 21.3715C9.01323 21.3715 9.3714 21.0133 9.3714 20.5715C9.3714 20.1296 9.01323 19.7715 8.5714 19.7715H7.54283C6.80956 19.7715 6.30772 19.7708 5.91906 19.7391C5.53974 19.7081 5.33921 19.6515 5.19576 19.5784C4.86244 19.4086 4.59145 19.1376 4.42162 18.8042C4.34852 18.6608 4.29191 18.4603 4.26092 18.0809C4.22916 17.6923 4.22854 17.1904 4.22854 16.4572V15.4286C4.22854 14.9868 3.87037 14.6286 3.42854 14.6286C2.98671 14.6286 2.62854 14.9868 2.62854 15.4286V16.4905C2.62853 17.1822 2.62852 17.7497 2.66623 18.2112C2.70531 18.6895 2.78883 19.124 2.996 19.5306C3.31923 20.165 3.835 20.6808 4.46937 21.004C4.87598 21.2112 5.31051 21.2947 5.78877 21.3338C6.2503 21.3715 6.81774 21.3715 7.50947 21.3715Z" fill="black"/>
<path d="M16.4905 2.6286C17.1822 2.62859 17.7496 2.62858 18.2112 2.66629C18.6894 2.70537 19.124 2.78889 19.5306 2.99607C20.1649 3.3193 20.6807 3.83506 21.0039 4.46943C21.2111 4.87604 21.2946 5.31057 21.3337 5.78883C21.3714 6.25036 21.3714 6.81781 21.3714 7.50954L21.3714 8.57146C21.3714 9.01329 21.0132 9.37146 20.5714 9.37146C20.1296 9.37146 19.7714 9.01329 19.7714 8.57146V7.54289C19.7714 6.80962 19.7708 6.30778 19.739 5.91912C19.708 5.53981 19.6514 5.33927 19.5783 5.19582C19.4085 4.8625 19.1375 4.59151 18.8042 4.42168C18.6607 4.34858 18.4602 4.29197 18.0809 4.26098C17.6922 4.22922 17.1904 4.2286 16.4571 4.2286H15.4285C14.9867 4.2286 14.6285 3.87043 14.6285 3.4286C14.6285 2.98677 14.9867 2.6286 15.4285 2.6286H16.4905Z" fill="black"/>
<path d="M16.4905 21.3715L15.4285 21.3715C14.9867 21.3715 14.6285 21.0133 14.6285 20.5715C14.6285 20.1296 14.9867 19.7715 15.4285 19.7715H16.4571C17.1904 19.7715 17.6922 19.7708 18.0809 19.7391C18.4602 19.7081 18.6607 19.6515 18.8042 19.5784C19.1375 19.4086 19.4085 19.1376 19.5783 18.8042C19.6514 18.6608 19.708 18.4603 19.739 18.0809C19.7708 17.6923 19.7714 17.1904 19.7714 16.4572V15.4286C19.7714 14.9868 20.1296 14.6286 20.5714 14.6286C21.0132 14.6286 21.3714 14.9868 21.3714 15.4286L21.3714 16.4905C21.3714 17.1823 21.3714 17.7497 21.3337 18.2112C21.2946 18.6895 21.2111 19.124 21.0039 19.5306C20.6807 20.165 20.1649 20.6808 19.5306 21.004C19.124 21.2112 18.6894 21.2947 18.2112 21.3338C17.7496 21.3715 17.1822 21.3715 16.4905 21.3715Z" fill="black"/>
<path d="M6.85743 11.2003C6.4156 11.2003 6.05743 11.5585 6.05743 12.0003C6.05743 12.4422 6.4156 12.8003 6.85743 12.8003H17.1431C17.585 12.8003 17.9431 12.4422 17.9431 12.0003C17.9431 11.5585 17.585 11.2003 17.1431 11.2003H6.85743Z" fill="black"/>
</svg>
