<svg width="24" height="24" viewBox="0 0 24 24" fill="none" xmlns="http://www.w3.org/2000/svg">
<path fill-rule="evenodd" clip-rule="evenodd" d="M7.74215 5.5C7.51087 5.49999 7.28888 5.49999 7.07648 5.50113C7.12412 5.15999 7.20146 4.88439 7.32699 4.63803C7.61461 4.07354 8.07355 3.6146 8.63804 3.32698C9.27977 3 10.1199 3 11.8 3H16.2C17.8802 3 18.7202 3 19.362 3.32698C19.9265 3.6146 20.3854 4.07354 20.673 4.63803C21 5.27976 21 6.11984 21 7.8V12.2C21 13.8802 21 14.7202 20.673 15.362C20.3854 15.9265 19.9265 16.3854 19.362 16.673C19.1156 16.7985 18.84 16.8759 18.4989 16.9235C18.5 16.7112 18.5 16.4892 18.5 16.258V16.2578V11.7422C18.5 10.9515 18.5001 10.2693 18.4542 9.70746C18.4057 9.11444 18.2987 8.52461 18.0095 7.95705C17.5781 7.11032 16.8897 6.4219 16.043 5.99047C15.4754 5.70128 14.8856 5.59431 14.2926 5.54586C13.7307 5.49995 13.0486 5.49997 12.2578 5.5H7.7422H7.74215ZM3.32698 8.63803C3 9.27976 3 10.1198 3 11.8V16.2C3 17.8802 3 18.7202 3.32698 19.362C3.6146 19.9265 4.07354 20.3854 4.63803 20.673C5.27976 21 6.11984 21 7.8 21H12.2C13.8802 21 14.7202 21 15.362 20.673C15.9265 20.3854 16.3854 19.9265 16.673 19.362C17 18.7202 17 17.8802 17 16.2V11.8C17 10.1198 17 9.27976 16.673 8.63803C16.3854 8.07354 15.9265 7.6146 15.362 7.32698C14.7202 7 13.8802 7 12.2 7H7.8C6.11984 7 5.27976 7 4.63803 7.32698C4.07354 7.6146 3.6146 8.07354 3.32698 8.63803Z" fill="black"/>
</svg>
