<svg width="24" height="24" viewBox="0 0 24 24" fill="none" xmlns="http://www.w3.org/2000/svg">
<path fill-rule="evenodd" clip-rule="evenodd" d="M12.7071 2.70906C12.5196 2.52152 12.2652 2.41616 12 2.41616C11.7348 2.41616 11.4805 2.52152 11.2929 2.70906L6.44264 7.55935C6.05212 7.94988 6.05212 8.58305 6.44264 8.97357C6.83317 9.36409 7.46633 9.36409 7.85686 8.97357L11 5.83038V14.1946C11 14.7469 11.4477 15.1946 12 15.1946C12.5523 15.1946 13 14.7469 13 14.1946V5.83038L16.1432 8.97357C16.5337 9.36409 17.1669 9.36409 17.5574 8.97357C17.9479 8.58305 17.9479 7.94988 17.5574 7.55935L12.7071 2.70906ZM5.45515 14.7335C5.45515 14.1812 5.00743 13.7335 4.45515 13.7335C3.90287 13.7335 3.45515 14.1812 3.45515 14.7335V16.1347L3.45515 16.1738C3.45513 16.7441 3.45512 17.2315 3.48784 17.632C3.52226 18.0533 3.59782 18.4658 3.7991 18.8608C4.10164 19.4546 4.5844 19.9373 5.17818 20.2399C5.57321 20.4412 5.98566 20.5167 6.40696 20.5511C6.80745 20.5839 7.29479 20.5838 7.86504 20.5838H7.86515L7.90424 20.5838H16.0958L16.1349 20.5838H16.135C16.7053 20.5838 17.1926 20.5839 17.5931 20.5511C18.0144 20.5167 18.4268 20.4412 18.8219 20.2399C19.4157 19.9373 19.8984 19.4546 20.201 18.8608C20.4022 18.4658 20.4778 18.0533 20.5122 17.632C20.5449 17.2315 20.5449 16.7442 20.5449 16.1739V16.1739V16.1347V14.7335C20.5449 14.1812 20.0972 13.7335 19.5449 13.7335C18.9926 13.7335 18.5449 14.1812 18.5449 14.7335V16.1347C18.5449 16.7549 18.5441 17.1599 18.5189 17.4691C18.4945 17.7668 18.4526 17.8867 18.4189 17.9528C18.3081 18.1703 18.1313 18.3471 17.9139 18.4579C17.8478 18.4915 17.7279 18.5335 17.4302 18.5578C17.1209 18.583 16.716 18.5838 16.0958 18.5838H7.90424C7.2841 18.5838 6.87913 18.583 6.56983 18.5578C6.2722 18.5335 6.15226 18.4915 6.08616 18.4579C5.86871 18.3471 5.69191 18.1703 5.58111 17.9528C5.54743 17.8867 5.50552 17.7668 5.4812 17.4691C5.45593 17.1599 5.45515 16.7549 5.45515 16.1347V14.7335Z" fill="black"/>
</svg>
