<svg width="24" height="24" viewBox="0 0 24 24" fill="none" xmlns="http://www.w3.org/2000/svg">
<path d="M3.58191 11.7709C8.64478 9.56555 12.02 8.11153 13.7076 7.40908C18.5317 5.40319 19.5328 5.05481 20.1867 5.04314C20.3305 5.0407 20.6507 5.07625 20.8596 5.24528C21.0333 5.38772 21.0821 5.58036 21.1066 5.71548C21.1283 5.8506 21.1581 6.15855 21.1337 6.39894C20.8732 9.14472 19.7418 15.8079 19.1666 18.8833C18.9251 20.1846 18.4449 20.6209 17.9809 20.6635C16.9716 20.7563 16.2064 19.9971 15.2297 19.357C13.7021 18.355 12.8394 17.7315 11.3553 16.754C9.6405 15.6242 10.7529 15.0031 11.7297 13.9884C11.9847 13.7227 16.4289 9.6814 16.513 9.31484C16.5239 9.26899 16.5348 9.09806 16.4317 9.00798C16.3313 8.91763 16.182 8.94856 16.0735 8.97298C15.9188 9.00771 13.4796 10.6215 8.74776 13.8142C8.05589 14.2901 7.42915 14.5221 6.8648 14.5099C6.24619 14.4966 5.05245 14.1593 4.16523 13.8712C3.07994 13.5176 2.21438 13.3307 2.29035 12.7303C2.32834 12.4177 2.75981 12.0978 3.58191 11.7709Z" fill="black"/>
</svg>
