<svg width="24" height="24" viewBox="0 0 24 24" fill="none" xmlns="http://www.w3.org/2000/svg">
<path fill-rule="evenodd" clip-rule="evenodd" d="M11.9991 2.50012C6.75244 2.50012 2.49915 6.75342 2.49915 12.0001C2.49915 17.2468 6.75244 21.5001 11.9991 21.5001C17.2459 21.5001 21.4991 17.2468 21.4991 12.0001C21.4991 6.75342 17.2459 2.50012 11.9991 2.50012ZM8.75926 7.5H15.247H15.2478C16.4398 7.5 17.1959 8.7884 16.5966 9.82695L12.5918 16.767C12.3305 17.2201 11.6757 17.2201 11.4144 16.767L7.41044 9.82695C6.81034 8.78676 7.56639 7.5 8.75926 7.5ZM11.4103 14.6842V8.68552H8.75844C8.46778 8.68552 8.29632 8.99415 8.43512 9.23501L10.5392 12.9981L11.4103 14.6842ZM13.4662 12.9989L15.5695 9.23419C15.7083 8.99333 15.5368 8.6847 15.2461 8.6847H12.5942V14.6858L13.4662 12.9989Z" fill="black"/>
</svg>
