<svg width="24" height="24" viewBox="0 0 24 24" fill="none" xmlns="http://www.w3.org/2000/svg">
<path d="M12.5419 2.32257C7.0529 2.32257 2.58581 6.62515 2.58387 11.9129C2.58258 13.6039 3.04194 15.2542 3.9129 16.7077L2.5 21.6774L7.77935 20.3439C9.24788 21.112 10.8808 21.5127 12.5381 21.5116C17.8018 21.5116 22.498 17.296 22.5 11.9206C22.5013 9.35934 21.4664 6.94838 19.5858 5.13612C17.7058 3.32322 15.2058 2.32322 12.5419 2.32257ZM12.5387 19.8916C10.9172 19.8916 9.41837 19.4036 8.02258 18.6077L4.89097 19.3987L5.7271 16.4568C4.82894 15.0815 4.26376 13.5758 4.26452 11.9129C4.26645 7.51741 7.98 3.94257 12.5452 3.94257C14.7555 3.94322 16.8335 4.77354 18.3968 6.27999C19.96 7.78644 20.82 9.78967 20.8187 11.92C20.8167 16.388 16.9141 19.8916 12.5387 19.8916ZM17.0819 13.9206C16.8329 13.8013 15.6097 13.2213 15.3813 13.1406C15.1535 13.0613 14.9877 13.02 14.8219 13.26C14.6568 13.5 14.1794 14.04 14.0348 14.1993C13.889 14.3593 13.7439 14.3787 13.4948 14.2593C13.2458 14.1393 12.4439 13.8864 11.4942 13.0697C10.7542 12.4348 10.2548 11.6503 10.1097 11.4097C9.96452 11.1703 10.0942 11.0406 10.2187 10.9213C10.3303 10.8148 10.4677 10.6419 10.5916 10.5019C10.7155 10.3619 10.7568 10.2619 10.8406 10.1019C10.9232 9.94257 10.8819 9.80192 10.8194 9.68257C10.7568 9.56192 10.26 8.38257 10.0516 7.90321C9.85032 7.43612 9.64516 7.4987 9.49226 7.49096C9.3471 7.48451 9.18193 7.48257 9.01484 7.48257C8.85032 7.48257 8.58 7.54257 8.35161 7.78257C8.12387 8.02257 7.48064 8.60192 7.48064 9.78128C7.48064 10.9613 8.37226 12.1006 8.49677 12.2606C8.62129 12.42 10.2516 14.8413 12.7477 15.88C13.3413 16.1258 13.8045 16.2735 14.1665 16.3845C14.7626 16.5671 15.3052 16.5406 15.7335 16.4793C16.211 16.4103 17.2058 15.9 17.4123 15.3406C17.62 14.7813 17.62 14.3013 17.5581 14.2013C17.4974 14.1013 17.331 14.0413 17.0819 13.9206Z" fill="black"/>
</svg>
