<svg width="112" height="112" viewBox="0 0 112 112" fill="none" xmlns="http://www.w3.org/2000/svg">
<path d="M21 42.3984C19.4115 42.3984 18.6172 41.5781 18.6172 39.9375V29.8984C18.6172 26.1224 19.5807 23.2839 21.5078 21.3828C23.4349 19.4818 26.2995 18.5312 30.1016 18.5312H40.1406C41.7812 18.5312 42.6016 19.3255 42.6016 20.9141C42.6016 22.5286 41.7812 23.3359 40.1406 23.3359H30.2188C28.0052 23.3359 26.3125 23.9089 25.1406 25.0547C23.9948 26.2005 23.4219 27.9062 23.4219 30.1719V39.9375C23.4219 41.5781 22.6146 42.3984 21 42.3984ZM90.9219 42.3984C89.3333 42.3984 88.5391 41.5781 88.5391 39.9375V30.1719C88.5391 27.9062 87.9401 26.2005 86.7422 25.0547C85.5443 23.9089 83.8646 23.3359 81.7031 23.3359H71.8203C70.1797 23.3359 69.3594 22.5286 69.3594 20.9141C69.3594 19.3255 70.1797 18.5312 71.8203 18.5312H81.8203C85.6484 18.5312 88.526 19.4948 90.4531 21.4219C92.3802 23.3229 93.3438 26.1484 93.3438 29.8984V39.9375C93.3438 41.5781 92.5365 42.3984 90.9219 42.3984ZM30.1016 93.2188C26.2995 93.2188 23.4349 92.2552 21.5078 90.3281C19.5807 88.4271 18.6172 85.5885 18.6172 81.8125V71.8125C18.6172 70.1719 19.4115 69.3516 21 69.3516C22.6146 69.3516 23.4219 70.1719 23.4219 71.8125V81.5781C23.4219 83.8438 23.9948 85.5495 25.1406 86.6953C26.3125 87.8411 28.0052 88.4141 30.2188 88.4141H40.1406C41.7812 88.4141 42.6016 89.2214 42.6016 90.8359C42.6016 92.4245 41.7812 93.2188 40.1406 93.2188H30.1016ZM71.8203 93.2188C70.1797 93.2188 69.3594 92.4245 69.3594 90.8359C69.3594 89.2214 70.1797 88.4141 71.8203 88.4141H81.7031C83.8646 88.4141 85.5443 87.8411 86.7422 86.6953C87.9401 85.5495 88.5391 83.8438 88.5391 81.5781V71.8125C88.5391 70.1719 89.3333 69.3516 90.9219 69.3516C92.5365 69.3516 93.3438 70.1719 93.3438 71.8125V81.8125C93.3438 85.5885 92.3802 88.4271 90.4531 90.3281C88.526 92.2552 85.6484 93.2188 81.8203 93.2188H71.8203ZM41.4688 52.75C40.7135 52.75 40.0885 52.5156 39.5938 52.0469C39.125 51.5781 38.8906 50.9401 38.8906 50.1328V44.8594C38.8906 44.0781 39.125 43.4531 39.5938 42.9844C40.0885 42.4896 40.7135 42.2422 41.4688 42.2422C42.224 42.2422 42.849 42.4896 43.3438 42.9844C43.8385 43.4531 44.0859 44.0781 44.0859 44.8594V50.1328C44.0859 50.9401 43.8385 51.5781 43.3438 52.0469C42.849 52.5156 42.224 52.75 41.4688 52.75ZM52.7969 61.8906C51.9896 61.8906 51.3646 61.7083 50.9219 61.3438C50.4792 60.9531 50.2578 60.4323 50.2578 59.7812C50.2578 59.2083 50.4401 58.7396 50.8047 58.375C51.1953 57.9844 51.6771 57.7891 52.25 57.7891H53.5781C53.8646 57.7891 54.112 57.6979 54.3203 57.5156C54.5547 57.3333 54.6719 57.0599 54.6719 56.6953V44.1953C54.6719 43.5703 54.8542 43.0885 55.2188 42.75C55.5833 42.3854 56.0651 42.2031 56.6641 42.2031C57.2891 42.2031 57.7839 42.3854 58.1484 42.75C58.513 43.0885 58.6953 43.5703 58.6953 44.1953V56.3438C58.6953 58.1667 58.2266 59.5469 57.2891 60.4844C56.3516 61.4219 54.9714 61.8906 53.1484 61.8906C53.0964 61.8906 53.0312 61.8906 52.9531 61.8906C52.901 61.8906 52.849 61.8906 52.7969 61.8906ZM70.2578 52.75C69.4766 52.75 68.8516 52.5156 68.3828 52.0469C67.9141 51.5781 67.6797 50.9401 67.6797 50.1328V44.8594C67.6797 44.0781 67.9141 43.4531 68.3828 42.9844C68.8516 42.4896 69.4766 42.2422 70.2578 42.2422C71.013 42.2422 71.625 42.4896 72.0938 42.9844C72.5885 43.4531 72.8359 44.0781 72.8359 44.8594V50.1328C72.8359 50.9401 72.5885 51.5781 72.0938 52.0469C71.625 52.5156 71.013 52.75 70.2578 52.75ZM55.6875 74.5078C53.4219 74.5078 51.1823 74.0651 48.9688 73.1797C46.7552 72.2682 44.8802 70.9531 43.3438 69.2344C43.1354 69.026 42.9661 68.8047 42.8359 68.5703C42.7318 68.3099 42.6797 68.0365 42.6797 67.75C42.6797 67.151 42.875 66.6693 43.2656 66.3047C43.6562 65.9401 44.138 65.7578 44.7109 65.7578C45.0755 65.7578 45.375 65.8359 45.6094 65.9922C45.8698 66.1484 46.1432 66.3568 46.4297 66.6172C47.5755 67.7891 48.9818 68.7266 50.6484 69.4297C52.3151 70.1328 53.9948 70.4844 55.6875 70.4844C57.4844 70.4844 59.2031 70.1328 60.8438 69.4297C62.5104 68.7005 63.9036 67.763 65.0234 66.6172C65.5703 66.0443 66.1302 65.7578 66.7031 65.7578C67.25 65.7578 67.7188 65.9401 68.1094 66.3047C68.5 66.6693 68.6953 67.151 68.6953 67.75C68.6953 68.0885 68.6432 68.388 68.5391 68.6484C68.4349 68.8828 68.2917 69.0911 68.1094 69.2734C66.4427 70.9141 64.5156 72.2031 62.3281 73.1406C60.1667 74.0521 57.9531 74.5078 55.6875 74.5078Z" fill="#007AFF"/>
</svg>
