<svg width="112" height="112" viewBox="0 0 112 112" fill="none" xmlns="http://www.w3.org/2000/svg">
<path d="M21.4485 47.0388C20.9224 46.6766 20.594 46.2121 20.4632 45.6451C20.3325 45.0781 20.4812 44.5064 20.9095 43.9301C24.9768 38.2315 30.1131 33.8088 36.3182 30.6621C42.5234 27.5153 49.1457 25.942 56.1851 25.942C63.193 25.942 69.8002 27.45 76.0069 30.4659C82.2134 33.4819 87.3835 37.8406 91.5169 43.542C92.0429 44.2319 92.2114 44.8517 92.0225 45.4014C91.8334 45.9512 91.509 46.415 91.049 46.7931C90.5891 47.1552 90.0592 47.3158 89.4592 47.2748C88.8591 47.2339 88.3449 46.9094 87.9166 46.3015C84.3437 41.1922 79.7414 37.2855 74.1097 34.5814C68.478 31.8773 62.5031 30.5173 56.1851 30.5015C49.8672 30.4857 43.934 31.8378 38.3856 34.5577C32.8373 37.2776 28.2673 41.2001 24.6757 46.3252C24.2158 47.0151 23.6779 47.3931 23.062 47.4592C22.4462 47.5253 21.9083 47.3852 21.4485 47.0388ZM67.6994 96.047C60.5076 94.3755 54.7339 90.9266 50.3785 85.7002C46.023 80.4737 43.8452 74.1345 43.8452 66.6826C43.8452 63.2821 45.051 60.4145 47.4627 58.0798C49.8744 55.7451 52.7897 54.5777 56.2088 54.5777C59.628 54.5777 62.5434 55.7292 64.955 58.0323C67.3667 60.3354 68.5725 63.1714 68.5725 66.5403C68.5725 68.6429 69.3515 70.4222 70.9095 71.8781C72.4674 73.334 74.3228 74.062 76.4757 74.062C78.6287 74.062 80.455 73.334 81.9547 71.8781C83.4545 70.4222 84.2044 68.6429 84.2044 66.5403C84.2044 58.9978 81.4618 52.6507 75.9766 47.499C70.4915 42.3473 63.9195 39.7715 56.2606 39.7715C48.6017 39.7715 42.0415 42.3671 36.5802 47.5583C31.1187 52.7496 28.388 59.0992 28.388 66.6071C28.388 68.4784 28.5407 70.5724 28.8462 72.8892C29.1516 75.206 29.8109 77.8008 30.8241 80.6739C31.0541 81.3637 31.0415 81.9756 30.7864 82.5096C30.5313 83.0435 30.1077 83.4254 29.5156 83.6553C28.8918 83.8853 28.3004 83.8687 27.7413 83.6058C27.1822 83.3428 26.7719 82.8836 26.5103 82.2282C25.5819 79.8237 24.9028 77.3409 24.4731 74.7798C24.0434 72.2187 23.8285 69.5197 23.8285 66.6826C23.8285 57.8265 26.9986 50.3839 33.3389 44.3548C39.6791 38.3257 47.2945 35.3111 56.1851 35.3111C65.126 35.3111 72.7871 38.3138 79.1683 44.3192C85.5496 50.3246 88.7402 57.7316 88.7402 66.5403C88.7402 69.9249 87.5509 72.7681 85.1723 75.0698C82.7937 77.3715 79.8948 78.5223 76.4757 78.5223C73.0566 78.5223 70.1247 77.3912 67.68 75.1291C65.2353 72.8669 64.0129 70.0514 64.0129 66.6826C64.0129 64.5641 63.2505 62.777 61.7256 61.3211C60.2008 59.8652 58.3618 59.1372 56.2088 59.1372C54.0559 59.1372 52.217 59.8652 50.6921 61.3211C49.1673 62.777 48.4048 64.5641 48.4048 66.6826C48.4048 73.048 50.2581 78.3793 53.9647 82.6766C57.6712 86.9738 62.6512 89.9424 68.9045 91.5823C69.5786 91.7648 70.0306 92.1191 70.2605 92.6451C70.4904 93.1711 70.5314 93.7302 70.3834 94.3223C70.2353 94.8483 69.9353 95.3043 69.4833 95.6902C69.0313 96.0761 68.4367 96.195 67.6994 96.047ZM34.2691 26.3365C33.6453 26.7144 33.0255 26.8168 32.4097 26.6437C31.7938 26.4705 31.33 26.0878 31.0182 25.4957C30.7378 24.9352 30.6796 24.3847 30.8435 23.8444C31.0073 23.304 31.3853 22.8527 31.9775 22.4905C35.7114 20.4281 39.6263 18.8759 43.7223 17.8339C47.8184 16.792 51.9806 16.271 56.2088 16.271C60.4717 16.271 64.6274 16.7833 68.676 17.8081C72.7246 18.8328 76.641 20.3117 80.4252 22.2447C81.1151 22.6227 81.5215 23.0865 81.6444 23.6363C81.7672 24.1861 81.7136 24.7239 81.4837 25.2499C81.238 25.7759 80.8442 26.1831 80.3023 26.4712C79.7605 26.7594 79.1274 26.7144 78.4031 26.3365C74.9307 24.5357 71.3309 23.1638 67.6035 22.221C63.876 21.2782 60.0778 20.8068 56.2088 20.8068C52.3743 20.8068 48.602 21.253 44.8919 22.1455C41.1817 23.0381 37.6408 24.435 34.2691 26.3365ZM45.7338 94.4689C41.8332 90.4016 38.8772 86.1963 36.8658 81.8531C34.8544 77.5098 33.8487 72.453 33.8487 66.6826C33.8487 60.5874 36.0304 55.4342 40.3938 51.2232C44.7571 47.0122 50.0288 44.9067 56.2088 44.9067C62.3731 44.9067 67.67 46.9964 72.0995 51.1758C76.5289 55.3552 78.7437 60.4767 78.7437 66.5403C78.7437 67.246 78.5421 67.8201 78.139 68.2628C77.7358 68.7055 77.1814 68.9268 76.4757 68.9268C75.8204 68.9268 75.2746 68.7055 74.8384 68.2628C74.4022 67.8201 74.1841 67.246 74.1841 66.5403C74.1841 61.7084 72.4127 57.6508 68.87 54.3675C65.3272 51.0842 61.1069 49.4425 56.2088 49.4425C51.295 49.4425 47.0959 51.1 43.6114 54.4149C40.1268 57.7299 38.3845 61.8191 38.3845 66.6826C38.3845 71.9112 39.2627 76.3892 41.019 80.1165C42.7753 83.844 45.4305 87.584 48.9848 91.3365C49.4446 91.7964 49.6785 92.3264 49.6865 92.9264C49.6943 93.5264 49.492 94.0485 49.0796 94.4927C48.6197 94.9841 48.0621 95.218 47.4067 95.1944C46.7513 95.1706 46.1936 94.9288 45.7338 94.4689ZM76.1804 87.8915C70.1225 87.8915 64.8889 85.9279 60.4796 82.0007C56.0702 78.0735 53.8655 72.9359 53.8655 66.5877C53.8655 65.9639 54.071 65.4221 54.482 64.9622C54.8931 64.5023 55.4436 64.2723 56.1335 64.2723C56.8233 64.2723 57.3737 64.5023 57.7848 64.9622C58.1958 65.4221 58.4013 65.9639 58.4013 66.5877C58.4013 71.6726 60.1627 75.7345 63.6853 78.7735C67.2079 81.8125 71.3729 83.3319 76.1804 83.3319C76.6403 83.3319 77.2457 83.291 77.9967 83.2091C78.7476 83.1272 79.5119 83.0359 80.2894 82.9353C80.9476 82.8347 81.5153 82.9568 81.9925 83.3018C82.4697 83.6467 82.7585 84.1483 82.8592 84.8066C82.9597 85.4303 82.8289 85.9523 82.4668 86.3727C82.1046 86.7931 81.6433 87.0852 81.0828 87.2491C79.956 87.5796 78.9384 87.7693 78.0301 87.8182C77.1218 87.8671 76.5052 87.8915 76.1804 87.8915Z" fill="#007AFF"/>
</svg>
