<svg width="112" height="112" viewBox="0 0 112 112" fill="none" xmlns="http://www.w3.org/2000/svg">
<path d="M17.4453 69C18.0182 68.8177 18.4219 68.4661 18.6562 67.9453C18.9166 67.3984 18.9687 66.7995 18.8125 66.1484C18.3177 64.1693 17.9401 62.099 17.6797 59.9375C17.4193 57.75 17.3411 55.2891 17.4453 52.5547C17.4713 51.8255 17.3021 51.2656 16.9375 50.875C16.5729 50.4844 16.1041 50.276 15.5312 50.25C14.776 50.1979 14.1901 50.3672 13.7734 50.7578C13.3828 51.1484 13.1484 51.6562 13.0703 52.2812C12.914 54.4688 12.9401 56.8646 13.1484 59.4688C13.3568 62.0469 13.8385 64.6901 14.5937 67.3984C14.8021 68.0755 15.1797 68.5573 15.7265 68.8438C16.2734 69.1302 16.8463 69.1823 17.4453 69ZM15.7265 45.7188C16.2995 45.9271 16.8984 45.9141 17.5234 45.6797C18.1484 45.4193 18.5911 44.9115 18.8515 44.1562C20.9609 38.2969 23.9166 33.4271 27.7187 29.5469C31.5208 25.6406 35.8177 22.7109 40.6094 20.7578C45.4271 18.8047 50.375 17.8281 55.4531 17.8281C58.9166 17.8281 62.0416 18.1797 64.8281 18.8828C67.6406 19.5599 70.2057 20.5625 72.5234 21.8906C73.2005 22.2812 73.8646 22.4635 74.5156 22.4375C75.1666 22.3854 75.6354 22.0339 75.9219 21.3828C76.2344 20.7057 76.2604 20.1458 76 19.7031C75.7396 19.2344 75.362 18.8438 74.8672 18.5312C71.8984 16.6562 68.8515 15.3411 65.7265 14.5859C62.6015 13.8307 59.1771 13.4531 55.4531 13.4531C51.0521 13.4531 46.7812 14.0391 42.6406 15.2109C38.526 16.3828 34.6719 18.1667 31.0781 20.5625C27.5104 22.9323 24.3203 25.901 21.5078 29.4688C18.6953 33.0365 16.3906 37.2161 14.5937 42.0078C14.2291 42.9974 14.1901 43.8177 14.4765 44.4688C14.763 45.0938 15.1797 45.5104 15.7265 45.7188ZM96.9765 59.8984C97.6015 59.8984 98.1094 59.6771 98.5 59.2344C98.8906 58.7656 99.0599 58.1927 99.0078 57.5156C98.4088 52.2031 97.4193 47.5026 96.039 43.4141C94.6849 39.2995 92.914 35.6406 90.7265 32.4375C88.5651 29.2344 85.987 26.3177 82.9922 23.6875C82.4193 23.1927 81.8333 22.9844 81.2344 23.0625C80.6354 23.1406 80.1666 23.375 79.8281 23.7656C79.4635 24.1823 79.2812 24.6901 79.2812 25.2891C79.3073 25.862 79.6068 26.4089 80.1797 26.9297C84.0338 30.5234 87.263 34.7682 89.8672 39.6641C92.4974 44.5339 94.138 50.5104 94.789 57.5938C94.8672 58.2448 95.0885 58.7917 95.4531 59.2344C95.8437 59.6771 96.3515 59.8984 96.9765 59.8984ZM21.9765 80.3281C22.3411 80.849 22.8489 81.1615 23.5 81.2656C24.151 81.3438 24.75 81.1484 25.2969 80.6797C26.7031 79.5078 27.7578 78.0104 28.4609 76.1875C29.164 74.3646 29.5156 72.4635 29.5156 70.4844C29.5156 68.6875 29.3203 67.099 28.9297 65.7188C28.539 64.3125 28.1484 62.8411 27.7578 61.3047C27.3672 59.7682 27.1719 57.8802 27.1719 55.6406C27.1719 51.8125 27.901 48.2188 29.3594 44.8594C30.8437 41.474 32.875 38.4922 35.4531 35.9141C38.0312 33.3099 41.013 31.2786 44.3984 29.8203C47.7838 28.3359 51.3906 27.5938 55.2187 27.5938C61.3906 27.5938 66.7422 29.1693 71.2734 32.3203C75.8307 35.4453 79.3594 39.8203 81.8594 45.4453C84.3594 51.0443 85.6224 57.5677 85.6484 65.0156C85.6484 69.3646 85.3489 73.0885 84.75 76.1875C84.151 79.2604 83.487 81.6823 82.7578 83.4531C82.4974 84.0781 82.4713 84.6771 82.6797 85.25C82.888 85.8229 83.2396 86.2396 83.7344 86.5C84.2812 86.7344 84.8672 86.7474 85.4922 86.5391C86.1432 86.3307 86.5859 85.9141 86.8203 85.2891C87.5755 83.2057 88.2916 80.4714 88.9687 77.0859C89.6719 73.7005 90.0234 69.6641 90.0234 64.9766C90.0234 58.7526 89.2031 53.0885 87.5625 47.9844C85.9219 42.8802 83.5781 38.4792 80.5312 34.7812C77.4844 31.0833 73.8255 28.2318 69.5547 26.2266C65.2838 24.2214 60.5052 23.2188 55.2187 23.2188C50.7916 23.2188 46.612 24.0781 42.6797 25.7969C38.7734 27.4896 35.3229 29.8333 32.3281 32.8281C29.3594 35.7969 27.0286 39.2344 25.3359 43.1406C23.6432 47.0469 22.7969 51.2135 22.7969 55.6406C22.7969 57.776 22.9922 59.7031 23.3828 61.4219C23.7995 63.1406 24.2031 64.7422 24.5937 66.2266C25.0104 67.6849 25.2318 69.0911 25.2578 70.4453C25.2578 71.7734 25.0104 73.0365 24.5156 74.2344C24.0469 75.4323 23.3568 76.4349 22.4453 77.2422C21.9765 77.6328 21.7031 78.1276 21.625 78.7266C21.5469 79.3255 21.664 79.8594 21.9765 80.3281ZM31.1953 87.5938C32.1588 87.099 33.1875 86.2656 34.2812 85.0938C35.375 83.9479 36.3646 82.6589 37.25 81.2266C38.1354 79.7682 38.7604 78.362 39.125 77.0078C39.2812 76.4609 39.2422 75.9141 39.0078 75.3672C38.7734 74.7943 38.3437 74.4036 37.7187 74.1953C37.1719 74.013 36.638 74.0651 36.1172 74.3516C35.5963 74.638 35.2318 75.0938 35.0234 75.7188C34.5026 77.4375 33.7604 78.9479 32.7969 80.25C31.8594 81.5521 30.6745 82.6979 29.2422 83.6875C28.539 84.1823 28.1094 84.7031 27.9531 85.25C27.8229 85.8229 27.862 86.3307 28.0703 86.7734C28.3047 87.2682 28.7083 87.6198 29.2812 87.8281C29.8541 88.0365 30.4922 87.9583 31.1953 87.5938ZM39.5547 66.4219C39.0599 65.0938 38.5 63.5703 37.875 61.8516C37.276 60.1328 36.9765 58.1406 36.9765 55.875C36.9765 52.4115 37.7969 49.2865 39.4375 46.5C41.0781 43.7135 43.2916 41.5 46.0781 39.8594C48.8646 38.2188 51.9896 37.3984 55.4531 37.3984C56.7812 37.3984 57.875 37.4635 58.7344 37.5938C59.5937 37.6979 60.414 37.9062 61.1953 38.2188C62.0026 38.5312 62.9922 38.9609 64.164 39.5078C64.763 39.7943 65.3099 39.8724 65.8047 39.7422C66.3255 39.5859 66.6901 39.2865 66.8984 38.8438C67.2109 38.2969 67.276 37.724 67.0937 37.125C66.9114 36.526 66.4948 36.0312 65.8437 35.6406C64.5416 34.8854 62.9661 34.2604 61.1172 33.7656C59.2682 33.2448 57.3802 32.9844 55.4531 32.9844C52.25 32.9844 49.2552 33.5703 46.4687 34.7422C43.7083 35.9141 41.2864 37.5417 39.2031 39.625C37.1198 41.7083 35.4922 44.1432 34.3203 46.9297C33.1484 49.6901 32.5625 52.6719 32.5625 55.875C32.5625 58.349 32.8359 60.5885 33.3828 62.5938C33.9557 64.599 34.5807 66.4349 35.2578 68.1016C35.5443 68.7526 35.9609 69.2083 36.5078 69.4688C37.0547 69.7292 37.6797 69.7161 38.3828 69.4297C38.9557 69.1953 39.3463 68.7917 39.5547 68.2188C39.763 67.6458 39.763 67.0469 39.5547 66.4219ZM70.2969 44.7422C72.1719 47.5026 73.5781 50.7708 74.5156 54.5469C75.4791 58.2969 75.9609 62.4766 75.9609 67.0859C75.9609 72.0078 75.3229 76.6562 74.0469 81.0312C72.7969 85.3802 71.1041 88.8828 68.9687 91.5391C68.6302 92.0078 68.4479 92.5417 68.4219 93.1406C68.3958 93.7396 68.6041 94.2474 69.0469 94.6641C69.5156 95.1068 70.0885 95.3021 70.7656 95.25C71.4427 95.224 71.9765 94.9505 72.3672 94.4297C74.737 91.2005 76.638 87.1641 78.0703 82.3203C79.5286 77.4766 80.2578 72.3464 80.2578 66.9297C80.2578 62.9974 79.9974 59.5469 79.4765 56.5781C78.9557 53.5833 78.2265 50.9531 77.289 48.6875C76.3776 46.3958 75.3359 44.2995 74.164 42.3984C73.7474 41.7734 73.2265 41.3698 72.6015 41.1875C72.0026 41.0052 71.4297 41.0573 70.8828 41.3438C70.3099 41.6562 69.9583 42.138 69.8281 42.7891C69.6979 43.4141 69.8541 44.0651 70.2969 44.7422ZM39.3984 92.75C42.6015 90.1719 45.0495 86.9167 46.7422 82.9844C48.4609 79.0521 49.3073 74.8203 49.2812 70.2891C49.2552 67.9974 49.0338 65.9661 48.6172 64.1953C48.2005 62.4245 47.7838 60.8359 47.3672 59.4297C46.9765 57.9974 46.7812 56.6562 46.7812 55.4062C46.7812 52.9323 47.5625 50.9531 49.125 49.4688C50.7135 47.9583 52.7838 47.2031 55.3359 47.2031C57.9401 47.2031 59.9974 48.0885 61.5078 49.8594C63.0182 51.6302 64.112 54 64.789 56.9688C65.4661 59.9115 65.8437 63.1406 65.9219 66.6562C66.0521 70.7188 65.6875 74.5339 64.8281 78.1016C63.9948 81.6432 62.8099 84.7943 61.2734 87.5547C59.737 90.3151 58.0052 92.5417 56.0781 94.2344C55.6094 94.625 55.3229 95.0938 55.2187 95.6406C55.1406 96.1875 55.2578 96.7083 55.5703 97.2031C55.9349 97.724 56.4427 98.0234 57.0937 98.1016C57.7448 98.1797 58.3307 97.9844 58.8515 97.5156C60.8828 95.6667 62.7448 93.1536 64.4375 89.9766C66.1562 86.7995 67.5234 83.1927 68.539 79.1562C69.5547 75.0938 70.0495 70.8229 70.0234 66.3438C70.0234 61.9688 69.5547 58.0104 68.6172 54.4688C67.6797 50.901 66.1432 48.0755 64.0078 45.9922C61.8724 43.8828 58.9818 42.8281 55.3359 42.8281C52.914 42.8281 50.7265 43.3359 48.7734 44.3516C46.8463 45.3672 45.3099 46.7865 44.164 48.6094C43.0443 50.4323 42.4844 52.5677 42.4844 55.0156C42.4844 56.5 42.6797 58.0755 43.0703 59.7422C43.4609 61.4089 43.8515 63.1406 44.2422 64.9375C44.6328 66.7083 44.8411 68.4922 44.8672 70.2891C44.8932 74.1693 44.2031 77.763 42.7969 81.0703C41.3906 84.3776 39.3463 87.125 36.664 89.3125C36.1432 89.7552 35.8307 90.25 35.7265 90.7969C35.6484 91.3698 35.7786 91.9036 36.1172 92.3984C36.5078 92.9714 37.0156 93.2839 37.6406 93.3359C38.2916 93.388 38.8776 93.1927 39.3984 92.75ZM48.539 95.875C50.0755 94.7552 51.6771 93.0365 53.3437 90.7188C55.0104 88.4271 56.2083 86.0312 56.9375 83.5312C57.0677 83.0885 57.0547 82.5807 56.8984 82.0078C56.7682 81.4089 56.3906 81.0052 55.7656 80.7969C55.1146 80.5625 54.5286 80.5755 54.0078 80.8359C53.487 81.0964 53.1354 81.487 52.9531 82.0078C51.9635 84.612 50.8568 86.7344 49.6328 88.375C48.4349 90.0156 47.1849 91.3438 45.8828 92.3594C45.388 92.75 45.0755 93.2318 44.9453 93.8047C44.8411 94.4036 44.9583 94.9505 45.2969 95.4453C45.6094 95.9922 46.0911 96.3047 46.7422 96.3828C47.3932 96.4609 47.9922 96.2917 48.539 95.875ZM59.164 74.4297C59.5286 72.6589 59.7239 70.7708 59.75 68.7656C59.776 66.7344 59.6328 64.6771 59.3203 62.5938C59.0078 60.5104 58.539 58.4922 57.914 56.5391C57.6536 55.8099 57.263 55.3021 56.7422 55.0156C56.2213 54.7292 55.6614 54.6771 55.0625 54.8594C54.4896 55.0417 54.0599 55.3932 53.7734 55.9141C53.487 56.4089 53.4479 56.9948 53.6562 57.6719C54.2552 59.5469 54.6849 61.4219 54.9453 63.2969C55.2318 65.1458 55.362 66.9557 55.3359 68.7266C55.3359 70.4974 55.1797 72.2031 54.8672 73.8438C54.737 74.4167 54.8021 74.9505 55.0625 75.4453C55.3229 75.9401 55.7916 76.2396 56.4687 76.3438C57.0937 76.474 57.6666 76.3698 58.1875 76.0312C58.7083 75.6667 59.0338 75.1328 59.164 74.4297Z" fill="#007AFF"/>
</svg>
