<svg width="28" height="28" viewBox="0 0 28 28" fill="none" xmlns="http://www.w3.org/2000/svg">
<path fill-rule="evenodd" clip-rule="evenodd" d="M15.0059 5.87993C14.8219 5.87993 14.669 6.01646 14.669 6.23634V10.7627H13.834C12.2374 10.7627 10.7141 10.9235 9.33616 11.5069C8.18721 11.996 7.25653 12.6951 6.52725 13.6034C5.06605 15.4395 4.3077 18.1351 4.3077 21.6465C4.3077 21.8168 4.35596 21.9772 4.41515 22.0679C4.43981 22.1057 4.45686 22.1172 4.45887 22.1185C4.45948 22.1186 4.46087 22.1189 4.46319 22.1192C4.46613 22.1196 4.47114 22.1201 4.47855 22.1201C4.70085 22.1201 4.83012 22.0464 4.94405 21.8374C6.83048 18.2851 10.2112 17.247 13.834 17.247H14.669V21.8125C14.669 21.9408 14.7012 21.9953 14.742 22.0376C14.784 22.0765 14.8487 22.1092 14.9462 22.1178C15.051 22.127 15.1714 22.1048 15.277 22.052L15.2908 22.0451L15.3049 22.0387C15.4115 21.9902 15.5607 21.8929 15.7509 21.7133L23.4603 14.4338C23.5855 14.3173 23.6289 14.2378 23.6428 14.2025C23.71 14.0315 23.708 13.9538 23.6428 13.7878C23.6289 13.7524 23.5855 13.673 23.4604 13.5565L15.7491 6.34368C15.3737 5.987 15.1709 5.87993 15.0059 5.87993ZM12.999 6.23634C12.999 5.13475 13.8595 4.20993 15.0059 4.20993C15.8999 4.20993 16.5392 4.79084 16.897 5.13065C16.8978 5.1314 16.8986 5.13216 16.8994 5.13292L24.5983 12.3342C24.5981 12.334 24.5985 12.3344 24.5983 12.3342C24.8505 12.5691 25.0679 12.8481 25.1971 13.1771C25.4127 13.7257 25.4224 14.2398 25.1971 14.8131C25.0682 15.1414 24.8521 15.4194 24.6006 15.654C24.5998 15.6547 24.5991 15.6554 24.5983 15.6561L16.8976 22.9274C16.8976 22.9274 16.8976 22.9274 16.8976 22.9274C16.623 23.1867 16.3276 23.4058 16.0098 23.5527C15.2994 23.9014 14.2822 23.9187 13.5747 23.232L13.5658 23.2233C13.1791 22.8366 12.999 22.3434 12.999 21.8125V18.9379C10.0757 19.0889 7.76602 20.0814 6.41736 22.6237L6.41396 22.6301C6.01643 23.3641 5.33265 23.7901 4.47855 23.7901C3.79602 23.7901 3.30349 23.4203 3.01653 22.9805C2.74598 22.5658 2.6377 22.0719 2.6377 21.6465C2.6377 17.9258 3.43715 14.8035 5.2218 12.5619L5.22382 12.5594C6.13487 11.4242 7.2935 10.5613 8.68279 9.96999L8.6842 9.96939C10.0876 9.3751 11.5642 9.16161 12.999 9.10771V6.23634Z" fill="black"/>
</svg>
