<svg width="28" height="28" viewBox="0 0 28 28" fill="none" xmlns="http://www.w3.org/2000/svg">
<path fill-rule="evenodd" clip-rule="evenodd" d="M3 14C3 7.92487 7.92487 3 14 3C20.0751 3 25 7.92487 25 14C25 20.0751 20.0751 25 14 25C7.92487 25 3 20.0751 3 14ZM12.3035 8.02977C12.5632 8.28947 12.5632 8.71053 12.3035 8.97023L10.9388 10.335H18.3333C18.7006 10.335 18.9983 10.6327 18.9983 11C18.9983 11.3673 18.7006 11.665 18.3333 11.665H10.9388L12.3035 13.0298C12.5632 13.2895 12.5632 13.7105 12.3035 13.9702C12.0438 14.2299 11.6228 14.2299 11.3631 13.9702L8.86309 11.4702C8.73838 11.3455 8.66831 11.1764 8.66831 11C8.66831 10.8236 8.73838 10.6545 8.86309 10.5298L11.3631 8.02977C11.6228 7.77008 12.0438 7.77008 12.3035 8.02977ZM15.8598 14.9702C15.6001 14.7105 15.6001 14.2895 15.8598 14.0298C16.1195 13.7701 16.5405 13.7701 16.8002 14.0298L19.3002 16.5298C19.4249 16.6545 19.495 16.8236 19.495 17C19.495 17.1764 19.4249 17.3455 19.3002 17.4702L16.8002 19.9702C16.5405 20.2299 16.1195 20.2299 15.8598 19.9702C15.6001 19.7105 15.6001 19.2895 15.8598 19.0298L17.2246 17.665H9.83C9.46273 17.665 9.165 17.3673 9.165 17C9.165 16.6327 9.46273 16.335 9.83 16.335H17.2246L15.8598 14.9702Z" fill="black"/>
</svg>
