<svg width="28" height="28" viewBox="0 0 28 28" fill="none" xmlns="http://www.w3.org/2000/svg">
<path d="M14.1562 22.6328C13.9414 22.418 13.834 22.1445 13.834 21.8125V18.082C10.3627 18.082 7.36003 19.0649 5.67969 22.2324C5.42377 22.7049 5.01719 22.9551 4.47852 22.9551C3.78576 22.9551 3.47266 22.2422 3.47266 21.6465C3.47266 18.03 4.25174 15.1208 5.875 13.082C6.69531 12.0599 7.74023 11.2786 9.00977 10.7383C10.5376 10.0913 12.1904 9.92773 13.834 9.92773V6.23633C13.834 5.5756 14.3406 5.04492 15.0059 5.04492C15.5363 5.04492 15.9578 5.3902 16.3242 5.73828L24.0293 12.9453C24.2181 13.1211 24.3483 13.3001 24.4199 13.4824C24.5603 13.8397 24.5661 14.1356 24.4199 14.5078C24.3483 14.6901 24.2181 14.8691 24.0293 15.0449L16.3242 22.3203C16.0898 22.5417 15.8652 22.7012 15.6504 22.7988C15.173 23.0375 14.5525 23.0175 14.1562 22.6328Z" fill="black"/>
</svg>
