<svg width="28" height="28" viewBox="0 0 28 28" fill="none" xmlns="http://www.w3.org/2000/svg">
<path fill-rule="evenodd" clip-rule="evenodd" d="M6.19619 11C7.3707 7.86666 10.5649 5.59997 14.1347 5.59997C18.0425 5.59997 21.3134 8.32618 22.143 11.9772C22.2408 12.4081 22.6695 12.678 23.1003 12.5801C23.5312 12.4822 23.8011 12.0536 23.7032 11.6227C22.7115 7.2578 18.8044 3.99997 14.1347 3.99997C10.8255 3.99997 7.76851 5.64116 5.92307 8.17115V5.79997C5.92307 5.35814 5.5649 4.99997 5.12307 4.99997C4.68124 4.99997 4.32307 5.35814 4.32307 5.79997V11.8C4.32307 12.2418 4.68124 12.6 5.12307 12.6H10.6302C11.072 12.6 11.4302 12.2418 11.4302 11.8C11.4302 11.3581 11.072 11 10.6302 11H6.19619ZM21.8269 16.9964C20.6524 20.1297 17.4581 22.3964 13.8883 22.3964C9.98059 22.3964 6.70963 19.6702 5.8801 16.0191C5.78221 15.5883 5.35358 15.3184 4.92273 15.4163C4.49189 15.5142 4.22197 15.9428 4.31986 16.3736C5.3116 20.7385 9.21862 23.9964 13.8883 23.9964C17.1976 23.9964 20.2545 22.3552 22.1 19.8252V22.1964C22.1 22.6382 22.4582 22.9964 22.9 22.9964C23.3418 22.9964 23.7 22.6382 23.7 22.1964V16.1964C23.7 15.7546 23.3418 15.3964 22.9 15.3964H17.3929C16.951 15.3964 16.5929 15.7546 16.5929 16.1964C16.5929 16.6382 16.951 16.9964 17.3929 16.9964H21.8269Z" fill="black"/>
</svg>
