<svg width="28" height="28" viewBox="0 0 28 28" fill="none" xmlns="http://www.w3.org/2000/svg">
<path fill-rule="evenodd" clip-rule="evenodd" d="M11 17C11.5523 17 12 16.5523 12 16C12 15.4477 11.5523 15 11 15H6.41421L16.7071 4.70711C17.0976 4.31658 17.0976 3.68342 16.7071 3.29289C16.3166 2.90237 15.6834 2.90237 15.2929 3.29289L5 13.5858V9C5 8.44772 4.55229 8 4 8C3.44771 8 3 8.44772 3 9V16C3 16.5523 3.44771 17 4 17H11ZM17 11C16.4477 11 16 11.4477 16 12C16 12.5523 16.4477 13 17 13H21.5858L11.2929 23.2929C10.9024 23.6834 10.9024 24.3166 11.2929 24.7071C11.6834 25.0976 12.3166 25.0976 12.7071 24.7071L23 14.4142V19C23 19.5523 23.4477 20 24 20C24.5523 20 25 19.5523 25 19V12C25 11.4477 24.5523 11 24 11H17Z" fill="black"/>
</svg>
