<svg width="28" height="28" viewBox="0 0 28 28" fill="none" xmlns="http://www.w3.org/2000/svg">
<path fill-rule="evenodd" clip-rule="evenodd" d="M25 14C25 20.0751 20.0751 25 14 25C7.92487 25 3 20.0751 3 14C3 7.92487 7.92487 3 14 3C20.0751 3 25 7.92487 25 14ZM6.43431 14.9343C6.74673 14.6219 7.25327 14.6219 7.56569 14.9343L9.2 16.5686V9.5C9.2 9.05817 9.55817 8.7 10 8.7C10.4418 8.7 10.8 9.05817 10.8 9.5V16.5686L12.4343 14.9343C12.7467 14.6219 13.2533 14.6219 13.5657 14.9343C13.8781 15.2467 13.8781 15.7533 13.5657 16.0657L10.5657 19.0657C10.2533 19.3781 9.74673 19.3781 9.43431 19.0657L6.43431 16.0657C6.1219 15.7533 6.1219 15.2467 6.43431 14.9343ZM20.4343 13.0657C20.7467 13.3781 21.2533 13.3781 21.5657 13.0657C21.8781 12.7533 21.8781 12.2467 21.5657 11.9343L18.5657 8.93431C18.2533 8.6219 17.7467 8.6219 17.4343 8.93431L14.4343 11.9343C14.1219 12.2467 14.1219 12.7533 14.4343 13.0657C14.7467 13.3781 15.2533 13.3781 15.5657 13.0657L17.2 11.4314V18.5C17.2 18.9418 17.5582 19.3 18 19.3C18.4418 19.3 18.8 18.9418 18.8 18.5V11.4314L20.4343 13.0657Z" fill="black"/>
</svg>
