<svg width="28" height="28" viewBox="0 0 28 28" fill="none" xmlns="http://www.w3.org/2000/svg">
<path fill-rule="evenodd" clip-rule="evenodd" d="M3.80001 14C3.80001 8.36669 8.36671 3.8 14 3.8C19.6333 3.8 24.2 8.36669 24.2 14C24.2 19.6333 19.6333 24.2 14 24.2C8.36671 24.2 3.80001 19.6333 3.80001 14ZM14 2.2C7.48305 2.2 2.20001 7.48304 2.20001 14C2.20001 20.517 7.48305 25.8 14 25.8C20.517 25.8 25.8 20.517 25.8 14C25.8 7.48304 20.517 2.2 14 2.2ZM10.5657 14.4343C10.2533 14.1219 9.74675 14.1219 9.43433 14.4343C9.12191 14.7467 9.12191 15.2533 9.43433 15.5657L13.4343 19.5657C13.7467 19.8781 14.2533 19.8781 14.5657 19.5657L18.5657 15.5657C18.8781 15.2533 18.8781 14.7467 18.5657 14.4343C18.2533 14.1219 17.7467 14.1219 17.4343 14.4343L14.8 17.0686V9.5C14.8 9.05817 14.4418 8.7 14 8.7C13.5582 8.7 13.2 9.05817 13.2 9.5V17.0686L10.5657 14.4343Z" fill="black"/>
</svg>
