<svg width="28" height="28" viewBox="0 0 28 28" fill="none" xmlns="http://www.w3.org/2000/svg">
<path fill-rule="evenodd" clip-rule="evenodd" d="M14.25 3C8.17487 3 3.25 7.92487 3.25 14C3.25 20.0751 8.17487 25 14.25 25C20.3251 25 25.25 20.0751 25.25 14C25.25 7.92487 20.3251 3 14.25 3ZM13.5005 10.4029C13.5005 8.71912 14.8655 7.35414 16.5493 7.35414C18.2331 7.35414 19.598 8.71912 19.598 10.4029V15.3833L20.6201 14.3749C20.9149 14.084 21.3898 14.0871 21.6807 14.382C21.9716 14.6768 21.9684 15.1517 21.6736 15.4426L19.3748 17.7108C19.0828 17.999 18.6133 17.999 18.3213 17.7108L16.0225 15.4426C15.7276 15.1517 15.7245 14.6768 16.0154 14.382C16.3063 14.0871 16.7812 14.084 17.076 14.3749L18.098 15.3833V10.4029C18.098 9.54755 17.4046 8.85414 16.5493 8.85414C15.6939 8.85414 15.0005 9.54755 15.0005 10.4029V10.8255V17.177V17.5996C15.0005 19.2833 13.6355 20.6483 11.9517 20.6483C10.2679 20.6483 8.90292 19.2833 8.90292 17.5996V12.6192L7.88091 13.6276C7.58606 13.9185 7.1112 13.9153 6.82027 13.6205C6.52934 13.3256 6.53252 12.8508 6.82737 12.5599L9.12615 10.2916C9.41821 10.0035 9.88763 10.0035 10.1797 10.2916L12.4785 12.5599C12.7733 12.8508 12.7765 13.3256 12.4856 13.6205C12.1946 13.9153 11.7198 13.9185 11.4249 13.6276L10.4029 12.6192V17.5996C10.4029 18.4549 11.0963 19.1483 11.9517 19.1483C12.8071 19.1483 13.5005 18.4549 13.5005 17.5996V17.177V10.8255V10.4029Z" fill="black"/>
</svg>
