<svg width="28" height="28" viewBox="0 0 28 28" fill="none" xmlns="http://www.w3.org/2000/svg">
<path fill-rule="evenodd" clip-rule="evenodd" d="M3.80001 14C3.80001 8.36669 8.36671 3.8 14 3.8C19.6333 3.8 24.2 8.36669 24.2 14C24.2 19.6333 19.6333 24.2 14 24.2C8.36671 24.2 3.80001 19.6333 3.80001 14ZM14 2.2C7.48305 2.2 2.20001 7.48304 2.20001 14C2.20001 20.517 7.48305 25.8 14 25.8C20.517 25.8 25.8 20.517 25.8 14C25.8 7.48304 20.517 2.2 14 2.2ZM17.4343 14.0657C17.7467 14.3781 18.2533 14.3781 18.5657 14.0657C18.8781 13.7533 18.8781 13.2467 18.5657 12.9343L14.5657 8.93431C14.2533 8.62189 13.7467 8.62189 13.4343 8.93431L9.43433 12.9343C9.12191 13.2467 9.12191 13.7533 9.43433 14.0657C9.74675 14.3781 10.2533 14.3781 10.5657 14.0657L13.2 11.4314V19C13.2 19.4418 13.5582 19.8 14 19.8C14.4418 19.8 14.8 19.4418 14.8 19V11.4314L17.4343 14.0657Z" fill="black"/>
</svg>
