<svg width="28" height="28" viewBox="0 0 28 28" fill="none" xmlns="http://www.w3.org/2000/svg">
<path fill-rule="evenodd" clip-rule="evenodd" d="M11.3606 4.31238C11.6994 3.97362 11.6994 3.42436 11.3606 3.0856C11.0219 2.74683 10.4726 2.74683 10.1338 3.0856L5.25432 7.96511C4.91555 8.30388 4.91555 8.85313 5.25432 9.1919L10.1338 14.0714C10.4726 14.4102 11.0219 14.4102 11.3606 14.0714C11.6994 13.7327 11.6994 13.1834 11.3606 12.8446L7.96197 9.44598H21.0484C21.5275 9.44598 21.9159 9.0576 21.9159 8.57851C21.9159 8.09942 21.5275 7.71104 21.0484 7.71104H7.96197L11.3606 4.31238ZM16.6399 23.688C16.3011 24.0268 16.3011 24.576 16.6399 24.9148C16.9786 25.2536 17.5279 25.2536 17.8666 24.9148L22.7462 20.0353C23.0849 19.6965 23.0849 19.1473 22.7462 18.8085L17.8666 13.929C17.5279 13.5902 16.9786 13.5902 16.6399 13.929C16.3011 14.2677 16.3011 14.817 16.6399 15.1558L20.0385 18.5544H6.95205C6.47296 18.5544 6.08458 18.9428 6.08458 19.4219C6.08458 19.901 6.47296 20.2894 6.95205 20.2894H20.0385L16.6399 23.688Z" fill="black"/>
</svg>
