<svg width="28" height="28" viewBox="0 0 28 28" fill="none" xmlns="http://www.w3.org/2000/svg">
<path fill-rule="evenodd" clip-rule="evenodd" d="M12.5 4.5C12.5 3.67157 13.1716 3 14 3C14.8284 3 15.5 3.67157 15.5 4.5V4.88504C17.4553 5.25371 18.8376 6.34181 19.7491 7.70897C20.853 9.36489 21.25 11.3969 21.25 13L21.25 18.6893L23.0304 20.4697C23.2449 20.6842 23.309 21.0068 23.1929 21.287C23.0768 21.5673 22.8034 21.75 22.5 21.75H5.50002C5.19668 21.75 4.9232 21.5673 4.80711 21.287C4.69103 21.0068 4.75519 20.6842 4.96969 20.4697L6.75002 18.6893L6.75002 13C6.75002 11.3969 7.14704 9.36489 8.25098 7.70897C9.16243 6.3418 10.5447 5.25371 12.5 4.88504V4.5ZM9.49906 8.54103C8.603 9.88511 8.25002 11.6031 8.25002 13V18.6702L8.2501 18.6956C8.25053 18.7863 8.25123 18.9358 8.21548 19.0847C8.18486 19.2122 8.13436 19.3342 8.06582 19.446C7.98579 19.5766 7.87905 19.6824 7.81427 19.7465L7.79604 19.7646L7.31068 20.25H20.6894L20.204 19.7646L20.1858 19.7465C20.121 19.6824 20.0143 19.5766 19.9342 19.446C19.8657 19.3342 19.8152 19.2122 19.7846 19.0847C19.7488 18.9358 19.7495 18.7863 19.7499 18.6956L19.75 18.6702V13C19.75 11.6031 19.397 9.88511 18.501 8.54103C17.6301 7.23464 16.2317 6.25 14 6.25C11.7683 6.25 10.37 7.23464 9.49906 8.54103Z" fill="black"/>
<path d="M14.0002 25C12.694 25 11.5828 24.1652 11.1709 23H16.8295C16.4177 24.1652 15.3064 25 14.0002 25Z" fill="black"/>
</svg>
