<svg width="28" height="28" viewBox="0 0 28 28" fill="none" xmlns="http://www.w3.org/2000/svg">
<path fill-rule="evenodd" clip-rule="evenodd" d="M10.2 6.19999C10.2 4.6536 11.4536 3.39999 13 3.39999H15C16.5463 3.39999 17.8 4.6536 17.8 6.19999V6.39999H22C22.4418 6.39999 22.7999 6.75817 22.7999 7.19999C22.7999 7.64182 22.4418 7.99999 22 7.99999H5.99995C5.55812 7.99999 5.19995 7.64182 5.19995 7.19999C5.19995 6.75817 5.55812 6.39999 5.99995 6.39999H10.2V6.19999ZM16.2 6.19999V6.39999H11.8V6.19999C11.8 5.53725 12.3372 4.99999 13 4.99999H15C15.6627 4.99999 16.2 5.53725 16.2 6.19999ZM7.79544 10.1147C7.74831 9.67535 7.35397 9.35743 6.91467 9.40456C6.47536 9.45169 6.15744 9.84602 6.20456 10.2853L7.51481 22.4987C7.66743 23.9213 8.86805 25 10.2988 25H17.7168C19.1489 25 20.3502 23.9193 20.5012 22.4951L21.7955 10.2843C21.8421 9.84496 21.5237 9.45102 21.0843 9.40445C20.645 9.35788 20.251 9.6763 20.2045 10.1157L18.9101 22.3265C18.8454 22.9368 18.3305 23.4 17.7168 23.4H10.2988C9.68564 23.4 9.17109 22.9377 9.10568 22.328L7.79544 10.1147Z" fill="black"/>
</svg>
