<svg width="28" height="28" viewBox="0 0 28 28" fill="none" xmlns="http://www.w3.org/2000/svg">
<path fill-rule="evenodd" clip-rule="evenodd" d="M7.39998 12C7.39998 8.35493 10.3549 5.40001 14 5.40001C17.6451 5.40001 20.6 8.35493 20.6 12V13C20.6 13.6075 20.1075 14.1 19.5 14.1H8.49998C7.89246 14.1 7.39998 13.6075 7.39998 13V12ZM5.65888 11C6.15327 6.8322 9.69916 3.60001 14 3.60001C18.3008 3.60001 21.8467 6.8322 22.3411 11H22.4V12V13V18.3462L22.4 18.4957V18.4957C22.4005 19.4235 22.4009 20.0908 22.2234 20.6603C21.8421 21.8839 20.8839 22.8421 19.6602 23.2234C19.0907 23.4009 18.4234 23.4005 17.4956 23.4001L17.3461 23.4H10.6538L10.5043 23.4001C9.57654 23.4005 8.90924 23.4009 8.33971 23.2234C7.11606 22.8421 6.15787 21.8839 5.77656 20.6603C5.59909 20.0907 5.59944 19.4234 5.59992 18.4956L5.59998 18.3462V13V12V11H5.65888ZM7.39998 15.6841V18.3462C7.39998 19.487 7.41025 19.8526 7.49506 20.1248C7.70038 20.7837 8.21633 21.2996 8.87522 21.5049C9.1474 21.5897 9.51296 21.6 10.6538 21.6H17.3461C18.487 21.6 18.8526 21.5897 19.1247 21.5049C19.7836 21.2996 20.2996 20.7837 20.5049 20.1248C20.5897 19.8526 20.6 19.487 20.6 18.3462V15.6841C20.2608 15.8233 19.8893 15.9 19.5 15.9H8.49998C8.11062 15.9 7.73919 15.8233 7.39998 15.6841ZM3.49998 12.1C3.99703 12.1 4.39998 12.5029 4.39998 13V18C4.39998 18.4971 3.99703 18.9 3.49998 18.9C3.00292 18.9 2.59998 18.4971 2.59998 18V13C2.59998 12.5029 3.00292 12.1 3.49998 12.1ZM25.4 13C25.4 12.5029 24.997 12.1 24.5 12.1C24.0029 12.1 23.6 12.5029 23.6 13V18C23.6 18.4971 24.0029 18.9 24.5 18.9C24.997 18.9 25.4 18.4971 25.4 18V13ZM10.5 10.25C10.5 9.83579 10.8358 9.50001 11.25 9.50001C11.6642 9.50001 12 9.83579 12 10.25V11.25C12 11.6642 11.6642 12 11.25 12C10.8358 12 10.5 11.6642 10.5 11.25V10.25ZM16.75 9.50001C16.3358 9.50001 16 9.83579 16 10.25V11.25C16 11.6642 16.3358 12 16.75 12C17.1642 12 17.5 11.6642 17.5 11.25V10.25C17.5 9.83579 17.1642 9.50001 16.75 9.50001Z" fill="black"/>
</svg>
