<svg width="28" height="28" viewBox="0 0 28 28" fill="none" xmlns="http://www.w3.org/2000/svg">
<path d="M14 25C12.4974 25 11.081 24.7124 9.75098 24.1373C8.4281 23.5621 7.2598 22.7676 6.24608 21.7539C5.23235 20.7402 4.43791 19.5719 3.86275 18.249C3.28758 16.919 3 15.5026 3 14C3 12.4974 3.28758 11.0846 3.86275 9.76176C4.43791 8.4317 5.22876 7.2598 6.23529 6.24608C7.24902 5.23235 8.41732 4.43791 9.7402 3.86275C11.0703 3.28758 12.4866 3 13.9892 3C15.4918 3 16.9082 3.28758 18.2382 3.86275C19.5683 4.43791 20.7402 5.23235 21.7539 6.24608C22.7676 7.2598 23.5621 8.4317 24.1373 9.76176C24.7124 11.0846 25 12.4974 25 14C25 15.5026 24.7124 16.919 24.1373 18.249C23.5621 19.5719 22.7676 20.7402 21.7539 21.7539C20.7402 22.7676 19.5683 23.5621 18.2382 24.1373C16.9154 24.7124 15.5026 25 14 25ZM9.35196 19.6186L15.7363 16.4912C16.0742 16.333 16.3294 16.0778 16.502 15.7255L19.6078 9.35196C19.7301 9.10033 19.7588 8.88105 19.6941 8.69412C19.6366 8.5 19.5108 8.37059 19.3167 8.30588C19.1297 8.24118 18.9033 8.26993 18.6373 8.39216L12.2853 11.498C12.1127 11.5771 11.9618 11.6814 11.8324 11.8108C11.7101 11.933 11.6023 12.0876 11.5088 12.2745L8.39216 18.6588C8.27712 18.9033 8.25196 19.119 8.31667 19.3059C8.38137 19.4928 8.50719 19.6222 8.69412 19.6941C8.88824 19.7588 9.10752 19.7337 9.35196 19.6186ZM14.0108 15.3804C13.6369 15.3804 13.3134 15.2474 13.0402 14.9814C12.7742 14.7082 12.6412 14.3846 12.6412 14.0108C12.6412 13.6369 12.7742 13.317 13.0402 13.051C13.3134 12.785 13.6369 12.652 14.0108 12.652C14.3846 12.652 14.7046 12.785 14.9706 13.051C15.2366 13.317 15.3696 13.6369 15.3696 14.0108C15.3696 14.3846 15.2366 14.7082 14.9706 14.9814C14.7046 15.2474 14.3846 15.3804 14.0108 15.3804Z" fill="black"/>
</svg>
