<svg width="28" height="28" viewBox="0 0 28 28" fill="none" xmlns="http://www.w3.org/2000/svg">
<path fill-rule="evenodd" clip-rule="evenodd" d="M3.42639 7.18634L13.637 2.11727C13.7855 2.03797 13.8927 1.99885 14.0004 1.99983C14.1055 2.0008 14.2111 2.03997 14.3562 2.11727L24.5736 7.18605C25.3108 7.57879 25.0327 8.7 24.1981 8.7H3.80241C2.96811 8.7 2.68976 7.5795 3.42639 7.18634ZM5.49893 10.2508C5.0571 10.2508 4.69893 10.609 4.69893 11.0508C4.69893 11.4926 5.0571 11.8508 5.49893 11.8508H5.69893V20.2508H5.49893C5.0571 20.2508 4.69893 20.609 4.69893 21.0508C4.69893 21.4926 5.0571 21.8508 5.49893 21.8508H6.49893H7.49893C7.94075 21.8508 8.29893 21.4926 8.29893 21.0508C8.29893 20.609 7.94075 20.2508 7.49893 20.2508H7.29893V11.8508H7.49893C7.94075 11.8508 8.29893 11.4926 8.29893 11.0508C8.29893 10.609 7.94075 10.2508 7.49893 10.2508H6.49893H5.49893ZM10.4989 10.2508C10.0571 10.2508 9.69893 10.609 9.69893 11.0508C9.69893 11.4926 10.0571 11.8508 10.4989 11.8508H10.6989V20.2508H10.4989C10.0571 20.2508 9.69893 20.609 9.69893 21.0508C9.69893 21.4926 10.0571 21.8508 10.4989 21.8508H11.4989H12.4989C12.9408 21.8508 13.2989 21.4926 13.2989 21.0508C13.2989 20.609 12.9408 20.2508 12.4989 20.2508H12.2989V11.8508H12.4989C12.9408 11.8508 13.2989 11.4926 13.2989 11.0508C13.2989 10.609 12.9408 10.2508 12.4989 10.2508H11.4989H10.4989ZM14.6989 11.0508C14.6989 10.609 15.0571 10.2508 15.4989 10.2508H16.4989H17.4989C17.9408 10.2508 18.2989 10.609 18.2989 11.0508C18.2989 11.4926 17.9408 11.8508 17.4989 11.8508H17.2989V20.2508H17.4989C17.9408 20.2508 18.2989 20.609 18.2989 21.0508C18.2989 21.4926 17.9408 21.8508 17.4989 21.8508H16.4989H15.4989C15.0571 21.8508 14.6989 21.4926 14.6989 21.0508C14.6989 20.609 15.0571 20.2508 15.4989 20.2508H15.6989V11.8508H15.4989C15.0571 11.8508 14.6989 11.4926 14.6989 11.0508ZM20.4989 10.2508C20.0571 10.2508 19.6989 10.609 19.6989 11.0508C19.6989 11.4926 20.0571 11.8508 20.4989 11.8508H20.6989V20.2508H20.4989C20.0571 20.2508 19.6989 20.609 19.6989 21.0508C19.6989 21.4926 20.0571 21.8508 20.4989 21.8508H21.4989H22.4989C22.9408 21.8508 23.2989 21.4926 23.2989 21.0508C23.2989 20.609 22.9408 20.2508 22.4989 20.2508H22.2989V11.8508H22.4989C22.9408 11.8508 23.2989 11.4926 23.2989 11.0508C23.2989 10.609 22.9408 10.2508 22.4989 10.2508H21.4989H20.4989ZM3.19995 24C3.19995 23.5582 3.55812 23.2 3.99995 23.2H24C24.4418 23.2 24.7999 23.5582 24.7999 24C24.7999 24.4418 24.4418 24.8 24 24.8H3.99995C3.55812 24.8 3.19995 24.4418 3.19995 24Z" fill="black"/>
</svg>
