<svg width="28" height="28" viewBox="0 0 28 28" fill="none" xmlns="http://www.w3.org/2000/svg">
<path fill-rule="evenodd" clip-rule="evenodd" d="M13.6423 2.28446C13.8675 2.17184 14.1326 2.17184 14.3578 2.28446L24.3578 7.28446C24.6897 7.45038 24.8639 7.8227 24.7786 8.1838C24.6934 8.5449 24.371 8.8 24 8.8H14H4.00003C3.62901 8.8 3.30667 8.5449 3.22143 8.1838C3.13619 7.8227 3.31041 7.45038 3.64226 7.28446L13.6423 2.28446ZM7.38888 7.2H14H20.6112L14 3.89442L7.38888 7.2ZM3.20003 24C3.20003 23.5582 3.5582 23.2 4.00003 23.2H24C24.4419 23.2 24.8 23.5582 24.8 24C24.8 24.4418 24.4419 24.8 24 24.8H4.00003C3.5582 24.8 3.20003 24.4418 3.20003 24ZM4.699 11.0508C4.699 10.6089 5.05718 10.2508 5.499 10.2508H6.499H7.499C7.94083 10.2508 8.299 10.6089 8.299 11.0508C8.299 11.4926 7.94083 11.8508 7.499 11.8508H7.299V20.2508H7.499C7.94083 20.2508 8.299 20.6089 8.299 21.0508C8.299 21.4926 7.94083 21.8508 7.499 21.8508H6.499H5.499C5.05718 21.8508 4.699 21.4926 4.699 21.0508C4.699 20.6089 5.05718 20.2508 5.499 20.2508H5.699V11.8508H5.499C5.05718 11.8508 4.699 11.4926 4.699 11.0508ZM9.699 11.0508C9.699 10.6089 10.0572 10.2508 10.499 10.2508H11.499H12.499C12.9408 10.2508 13.299 10.6089 13.299 11.0508C13.299 11.4926 12.9408 11.8508 12.499 11.8508H12.299V20.2508H12.499C12.9408 20.2508 13.299 20.6089 13.299 21.0508C13.299 21.4926 12.9408 21.8508 12.499 21.8508H11.499H10.499C10.0572 21.8508 9.699 21.4926 9.699 21.0508C9.699 20.6089 10.0572 20.2508 10.499 20.2508H10.699V11.8508H10.499C10.0572 11.8508 9.699 11.4926 9.699 11.0508ZM15.499 10.2508C15.0572 10.2508 14.699 10.6089 14.699 11.0508C14.699 11.4926 15.0572 11.8508 15.499 11.8508H15.699V20.2508H15.499C15.0572 20.2508 14.699 20.6089 14.699 21.0508C14.699 21.4926 15.0572 21.8508 15.499 21.8508H16.499H17.499C17.9408 21.8508 18.299 21.4926 18.299 21.0508C18.299 20.6089 17.9408 20.2508 17.499 20.2508H17.299V11.8508H17.499C17.9408 11.8508 18.299 11.4926 18.299 11.0508C18.299 10.6089 17.9408 10.2508 17.499 10.2508H16.499H15.499ZM19.699 11.0508C19.699 10.6089 20.0572 10.2508 20.499 10.2508H21.499H22.499C22.9408 10.2508 23.299 10.6089 23.299 11.0508C23.299 11.4926 22.9408 11.8508 22.499 11.8508H22.299V20.2508H22.499C22.9408 20.2508 23.299 20.6089 23.299 21.0508C23.299 21.4926 22.9408 21.8508 22.499 21.8508H21.499H20.499C20.0572 21.8508 19.699 21.4926 19.699 21.0508C19.699 20.6089 20.0572 20.2508 20.499 20.2508H20.699V11.8508H20.499C20.0572 11.8508 19.699 11.4926 19.699 11.0508Z" fill="black"/>
</svg>
