<svg width="28" height="28" viewBox="0 0 28 28" fill="none" xmlns="http://www.w3.org/2000/svg">
<path fill-rule="evenodd" clip-rule="evenodd" d="M3.32698 5.63803C3 6.27976 3 7.11984 3 8.8V19.2C3 20.8802 3 21.7202 3.32698 22.362C3.6146 22.9265 4.07354 23.3854 4.63803 23.673C5.27976 24 6.11984 24 7.8 24H20.2C21.8802 24 22.7202 24 23.362 23.673C23.9265 23.3854 24.3854 22.9265 24.673 22.362C25 21.7202 25 20.8802 25 19.2V8.8C25 7.11984 25 6.27976 24.673 5.63803C24.3854 5.07354 23.9265 4.6146 23.362 4.32698C22.7202 4 21.8802 4 20.2 4H7.8C6.11984 4 5.27976 4 4.63803 4.32698C4.07354 4.6146 3.6146 5.07354 3.32698 5.63803ZM5.16349 9.81901C5 10.1399 5 10.5599 5 11.4V19.6C5 20.4401 5 20.8601 5.16349 21.181C5.3073 21.4632 5.53677 21.6927 5.81901 21.8365C6.13988 22 6.55992 22 7.4 22H20.6C21.4401 22 21.8601 22 22.181 21.8365C22.4632 21.6927 22.6927 21.4632 22.8365 21.181C23 20.8601 23 20.4401 23 19.6V11.4C23 10.5599 23 10.1399 22.8365 9.81901C22.6927 9.53677 22.4632 9.3073 22.181 9.16349C21.8601 9 21.4401 9 20.6 9H7.4C6.55992 9 6.13988 9 5.81901 9.16349C5.53677 9.3073 5.3073 9.53677 5.16349 9.81901ZM11 11.5C11 11.2239 11.2239 11 11.5 11H12.5C12.7761 11 13 11.2239 13 11.5V12.5C13 12.7761 12.7761 13 12.5 13H11.5C11.2239 13 11 12.7761 11 12.5V11.5ZM11.5 14.5C11.2239 14.5 11 14.7239 11 15V16C11 16.2761 11.2239 16.5 11.5 16.5H12.5C12.7761 16.5 13 16.2761 13 16V15C13 14.7239 12.7761 14.5 12.5 14.5H11.5ZM11 18.5C11 18.2239 11.2239 18 11.5 18H12.5C12.7761 18 13 18.2239 13 18.5V19.5C13 19.7761 12.7761 20 12.5 20H11.5C11.2239 20 11 19.7761 11 19.5V18.5ZM7.5 14.5C7.22386 14.5 7 14.7239 7 15V16C7 16.2761 7.22386 16.5 7.5 16.5H8.5C8.77614 16.5 9 16.2761 9 16V15C9 14.7239 8.77614 14.5 8.5 14.5H7.5ZM7 18.5C7 18.2239 7.22386 18 7.5 18H8.5C8.77614 18 9 18.2239 9 18.5V19.5C9 19.7761 8.77614 20 8.5 20H7.5C7.22386 20 7 19.7761 7 19.5V18.5ZM15.5 11C15.2239 11 15 11.2239 15 11.5V12.5C15 12.7761 15.2239 13 15.5 13H16.5C16.7761 13 17 12.7761 17 12.5V11.5C17 11.2239 16.7761 11 16.5 11H15.5ZM15 15C15 14.7239 15.2239 14.5 15.5 14.5H16.5C16.7761 14.5 17 14.7239 17 15V16C17 16.2761 16.7761 16.5 16.5 16.5H15.5C15.2239 16.5 15 16.2761 15 16V15ZM15.5 18C15.2239 18 15 18.2239 15 18.5V19.5C15 19.7761 15.2239 20 15.5 20H16.5C16.7761 20 17 19.7761 17 19.5V18.5C17 18.2239 16.7761 18 16.5 18H15.5ZM19 11.5C19 11.2239 19.2239 11 19.5 11H20.5C20.7761 11 21 11.2239 21 11.5V12.5C21 12.7761 20.7761 13 20.5 13H19.5C19.2239 13 19 12.7761 19 12.5V11.5ZM19.5 14.5C19.2239 14.5 19 14.7239 19 15V16C19 16.2761 19.2239 16.5 19.5 16.5H20.5C20.7761 16.5 21 16.2761 21 16V15C21 14.7239 20.7761 14.5 20.5 14.5H19.5Z" fill="black"/>
</svg>
