<svg width="28" height="28" viewBox="0 0 28 28" fill="none" xmlns="http://www.w3.org/2000/svg">
<path d="M6.426 10.0577C6.41793 10.0408 6.41183 10.0269 6.40724 10.0158C6.41914 10.014 6.43417 10.0122 6.45282 10.0105C6.56152 10.0005 6.71396 10 6.96348 10H8V12.7225L6.67819 10.5018C6.55057 10.2874 6.47303 10.1562 6.426 10.0577Z" fill="black"/>
<path d="M9 12.7225V10H10.0365C10.286 10 10.4385 10.0005 10.5472 10.0105C10.5658 10.0122 10.5809 10.014 10.5928 10.0158C10.5882 10.0269 10.5821 10.0408 10.574 10.0577C10.527 10.1562 10.4494 10.2874 10.3218 10.5018L9 12.7225Z" fill="black"/>
<path fill-rule="evenodd" clip-rule="evenodd" d="M3.32698 7.63803C3 8.27976 3 9.11984 3 10.8V22H3.03125L4.83141 20.1998L6.63156 22H6.69434L8.49449 20.1998L10.2946 22H10.3564L12.1566 20.1998L13.9568 22H14.0195L15.8197 20.1998L17.6198 22H17.6826L19.4828 20.1998L21.2829 22H21.3457L23.1459 20.1998L24.946 22H25V10.8C25 9.11984 25 8.27976 24.673 7.63803C24.3854 7.07354 23.9265 6.6146 23.362 6.32698C22.7202 6 21.8802 6 20.2 6H7.8C6.11984 6 5.27976 6 4.63803 6.32698C4.07354 6.6146 3.6146 7.07354 3.32698 7.63803ZM14 9.7C13.5582 9.7 13.2 10.0582 13.2 10.5C13.2 10.9418 13.5582 11.3 14 11.3H21C21.4418 11.3 21.8 10.9418 21.8 10.5C21.8 10.0582 21.4418 9.7 21 9.7H14ZM13.2 13.5C13.2 13.0582 13.5582 12.7 14 12.7H18C18.4418 12.7 18.8 13.0582 18.8 13.5C18.8 13.9418 18.4418 14.3 18 14.3H14C13.5582 14.3 13.2 13.9418 13.2 13.5ZM6.94204 9C6.72084 8.99998 6.52155 8.99997 6.36146 9.01466C6.19928 9.02954 5.99269 9.0647 5.81184 9.1972C5.57713 9.36917 5.42703 9.63319 5.39931 9.92284C5.37795 10.146 5.45341 10.3415 5.52357 10.4885C5.59283 10.6336 5.69478 10.8048 5.80793 10.9949L8.07035 14.7957C8.16051 14.9472 8.32374 15.04 8.5 15.04C8.67626 15.04 8.83949 14.9472 8.92965 14.7957L11.1921 10.9949C11.3052 10.8048 11.4072 10.6336 11.4764 10.4885C11.5466 10.3415 11.622 10.146 11.6007 9.92284C11.573 9.63319 11.4229 9.36917 11.1882 9.1972C11.0073 9.0647 10.8007 9.02954 10.6385 9.01466C10.4785 8.99997 10.2792 8.99998 10.058 9H6.94204Z" fill="black"/>
</svg>
