<svg width="28" height="28" viewBox="0 0 28 28" fill="none" xmlns="http://www.w3.org/2000/svg">
<path fill-rule="evenodd" clip-rule="evenodd" d="M14 25C20.0751 25 25 20.0751 25 14C25 7.92487 20.0751 3 14 3C7.92487 3 3 7.92487 3 14C3 20.0751 7.92487 25 14 25ZM12.601 8.39896C12.2691 8.06701 11.7309 8.06701 11.399 8.39896C11.067 8.73091 11.067 9.26909 11.399 9.60104L15.7979 14L11.399 18.399C11.067 18.7309 11.067 19.2691 11.399 19.601C11.7309 19.933 12.2691 19.933 12.601 19.601L17.601 14.601C17.933 14.2691 17.933 13.7309 17.601 13.399L12.601 8.39896Z" fill="black"/>
</svg>
