<svg width="28" height="28" viewBox="0 0 28 28" fill="none" xmlns="http://www.w3.org/2000/svg">
<path fill-rule="evenodd" clip-rule="evenodd" d="M12.3339 5.10909C12.0728 5.3737 12 5.58941 12 5.75C12 5.91059 12.0728 6.1263 12.3339 6.39091C12.5982 6.65874 13.0179 6.93434 13.5957 7.18196C14.7486 7.67607 16.3936 8 18.25 8C20.1064 8 21.7514 7.67607 22.9043 7.18196C23.4821 6.93434 23.9018 6.65874 24.1661 6.39091C24.4272 6.1263 24.5 5.91059 24.5 5.75C24.5 5.58941 24.4272 5.3737 24.1661 5.10909C23.9018 4.84126 23.4821 4.56566 22.9043 4.31804C21.7514 3.82393 20.1064 3.5 18.25 3.5C16.3936 3.5 14.7486 3.82393 13.5957 4.31804C13.0179 4.56566 12.5982 4.84126 12.3339 5.10909ZM23.4952 8.56068C23.8569 8.40566 24.1956 8.22981 24.5 8.03261V9.75C24.5 9.91059 24.4272 10.1263 24.1661 10.3909C23.9018 10.6587 23.4821 10.9343 22.9043 11.182C21.7514 11.6761 20.1064 12 18.25 12C17.8465 12 17.4518 11.9847 17.0692 11.9554C16.9697 11.8134 16.8565 11.6799 16.7337 11.5554C16.2896 11.1054 15.6841 10.7346 14.9952 10.4393C14.1501 10.0771 13.1273 9.8064 12 9.65086V8.03261C12.3044 8.22981 12.6431 8.40566 13.0048 8.56068C14.3854 9.15236 16.2404 9.5 18.25 9.5C20.2596 9.5 22.1146 9.15236 23.4952 8.56068ZM10.5 9.51628V5.75C10.5 5.08216 10.819 4.50866 11.2663 4.05544C11.7104 3.60544 12.3159 3.23459 13.0048 2.93932C14.3854 2.34764 16.2404 2 18.25 2C20.2596 2 22.1146 2.34764 23.4952 2.93932C24.1841 3.23459 24.7896 3.60544 25.2337 4.05544C25.681 4.50866 26 5.08216 26 5.75V9.75V13.75V17.75C26 18.4178 25.681 18.9913 25.2337 19.4446C24.7896 19.8946 24.1841 20.2654 23.4952 20.5607C22.1146 21.1524 20.2596 21.5 18.25 21.5C17.9925 21.5 17.7379 21.4943 17.4869 21.4832C17.4227 22.0519 17.1281 22.545 16.7337 22.9446C16.2896 23.3946 15.6841 23.7654 14.9952 24.0607C13.6146 24.6524 11.7596 25 9.75 25C7.74037 25 5.88539 24.6524 4.50481 24.0607C3.81586 23.7654 3.2104 23.3946 2.76628 22.9446C2.31899 22.4913 2 21.9178 2 21.25V17.25V13.25C2 12.5822 2.31899 12.0087 2.76628 11.5554C3.2104 11.1054 3.81586 10.7346 4.50481 10.4393C5.88539 9.84764 7.74037 9.5 9.75 9.5C10.0027 9.5 10.2529 9.50549 10.5 9.51628ZM17.5 19.9822C17.746 19.9939 17.9962 20 18.25 20C20.1064 20 21.7514 19.6761 22.9043 19.182C23.4821 18.9343 23.9018 18.6587 24.1661 18.3909C24.4272 18.1263 24.5 17.9106 24.5 17.75V16.0326C24.1956 16.2298 23.8569 16.4057 23.4952 16.5607C22.1146 17.1524 20.2596 17.5 18.25 17.5C17.997 17.5 17.7468 17.4945 17.5 17.4837V19.9822ZM17.5 15.9822C17.746 15.9939 17.9962 16 18.25 16C20.1064 16 21.7514 15.6761 22.9043 15.182C23.4821 14.9343 23.9018 14.6587 24.1661 14.3909C24.4272 14.1263 24.5 13.9106 24.5 13.75V12.0326C24.1956 12.2298 23.8569 12.4057 23.4952 12.5607C22.1146 13.1524 20.2596 13.5 18.25 13.5C17.997 13.5 17.7468 13.4945 17.5 13.4837V15.9822ZM3.5 13.25C3.5 13.0894 3.57276 12.8737 3.83391 12.6091C4.09823 12.3413 4.5179 12.0657 5.09569 11.818C6.24861 11.3239 7.89364 11 9.75 11C11.6064 11 13.2514 11.3239 14.4043 11.818C14.9821 12.0657 15.4018 12.3413 15.6661 12.6091C15.9272 12.8737 16 13.0894 16 13.25C16 13.4106 15.9272 13.6263 15.6661 13.8909C15.4018 14.1587 14.9821 14.4343 14.4043 14.682C13.2514 15.1761 11.6064 15.5 9.75 15.5C7.89364 15.5 6.24861 15.1761 5.09569 14.682C4.5179 14.4343 4.09823 14.1587 3.83391 13.8909C3.57276 13.6263 3.5 13.4106 3.5 13.25ZM14.9952 16.0607C15.3569 15.9057 15.6956 15.7298 16 15.5326V17.25C16 17.4106 15.9272 17.6263 15.6661 17.8909C15.4018 18.1587 14.9821 18.4343 14.4043 18.682C13.2514 19.1761 11.6064 19.5 9.75 19.5C7.89364 19.5 6.24861 19.1761 5.09569 18.682C4.5179 18.4343 4.09823 18.1587 3.83391 17.8909C3.57276 17.6263 3.5 17.4106 3.5 17.25V15.5326C3.80441 15.7298 4.14311 15.9057 4.50481 16.0607C5.88539 16.6524 7.74037 17 9.75 17C11.7596 17 13.6146 16.6524 14.9952 16.0607ZM14.9952 20.0607C15.3569 19.9057 15.6956 19.7298 16 19.5326V21.25C16 21.4106 15.9272 21.6263 15.6661 21.8909C15.4018 22.1587 14.9821 22.4343 14.4043 22.682C13.2514 23.1761 11.6064 23.5 9.75 23.5C7.89364 23.5 6.24861 23.1761 5.09569 22.682C4.5179 22.4343 4.09823 22.1587 3.83391 21.8909C3.57276 21.6263 3.5 21.4106 3.5 21.25V19.5326C3.80441 19.7298 4.14311 19.9057 4.50481 20.0607C5.88539 20.6524 7.74037 21 9.75 21C11.7596 21 13.6146 20.6524 14.9952 20.0607Z" fill="black"/>
</svg>
