<svg width="28" height="28" viewBox="0 0 28 28" fill="none" xmlns="http://www.w3.org/2000/svg">
<path fill-rule="evenodd" clip-rule="evenodd" d="M24.5 10.1312C24.1861 10.5341 23.7321 10.9162 23.1399 11.255C21.9054 11.9612 20.1651 12.4146 18.2143 12.4146C16.2635 12.4146 14.5232 11.9612 13.2887 11.255C12.6965 10.9162 12.2424 10.5341 11.9286 10.1312V6.64634C11.9286 5.97543 12.2724 5.44238 12.668 5.06788C13.0613 4.69547 13.5743 4.40842 14.1213 4.18937C15.2211 3.74896 16.6687 3.5 18.2143 3.5C19.7599 3.5 21.2074 3.74896 22.3073 4.18937C22.8543 4.40842 23.3672 4.69547 23.7606 5.06788C24.1561 5.44238 24.5 5.97543 24.5 6.64634V10.1312ZM18.2143 8.7439C21.1072 8.7439 23.4524 7.80479 23.4524 6.64634C23.4524 5.48789 21.1072 4.54878 18.2143 4.54878C15.3214 4.54878 12.9762 5.48789 12.9762 6.64634C12.9762 7.80479 15.3214 8.7439 18.2143 8.7439Z" fill="black"/>
<path fill-rule="evenodd" clip-rule="evenodd" d="M23.6596 12.1656C23.9599 11.9938 24.242 11.8044 24.5 11.5987V15.3751C24.1861 15.778 23.7321 16.1601 23.1399 16.4989C21.9054 17.2051 20.1651 17.6585 18.2143 17.6585C17.0753 17.6585 16.0081 17.504 15.0714 17.2348V17.4727C14.7576 17.8756 14.3035 18.2577 13.7113 18.5965C12.4768 19.3027 10.7365 19.7561 8.78571 19.7561C6.83494 19.7561 5.0946 19.3027 3.86015 18.5965C3.26795 18.2577 2.81385 17.8756 2.5 17.4727V13.9878C2.5 13.3169 2.84386 12.7838 3.23943 12.4093C3.63278 12.0369 4.14575 11.7499 4.69275 11.5308C5.79256 11.0904 7.24009 10.8415 8.78571 10.8415C10.3313 10.8415 11.7789 11.0904 12.8787 11.5308C13.4257 11.7499 13.9386 12.0369 14.332 12.4093C14.5091 12.577 14.6758 12.7764 14.8059 13.0057C15.8408 13.3005 16.9985 13.4634 18.2143 13.4634C20.3136 13.4634 22.2399 12.9777 23.6596 12.1656ZM8.78571 11.8903C5.89279 11.8903 3.54762 12.8294 3.54762 13.9878C3.54762 15.1463 5.89279 16.0854 8.78571 16.0854C11.6786 16.0854 14.0238 15.1463 14.0238 13.9878C14.0238 12.8294 11.6786 11.8903 8.78571 11.8903Z" fill="black"/>
<path d="M14.962 22.4941C14.8296 22.8714 14.592 23.186 14.332 23.4321C13.9386 23.8045 13.4257 24.0916 12.8787 24.3106C11.7789 24.751 10.3313 25 8.78571 25C7.24009 25 5.79256 24.751 4.69275 24.3106C4.14575 24.0916 3.63278 23.8045 3.23943 23.4321C2.84386 23.0576 2.5 22.5246 2.5 21.8537V18.9402C2.75798 19.1458 3.04009 19.3353 3.34038 19.5071C4.76008 20.3192 6.6864 20.8049 8.78571 20.8049C10.885 20.8049 12.8114 20.3192 14.231 19.5071C14.5313 19.3353 14.8134 19.1458 15.0714 18.9402V18.3216C16.0373 18.5709 17.1015 18.7073 18.2143 18.7073C20.3136 18.7073 22.2399 18.2216 23.6596 17.4095C23.9599 17.2377 24.242 17.0483 24.5 16.8426V19.7561C24.5 20.427 24.1561 20.9601 23.7606 21.3346C23.3672 21.707 22.8543 21.994 22.3073 22.2131C21.2074 22.6535 19.7599 22.9024 18.2143 22.9024C17.0364 22.9024 15.9155 22.7578 14.962 22.4941Z" fill="black"/>
</svg>
