<svg width="28" height="28" viewBox="0 0 28 28" fill="none" xmlns="http://www.w3.org/2000/svg">
<path fill-rule="evenodd" clip-rule="evenodd" d="M7.76595 5.2H7.79995H20.2H20.2339C21.0452 5.19999 21.7025 5.19998 22.2355 5.24353C22.7852 5.28844 23.2727 5.38364 23.7251 5.61417C24.4401 5.97849 25.0215 6.55982 25.3858 7.27483C25.6163 7.72728 25.7115 8.21473 25.7564 8.76446C25.8 9.2974 25.8 9.95473 25.8 10.7659V10.8V17.2V17.2341C25.8 18.0453 25.8 18.7026 25.7564 19.2355C25.7115 19.7853 25.6163 20.2727 25.3858 20.7252C25.0215 21.4402 24.4401 22.0215 23.7251 22.3858C23.2727 22.6164 22.7852 22.7116 22.2355 22.7565C21.7025 22.8 21.0452 22.8 20.234 22.8H20.2H7.79995H7.76587C6.95469 22.8 6.29736 22.8 5.76441 22.7565C5.21468 22.7116 4.72723 22.6164 4.27479 22.3858C3.55977 22.0215 2.97845 21.4402 2.61413 20.7252C2.3836 20.2727 2.2884 19.7853 2.24348 19.2355C2.19994 18.7026 2.19994 18.0452 2.19995 17.234V17.234V17.2V10.8V10.766V10.766C2.19994 9.95477 2.19994 9.29742 2.24348 8.76446C2.2884 8.21473 2.3836 7.72728 2.61413 7.27483C2.97845 6.55982 3.55977 5.97849 4.27479 5.61417C4.72723 5.38364 5.21468 5.28844 5.76441 5.24353C6.29737 5.19998 6.95473 5.19999 7.76595 5.2H7.76595ZM5.8947 6.83821C5.44392 6.87504 5.19047 6.94333 5.00117 7.03978C4.58722 7.2507 4.25066 7.58726 4.03974 8.00122C3.94329 8.19051 3.875 8.44397 3.83817 8.89475C3.80966 9.24361 3.80241 9.6682 3.80057 10.225C3.86431 10.2087 3.93112 10.2 3.99995 10.2H24C24.0688 10.2 24.1356 10.2087 24.1993 10.225C24.1975 9.6682 24.1902 9.24361 24.1617 8.89475C24.1249 8.44397 24.0566 8.19051 23.9602 8.00122C23.7492 7.58726 23.4127 7.2507 22.9987 7.03978C22.8094 6.94333 22.556 6.87504 22.1052 6.83821C21.6451 6.80062 21.0532 6.8 20.2 6.8H7.79995C6.94667 6.8 6.35483 6.80062 5.8947 6.83821ZM24.2 11.7748C24.136 11.7912 24.069 11.8 24 11.8H3.99995C3.93089 11.8 3.86388 11.7912 3.79995 11.7748V17.2C3.79995 18.0533 3.80057 18.6451 3.83817 19.1052C3.875 19.556 3.94329 19.8095 4.03974 19.9988C4.25066 20.4127 4.58722 20.7493 5.00117 20.9602C5.19047 21.0567 5.44392 21.125 5.8947 21.1618C6.35483 21.1994 6.94667 21.2 7.79995 21.2H20.2C21.0532 21.2 21.6451 21.1994 22.1052 21.1618C22.556 21.125 22.8094 21.0567 22.9987 20.9602C23.4127 20.7493 23.7492 20.4127 23.9602 19.9988C24.0566 19.8095 24.1249 19.556 24.1617 19.1052C24.1993 18.6451 24.2 18.0533 24.2 17.2V11.7748ZM5.99995 17.5C5.99995 17.0341 5.99995 16.8011 6.07607 16.6173C6.17757 16.3723 6.37224 16.1776 6.61727 16.0761C6.80104 16 7.03401 16 7.49995 16H8.49995C8.96589 16 9.19886 16 9.38264 16.0761C9.62766 16.1776 9.82234 16.3723 9.92383 16.6173C9.99995 16.8011 9.99995 17.0341 9.99995 17.5C9.99995 17.9659 9.99995 18.1989 9.92383 18.3827C9.82234 18.6277 9.62766 18.8224 9.38264 18.9239C9.19886 19 8.96589 19 8.49995 19H7.49995C7.03401 19 6.80104 19 6.61727 18.9239C6.37224 18.8224 6.17757 18.6277 6.07607 18.3827C5.99995 18.1989 5.99995 17.9659 5.99995 17.5Z" fill="black"/>
</svg>
