<svg width="28" height="28" viewBox="0 0 28 28" fill="none" xmlns="http://www.w3.org/2000/svg">
<path d="M3.00169 10C3.00979 8.83507 3.05658 8.16873 3.32698 7.63803C3.6146 7.07354 4.07354 6.6146 4.63803 6.32698C5.27976 6 6.11984 6 7.8 6H20.2C21.8802 6 22.7202 6 23.362 6.32698C23.9265 6.6146 24.3854 7.07354 24.673 7.63803C24.9434 8.16873 24.9902 8.83507 24.9983 10H3.00169Z" fill="black"/>
<path fill-rule="evenodd" clip-rule="evenodd" d="M3 12V17.2C3 18.8802 3 19.7202 3.32698 20.362C3.6146 20.9265 4.07354 21.3854 4.63803 21.673C5.27976 22 6.11984 22 7.8 22H20.2C21.8802 22 22.7202 22 23.362 21.673C23.9265 21.3854 24.3854 20.9265 24.673 20.362C25 19.7202 25 18.8802 25 17.2V12H3ZM6 17.5C6 17.0341 6 16.8011 6.07612 16.6173C6.17761 16.3723 6.37229 16.1776 6.61732 16.0761C6.80109 16 7.03406 16 7.5 16H8.5C8.96594 16 9.19891 16 9.38268 16.0761C9.62771 16.1776 9.82239 16.3723 9.92388 16.6173C10 16.8011 10 17.0341 10 17.5C10 17.9659 10 18.1989 9.92388 18.3827C9.82239 18.6277 9.62771 18.8224 9.38268 18.9239C9.19891 19 8.96594 19 8.5 19H7.5C7.03406 19 6.80109 19 6.61732 18.9239C6.37229 18.8224 6.17761 18.6277 6.07612 18.3827C6 18.1989 6 17.9659 6 17.5Z" fill="black"/>
</svg>
