<svg width="28" height="28" viewBox="0 0 28 28" fill="none" xmlns="http://www.w3.org/2000/svg">
<path d="M22.9004 25.1426L12.5166 25.1306C12.0461 25.1306 11.5994 25.0788 11.1768 24.9751C10.762 24.8794 10.3633 24.7239 9.98047 24.5085C9.60563 24.2932 9.25472 24.0141 8.92773 23.6711L1.86963 16.3857C1.47884 15.979 1.19173 15.5922 1.0083 15.2253C0.82487 14.8505 0.733154 14.4797 0.733154 14.1128C0.733154 13.8576 0.773031 13.6104 0.852783 13.3711C0.932536 13.1239 1.05615 12.8726 1.22363 12.6174C1.39111 12.3622 1.60645 12.103 1.86963 11.8398L8.91577 4.51855C9.24276 4.17562 9.59367 3.90047 9.96851 3.69312C10.3513 3.48576 10.7501 3.33822 11.1648 3.25049C11.5875 3.16276 12.0341 3.1189 12.5046 3.1189H22.9004C24.1525 3.1189 25.0896 3.42993 25.7117 4.052C26.3417 4.6661 26.6567 5.59123 26.6567 6.82739V21.4341C26.6567 22.6702 26.3417 23.5954 25.7117 24.2095C25.0896 24.8315 24.1525 25.1426 22.9004 25.1426ZM11.8586 19.1492C12.1458 19.1492 12.389 19.0535 12.5884 18.8621L15.8901 15.5364L19.2039 18.8621C19.3873 19.0535 19.6226 19.1492 19.9097 19.1492C20.1888 19.1492 20.4241 19.0535 20.6155 18.8621C20.8069 18.6627 20.9026 18.4274 20.9026 18.1562C20.9026 17.8612 20.8069 17.6259 20.6155 17.4504L17.2898 14.1367L20.6274 10.811C20.8188 10.6117 20.9146 10.3764 20.9146 10.1052C20.9146 9.83407 20.8188 9.60278 20.6274 9.41138C20.436 9.21997 20.2048 9.12427 19.9336 9.12427C19.6704 9.12427 19.4431 9.21997 19.2517 9.41138L15.8901 12.749L12.5525 9.42334C12.3531 9.23991 12.1218 9.14819 11.8586 9.14819C11.5875 9.14819 11.3562 9.2439 11.1648 9.4353C10.9734 9.61873 10.8777 9.85002 10.8777 10.1292C10.8777 10.3923 10.9734 10.6236 11.1648 10.823L14.4905 14.1367L11.1648 17.4624C10.9734 17.6538 10.8777 17.8851 10.8777 18.1562C10.8777 18.4274 10.9734 18.6627 11.1648 18.8621C11.3562 19.0535 11.5875 19.1492 11.8586 19.1492Z" fill="black"/>
</svg>
