<svg width="28" height="28" viewBox="0 0 28 28" fill="none" xmlns="http://www.w3.org/2000/svg">
<path fill-rule="evenodd" clip-rule="evenodd" d="M17.9373 2.93726L22.0627 7.06274C22.4086 7.40865 22.5816 7.5816 22.7053 7.78343C22.7856 7.91456 22.8505 8.05435 22.8987 8.2H19.2C18.6267 8.2 18.2449 8.19938 17.9515 8.17541C17.6675 8.1522 17.5375 8.11116 17.4552 8.06921C17.2294 7.95416 17.0458 7.77058 16.9308 7.54479C16.8888 7.46245 16.8478 7.33248 16.8246 7.04845C16.8006 6.75508 16.8 6.37325 16.8 5.8V2.1013C16.9456 2.1495 17.0854 2.21437 17.2166 2.29472C17.4184 2.4184 17.5914 2.59135 17.9372 2.93725L17.9373 2.93726ZM15.2 2H13.2C12.0799 2 11.5198 2 11.092 2.21799C10.7157 2.40973 10.4097 2.71569 10.218 3.09202C10 3.51984 10 4.0799 10 5.2V7.42001H11L11.0337 7.42C11.1679 7.41991 11.3148 7.41981 11.4625 7.43185C12.2092 7.49271 12.918 7.78631 13.489 8.27128C13.6019 8.36716 13.7058 8.47113 13.8006 8.56605L13.8244 8.58989L18.4102 13.1757L18.434 13.1995L18.434 13.1995L18.434 13.1995C18.5289 13.2943 18.6329 13.3981 18.7288 13.511C19.2138 14.0821 19.5073 14.7909 19.5682 15.5376C19.5802 15.6852 19.5802 15.8322 19.5801 15.9663L19.58 16L19.5801 19H19.8C20.9201 19 21.4802 19 21.908 18.782C22.2843 18.5903 22.5903 18.2843 22.782 17.908C23 17.4802 23 16.9201 23 15.8V9.8H19.2L19.1679 9.8C18.6352 9.80001 18.1876 9.80002 17.8213 9.77009C17.4383 9.7388 17.0743 9.67085 16.7288 9.49482C16.202 9.22637 15.7736 8.79803 15.5052 8.27117C15.3291 7.92569 15.2612 7.56172 15.2299 7.17874C15.2 6.81244 15.2 6.36482 15.2 5.83212L15.2 5.8V2ZM17.0627 14.0627L12.9373 9.93726C12.5914 9.59135 12.4184 9.4184 12.2166 9.29472C12.0854 9.21437 11.9456 9.1495 11.8 9.1013V12.8C11.8 13.3733 11.8006 13.7551 11.8246 14.0485C11.8478 14.3325 11.8888 14.4625 11.9308 14.5448C12.0458 14.7706 12.2294 14.9542 12.4552 15.0692C12.5375 15.1112 12.6675 15.1522 12.9515 15.1754C13.2449 15.1994 13.6267 15.2 14.2 15.2H17.8987C17.8505 15.0544 17.7856 14.9146 17.7053 14.7834C17.5816 14.5816 17.4087 14.4087 17.0628 14.0628L17.0627 14.0627ZM8.2 9H10.2V12.8L10.2 12.8321C10.2 13.3648 10.2 13.8124 10.2299 14.1787C10.2612 14.5617 10.3291 14.9257 10.5052 15.2712C10.7736 15.798 11.202 16.2264 11.7288 16.4948C12.0743 16.6709 12.4383 16.7388 12.8213 16.7701C13.1876 16.8 13.6352 16.8 14.1679 16.8L14.2 16.8H18V22.8C18 23.9201 18 24.4802 17.782 24.908C17.5903 25.2843 17.2843 25.5903 16.908 25.782C16.4802 26 15.9201 26 14.8 26H8.2C7.0799 26 6.51984 26 6.09202 25.782C5.71569 25.5903 5.40973 25.2843 5.21799 24.908C5 24.4802 5 23.9201 5 22.8V12.2C5 11.0799 5 10.5198 5.21799 10.092C5.40973 9.71569 5.71569 9.40973 6.09202 9.21799C6.51984 9 7.0799 9 8.2 9Z" fill="black"/>
</svg>
