<svg width="28" height="28" viewBox="0 0 28 28" fill="none" xmlns="http://www.w3.org/2000/svg">
<path fill-rule="evenodd" clip-rule="evenodd" d="M16.8 7.6V3.9777C16.8518 4.0096 16.9015 4.04555 16.9483 4.08534C16.9798 4.11204 17.013 4.14438 17.1414 4.27279L21.7272 8.85858C21.8556 8.98698 21.8879 9.02019 21.9146 9.05164C21.9544 9.09849 21.9903 9.1481 22.0222 9.2H18.4C17.9667 9.2 17.6899 9.19937 17.4799 9.18222C17.2792 9.16582 17.211 9.13841 17.1822 9.1237C17.0504 9.05659 16.9434 8.9495 16.8762 8.81779C16.8615 8.78893 16.8341 8.7207 16.8177 8.52005C16.8006 8.31005 16.8 8.03324 16.8 7.6ZM22.2 16.8V10.8H18.4L18.3695 10.8C17.9755 10.8 17.6326 10.8 17.3496 10.7769C17.05 10.7524 16.7478 10.6981 16.4558 10.5493C16.023 10.3288 15.6711 9.97695 15.4506 9.54417C15.3019 9.25217 15.2475 8.94994 15.223 8.65034C15.1999 8.36733 15.1999 8.02445 15.2 7.6304L15.2 7.6V3.8H13.2C12.6267 3.8 12.2449 3.80062 11.9515 3.82459C11.6675 3.84779 11.5375 3.88884 11.4552 3.93079C11.2294 4.04584 11.0458 4.22941 10.9307 4.45521C10.8888 4.53755 10.8478 4.66751 10.8245 4.95155C10.8006 5.24492 10.8 5.62674 10.8 6.2V7.2H11L11.0258 7.19999C11.1693 7.19996 11.2847 7.19993 11.399 7.20925C11.983 7.25686 12.5374 7.48649 12.984 7.86579C13.0714 7.94003 13.153 8.02163 13.2545 8.12313L13.2727 8.14142L17.8585 12.7272L17.8768 12.7455L17.8769 12.7455C17.9783 12.847 18.0599 12.9285 18.1342 13.0159C18.5135 13.4625 18.7431 14.0169 18.7907 14.6009C18.8 14.7153 18.8 14.8306 18.8 14.9741L18.8 15V19.2H19.8C20.3732 19.2 20.755 19.1994 21.0484 19.1754C21.3324 19.1522 21.4624 19.1112 21.5447 19.0692C21.7705 18.9542 21.9541 18.7706 22.0692 18.5448C22.1111 18.4624 22.1522 18.3325 22.1754 18.0484C22.1993 17.7551 22.2 17.3733 22.2 16.8ZM18.8 20.8H19.8H19.8322H19.8323C20.3649 20.8 20.8124 20.8 21.1787 20.7701C21.5617 20.7388 21.9256 20.6708 22.2711 20.4948C22.798 20.2264 23.2263 19.798 23.4948 19.2712C23.6708 18.9257 23.7388 18.5617 23.77 18.1787C23.8 17.8125 23.8 17.3649 23.8 16.8322V16.8321V16.8V10L23.8 9.97413V9.97403C23.8 9.83057 23.8 9.71523 23.7907 9.60095C23.7431 9.01692 23.5135 8.46255 23.1342 8.01592C23.0599 7.92853 22.9784 7.847 22.8769 7.7456L22.8768 7.74551L22.8585 7.7272L18.2727 3.14142L18.2545 3.12313C18.153 3.02163 18.0714 2.94003 17.984 2.86579C17.5374 2.48649 16.983 2.25686 16.399 2.20925C16.2847 2.19993 16.1693 2.19996 16.0258 2.19999L16 2.2H13.2L13.1678 2.2C12.6351 2.19998 12.1875 2.19997 11.8212 2.2299C11.4382 2.26119 11.0743 2.32914 10.7288 2.50518C10.2019 2.77362 9.77358 3.20197 9.50513 3.72882C9.3291 4.07431 9.26115 4.43828 9.22986 4.82126C9.19993 5.18755 9.19994 5.63517 9.19995 6.16787L9.19995 6.2V7.2H8.19995L8.16783 7.2C7.63513 7.19998 7.18751 7.19997 6.82121 7.2299C6.43823 7.26119 6.07426 7.32914 5.72878 7.50518C5.20193 7.77362 4.77358 8.20197 4.50513 8.72882C4.3291 9.07431 4.26115 9.43828 4.22986 9.82125C4.19993 10.1875 4.19994 10.6352 4.19995 11.1678V11.1679V11.2V21.8V21.8321V21.8322C4.19994 22.3648 4.19993 22.8124 4.22986 23.1787C4.26115 23.5617 4.3291 23.9257 4.50513 24.2712C4.77358 24.798 5.20193 25.2264 5.72878 25.4948C6.07426 25.6708 6.43823 25.7388 6.82121 25.7701C7.18747 25.8 7.63503 25.8 8.16765 25.8H8.16775H8.19995H14.8H14.8322H14.8323C15.3649 25.8 15.8124 25.8 16.1787 25.7701C16.5617 25.7388 16.9256 25.6708 17.2711 25.4948C17.798 25.2264 18.2263 24.798 18.4948 24.2712C18.6708 23.9257 18.7388 23.5617 18.77 23.1787C18.8 22.8124 18.8 22.3648 18.8 21.8321V21.8V20.8ZM11.8 12.6V8.9777C11.8518 9.0096 11.9015 9.04555 11.9483 9.08534C11.9798 9.11204 12.013 9.14438 12.1414 9.27279L16.7272 13.8586C16.8556 13.987 16.8879 14.0202 16.9146 14.0516C16.9544 14.0985 16.9903 14.1481 17.0222 14.2H13.4C12.9667 14.2 12.6899 14.1994 12.4799 14.1822C12.2792 14.1658 12.211 14.1384 12.1822 14.1237C12.0504 14.0566 11.9434 13.9495 11.8762 13.8178C11.8615 13.7889 11.8341 13.7207 11.8177 13.52C11.8006 13.3101 11.8 13.0332 11.8 12.6ZM13.4 15.8H17.2V21.8C17.2 22.3732 17.1993 22.7551 17.1754 23.0484C17.1522 23.3325 17.1111 23.4624 17.0692 23.5448C16.9541 23.7706 16.7705 23.9542 16.5447 24.0692C16.4624 24.1112 16.3324 24.1522 16.0484 24.1754C15.755 24.1994 15.3732 24.2 14.8 24.2H8.19995C7.6267 24.2 7.24487 24.1994 6.9515 24.1754C6.66747 24.1522 6.5375 24.1112 6.45516 24.0692C6.22937 23.9542 6.04579 23.7706 5.93074 23.5448C5.88879 23.4624 5.84775 23.3325 5.82454 23.0484C5.80057 22.7551 5.79995 22.3732 5.79995 21.8V11.2C5.79995 10.6267 5.80057 10.2449 5.82454 9.95155C5.84775 9.66751 5.88879 9.53755 5.93074 9.45521C6.04579 9.22941 6.22937 9.04584 6.45516 8.93079C6.5375 8.88884 6.66747 8.84779 6.9515 8.82459C7.24487 8.80062 7.6267 8.8 8.19995 8.8H10.2V12.6L10.2 12.6304C10.1999 13.0245 10.1999 13.3673 10.223 13.6503C10.2475 13.9499 10.3019 14.2522 10.4506 14.5442C10.6711 14.9769 11.023 15.3288 11.4558 15.5493C11.7478 15.6981 12.05 15.7524 12.3496 15.7769C12.6326 15.8 12.9755 15.8 13.3695 15.8H13.4Z" fill="black"/>
</svg>
