<svg width="28" height="28" viewBox="0 0 28 28" fill="none" xmlns="http://www.w3.org/2000/svg">
<path fill-rule="evenodd" clip-rule="evenodd" d="M14 3C7.92487 3 3 7.92487 3 14C3 20.0751 7.92487 25 14 25C20.0751 25 25 20.0751 25 14C25 7.92487 20.0751 3 14 3ZM13.2537 20.1678C13.2537 20.618 13.5301 20.8865 13.9566 20.8865C14.383 20.8865 14.6594 20.618 14.6594 20.1678V19.386C16.4521 19.1885 18 18.1461 18 16.2034C18 14.6555 16.847 13.6683 14.8174 13.2024L13.7907 12.9654C12.7404 12.7285 12.0296 12.2784 12.0296 11.5518C12.0296 10.7068 12.7562 10.1698 13.9645 10.1698C15.0227 10.1698 15.6387 10.5726 15.9941 11.4018C16.1915 11.7808 16.4363 12.002 16.8944 12.002C17.3998 12.002 17.7473 11.7256 17.7473 11.2675C17.7473 11.1175 17.7157 10.9753 17.6762 10.8253C17.3287 9.66436 16.2073 8.82725 14.6594 8.63771V7.83218C14.6594 7.38203 14.383 7.11353 13.9566 7.11353C13.5301 7.11353 13.2537 7.38203 13.2537 7.83218V8.63771C11.4847 8.85884 10.1106 9.93287 10.1106 11.7177C10.1106 13.2103 11.3031 14.2369 13.1037 14.6476L14.1777 14.9003C15.386 15.1846 16.1125 15.5953 16.1125 16.3929C16.1125 17.3327 15.2991 17.8381 14.0276 17.8381C12.8272 17.8381 12.0849 17.3958 11.769 16.5903C11.6032 16.2191 11.3425 15.9506 10.8845 15.9506C10.3396 15.9506 10 16.2823 10 16.7799C10 16.9141 10.0237 17.0642 10.079 17.2142C10.4186 18.3119 11.5795 19.1727 13.2537 19.3702V20.1678Z" fill="black"/>
</svg>
