<svg width="28" height="28" viewBox="0 0 28 28" fill="none" xmlns="http://www.w3.org/2000/svg">
<path fill-rule="evenodd" clip-rule="evenodd" d="M16 7C16 8.10457 15.1046 9 14 9C12.8954 9 12 8.10457 12 7C12 5.89543 12.8954 5 14 5C15.1046 5 16 5.89543 16 7ZM16 14C16 15.1046 15.1046 16 14 16C12.8954 16 12 15.1046 12 14C12 12.8954 12.8954 12 14 12C15.1046 12 16 12.8954 16 14ZM14 23C15.1046 23 16 22.1046 16 21C16 19.8954 15.1046 19 14 19C12.8954 19 12 19.8954 12 21C12 22.1046 12.8954 23 14 23Z" fill="black"/>
</svg>
