<svg width="28" height="28" viewBox="0 0 28 28" fill="none" xmlns="http://www.w3.org/2000/svg">
<path fill-rule="evenodd" clip-rule="evenodd" d="M4.66496 14C4.66496 8.84441 8.84438 4.66499 14 4.66499C19.1555 4.66499 23.335 8.84441 23.335 14C23.335 19.1556 19.1555 23.335 14 23.335C8.84438 23.335 4.66496 19.1556 4.66496 14ZM14 3.33499C8.10984 3.33499 3.33496 8.10987 3.33496 14C3.33496 19.8901 8.10984 24.665 14 24.665C19.8901 24.665 24.665 19.8901 24.665 14C24.665 8.10987 19.8901 3.33499 14 3.33499ZM14.1875 15.4375C14.9814 15.4375 15.625 14.7939 15.625 14C15.625 13.2061 14.9814 12.5625 14.1875 12.5625C13.3936 12.5625 12.75 13.2061 12.75 14C12.75 14.7939 13.3936 15.4375 14.1875 15.4375ZM8.99997 15.4375C9.79388 15.4375 10.4375 14.7939 10.4375 14C10.4375 13.2061 9.79388 12.5625 8.99997 12.5625C8.20606 12.5625 7.56247 13.2061 7.56247 14C7.56247 14.7939 8.20606 15.4375 8.99997 15.4375ZM20.8125 14C20.8125 14.7939 20.1689 15.4375 19.375 15.4375C18.581 15.4375 17.9375 14.7939 17.9375 14C17.9375 13.2061 18.581 12.5625 19.375 12.5625C20.1689 12.5625 20.8125 13.2061 20.8125 14Z" fill="black"/>
</svg>
