<svg width="28" height="28" viewBox="0 0 28 28" fill="none" xmlns="http://www.w3.org/2000/svg">
<path fill-rule="evenodd" clip-rule="evenodd" d="M8.99512 13.9951C8.99512 15.0996 8.09969 15.9951 6.99512 15.9951C5.89055 15.9951 4.99512 15.0996 4.99512 13.9951C4.99512 12.8905 5.89055 11.9951 6.99512 11.9951C8.09969 11.9951 8.99512 12.8905 8.99512 13.9951ZM15.9951 13.9951C15.9951 15.0996 15.0997 15.9951 13.9951 15.9951C12.8905 15.9951 11.9951 15.0996 11.9951 13.9951C11.9951 12.8905 12.8905 11.9951 13.9951 11.9951C15.0997 11.9951 15.9951 12.8905 15.9951 13.9951ZM20.9951 15.9951C22.0997 15.9951 22.9951 15.0996 22.9951 13.9951C22.9951 12.8905 22.0997 11.9951 20.9951 11.9951C19.8905 11.9951 18.9951 12.8905 18.9951 13.9951C18.9951 15.0996 19.8905 15.9951 20.9951 15.9951Z" fill="black"/>
</svg>
