<svg width="28" height="28" viewBox="0 0 28 28" fill="none" xmlns="http://www.w3.org/2000/svg">
<circle cx="14" cy="14" r="11" fill="white"/>
<path fill-rule="evenodd" clip-rule="evenodd" d="M14 25C20.0751 25 25 20.0751 25 14C25 7.92487 20.0751 3 14 3C7.92487 3 3 7.92487 3 14C3 20.0751 7.92487 25 14 25ZM15.081 8.84983L14.9672 15.3001C14.9578 15.8274 14.5278 16.25 14.0004 16.25C13.473 16.25 13.0429 15.8274 13.0336 15.3001L12.9198 8.84983C12.9091 8.24557 13.396 7.75 14.0004 7.75C14.6047 7.75 15.0916 8.24558 15.081 8.84983ZM15.25 18.75C15.25 19.4404 14.6904 20 14 20C13.3096 20 12.75 19.4404 12.75 18.75C12.75 18.0596 13.3096 17.5 14 17.5C14.6904 17.5 15.25 18.0596 15.25 18.75Z" fill="black"/>
</svg>
