<svg width="28" height="28" viewBox="0 0 28 28" fill="none" xmlns="http://www.w3.org/2000/svg">
<path fill-rule="evenodd" clip-rule="evenodd" d="M2.49994 14C2.49994 14 6.49994 6 13.9999 6C21.4999 6 25.4999 14 25.4999 14C25.4999 14 21.4999 22 13.9999 22C6.49994 22 2.49994 14 2.49994 14ZM19 14C19 16.7614 16.7614 19 14 19C11.2386 19 9 16.7614 9 14C9 11.2386 11.2386 9 14 9C16.7614 9 19 11.2386 19 14ZM17 14C17 15.6569 15.6569 17 14 17C12.3431 17 11 15.6569 11 14C11 12.3431 12.3431 11 14 11C15.6569 11 17 12.3431 17 14Z" fill="black"/>
</svg>
