<svg width="28" height="28" viewBox="0 0 28 28" fill="none" xmlns="http://www.w3.org/2000/svg">
<path fill-rule="evenodd" clip-rule="evenodd" d="M24.8 13.8C24.8 10.8 20.8 5.79999 13.8 5.79999C6.80005 5.79999 2.80005 10.8 2.80005 13.8C2.80005 16.8 6.80005 21.8 13.8 21.8C20.8 21.8 24.8 16.8 24.8 13.8ZM10.55 13.8C10.55 12.0051 12.0051 10.55 13.8 10.55C15.595 10.55 17.05 12.0051 17.05 13.8C17.05 15.5949 15.595 17.05 13.8 17.05C12.0051 17.05 10.55 15.5949 10.55 13.8ZM13.8 9.05C11.1767 9.05 9.05005 11.1766 9.05005 13.8C9.05005 16.4234 11.1767 18.55 13.8 18.55C16.4234 18.55 18.55 16.4234 18.55 13.8C18.55 11.1766 16.4234 9.05 13.8 9.05Z" fill="black"/>
</svg>
