<svg width="28" height="28" viewBox="0 0 28 28" fill="none" xmlns="http://www.w3.org/2000/svg">
<path fill-rule="evenodd" clip-rule="evenodd" d="M13.8 5C10.1013 5 7.16674 6.32352 5.15106 8.07045C3.16722 9.78978 2 11.9925 2 13.8C2 15.6075 3.16722 17.8102 5.15106 19.5296C7.16674 21.2765 10.1013 22.6 13.8 22.6C17.4987 22.6 20.4333 21.2765 22.4489 19.5296C24.4328 17.8102 25.6 15.6075 25.6 13.8C25.6 11.9925 24.4328 9.78978 22.4489 8.07045C20.4333 6.32352 17.4987 5 13.8 5ZM3.6 13.8C3.6 12.6075 4.43278 10.8102 6.19894 9.27955C7.93326 7.77648 10.4987 6.6 13.8 6.6C17.1013 6.6 19.6667 7.77648 21.4011 9.27955C23.1672 10.8102 24 12.6075 24 13.8C24 14.9925 23.1672 16.7898 21.4011 18.3204C19.6667 19.8235 17.1013 21 13.8 21C10.4987 21 7.93326 19.8235 6.19894 18.3204C4.43278 16.7898 3.6 14.9925 3.6 13.8ZM11.05 13.8C11.05 12.2812 12.2812 11.05 13.8 11.05C15.3188 11.05 16.55 12.2812 16.55 13.8C16.55 15.3188 15.3188 16.55 13.8 16.55C12.2812 16.55 11.05 15.3188 11.05 13.8ZM13.8 9.55C11.4528 9.55 9.55 11.4528 9.55 13.8C9.55 16.1472 11.4528 18.05 13.8 18.05C16.1472 18.05 18.05 16.1472 18.05 13.8C18.05 11.4528 16.1472 9.55 13.8 9.55Z" fill="black"/>
</svg>
