<svg width="28" height="28" viewBox="0 0 28 28" fill="none" xmlns="http://www.w3.org/2000/svg">
<path fill-rule="evenodd" clip-rule="evenodd" d="M3.88214 14.6138C3.70166 14.3731 3.5562 14.1644 3.44626 14C3.5562 13.8356 3.70166 13.6269 3.88214 13.3863C4.35094 12.7612 5.05134 11.9268 5.97368 11.0937C7.82195 9.42429 10.5142 7.80001 14 7.80001C17.4857 7.80001 20.1779 9.42429 22.0262 11.0937C22.9486 11.9268 23.649 12.7612 24.1178 13.3863C24.2982 13.6269 24.4437 13.8356 24.5536 14C24.4437 14.1644 24.2982 14.3731 24.1178 14.6138C23.649 15.2388 22.9486 16.0732 22.0262 16.9063C20.1779 18.5757 17.4857 20.2 14 20.2C10.5142 20.2 7.82195 18.5757 5.97368 16.9063C5.05134 16.0732 4.35094 15.2388 3.88214 14.6138ZM26.1942 13.6025C26.1944 13.6028 26.1945 13.6031 25.5 14C26.1945 14.3969 26.1944 14.3972 26.1942 14.3976L26.1937 14.3983L26.1925 14.4004L26.1891 14.4064L26.1777 14.426C26.1732 14.4336 26.1678 14.4426 26.1616 14.453C26.1545 14.4649 26.1463 14.4785 26.137 14.4938C26.1021 14.5514 26.0513 14.6332 25.9848 14.7358C25.8519 14.9409 25.656 15.2295 25.3978 15.5738C24.8822 16.2612 24.1138 17.1768 23.0987 18.0937C21.072 19.9243 18.0142 21.8 14 21.8C9.98574 21.8 6.92795 19.9243 4.90122 18.0937C3.88606 17.1768 3.11771 16.2612 2.60214 15.5738C2.34394 15.2295 2.14798 14.9409 2.01509 14.7358C1.94862 14.6332 1.89785 14.5514 1.86287 14.4938C1.84538 14.465 1.83184 14.4422 1.82225 14.426L1.81083 14.4064L1.80735 14.4004L1.80617 14.3983L1.80572 14.3976C1.80553 14.3972 1.80536 14.3969 2.49995 14C1.80536 13.6031 1.80553 13.6028 1.80572 13.6025L1.80617 13.6017L1.80735 13.5996L1.81083 13.5936L1.82225 13.5741C1.83184 13.5578 1.84538 13.535 1.86287 13.5062C1.89785 13.4486 1.94862 13.3668 2.01509 13.2642C2.14798 13.0591 2.34394 12.7705 2.60214 12.4263C3.11771 11.7388 3.88606 10.8232 4.90122 9.90633C6.92795 8.07574 9.98574 6.20001 14 6.20001C18.0142 6.20001 21.072 8.07574 23.0987 9.90633C24.1138 10.8232 24.8822 11.7388 25.3978 12.4263C25.656 12.7705 25.8519 13.0591 25.9848 13.2642C26.0513 13.3668 26.1021 13.4486 26.137 13.5062C26.1545 13.535 26.1681 13.5578 26.1777 13.5741L26.1891 13.5936L26.1925 13.5996L26.1937 13.6017L26.1942 13.6025ZM25.5 14L26.1945 13.6031C26.3351 13.849 26.3351 14.151 26.1945 14.3969L25.5 14ZM1.80536 13.6031L2.49995 14L1.80536 14.3969C1.66482 14.151 1.66482 13.849 1.80536 13.6031ZM18.5 14C18.5 16.4853 16.4853 18.5 14 18.5C11.5147 18.5 9.5 16.4853 9.5 14C9.5 11.5147 11.5147 9.5 14 9.5C16.4853 9.5 18.5 11.5147 18.5 14ZM15.5 14C15.5 14.8284 14.8284 15.5 14 15.5C13.1716 15.5 12.5 14.8284 12.5 14C12.5 13.1716 13.1716 12.5 14 12.5C14.8284 12.5 15.5 13.1716 15.5 14Z" fill="black"/>
</svg>
