<svg width="28" height="28" viewBox="0 0 28 28" fill="none" xmlns="http://www.w3.org/2000/svg">
<path fill-rule="evenodd" clip-rule="evenodd" d="M6.06569 4.93433C5.75327 4.62191 5.24673 4.62191 4.93431 4.93433C4.6219 5.24675 4.6219 5.75328 4.93431 6.0657L21.9343 23.0657C22.2467 23.3781 22.7533 23.3781 23.0657 23.0657C23.3781 22.7533 23.3781 22.2467 23.0657 21.9343L6.06569 4.93433ZM5.35101 8.27047L5.3999 8.22834L6.53516 9.3636C6.48918 9.40203 6.44376 9.44069 6.3989 9.47958C4.63274 11.0102 3.79995 12.8075 3.79995 14C3.79995 15.1925 4.63274 16.9898 6.3989 18.5205C8.13321 20.0235 10.6986 21.2 14 21.2C15.4018 21.2 16.671 20.9879 17.8002 20.6287L19.0537 21.8822C17.5827 22.454 15.8912 22.8 14 22.8C10.3013 22.8 7.36669 21.4765 5.35101 19.7296C3.36717 18.0102 2.19995 15.8075 2.19995 14C2.19995 12.1925 3.36717 9.9898 5.35101 8.27047ZM9.74995 14C9.74995 13.5693 9.81404 13.1535 9.9332 12.7616L11.2511 14.0795C11.2924 15.5351 12.4648 16.7076 13.9205 16.7489L15.2383 18.0668C14.8465 18.1859 14.4307 18.25 14 18.25C11.6527 18.25 9.74995 16.3472 9.74995 14ZM12.7617 9.93325L14.0796 11.2512C15.5351 11.2925 16.7074 12.4649 16.7488 13.9204L18.0667 15.2383C18.1859 14.8465 18.25 14.4308 18.25 14C18.25 11.6528 16.3472 9.75002 14 9.75002C13.5692 9.75002 13.1534 9.8141 12.7617 9.93325ZM21.601 18.5205C21.5562 18.5593 21.5108 18.598 21.4648 18.6364L22.6001 19.7717L22.6489 19.7296C24.6327 18.0102 25.7999 15.8075 25.7999 14C25.7999 12.1925 24.6327 9.9898 22.6489 8.27047C20.6332 6.52355 17.6986 5.20002 14 5.20002C12.1087 5.20002 10.4172 5.54607 8.94624 6.11783L10.1998 7.37136C11.3289 7.01216 12.5981 6.80002 14 6.80002C17.3013 6.80002 19.8667 7.9765 21.601 9.47958C23.3672 11.0102 24.2 12.8075 24.2 14C24.2 15.1925 23.3672 16.9898 21.601 18.5205Z" fill="black"/>
</svg>
