<svg width="28" height="28" viewBox="0 0 28 28" fill="none" xmlns="http://www.w3.org/2000/svg">
<path fill-rule="evenodd" clip-rule="evenodd" d="M5.86573 5.23431C5.55331 4.9219 5.04678 4.9219 4.73436 5.23431C4.42194 5.54673 4.42194 6.05327 4.73436 6.36569L21.7344 23.3657C22.0468 23.6781 22.5533 23.6781 22.8657 23.3657C23.1782 23.0533 23.1782 22.5467 22.8657 22.2343L5.86573 5.23431ZM2.80005 14.3C2.80005 12.7755 3.83292 10.7347 5.76745 9.09583L8.95241 12.2808C8.69319 12.9024 8.55005 13.5845 8.55005 14.3C8.55005 17.1995 10.9006 19.55 13.8 19.55C14.5156 19.55 15.1977 19.4069 15.8193 19.1477L18.2317 21.5601C16.9294 22.0229 15.4479 22.3 13.8 22.3C6.80005 22.3 2.80005 17.3 2.80005 14.3ZM10.05 14.3C10.05 14.015 10.0819 13.7373 10.1421 13.4705L14.6296 17.958C14.3627 18.0182 14.0851 18.05 13.8 18.05C11.729 18.05 10.05 16.3711 10.05 14.3ZM12.9705 10.6421L17.458 15.1295C17.5182 14.8627 17.55 14.5851 17.55 14.3C17.55 12.2289 15.8711 10.55 13.8 10.55C13.515 10.55 13.2374 10.5818 12.9705 10.6421ZM19.05 14.3C19.05 15.0155 18.9069 15.6976 18.6477 16.3192L21.8326 19.5042C23.7672 17.8653 24.8 15.8245 24.8 14.3C24.8 11.3 20.8 6.3 13.8 6.3C12.1522 6.3 10.6707 6.57707 9.36838 7.0399L11.7808 9.45236C12.4024 9.19315 13.0845 9.05001 13.8 9.05001C16.6995 9.05001 19.05 11.4005 19.05 14.3Z" fill="black"/>
</svg>
