<svg width="28" height="28" viewBox="0 0 28 28" fill="none" xmlns="http://www.w3.org/2000/svg">
<path fill-rule="evenodd" clip-rule="evenodd" d="M7.0869 5.91308C6.76276 5.58895 6.23724 5.58895 5.9131 5.91308C5.58897 6.23722 5.58897 6.76275 5.9131 7.08688L20.9131 22.0869C21.2372 22.411 21.7628 22.411 22.0869 22.0869C22.411 21.7627 22.411 21.2372 22.0869 20.9131L7.0869 5.91308ZM2.5 14C2.5 14 3.9247 11.5068 6.66783 9.49626L9.73438 12.5628C9.58238 13.0141 9.5 13.4974 9.5 14C9.5 16.4853 11.5147 18.5 14 18.5C14.5026 18.5 14.9859 18.4176 15.4372 18.2656L17.6059 20.4343C16.5124 20.7866 15.3095 21 14 21C6.5 21 2.5 14 2.5 14ZM10.75 14C10.75 13.8654 10.7582 13.7328 10.7741 13.6025L14.3975 17.2259C14.2672 17.2418 14.1346 17.25 14 17.25C12.2051 17.25 10.75 15.7949 10.75 14ZM13.6025 10.774L17.2259 14.3975C17.2418 14.2672 17.25 14.1346 17.25 14C17.25 12.2051 15.7949 10.75 14 10.75C13.8654 10.75 13.7328 10.7582 13.6025 10.774ZM18.5 14C18.5 14.5026 18.4176 14.9859 18.2656 15.4372L21.3322 18.5038C24.0753 16.4932 25.5 14 25.5 14C25.5 14 21.5 7.00001 14 7.00001C12.6905 7.00001 11.4876 7.21342 10.3941 7.56572L12.5628 9.73439C13.0141 9.58239 13.4974 9.50001 14 9.50001C16.4853 9.50001 18.5 11.5147 18.5 14Z" fill="black"/>
</svg>
