<svg width="28" height="28" viewBox="0 0 28 28" fill="none" xmlns="http://www.w3.org/2000/svg">
<path d="M13.5219 25C11.9149 25 10.5113 24.7118 9.3111 24.1355C8.1177 23.5591 7.18874 22.7522 6.52423 21.7147C5.85972 20.6773 5.52747 19.4636 5.52747 18.0735C5.52747 17.3412 5.5851 16.6902 5.70037 16.1207C5.82243 15.5511 5.96821 15.0391 6.13773 14.5848C6.31403 14.1237 6.49033 13.6898 6.66662 13.2829C6.84292 12.8761 6.98871 12.4726 7.10398 12.0726C7.21925 11.6725 7.27689 11.2453 7.27689 10.791C7.27689 10.5673 7.26333 10.3232 7.2362 10.0587C7.21586 9.78749 7.20569 9.58746 7.20569 9.45862C7.20569 9.23486 7.27011 9.05178 7.39894 8.90939C7.52777 8.76699 7.69729 8.69579 7.90749 8.69579C8.26687 8.69579 8.62964 8.80428 8.9958 9.02127C9.36874 9.23825 9.70099 9.53999 9.99256 9.92649C10.2909 10.3062 10.5181 10.747 10.674 11.2487L10.1655 11.3504C10.3282 11.0656 10.4299 10.8148 10.4706 10.5978C10.5181 10.374 10.5418 10.1469 10.5418 9.91632C10.535 9.24503 10.4096 8.60764 10.1655 8.00416C9.92814 7.40068 9.62301 6.82771 9.25007 6.28525C8.88392 5.7428 8.50081 5.23085 8.10074 4.74942C7.99225 4.62737 7.91088 4.50193 7.85664 4.37309C7.80239 4.24426 7.77527 4.11543 7.77527 3.98659C7.77527 3.66112 7.91427 3.41701 8.19228 3.25428C8.47707 3.08476 8.86018 3 9.34161 3C10.2367 3 11.1792 3.10849 12.1692 3.32547C13.1659 3.53568 14.1525 3.86793 15.1289 4.32224C16.1121 4.76976 17.0445 5.34273 17.926 6.04115C18.8075 6.73278 19.5873 7.55663 20.2653 8.51271C20.9502 9.46201 21.4892 10.5503 21.8825 11.7776C22.2758 13.0049 22.4725 14.378 22.4725 15.8969C22.4725 17.2598 22.2589 18.5007 21.8317 19.6195C21.4113 20.7383 20.8044 21.6978 20.0111 22.4979C19.2177 23.298 18.2718 23.9151 17.1733 24.3491C16.0816 24.783 14.8645 25 13.5219 25ZM13.7559 22.1419C14.5628 22.1419 15.2307 21.9656 15.7596 21.613C16.2952 21.2604 16.6953 20.796 16.9597 20.2196C17.2242 19.6432 17.3564 19.0194 17.3564 18.3481C17.3564 17.6836 17.2276 17.0157 16.9699 16.3444C16.719 15.6731 16.3427 15.0527 15.8409 14.4831C15.3391 13.9135 14.7153 13.4525 13.9694 13.0999C13.922 13.0795 13.8847 13.0829 13.8576 13.11C13.8304 13.1304 13.8203 13.1643 13.8271 13.2117C13.9152 14.0458 13.9016 14.8222 13.7864 15.5409C13.6711 16.2529 13.4778 16.792 13.2066 17.1581C13.0778 16.8665 12.932 16.5953 12.7693 16.3444C12.6133 16.0868 12.4167 15.8528 12.1793 15.6426C12.1454 15.6155 12.1115 15.6087 12.0776 15.6223C12.0505 15.6291 12.0336 15.6562 12.0268 15.7037C11.9861 15.9952 11.8912 16.2631 11.742 16.5072C11.5928 16.7445 11.4301 16.9954 11.2538 17.2598C11.0775 17.5175 10.9215 17.8091 10.7859 18.1345C10.6571 18.4532 10.5927 18.8363 10.5927 19.2839C10.5927 20.1382 10.8808 20.8299 11.4572 21.3588C12.0403 21.8809 12.8066 22.1419 13.7559 22.1419Z" fill="black"/>
</svg>
