<svg width="28" height="28" viewBox="0 0 28 28" fill="none" xmlns="http://www.w3.org/2000/svg">
<path fill-rule="evenodd" clip-rule="evenodd" d="M2.95944 6.85768L3.22866 6.97482L13.5373 11.531C13.7982 11.6633 14.1349 11.6422 14.5641 11.4505L24.9736 6.84514C25.529 6.6457 25.226 6.02508 24.78 6.08617L24.5108 6.08508L3.18658 6C2.5891 6.02508 2.42086 6.62466 2.95944 6.85768ZM2.10945 9.25737L12.0729 24.7386C12.3843 25.2448 13.167 24.9593 13.1502 24.5055L13.1334 13.8848C13.125 13.2832 12.9651 13.1518 12.5948 12.9872L2.63113 8.55453C2.26086 8.3497 1.78125 8.68639 2.10945 9.25737ZM14.8669 24.3733L14.8416 13.6916C14.8416 13.5346 14.8585 13.4124 14.909 13.3102C14.9595 13.2169 15.0352 13.1404 15.1615 13.0694C15.1701 13.0646 15.1808 13.0598 15.1916 13.055C15.2018 13.0504 15.2121 13.0459 15.2203 13.0414L25.0914 8.59098C25.7478 8.28164 26.1937 8.8065 25.916 9.26765L25.0073 10.6711V10.6781L24.8473 10.9226L24.6623 11.2102L16.003 24.6241C15.5906 25.2233 14.8753 25.0931 14.8669 24.3733Z" fill="black"/>
</svg>
