<svg width="28" height="28" viewBox="0 0 28 28" fill="none" xmlns="http://www.w3.org/2000/svg">
<path fill-rule="evenodd" clip-rule="evenodd" d="M14 9.80219C11.6816 9.80219 9.80219 11.6816 9.80219 14C9.80219 16.3184 11.6816 18.1978 14 18.1978C16.3184 18.1978 18.1978 16.3184 18.1978 14C18.1978 11.6816 16.3184 9.80219 14 9.80219ZM11.3022 14C11.3022 12.51 12.51 11.3022 14 11.3022C15.49 11.3022 16.6978 12.51 16.6978 14C16.6978 15.49 15.49 16.6978 14 16.6978C12.51 16.6978 11.3022 15.49 11.3022 14Z" fill="black"/>
<path fill-rule="evenodd" clip-rule="evenodd" d="M12.7155 2.75C12.0043 2.75 11.3843 3.23406 11.2118 3.92407L10.7555 5.74918C10.6562 5.78829 10.5577 5.82913 10.4601 5.87168L8.84682 4.90371C8.23693 4.53778 7.45626 4.63388 6.95334 5.13681L5.13682 6.95332C4.6339 7.45625 4.53779 8.23692 4.90372 8.84681L5.87169 10.4601C5.82914 10.5577 5.78829 10.6562 5.74918 10.7555L3.92407 11.2118C3.23406 11.3843 2.75 12.0043 2.75 12.7155V15.2845C2.75 15.9957 3.23406 16.6157 3.92407 16.7882L5.74918 17.2445C5.78829 17.3438 5.82913 17.4423 5.87167 17.5399L4.90368 19.1532C4.53774 19.7631 4.63385 20.5438 5.13678 21.0467L6.95329 22.8632C7.45622 23.3661 8.23689 23.4622 8.84677 23.0963L10.4601 22.1283C10.5577 22.1709 10.6562 22.2117 10.7555 22.2508L11.2118 24.0759C11.3843 24.7659 12.0043 25.25 12.7155 25.25H15.2845C15.9957 25.25 16.6157 24.7659 16.7882 24.0759L17.2445 22.2508C17.3438 22.2117 17.4423 22.1709 17.5399 22.1283L19.1532 23.0963C19.7631 23.4623 20.5438 23.3662 21.0467 22.8632L22.8632 21.0467C23.3662 20.5438 23.4623 19.7631 23.0963 19.1532L22.1283 17.5399C22.1709 17.4423 22.2117 17.3438 22.2508 17.2445L24.0759 16.7882C24.7659 16.6157 25.25 15.9957 25.25 15.2845V12.7155C25.25 12.0043 24.7659 11.3843 24.0759 11.2118L22.2508 10.7555C22.2117 10.6562 22.1709 10.5577 22.1283 10.4601L23.0963 8.84679C23.4622 8.23691 23.3661 7.45623 22.8632 6.95331L21.0467 5.13679C20.5438 4.63387 19.7631 4.53776 19.1532 4.9037L17.5399 5.87168C17.4423 5.82913 17.3438 5.78829 17.2445 5.74918L16.7882 3.92407C16.6157 3.23406 15.9957 2.75 15.2845 2.75H12.7155ZM12.667 4.28787C12.6726 4.26561 12.6926 4.25 12.7155 4.25H15.2845C15.3074 4.25 15.3274 4.26561 15.333 4.28787L15.8525 6.36608C15.9355 6.69807 16.1795 6.9563 16.4884 7.06722C16.7113 7.14724 16.9293 7.23773 17.1417 7.33811C17.4388 7.47845 17.7941 7.46842 18.0877 7.29225L19.9249 6.18993C19.9446 6.17813 19.9698 6.18123 19.986 6.19745L21.8025 8.01397C21.8188 8.03019 21.8219 8.05537 21.8101 8.07505L20.7077 9.91223C20.5316 10.2059 20.5215 10.5612 20.6619 10.8583C20.7623 11.0707 20.8528 11.2887 20.9328 11.5116C21.0437 11.8205 21.3019 12.0645 21.6339 12.1475L23.7121 12.667C23.7344 12.6726 23.75 12.6926 23.75 12.7155V15.2845C23.75 15.3074 23.7344 15.3274 23.7121 15.333L21.6339 15.8525C21.3019 15.9355 21.0437 16.1795 20.9328 16.4884C20.8528 16.7113 20.7623 16.9293 20.6619 17.1417C20.5216 17.4387 20.5316 17.7941 20.7078 18.0877L21.8101 19.925C21.8219 19.9446 21.8188 19.9698 21.8026 19.986L19.9861 21.8026C19.9698 21.8188 19.9447 21.8219 19.925 21.8101L18.0878 20.7077C17.7941 20.5316 17.4388 20.5215 17.1417 20.6619C16.9293 20.7623 16.7113 20.8528 16.4884 20.9328C16.1795 21.0437 15.9355 21.3019 15.8525 21.6339L15.333 23.7121C15.3274 23.7344 15.3074 23.75 15.2845 23.75H12.7155C12.6926 23.75 12.6726 23.7344 12.667 23.7121L12.1475 21.6339C12.0645 21.3019 11.8205 21.0437 11.5116 20.9328C11.2887 20.8528 11.0707 20.7623 10.8583 20.6619C10.5612 20.5215 10.2059 20.5316 9.91224 20.7077L8.07503 21.8101C8.05536 21.8219 8.03017 21.8188 8.01395 21.8025L6.19744 19.986C6.18121 19.9698 6.17811 19.9446 6.18992 19.925L7.29225 18.0877C7.46842 17.7941 7.47845 17.4387 7.3381 17.1417C7.23773 16.9293 7.14724 16.7113 7.06722 16.4884C6.9563 16.1795 6.69807 15.9355 6.36607 15.8525L4.28787 15.333C4.26561 15.3274 4.25 15.3074 4.25 15.2845V12.7155C4.25 12.6926 4.26561 12.6726 4.28787 12.667L6.36607 12.1475C6.69806 12.0645 6.9563 11.8205 7.06722 11.5116C7.14724 11.2887 7.23774 11.0707 7.33812 10.8582C7.47847 10.5612 7.46844 10.2059 7.29226 9.91223L6.18996 8.07506C6.17816 8.05539 6.18126 8.03021 6.19748 8.01398L8.014 6.19747C8.03022 6.18124 8.0554 6.17814 8.07508 6.18995L9.91225 7.29225C10.2059 7.46843 10.5612 7.47846 10.8583 7.33811C11.0707 7.23773 11.2887 7.14724 11.5116 7.06722C11.8205 6.9563 12.0645 6.69807 12.1475 6.36607L12.667 4.28787Z" fill="black"/>
</svg>
