<svg width="28" height="28" viewBox="0 0 28 28" fill="none" xmlns="http://www.w3.org/2000/svg">
<path d="M13.9901 23.2946C13.7469 23.2946 13.5134 23.2849 13.28 23.2654L12.745 24.2868C12.6282 24.5203 12.3948 24.637 12.1224 24.5884C11.8598 24.5397 11.6944 24.3452 11.6458 24.0728L11.4707 22.9542C11.0232 22.8277 10.5855 22.6623 10.1477 22.4775L9.32089 23.2168C9.11661 23.3919 8.85397 23.4503 8.59132 23.3043C8.37732 23.1779 8.28977 22.925 8.33841 22.6526L8.55241 21.5534C8.1925 21.281 7.81313 20.9795 7.48239 20.6585L6.46101 21.0865C6.18864 21.1935 5.93572 21.1254 5.74117 20.9017C5.57581 20.7071 5.56608 20.4347 5.70226 20.2013L6.29564 19.2383C6.04273 18.8589 5.81899 18.4503 5.59526 18.0223L4.46687 18.0612C4.20423 18.0807 3.96104 17.9445 3.88322 17.6721C3.79568 17.4192 3.8735 17.1663 4.0875 17.0009L4.96297 16.3006C4.84624 15.8531 4.76843 15.3862 4.73924 14.8998L3.65949 14.5593C3.38712 14.4718 3.24121 14.2772 3.24121 13.9951C3.24121 13.713 3.38712 13.5088 3.65949 13.431L4.73924 13.0905C4.76843 12.6041 4.84624 12.1469 4.96297 11.6897L4.0875 10.9796C3.8735 10.824 3.79568 10.5808 3.88322 10.3279C3.96104 10.0555 4.20423 9.91933 4.46687 9.93879L5.59526 9.96797C5.81899 9.53996 6.04273 9.14113 6.29564 8.74231L5.69254 7.77929C5.55635 7.56528 5.58553 7.29291 5.74117 7.09836C5.93572 6.8649 6.18864 6.80654 6.45128 6.91354L7.48239 7.32209C7.81313 7.02054 8.1925 6.70926 8.55241 6.43689L8.33841 5.34742C8.28005 5.05559 8.37732 4.81241 8.59132 4.69568C8.85397 4.54976 9.11661 4.58867 9.32089 4.78322L10.1477 5.50306C10.5855 5.32796 11.0232 5.17232 11.4707 5.03614L11.6458 3.9272C11.6944 3.65484 11.8598 3.46029 12.1224 3.41165C12.3948 3.36301 12.6282 3.47974 12.745 3.70347L13.28 4.72486C13.5232 4.7054 13.7469 4.69568 13.9901 4.69568C14.2235 4.69568 14.457 4.7054 14.6905 4.72486L15.2352 3.70347C15.3422 3.47974 15.5854 3.36301 15.8578 3.41165C16.1204 3.46029 16.3052 3.65484 16.3344 3.9272L16.5095 5.04586C16.957 5.17232 17.3947 5.32796 17.8227 5.50306L18.6593 4.7735C18.8538 4.58867 19.1262 4.54976 19.3791 4.69568C19.6028 4.81241 19.7001 5.05559 19.6417 5.34742L19.418 6.43689C19.7877 6.70926 20.1573 7.02054 20.488 7.32209L21.5289 6.91354C21.7915 6.80654 22.0444 6.8649 22.239 7.09836C22.3946 7.29291 22.4141 7.56528 22.2779 7.77929L21.6845 8.74231C21.9374 9.14113 22.1709 9.53996 22.3849 9.96797L23.5133 9.93879C23.7662 9.91933 24.0191 10.0555 24.0969 10.3279C24.1845 10.5808 24.0872 10.824 23.8926 10.9796L23.0172 11.6897C23.1339 12.1469 23.2117 12.6041 23.2506 13.0905L24.3109 13.431C24.5833 13.5185 24.7584 13.713 24.7584 13.9951C24.7584 14.2675 24.5833 14.4718 24.3109 14.5593L23.2506 14.8998C23.2117 15.3862 23.1339 15.8531 23.0172 16.3006L23.8926 17.0009C24.0969 17.1663 24.1845 17.4192 24.0969 17.6721C24.0191 17.9445 23.7662 18.0807 23.5133 18.0612L22.3849 18.0223C22.1709 18.4503 21.9374 18.8589 21.6845 19.2383L22.2779 20.2013C22.4238 20.4347 22.3946 20.7071 22.239 20.9017C22.0444 21.1254 21.7915 21.1935 21.5191 21.0865L20.488 20.6585C20.1573 20.9795 19.7877 21.281 19.418 21.5534L19.6417 22.6526C19.7098 22.925 19.6028 23.1779 19.3791 23.3043C19.1262 23.4503 18.8538 23.3919 18.6593 23.2168L17.8227 22.4775C17.3947 22.6623 16.957 22.8277 16.5095 22.9444L16.3344 24.0728C16.3052 24.3452 16.1204 24.5397 15.8578 24.5884C15.5854 24.637 15.3519 24.5203 15.2352 24.2868L14.6905 23.2654C14.457 23.2849 14.2235 23.2946 13.9901 23.2946ZM13.9706 11.466C15.1379 11.466 16.1107 12.2442 16.4219 13.3142H21.6067C21.276 9.33568 18.0756 6.2618 13.9901 6.2618C12.7839 6.2618 11.6652 6.52444 10.6633 7.00109L13.3189 11.5535C13.5232 11.4952 13.7469 11.466 13.9706 11.466ZM6.36373 14.0049C6.36373 16.5729 7.55048 18.8394 9.42789 20.2402L12.1516 15.785C11.7041 15.3278 11.4317 14.7053 11.4317 14.0146C11.4317 13.3239 11.7041 12.7014 12.1419 12.2442L9.48625 7.71119C7.56994 9.11195 6.36373 11.3979 6.36373 14.0049ZM13.9706 15.0943C14.5932 15.0943 15.0698 14.6372 15.0698 14.0146C15.0698 13.392 14.5932 12.9154 13.9706 12.9154C13.3578 12.9154 12.8811 13.392 12.8811 14.0146C12.8811 14.6372 13.3578 15.0943 13.9706 15.0943ZM13.9901 21.7285C18.0853 21.7285 21.2954 18.6449 21.6164 14.6566H16.4317C16.1496 15.7461 15.1574 16.5535 13.9706 16.5535C13.7469 16.5535 13.5329 16.5243 13.3189 16.4659L10.5952 20.9503C11.6068 21.4464 12.7644 21.7285 13.9901 21.7285Z" fill="black"/>
</svg>
