<svg width="28" height="28" viewBox="0 0 28 28" fill="none" xmlns="http://www.w3.org/2000/svg">
<path d="M13.0316 25C12.7579 25 12.5263 24.9228 12.3368 24.7684C12.1474 24.6211 12.0211 24.4105 11.9579 24.1368L11.4105 21.8211C11.207 21.7509 11.007 21.6772 10.8105 21.6C10.614 21.5228 10.4281 21.4421 10.2526 21.3579L8.23158 22.6C8 22.7404 7.7614 22.8 7.51579 22.7789C7.27719 22.7579 7.06316 22.6526 6.87368 22.4632L5.52632 21.1158C5.33684 20.9263 5.22807 20.7053 5.2 20.4526C5.17895 20.2 5.24561 19.9614 5.4 19.7368L6.63158 17.7263C6.54737 17.5439 6.46667 17.3579 6.38947 17.1684C6.31228 16.9789 6.24561 16.7895 6.18947 16.6L3.85263 16.0421C3.57895 15.986 3.36842 15.8632 3.22105 15.6737C3.07368 15.4842 3 15.2526 3 14.9789V13.0737C3 12.807 3.07368 12.5789 3.22105 12.3895C3.36842 12.2 3.57895 12.0772 3.85263 12.0211L6.16842 11.4632C6.23158 11.2456 6.30175 11.0421 6.37895 10.8526C6.46316 10.6632 6.54035 10.4842 6.61053 10.3158L5.37895 8.27368C5.22456 8.04912 5.15789 7.81754 5.17895 7.57895C5.2 7.33333 5.30877 7.11579 5.50526 6.92632L6.87368 5.56842C7.07018 5.38596 7.2807 5.2807 7.50526 5.25263C7.73684 5.22456 7.96842 5.27719 8.2 5.41053L10.2421 6.67368C10.4175 6.58246 10.6035 6.49825 10.8 6.42105C11.0035 6.33684 11.207 6.25965 11.4105 6.18947L11.9579 3.86316C12.0211 3.59649 12.1474 3.38596 12.3368 3.23158C12.5263 3.07719 12.7579 3 13.0316 3H14.9684C15.2421 3 15.4737 3.07719 15.6632 3.23158C15.8526 3.38596 15.9754 3.59649 16.0316 3.86316L16.5789 6.21053C16.7965 6.2807 17 6.35439 17.1895 6.43158C17.386 6.50877 17.5684 6.59298 17.7368 6.68421L19.8 5.41053C20.0316 5.27719 20.2596 5.22807 20.4842 5.26316C20.7088 5.29123 20.9193 5.39298 21.1158 5.56842L22.4947 6.92632C22.6912 7.11579 22.7965 7.33333 22.8105 7.57895C22.8316 7.81754 22.7684 8.04912 22.6211 8.27368L21.3789 10.3158C21.4491 10.4842 21.5228 10.6632 21.6 10.8526C21.6842 11.0421 21.7614 11.2456 21.8316 11.4632L24.1474 12.0211C24.414 12.0772 24.6211 12.2 24.7684 12.3895C24.9228 12.5789 25 12.807 25 13.0737V14.9789C25 15.2526 24.9228 15.4842 24.7684 15.6737C24.6211 15.8632 24.414 15.986 24.1474 16.0421L21.8105 16.6C21.7474 16.7895 21.6772 16.9789 21.6 17.1684C21.5298 17.3579 21.4491 17.5439 21.3579 17.7263L22.6 19.7368C22.7544 19.9614 22.8175 20.2 22.7895 20.4526C22.7684 20.7053 22.6632 20.9263 22.4737 21.1158L21.1158 22.4632C20.9263 22.6526 20.7088 22.7579 20.4632 22.7789C20.2246 22.8 19.993 22.7404 19.7684 22.6L17.7368 21.3579C17.5614 21.4421 17.3754 21.5228 17.1789 21.6C16.9825 21.6772 16.7825 21.7509 16.5789 21.8211L16.0316 24.1368C15.9754 24.4105 15.8526 24.6211 15.6632 24.7684C15.4737 24.9228 15.2421 25 14.9684 25H13.0316ZM14 17.7158C14.6807 17.7158 15.3018 17.5474 15.8632 17.2105C16.4316 16.8737 16.8807 16.4246 17.2105 15.8632C17.5474 15.2947 17.7158 14.6702 17.7158 13.9895C17.7158 13.3088 17.5474 12.6912 17.2105 12.1368C16.8807 11.5754 16.4316 11.1263 15.8632 10.7895C15.3018 10.4526 14.6807 10.2842 14 10.2842C13.3193 10.2842 12.6982 10.4526 12.1368 10.7895C11.5754 11.1263 11.1263 11.5754 10.7895 12.1368C10.4526 12.6912 10.2842 13.3088 10.2842 13.9895C10.2842 14.6702 10.4491 15.2947 10.7789 15.8632C11.1158 16.4246 11.5649 16.8737 12.1263 17.2105C12.6947 17.5474 13.3193 17.7158 14 17.7158Z" fill="black"/>
</svg>
