<svg width="28" height="28" viewBox="0 0 28 28" fill="none" xmlns="http://www.w3.org/2000/svg">
<path d="M4 12C4 9.19974 4 7.79961 4.54497 6.73005C5.02433 5.78924 5.78924 5.02433 6.73005 4.54497C7.79961 4 9.19974 4 12 4H13.2V9.73121C13.0281 9.44141 12.8308 9.17123 12.6008 8.94141C12.0095 8.35045 11.1739 7.82159 10.2593 7.62808C9.31292 7.42783 8.25159 7.58929 7.399 8.44177C6.96075 8.87997 6.71519 9.40158 6.66161 9.96206C6.6095 10.5071 6.74392 11.0297 6.96016 11.4887C7.26074 12.1268 7.75199 12.7141 8.30839 13.2H4V12Z" fill="black"/>
<path d="M4 14.8V16C4 18.8003 4 20.2004 4.54497 21.27C5.02433 22.2108 5.78924 22.9757 6.73005 23.455C7.79961 24 9.19974 24 12 24H13.2V16.9535C11.8447 18.7187 10.1759 19.9316 8.1667 20.3335C7.70637 20.4256 7.25857 20.127 7.16651 19.6667C7.07444 19.2064 7.37298 18.7586 7.8333 18.6665C9.6694 18.2993 11.2776 16.9979 12.6084 14.8096C12.5792 14.8065 12.5498 14.8033 12.5201 14.8H4Z" fill="black"/>
<path d="M15.4799 14.8C15.4502 14.8033 15.4208 14.8065 15.3916 14.8096C16.7224 16.9979 18.3306 18.2993 20.1667 18.6665C20.627 18.7586 20.9256 19.2064 20.8335 19.6667C20.7414 20.127 20.2936 20.4256 19.8333 20.3335C17.8241 19.9316 16.1553 18.7187 14.8 16.9535V24H16C18.8003 24 20.2004 24 21.27 23.455C22.2108 22.9757 22.9757 22.2108 23.455 21.27C24 20.2004 24 18.8003 24 16V14.8H15.4799Z" fill="black"/>
<path d="M24 13.2V12C24 9.19974 24 7.79961 23.455 6.73005C22.9757 5.78924 22.2108 5.02433 21.27 4.54497C20.2004 4 18.8003 4 16 4H14.8V9.73121C14.9719 9.44141 15.1692 9.17123 15.3992 8.94141C15.9905 8.35045 16.8261 7.82159 17.7407 7.62808C18.6871 7.42783 19.7484 7.58929 20.601 8.44177C21.0393 8.87997 21.2848 9.40158 21.3384 9.96206C21.3905 10.5071 21.2561 11.0297 21.0398 11.4887C20.7393 12.1268 20.248 12.7141 19.6916 13.2H24Z" fill="black"/>
<path d="M18.0926 9.29126C17.5627 9.40337 17.0095 9.73552 16.6008 10.1439C16.2542 10.4903 15.9671 11.1158 15.6694 11.9644C15.601 12.1594 15.5312 12.3693 15.4593 12.5857C15.4021 12.7581 15.3433 12.9351 15.2828 13.1114C15.3776 13.101 15.4753 13.0891 15.5752 13.0758C16.4954 12.9532 17.4516 12.7208 18.0285 12.3362C18.6943 11.8923 19.2471 11.3052 19.5019 10.7642C19.626 10.5009 19.6617 10.2872 19.6461 10.1238C19.632 9.97586 19.5719 9.81684 19.399 9.64393C19.0292 9.2742 18.5906 9.18589 18.0926 9.29126Z" fill="black"/>
<path d="M11.3992 10.1439C10.9905 9.73552 10.4373 9.40337 9.90744 9.29126C9.40945 9.18589 8.97078 9.2742 8.601 9.64393C8.42807 9.81684 8.36804 9.97586 8.35389 10.1238C8.33828 10.2872 8.37401 10.5009 8.49806 10.7642C8.75287 11.3052 9.30569 11.8923 9.9715 12.3362C10.5484 12.7208 11.5046 12.9532 12.4248 13.0758C12.5247 13.0891 12.6224 13.101 12.7172 13.1114C12.6567 12.9351 12.5981 12.7586 12.5408 12.5862C12.4689 12.3698 12.399 12.1594 12.3306 11.9644C12.0329 11.1158 11.7458 10.4903 11.3992 10.1439Z" fill="black"/>
</svg>
