<svg width="28" height="28" viewBox="0 0 28 28" fill="none" xmlns="http://www.w3.org/2000/svg">
<path d="M14.4529 22.1853C13.885 22.1853 13.4536 22.0379 13.1588 21.7431C12.8712 21.4484 12.6699 21.0745 12.5549 20.6216C12.4471 20.1614 12.3859 19.6833 12.3716 19.1873C12.3644 18.6912 12.3608 18.2418 12.3608 17.8392C12.3608 17.3216 12.1775 16.8974 11.8108 16.5667C11.4513 16.2288 10.9912 16.0598 10.4304 16.0598C9.51732 16.0598 8.80915 15.8118 8.30588 15.3157C7.80261 14.8196 7.55098 14.1294 7.55098 13.2451C7.55098 12.5621 7.75229 11.9366 8.1549 11.3686C8.55752 10.8007 9.09314 10.3441 9.76176 9.99902C10.4376 9.65392 11.1781 9.48137 11.9833 9.48137C12.3428 9.48137 12.7023 9.5317 13.0618 9.63235C13.4284 9.72582 13.7592 9.81928 14.0539 9.91274C14.3559 10.0062 14.5895 10.0529 14.7549 10.0529C14.8987 10.0529 15.0101 9.97745 15.0892 9.82647C15.1683 9.6683 15.2078 9.47778 15.2078 9.2549C15.2078 9.09673 15.1324 8.92059 14.9814 8.72647C14.8376 8.52516 14.6542 8.35621 14.4314 8.21961C14.2085 8.07582 13.982 8.00392 13.752 8.00392C13.6873 8.00392 13.6369 8.0219 13.601 8.05784C13.5722 8.0866 13.5507 8.13693 13.5363 8.20882C13.5291 8.36699 13.4788 8.5 13.3853 8.60784C13.299 8.7085 13.166 8.75882 12.9863 8.75882C12.7203 8.75882 12.4902 8.70131 12.2961 8.58627C12.102 8.46405 11.9222 8.34183 11.7569 8.21961C11.5987 8.09739 11.4405 8.03627 11.2824 8.03627C11.1242 8.03627 10.9948 8.10458 10.8941 8.24118C10.7935 8.37778 10.6856 8.53595 10.5706 8.71569C10.4627 8.89542 10.319 9.05359 10.1392 9.1902C9.96667 9.3268 9.72222 9.3951 9.40588 9.3951C9.11111 9.3951 8.87745 9.31242 8.7049 9.14706C8.53235 8.9817 8.44608 8.76601 8.44608 8.5C8.44608 8.28431 8.50359 8.09379 8.61863 7.92843C8.73366 7.76307 8.86667 7.59412 9.01765 7.42157C9.17582 7.24183 9.31242 7.03333 9.42745 6.79608C9.54248 6.55882 9.6 6.26405 9.6 5.91176C9.6 5.55229 9.74379 5.19641 10.0314 4.84412C10.319 4.48464 10.7827 4.18987 11.4225 3.9598C12.0624 3.72255 12.918 3.60033 13.9892 3.59314C15.4271 3.59314 16.7752 3.86993 18.0333 4.42353C19.2915 4.96993 20.3987 5.72484 21.3549 6.68824C22.3111 7.65163 23.0588 8.76242 23.598 10.0206C24.1373 11.2716 24.4069 12.598 24.4069 14C24.4069 14.4098 24.3386 14.7729 24.202 15.0892C24.0725 15.4056 23.8928 15.7003 23.6627 15.9735C23.2386 15.7866 22.9007 15.4882 22.649 15.0784C22.4046 14.6686 22.2105 14.2373 22.0667 13.7843C21.9229 13.3314 21.7971 12.9467 21.6892 12.6304C21.5886 12.3069 21.4699 12.1451 21.3333 12.1451C21.2542 12.1451 21.1895 12.1775 21.1392 12.2422C21.0889 12.3069 21.0278 12.3716 20.9559 12.4363C20.884 12.4938 20.7761 12.5225 20.6324 12.5225C20.467 12.5225 20.2765 12.4471 20.0608 12.2961C19.8523 12.1451 19.6366 11.9725 19.4137 11.7784C19.198 11.5771 18.9931 11.401 18.799 11.25C18.6121 11.099 18.4575 11.0235 18.3353 11.0235C18.1987 11.0235 18.0729 11.0882 17.9578 11.2176C17.85 11.3471 17.7961 11.498 17.7961 11.6706C17.7961 11.8072 17.9075 11.9546 18.1304 12.1127C18.3533 12.2709 18.6085 12.4471 18.8961 12.6412C19.1908 12.8281 19.4497 13.0294 19.6725 13.2451C19.8954 13.4536 20.0069 13.6765 20.0069 13.9137C20.0069 14.2229 19.9098 14.5176 19.7157 14.798C19.5288 15.0784 19.3382 15.3265 19.1441 15.5422C18.9572 15.7578 18.8637 15.9304 18.8637 16.0598C18.8637 16.333 18.8817 16.6781 18.9176 17.0951C18.9608 17.5049 18.8458 17.9327 18.5725 18.3784C18.4647 18.5582 18.2814 18.8529 18.0225 19.2627C17.7709 19.6725 17.4618 20.1039 17.0951 20.5569C16.7284 21.0026 16.3186 21.3873 15.8657 21.7108C15.4199 22.0271 14.949 22.1853 14.4529 22.1853ZM17.1706 7.49706C17.2856 7.49706 17.4007 7.5366 17.5157 7.61569C17.6379 7.68758 17.7961 7.72353 17.9902 7.72353C18.1124 7.72353 18.2131 7.6768 18.2922 7.58333C18.3712 7.48268 18.4108 7.36046 18.4108 7.21667C18.4108 6.96503 18.285 6.75294 18.0333 6.58039C17.7817 6.40784 17.4654 6.32157 17.0843 6.32157C16.6386 6.32157 16.2935 6.39346 16.049 6.53725C15.8046 6.67386 15.6824 6.87157 15.6824 7.13039C15.6824 7.30294 15.7363 7.44314 15.8441 7.55098C15.9592 7.65163 16.0993 7.70196 16.2647 7.70196C16.4373 7.70196 16.581 7.66961 16.6961 7.6049C16.8183 7.53301 16.9765 7.49706 17.1706 7.49706ZM14 25C12.4974 25 11.081 24.7124 9.75098 24.1373C8.4281 23.5621 7.2598 22.7676 6.24608 21.7539C5.23235 20.7402 4.43791 19.5719 3.86275 18.249C3.28758 16.919 3 15.5026 3 14C3 12.4974 3.28758 11.0846 3.86275 9.76176C4.43791 8.4317 5.22876 7.2598 6.23529 6.24608C7.24902 5.23235 8.41732 4.43791 9.7402 3.86275C11.0703 3.28758 12.4866 3 13.9892 3C15.4918 3 16.9082 3.28758 18.2382 3.86275C19.5683 4.43791 20.7402 5.23235 21.7539 6.24608C22.7676 7.2598 23.5621 8.4317 24.1373 9.76176C24.7124 11.0846 25 12.4974 25 14C25 15.5026 24.7124 16.919 24.1373 18.249C23.5621 19.5719 22.7676 20.7402 21.7539 21.7539C20.7402 22.7676 19.5683 23.5621 18.2382 24.1373C16.9154 24.7124 15.5026 25 14 25ZM14 23.5333C15.3013 23.5333 16.5271 23.2817 17.6775 22.7784C18.8278 22.2824 19.8415 21.5958 20.7186 20.7186C21.5958 19.8415 22.2824 18.8278 22.7784 17.6775C23.2817 16.5271 23.5333 15.3013 23.5333 14C23.5333 12.6987 23.2817 11.4729 22.7784 10.3225C22.2824 9.17222 21.5922 8.1585 20.7078 7.28137C19.8307 6.40425 18.817 5.71765 17.6667 5.22157C16.5163 4.7183 15.2905 4.46667 13.9892 4.46667C12.6879 4.46667 11.4621 4.7183 10.3118 5.22157C9.16144 5.71765 8.14771 6.40425 7.27059 7.28137C6.40065 8.1585 5.71405 9.17222 5.21078 10.3225C4.71471 11.4729 4.46667 12.6987 4.46667 14C4.46667 15.3013 4.71471 16.5271 5.21078 17.6775C5.71405 18.8278 6.40425 19.8415 7.28137 20.7186C8.1585 21.5958 9.17222 22.2824 10.3225 22.7784C11.4729 23.2817 12.6987 23.5333 14 23.5333Z" fill="black"/>
</svg>
