<svg width="28" height="28" viewBox="0 0 28 28" fill="none" xmlns="http://www.w3.org/2000/svg">
<path fill-rule="evenodd" clip-rule="evenodd" d="M13.22 1.115C13.6919 0.961667 14.2002 0.961667 14.6721 1.115C15.0121 1.22546 15.2727 1.41277 15.4787 1.5876C15.6663 1.74692 15.8713 1.95191 16.0823 2.16293L17.96 4.04064C18.171 4.25162 18.376 4.45657 18.5353 4.64424C18.7101 4.85018 18.8975 5.1108 19.0079 5.45077C19.1612 5.92268 19.1612 6.43101 19.0079 6.90292C18.8975 7.24289 18.7101 7.50351 18.5353 7.70945C18.376 7.89711 18.171 8.10205 17.96 8.31301L15.2366 11.0364C15.6037 10.9666 15.9979 11.0738 16.2821 11.3579L25.327 20.4028C25.7832 20.859 25.7832 21.5988 25.327 22.0551C24.8707 22.5113 24.1309 22.5113 23.6747 22.0551L14.6298 13.0102C14.3456 12.726 14.2385 12.3318 14.3083 11.9647L12.2269 14.0461C12.016 14.2571 11.811 14.4621 11.6234 14.6214C11.4175 14.7962 11.1568 14.9835 10.8169 15.094C10.345 15.2473 9.83661 15.2473 9.3647 15.094C9.02474 14.9835 8.76411 14.7962 8.55818 14.6214C8.37051 14.4621 8.16556 14.2571 7.95459 14.046L6.10332 12.1948C6.09449 12.1859 6.08567 12.1771 6.07686 12.1683C5.86585 11.9573 5.66085 11.7524 5.50154 11.5647C5.32671 11.3588 5.1394 11.0982 5.02894 10.7582C4.8756 10.2863 4.8756 9.77796 5.02894 9.30605C5.1394 8.96609 5.32671 8.70546 5.50154 8.49953C5.66085 8.31186 5.86584 8.10692 6.07686 7.89595C6.08567 7.88714 6.09449 7.87833 6.10332 7.8695L11.7834 2.18938C11.7923 2.18055 11.8011 2.17173 11.8099 2.16293C12.0209 1.95191 12.2258 1.74692 12.4135 1.5876C12.6194 1.41277 12.88 1.22546 13.22 1.115ZM4 23.8317C4 23.1864 4.52308 22.6633 5.16833 22.6633H16.9814C17.6267 22.6633 18.1497 23.1864 18.1497 23.8317C18.1497 24.4769 17.6267 25 16.9814 25H5.16833C4.52308 25 4 24.4769 4 23.8317Z" fill="black"/>
</svg>
