<svg width="28" height="28" viewBox="0 0 28 28" fill="none" xmlns="http://www.w3.org/2000/svg">
<path d="M14.6248 22.4747C14.2951 22.4747 13.9826 22.4197 13.6876 22.3098C13.3983 22.1999 13.0338 21.9511 12.5941 21.5635L9.07944 18.6476C9.0158 18.6476 8.94927 18.6505 8.87984 18.6563C8.8162 18.6563 8.75256 18.6563 8.68892 18.6563C7.87316 18.6563 7.10369 18.5724 6.38051 18.4046C5.65732 18.2368 5.00067 17.9707 4.41055 17.6062C3.82043 17.2417 3.3142 16.7644 2.89186 16.1743C2.34802 16.1743 1.89675 16.0268 1.53805 15.7317C1.17935 15.4366 1 15.0374 1 14.5341C1 14.0886 1.15621 13.727 1.46862 13.4493C1.78104 13.1716 2.16867 13.0328 2.63151 13.0328C3.02492 11.9567 3.52537 11.057 4.13284 10.3338C4.74032 9.60487 5.44326 9.05814 6.24166 8.69365C7.04584 8.32916 7.92813 8.14692 8.88852 8.14692C9.58278 8.14692 10.2394 8.23081 10.8585 8.39859C11.4833 8.56058 12.0908 8.78333 12.6809 9.06681C13.2768 9.3503 13.8785 9.6714 14.486 10.0301C15.0992 10.383 15.7385 10.7533 16.4039 11.1409C16.9304 11.4475 17.3816 11.6934 17.7577 11.8786C18.1337 12.0637 18.4895 12.1563 18.8251 12.1563C19.0392 12.1563 19.2388 12.1071 19.4239 12.0087C19.6148 11.9104 19.8057 11.7686 19.9967 11.5835L14.998 8.52876C14.6393 8.30892 14.2661 8.06303 13.8785 7.79111C13.4909 7.51341 13.164 7.23571 12.8979 6.958C12.6375 6.6803 12.5073 6.42574 12.5073 6.19432C12.5073 5.93976 12.6086 5.70544 12.8111 5.49138C13.0194 5.27732 13.2855 5.09218 13.6095 4.93597C13.9335 4.77398 14.2748 4.65249 14.6335 4.57149C14.998 4.48471 15.3393 4.44131 15.6575 4.44131C16.427 4.44131 17.1907 4.6467 17.9486 5.05747C18.7123 5.46824 19.4181 6.10175 20.0661 6.958L22.3919 10.0561C23.0514 10.0503 23.6589 10.169 24.2143 10.4119C24.7755 10.6491 25.2644 10.9847 25.6809 11.4186C26.0975 11.8467 26.4215 12.353 26.6529 12.9373C26.8843 13.5159 27 14.1465 27 14.8292C27 15.5813 26.8756 16.1598 26.6268 16.5648C26.3838 16.964 26.0049 17.2388 25.49 17.3892C24.9809 17.5397 24.3271 17.6149 23.5287 17.6149C23.1411 17.6149 22.7621 17.5715 22.3919 17.4847C22.0216 17.3921 21.66 17.2649 21.3071 17.1029C20.9542 16.9409 20.6157 16.7499 20.2917 16.5301C19.852 16.721 19.4731 16.9177 19.1549 17.1202C18.8425 17.3169 18.5532 17.5136 18.2871 17.7103C18.0441 17.6756 17.8011 17.6496 17.5581 17.6322C17.3209 17.6149 17.0721 17.6062 16.8117 17.6062C16.4935 17.6062 16.1753 17.6207 15.8571 17.6496C15.5447 17.6785 15.2439 17.7248 14.9546 17.7884L14.3558 16.3392C13.783 14.9333 13.0309 13.8803 12.0995 13.1803C11.168 12.4803 10.0659 12.1302 8.79306 12.1302C8.39964 12.1302 8.04962 12.1765 7.74299 12.2691C7.43636 12.3559 7.28304 12.5323 7.28304 12.7985C7.28304 12.9662 7.33511 13.0877 7.43925 13.1629C7.54339 13.2382 7.67935 13.2758 7.84713 13.2758H8.87116C9.57121 13.2758 10.2018 13.4175 10.763 13.701C11.33 13.9787 11.8304 14.3721 12.2644 14.8812C12.6983 15.3846 13.0685 15.9776 13.3752 16.6603L14.3124 18.7951C14.5554 18.7373 14.7926 18.6852 15.024 18.6389C15.2555 18.5926 15.5187 18.5579 15.8138 18.5348C16.1088 18.5058 16.4704 18.4914 16.8985 18.4914C17.7721 18.4914 18.5271 18.5984 19.1636 18.8125C19.8057 19.0265 20.3004 19.3245 20.6475 19.7063C21.0004 20.0882 21.1769 20.5337 21.1769 21.0428C21.1769 21.4941 21.0091 21.8441 20.6736 22.0928C20.3438 22.3474 19.8578 22.4747 19.2156 22.4747C18.9321 22.4747 18.6891 22.4487 18.4866 22.3966C18.2899 22.3503 18.073 22.304 17.8358 22.2577C17.5986 22.2115 17.2891 22.1883 16.9072 22.1883C16.3402 22.1883 15.8947 22.2346 15.5708 22.3272C15.2468 22.4255 14.9315 22.4747 14.6248 22.4747ZM8.35047 23.1603C7.43057 23.1603 6.69582 22.9838 6.14619 22.6309C5.60236 22.278 5.33044 21.8094 5.33044 21.225C5.33044 20.8316 5.46929 20.5163 5.747 20.2791C6.03049 20.0419 6.41522 19.9233 6.9012 19.9233C7.15576 19.9233 7.39586 19.9349 7.6215 19.958C7.84713 19.9754 8.05251 19.9956 8.23765 20.0188C8.42857 20.0419 8.59635 20.0535 8.74099 20.0535C8.83356 20.0535 8.91455 20.0506 8.98398 20.0448C9.05919 20.039 9.12862 20.0332 9.19226 20.0274L11.8825 22.2664C11.466 22.5499 10.9829 22.7698 10.4332 22.926C9.88362 23.0822 9.18936 23.1603 8.35047 23.1603ZM23.3291 14.4126C23.5258 14.4126 23.6936 14.3374 23.8324 14.187C23.9771 14.0308 24.0494 13.8572 24.0494 13.6663C24.0494 13.4696 23.98 13.3047 23.8411 13.1716C23.7081 13.0328 23.5403 12.9633 23.3378 12.9633C23.1411 12.9633 22.9733 13.0386 22.8344 13.189C22.6956 13.3336 22.6262 13.5043 22.6262 13.701C22.6262 13.8919 22.6927 14.0597 22.8258 14.2043C22.9646 14.3432 23.1324 14.4126 23.3291 14.4126Z" fill="black"/>
</svg>
