<svg width="28" height="28" viewBox="0 0 28 28" fill="none" xmlns="http://www.w3.org/2000/svg">
<path fill-rule="evenodd" clip-rule="evenodd" d="M14 25C20.0751 25 25 20.0751 25 14C25 7.92487 20.0751 3 14 3C7.92487 3 3 7.92487 3 14C3 20.0751 7.92487 25 14 25ZM15.25 8.75001C15.25 9.44037 14.6904 10 14 10C13.3096 10 12.75 9.44037 12.75 8.75001C12.75 8.05965 13.3096 7.50001 14 7.50001C14.6904 7.50001 15.25 8.05965 15.25 8.75001ZM11.165 12.5C11.165 12.0388 11.5389 11.665 12 11.665H14.25C14.7112 11.665 15.085 12.0388 15.085 12.5V18.665H16.5C16.9612 18.665 17.335 19.0388 17.335 19.5C17.335 19.9612 16.9612 20.335 16.5 20.335H12C11.5389 20.335 11.165 19.9612 11.165 19.5C11.165 19.0388 11.5389 18.665 12 18.665H13.415V13.335H12C11.5389 13.335 11.165 12.9612 11.165 12.5Z" fill="black"/>
</svg>
