<svg width="28" height="28" viewBox="0 0 28 28" fill="none" xmlns="http://www.w3.org/2000/svg">
<path d="M15.25 8.75C15.25 9.44036 14.6904 10 14 10C13.3096 10 12.75 9.44036 12.75 8.75C12.75 8.05964 13.3096 7.5 14 7.5C14.6904 7.5 15.25 8.05964 15.25 8.75Z" fill="black"/>
<path d="M11.165 12.5C11.165 12.0388 11.5389 11.665 12 11.665H14.25C14.7112 11.665 15.085 12.0388 15.085 12.5V18.665H16.5C16.9612 18.665 17.335 19.0388 17.335 19.5C17.335 19.9612 16.9612 20.335 16.5 20.335H12C11.5389 20.335 11.165 19.9612 11.165 19.5C11.165 19.0388 11.5389 18.665 12 18.665H13.415V13.335H12C11.5389 13.335 11.165 12.9611 11.165 12.5Z" fill="black"/>
<path fill-rule="evenodd" clip-rule="evenodd" d="M25 14C25 20.0751 20.0751 25 14 25C7.92487 25 3 20.0751 3 14C3 7.92487 7.92487 3 14 3C20.0751 3 25 7.92487 25 14ZM23.33 14C23.33 19.1528 19.1528 23.33 14 23.33C8.84718 23.33 4.67 19.1528 4.67 14C4.67 8.84718 8.84718 4.67 14 4.67C19.1528 4.67 23.33 8.84718 23.33 14Z" fill="black"/>
</svg>
