<svg width="28" height="28" viewBox="0 0 28 28" fill="none" xmlns="http://www.w3.org/2000/svg">
<path d="M7.71145 21.7515C8.00475 21.7736 8.30634 21.8538 8.61624 21.9922C8.92614 22.1361 9.18899 22.3187 9.40481 22.54C9.53763 22.6728 9.53209 22.8057 9.38821 22.9385C9.15026 23.1377 8.86526 23.2843 8.53323 23.3784C8.20673 23.478 7.8913 23.5085 7.58694 23.4697C7.29365 23.4421 6.99205 23.3535 6.68216 23.2041C6.37226 23.0602 6.11217 22.8804 5.90188 22.6645C5.74694 22.5096 5.76077 22.3629 5.94339 22.2246C6.18688 22.0586 6.4691 21.9313 6.79007 21.8428C7.11657 21.7598 7.42369 21.7293 7.71145 21.7515ZM9.47122 18.7964C9.60957 18.6138 9.75621 18.6027 9.91116 18.7632C10.127 18.979 10.3041 19.2419 10.4424 19.5518C10.5863 19.8616 10.6665 20.1632 10.6831 20.4565C10.7163 20.7664 10.6776 21.0874 10.5669 21.4194C10.4562 21.7515 10.2958 22.0254 10.0855 22.2412C9.95267 22.3796 9.82262 22.3796 9.69534 22.2412C9.49059 22.0475 9.31904 21.793 9.18069 21.4775C9.04788 21.1676 8.97317 20.8605 8.95657 20.5561C8.93997 20.2629 8.97871 19.9557 9.07278 19.6348C9.17239 19.3138 9.3052 19.0343 9.47122 18.7964ZM5.32913 19.4355C5.61689 19.5296 5.89082 19.6873 6.15091 19.9087C6.411 20.1245 6.61022 20.3652 6.74856 20.6309C6.84264 20.7858 6.8039 20.9075 6.63235 20.9961C6.35013 21.1344 6.03746 21.2119 5.69436 21.2285C5.35127 21.2451 5.04137 21.1925 4.76468 21.0708C4.47692 20.9657 4.20299 20.8024 3.9429 20.581C3.68281 20.3597 3.47806 20.1162 3.32864 19.8506C3.2235 19.6624 3.27607 19.5268 3.48636 19.4438C3.76858 19.3442 4.07848 19.2944 4.41604 19.2944C4.75361 19.2889 5.05797 19.3359 5.32913 19.4355ZM7.78616 17.0283C7.96324 16.8844 8.10436 16.9121 8.2095 17.1113C8.35338 17.3659 8.45576 17.6619 8.51663 17.9995C8.5775 18.3371 8.5775 18.6525 8.51663 18.9458C8.47236 19.2502 8.35338 19.5462 8.1597 19.834C7.97155 20.1217 7.75019 20.3486 7.49563 20.5146C7.32408 20.6253 7.19404 20.5921 7.1055 20.415C6.95608 20.1549 6.85647 19.8589 6.80667 19.5268C6.75686 19.1893 6.76517 18.8766 6.83157 18.5889C6.89244 18.3011 7.00866 18.0133 7.1802 17.7256C7.35729 17.4378 7.55927 17.2054 7.78616 17.0283ZM1.48587 16.1152C1.46927 15.8994 1.57164 15.7998 1.793 15.8164C2.08629 15.8275 2.38789 15.9022 2.69778 16.0405C3.00768 16.1789 3.26777 16.3477 3.47806 16.5469C3.69941 16.7406 3.88203 16.9868 4.02591 17.2856C4.17532 17.5845 4.26386 17.8888 4.29153 18.1987C4.3192 18.3979 4.23343 18.4976 4.03421 18.4976C3.72431 18.5142 3.40888 18.4588 3.08792 18.3315C2.76696 18.2043 2.50133 18.0299 2.29104 17.8086C2.07522 17.5983 1.89261 17.3382 1.74319 17.0283C1.59931 16.7184 1.51354 16.4141 1.48587 16.1152ZM6.70706 15.335C6.92288 15.2741 7.03909 15.3543 7.05569 15.5757C7.09443 15.8745 7.06953 16.1899 6.98099 16.522C6.89798 16.854 6.7707 17.139 6.59915 17.3769C6.43867 17.637 6.21178 17.8612 5.91849 18.0493C5.63073 18.2375 5.33466 18.3564 5.0303 18.4062C4.83108 18.4339 4.72594 18.3509 4.71487 18.1572C4.68167 17.8639 4.70657 17.554 4.78958 17.2275C4.87812 16.8955 5.01093 16.6077 5.18802 16.3643C5.35957 16.1318 5.58369 15.9188 5.86038 15.7251C6.14261 15.5314 6.42483 15.4014 6.70706 15.335ZM5.07181 13.3926C5.28763 13.2044 5.55325 13.055 5.86868 12.9443C6.18964 12.8281 6.50231 12.77 6.80667 12.77C7.01696 12.77 7.11103 12.8779 7.0889 13.0937C7.03909 13.387 6.92841 13.6831 6.75686 13.9819C6.59085 14.2808 6.3944 14.527 6.16751 14.7207C5.94062 14.9365 5.66116 15.097 5.32913 15.2021C5.00263 15.3073 4.68444 15.3433 4.37454 15.3101C4.19192 15.2879 4.11445 15.1855 4.14212 15.0029C4.18086 14.7096 4.28323 14.4163 4.44925 14.123C4.6208 13.8297 4.82832 13.5863 5.07181 13.3926ZM1.54397 12.2056C1.57718 11.9731 1.70169 11.8984 1.91751 11.9814C2.19974 12.0755 2.47366 12.2277 2.73929 12.438C3.00491 12.6483 3.21243 12.8724 3.36184 13.1103C3.52233 13.3704 3.63577 13.6665 3.70218 13.9985C3.77412 14.3306 3.78518 14.6405 3.73538 14.9282C3.70771 15.1219 3.5998 15.1966 3.41165 15.1523C3.10729 15.097 2.81676 14.967 2.54007 14.7622C2.26337 14.5519 2.04755 14.3112 1.89261 14.04C1.73766 13.7799 1.62698 13.4811 1.56058 13.1435C1.4997 12.806 1.49417 12.4933 1.54397 12.2056ZM5.57815 10.4873C5.85485 10.3877 6.15921 10.3379 6.49124 10.3379C6.8288 10.3379 7.13593 10.3877 7.41263 10.4873C7.62291 10.5648 7.67548 10.6976 7.57034 10.8857C7.43199 11.1514 7.23001 11.3976 6.96438 11.6245C6.70429 11.8459 6.43313 12.0119 6.15091 12.1226C5.85761 12.2388 5.53665 12.2913 5.18802 12.2803C4.84492 12.2692 4.53779 12.1917 4.26663 12.0478C4.09508 11.9593 4.05634 11.832 4.15042 11.666C4.2943 11.4059 4.49628 11.168 4.75638 10.9521C5.01647 10.7363 5.29039 10.5814 5.57815 10.4873ZM2.68118 8.16308C2.79186 7.97493 2.93297 7.94449 3.10452 8.07177C3.33141 8.25439 3.53339 8.48958 3.71048 8.77734C3.88756 9.05957 4.00931 9.35009 4.07571 9.64892C4.14212 9.93115 4.15042 10.241 4.10061 10.5786C4.05081 10.9162 3.9512 11.215 3.80179 11.4751C3.70771 11.6466 3.58043 11.6798 3.41995 11.5747C3.15433 11.4087 2.92744 11.1818 2.73929 10.894C2.55114 10.6063 2.42939 10.3102 2.37405 10.0059C2.32425 9.71256 2.32425 9.3999 2.37405 9.06787C2.42939 8.7303 2.53177 8.42871 2.68118 8.16308ZM7.1636 7.99707C7.4569 7.94173 7.76956 7.93896 8.10159 7.98876C8.43362 8.03857 8.72968 8.13264 8.98977 8.27099C9.18346 8.3706 9.2139 8.50895 9.08108 8.68603C8.89847 8.92399 8.66328 9.13427 8.37552 9.31689C8.08776 9.49951 7.79723 9.62125 7.50393 9.68212C7.20511 9.76513 6.88691 9.77897 6.54935 9.72363C6.21178 9.66276 5.91572 9.54654 5.66116 9.37499C5.50068 9.26432 5.47578 9.13427 5.58645 8.98486C5.76907 8.7469 6.00426 8.53662 6.29202 8.354C6.57978 8.16585 6.87031 8.04687 7.1636 7.99707ZM4.62356 5.28271C4.75638 5.11116 4.90026 5.10563 5.0552 5.26611C5.25996 5.48193 5.42874 5.74479 5.56155 6.05468C5.6999 6.36458 5.77737 6.66617 5.79397 6.95947C5.82164 7.25276 5.78567 7.56266 5.68606 7.88915C5.58645 8.21565 5.44534 8.49511 5.26272 8.72753C5.14651 8.88802 5.0137 8.90185 4.86429 8.76904C4.63186 8.56982 4.44095 8.31526 4.29153 8.00537C4.14212 7.68994 4.06464 7.38281 4.05911 7.08398C4.04251 6.78515 4.08678 6.47249 4.19192 6.14599C4.29707 5.81396 4.44095 5.5262 4.62356 5.28271ZM9.2222 4.47753C9.44355 4.44986 9.55146 4.54947 9.54593 4.77636C9.51826 5.07519 9.43525 5.38232 9.2969 5.69775C9.15856 6.00764 8.98701 6.26774 8.78226 6.47802C8.57197 6.70491 8.30911 6.88753 7.99368 7.02587C7.68378 7.16422 7.37389 7.23339 7.06399 7.23339C6.87584 7.23339 6.7873 7.13655 6.79837 6.94287C6.80944 6.65511 6.88414 6.35628 7.02249 6.04638C7.16084 5.73095 7.33515 5.46809 7.54544 5.25781C7.76126 5.05305 8.02135 4.87874 8.32571 4.73486C8.63561 4.59098 8.93444 4.5052 9.2222 4.47753Z" fill="black"/>
<path d="M20.2803 21.7515C20.5681 21.7293 20.8752 21.7598 21.2017 21.8428C21.5282 21.9313 21.8132 22.0586 22.0567 22.2246C22.2338 22.3629 22.2476 22.5096 22.0982 22.6645C21.8879 22.8804 21.6278 23.0602 21.3179 23.2041C21.008 23.3535 20.7064 23.4421 20.4131 23.4697C20.1032 23.5085 19.785 23.478 19.4585 23.3784C19.132 23.2843 18.847 23.1377 18.6035 22.9385C18.4652 22.8057 18.4624 22.6728 18.5952 22.54C18.8111 22.3187 19.0712 22.1361 19.3755 21.9922C19.6854 21.8538 19.987 21.7736 20.2803 21.7515ZM18.5288 18.7964C18.6893 19.0343 18.8194 19.3138 18.919 19.6348C19.0186 19.9557 19.0601 20.2629 19.0435 20.5561C19.0214 20.8605 18.9411 21.1676 18.8028 21.4775C18.67 21.793 18.5039 22.0475 18.3047 22.2412C18.1719 22.3796 18.0419 22.3796 17.9146 22.2412C17.7043 22.0254 17.541 21.7515 17.4248 21.4194C17.3142 21.0874 17.2754 20.7664 17.3086 20.4565C17.3308 20.1632 17.411 19.8616 17.5493 19.5518C17.6932 19.2419 17.8731 18.979 18.0889 18.7632C18.2438 18.6027 18.3905 18.6138 18.5288 18.7964ZM22.6626 19.4355C22.9393 19.3359 23.2464 19.2889 23.584 19.2944C23.9216 19.2944 24.2315 19.3442 24.5137 19.4438C24.7185 19.5268 24.771 19.6624 24.6714 19.8506C24.522 20.1162 24.3145 20.3597 24.0489 20.581C23.7832 20.8024 23.5121 20.9657 23.2354 21.0708C22.9532 21.1925 22.6405 21.2451 22.2974 21.2285C21.9598 21.2119 21.6472 21.1344 21.3594 20.9961C21.1879 20.9075 21.1519 20.7858 21.2515 20.6309C21.3898 20.3652 21.5891 20.1245 21.8491 19.9087C22.1092 19.6873 22.3804 19.5296 22.6626 19.4355ZM20.2139 17.0283C20.4352 17.2054 20.6345 17.4378 20.8116 17.7256C20.9886 18.0133 21.1076 18.3011 21.1685 18.5889C21.2349 18.8766 21.2432 19.1893 21.1934 19.5268C21.1436 19.8589 21.044 20.1549 20.8946 20.415C20.806 20.5921 20.676 20.6253 20.5044 20.5146C20.2499 20.3486 20.0257 20.1217 19.8321 19.834C19.6439 19.5462 19.5249 19.2502 19.4751 18.9458C19.4198 18.6525 19.4198 18.3371 19.4751 17.9995C19.536 17.6619 19.6384 17.3659 19.7823 17.1113C19.8929 16.9121 20.0368 16.8844 20.2139 17.0283ZM26.5142 16.1152C26.481 16.4141 26.3924 16.7184 26.2486 17.0283C26.1047 17.3382 25.9248 17.5983 25.709 17.8086C25.4987 18.0299 25.2331 18.2043 24.9121 18.3315C24.5912 18.4588 24.273 18.5142 23.9575 18.4976C23.7639 18.4976 23.6809 18.3979 23.7085 18.1987C23.7362 17.8888 23.822 17.5845 23.9658 17.2856C24.1153 16.9868 24.3006 16.7406 24.522 16.5469C24.7268 16.3477 24.9841 16.1789 25.294 16.0405C25.6039 15.9022 25.9082 15.8275 26.2071 15.8164C26.4284 15.7998 26.5308 15.8994 26.5142 16.1152ZM21.2847 15.335C21.5725 15.4014 21.8547 15.5314 22.1314 15.7251C22.4136 15.9188 22.6405 16.1318 22.812 16.3643C22.9891 16.6077 23.1192 16.8955 23.2022 17.2275C23.2852 17.554 23.3129 17.8639 23.2852 18.1572C23.2741 18.3509 23.169 18.4339 22.9698 18.4062C22.6599 18.3564 22.3583 18.2375 22.065 18.0493C21.7772 17.8612 21.5559 17.637 21.4009 17.3769C21.2294 17.139 21.0993 16.854 21.0108 16.522C20.9278 16.1899 20.9056 15.8745 20.9444 15.5757C20.9554 15.3543 21.0689 15.2741 21.2847 15.335ZM22.9283 13.3926C23.1717 13.5863 23.3765 13.8297 23.5425 14.123C23.7141 14.4163 23.8192 14.7096 23.8579 15.0029C23.8856 15.1855 23.8081 15.2879 23.6255 15.3101C23.3156 15.3433 22.9947 15.3073 22.6626 15.2021C22.3361 15.097 22.0594 14.9365 21.8325 14.7207C21.6001 14.527 21.4009 14.2808 21.2349 13.9819C21.0689 13.6831 20.961 13.387 20.9112 13.0937C20.889 12.8779 20.9831 12.77 21.1934 12.77C21.4977 12.77 21.8076 12.8281 22.1231 12.9443C22.444 13.055 22.7124 13.2044 22.9283 13.3926ZM26.4561 12.2056C26.5004 12.4933 26.4921 12.806 26.4312 13.1435C26.3703 13.4811 26.2624 13.7799 26.1075 14.04C25.9525 14.3112 25.7367 14.5519 25.46 14.7622C25.1833 14.967 24.8928 15.097 24.5884 15.1523C24.4003 15.1966 24.2896 15.1219 24.2564 14.9282C24.2121 14.6405 24.2232 14.3306 24.2896 13.9985C24.3615 13.6665 24.4777 13.3704 24.6382 13.1103C24.7876 12.8724 24.9924 12.6483 25.2525 12.438C25.5181 12.2277 25.7948 12.0755 26.0825 11.9814C26.2984 11.8984 26.4229 11.9731 26.4561 12.2056ZM22.4219 10.4873C22.7041 10.5814 22.9753 10.7363 23.2354 10.9521C23.501 11.168 23.703 11.4059 23.8413 11.666C23.9354 11.832 23.8967 11.9593 23.7251 12.0478C23.454 12.1917 23.1441 12.2692 22.7954 12.2803C22.4523 12.2913 22.1369 12.2388 21.8491 12.1226C21.5614 12.0119 21.2875 11.8459 21.0274 11.6245C20.7673 11.3976 20.5681 11.1514 20.4297 10.8857C20.3246 10.6976 20.3744 10.5648 20.5791 10.4873C20.8558 10.3877 21.163 10.3379 21.5005 10.3379C21.8381 10.3379 22.1452 10.3877 22.4219 10.4873ZM25.3189 8.16308C25.4683 8.42871 25.5679 8.7303 25.6177 9.06787C25.673 9.3999 25.6758 9.71256 25.626 10.0059C25.5651 10.3102 25.4406 10.6063 25.2525 10.894C25.0643 11.1818 24.8402 11.4087 24.5801 11.5747C24.4196 11.6798 24.2923 11.6466 24.1983 11.4751C24.0489 11.215 23.9492 10.9162 23.8994 10.5786C23.8496 10.241 23.8579 9.93115 23.9243 9.64892C23.9852 9.35009 24.1042 9.05957 24.2813 8.77734C24.4639 8.48958 24.6686 8.25439 24.8955 8.07177C25.0671 7.94449 25.2082 7.97493 25.3189 8.16308ZM20.8365 7.99707C21.1297 8.04687 21.4203 8.16585 21.708 8.354C21.9958 8.53662 22.231 8.7469 22.4136 8.98486C22.5243 9.13427 22.4994 9.26432 22.3389 9.37499C22.0843 9.54654 21.7883 9.66276 21.4507 9.72363C21.1131 9.77897 20.795 9.76513 20.4961 9.68212C20.1973 9.62125 19.904 9.49951 19.6162 9.31689C19.3285 9.13427 19.0933 8.92399 18.9107 8.68603C18.7834 8.50895 18.8166 8.3706 19.0103 8.27099C19.2704 8.13264 19.5664 8.03857 19.8985 7.98876C20.2305 7.93896 20.5432 7.94173 20.8365 7.99707ZM23.3765 5.28271C23.5591 5.5262 23.703 5.81396 23.8081 6.14599C23.9133 6.47249 23.9575 6.78515 23.9409 7.08398C23.9354 7.38281 23.8579 7.68994 23.7085 8.00537C23.5591 8.31526 23.3682 8.56982 23.1358 8.76904C22.9864 8.90185 22.8535 8.88802 22.7373 8.72753C22.5547 8.49511 22.4136 8.21565 22.314 7.88915C22.2144 7.56266 22.1756 7.25276 22.1978 6.95947C22.2144 6.66617 22.2919 6.36458 22.4302 6.05468C22.5686 5.74479 22.7401 5.48193 22.9449 5.26611C23.0998 5.10563 23.2437 5.11116 23.3765 5.28271ZM18.7779 4.47753C19.0656 4.5052 19.3617 4.59098 19.666 4.73486C19.9759 4.87874 20.236 5.05305 20.4463 5.25781C20.6621 5.46809 20.8365 5.73095 20.9693 6.04638C21.1076 6.35628 21.1851 6.65511 21.2017 6.94287C21.2128 7.13655 21.1242 7.23339 20.9361 7.23339C20.6262 7.23339 20.3135 7.16422 19.9981 7.02587C19.6826 6.88753 19.4226 6.70491 19.2178 6.47802C19.0075 6.26774 18.8332 6.00764 18.6949 5.69775C18.5565 5.38232 18.4763 5.07519 18.4541 4.77636C18.4486 4.54947 18.5565 4.44986 18.7779 4.47753Z" fill="black"/>
</svg>
