<svg width="28" height="28" viewBox="0 0 28 28" fill="none" xmlns="http://www.w3.org/2000/svg">
<path fill-rule="evenodd" clip-rule="evenodd" d="M4 10C4.55228 10 5 9.55228 5 9C5 8.44772 4.55228 8 4 8C3.44772 8 3 8.44772 3 9C3 9.55228 3.44772 10 4 10ZM7.75 8.25C7.33579 8.25 7 8.58579 7 9C7 9.41421 7.33579 9.75 7.75 9.75H24.25C24.6642 9.75 25 9.41421 25 9C25 8.58579 24.6642 8.25 24.25 8.25H7.75ZM7.75 13.25C7.33579 13.25 7 13.5858 7 14C7 14.4142 7.33579 14.75 7.75 14.75H24.25C24.6642 14.75 25 14.4142 25 14C25 13.5858 24.6642 13.25 24.25 13.25H7.75ZM7 19C7 18.5858 7.33579 18.25 7.75 18.25H24.25C24.6642 18.25 25 18.5858 25 19C25 19.4142 24.6642 19.75 24.25 19.75H7.75C7.33579 19.75 7 19.4142 7 19ZM5 14C5 14.5523 4.55228 15 4 15C3.44772 15 3 14.5523 3 14C3 13.4477 3.44772 13 4 13C4.55228 13 5 13.4477 5 14ZM4 20C4.55228 20 5 19.5523 5 19C5 18.4477 4.55228 18 4 18C3.44772 18 3 18.4477 3 19C3 19.5523 3.44772 20 4 20Z" fill="black"/>
</svg>
