<svg width="28" height="28" viewBox="0 0 28 28" fill="none" xmlns="http://www.w3.org/2000/svg">
<path fill-rule="evenodd" clip-rule="evenodd" d="M5.04757 4.16331C5.1533 3.9091 5.51342 3.9091 5.61915 4.16331L6.07946 5.27003C6.12403 5.37719 6.22482 5.45042 6.34051 5.45969L7.5353 5.55548C7.80974 5.57748 7.92102 5.91997 7.71193 6.09908L6.80163 6.87886C6.71348 6.95436 6.67498 7.07284 6.70191 7.18574L6.98002 8.35166C7.04391 8.61946 6.75257 8.83113 6.51761 8.68762L5.4947 8.06283C5.39565 8.00233 5.27107 8.00233 5.17202 8.06283L4.14911 8.68762C3.91415 8.83113 3.62281 8.61946 3.6867 8.35166L3.96481 7.18574C3.99174 7.07284 3.95324 6.95436 3.86509 6.87886L2.95479 6.09908C2.7457 5.91997 2.85698 5.57748 3.13142 5.55548L4.32621 5.45969C4.44191 5.45042 4.54269 5.37719 4.58726 5.27003L5.04757 4.16331ZM5.61915 11.5919C5.51342 11.3377 5.1533 11.3377 5.04757 11.5919L4.58726 12.6986C4.54269 12.8058 4.44191 12.879 4.32621 12.8883L3.13142 12.984C2.85698 13.006 2.7457 13.3485 2.95479 13.5276L3.86509 14.3074C3.95324 14.3829 3.99174 14.5014 3.96481 14.6143L3.6867 15.7802C3.62281 16.048 3.91415 16.2597 4.14911 16.1162L5.17202 15.4914C5.27107 15.4309 5.39565 15.4309 5.4947 15.4914L6.51761 16.1162C6.75257 16.2597 7.04391 16.048 6.98002 15.7802L6.70191 14.6143C6.67498 14.5014 6.71348 14.3829 6.80163 14.3074L7.71193 13.5276C7.92102 13.3485 7.80974 13.006 7.5353 12.984L6.34051 12.8883C6.22482 12.879 6.12403 12.8058 6.07946 12.6986L5.61915 11.5919ZM11.5238 13.17C11.0654 13.17 10.6938 13.5416 10.6938 14C10.6938 14.4584 11.0654 14.83 11.5238 14.83H24.5238C24.9822 14.83 25.3538 14.4584 25.3538 14C25.3538 13.5416 24.9822 13.17 24.5238 13.17H11.5238ZM11.5238 5.74141C11.0654 5.74141 10.6938 6.11301 10.6938 6.57141C10.6938 7.0298 11.0654 7.40141 11.5238 7.40141H24.5238C24.9822 7.40141 25.3538 7.0298 25.3538 6.57141C25.3538 6.11301 24.9822 5.74141 24.5238 5.74141H11.5238ZM5.04757 19.0204C5.1533 18.7662 5.51342 18.7662 5.61915 19.0204L6.07946 20.1271C6.12403 20.2343 6.22482 20.3075 6.34051 20.3168L7.5353 20.4126C7.80974 20.4346 7.92102 20.7771 7.71193 20.9562L6.80163 21.736C6.71348 21.8115 6.67498 21.93 6.70191 22.0429L6.98002 23.2088C7.04391 23.4766 6.75257 23.6883 6.51761 23.5447L5.4947 22.92C5.39565 22.8594 5.27107 22.8594 5.17202 22.92L4.14911 23.5447C3.91415 23.6882 3.62281 23.4766 3.6867 23.2088L3.96481 22.0429C3.99174 21.93 3.95324 21.8115 3.86509 21.736L2.95479 20.9562C2.7457 20.7771 2.85698 20.4346 3.13142 20.4126L4.32621 20.3168C4.44191 20.3075 4.54269 20.2343 4.58726 20.1271L5.04757 19.0204ZM11.5238 20.5986C11.0654 20.5986 10.6938 20.9702 10.6938 21.4286C10.6938 21.887 11.0654 22.2586 11.5238 22.2586H24.5238C24.9822 22.2586 25.3538 21.887 25.3538 21.4286C25.3538 20.9702 24.9822 20.5986 24.5238 20.5986H11.5238Z" fill="black"/>
</svg>
