<svg width="28" height="28" viewBox="0 0 28 28" fill="none" xmlns="http://www.w3.org/2000/svg">
<path fill-rule="evenodd" clip-rule="evenodd" d="M8.19995 8C8.19995 4.79675 10.7967 2.2 14 2.2C17.2032 2.2 19.8 4.79675 19.8 8V10.2179C19.9537 10.224 20.0987 10.2323 20.2355 10.2435C20.7852 10.2884 21.2727 10.3836 21.7251 10.6142C22.4401 10.9785 23.0215 11.5598 23.3858 12.2748C23.6163 12.7273 23.7115 13.2147 23.7564 13.7645C23.8 14.2974 23.8 14.9547 23.8 15.7659V15.8V20.2V20.2341C23.8 21.0453 23.8 21.7026 23.7564 22.2355C23.7115 22.7853 23.6163 23.2727 23.3858 23.7252C23.0215 24.4402 22.4401 25.0215 21.7251 25.3858C21.2727 25.6164 20.7852 25.7116 20.2355 25.7565C19.7025 25.8 19.0452 25.8 18.2339 25.8H18.2H9.79995H9.76597C8.95474 25.8 8.29738 25.8 7.76441 25.7565C7.21468 25.7116 6.72723 25.6164 6.27479 25.3858C5.55977 25.0215 4.97845 24.4402 4.61413 23.7252C4.3836 23.2727 4.2884 22.7853 4.24348 22.2355C4.19994 21.7026 4.19994 21.0452 4.19995 20.234V20.2V15.8V15.766V15.766C4.19994 14.9548 4.19994 14.2974 4.24348 13.7645C4.2884 13.2147 4.3836 12.7273 4.61413 12.2748C4.97845 11.5598 5.55977 10.9785 6.27479 10.6142C6.72723 10.3836 7.21468 10.2884 7.76441 10.2435C7.90123 10.2323 8.04624 10.224 8.19995 10.2179V8ZM7.8947 11.8382C8.35483 11.8006 8.94667 11.8 9.79995 11.8H18.2C19.0532 11.8 19.6451 11.8006 20.1052 11.8382C20.556 11.875 20.8094 11.9433 20.9987 12.0398C21.4127 12.2507 21.7492 12.5873 21.9602 13.0012C22.0566 13.1905 22.1249 13.444 22.1617 13.8947C22.1993 14.3549 22.2 14.9467 22.2 15.8V20.2C22.2 21.0533 22.1993 21.6451 22.1617 22.1052C22.1249 22.556 22.0566 22.8095 21.9602 22.9988C21.7492 23.4127 21.4127 23.7493 20.9987 23.9602C20.8094 24.0567 20.556 24.125 20.1052 24.1618C19.6451 24.1994 19.0532 24.2 18.2 24.2H9.79995C8.94667 24.2 8.35483 24.1994 7.8947 24.1618C7.44392 24.125 7.19047 24.0567 7.00117 23.9602C6.58722 23.7493 6.25066 23.4127 6.03974 22.9988C5.94329 22.8095 5.875 22.556 5.83817 22.1052C5.80057 21.6451 5.79995 21.0533 5.79995 20.2V15.8C5.79995 14.9467 5.80057 14.3549 5.83817 13.8947C5.875 13.444 5.94329 13.1905 6.03974 13.0012C6.25066 12.5873 6.58722 12.2507 7.00117 12.0398C7.19047 11.9433 7.44392 11.875 7.8947 11.8382ZM18.2 8V10.2H9.79995V8C9.79995 5.6804 11.6804 3.8 14 3.8C16.3195 3.8 18.2 5.6804 18.2 8ZM14 19.5C14.8284 19.5 15.5 18.8284 15.5 18C15.5 17.1716 14.8284 16.5 14 16.5C13.1715 16.5 12.5 17.1716 12.5 18C12.5 18.8284 13.1715 19.5 14 19.5Z" fill="black"/>
</svg>
