<svg width="28" height="28" viewBox="0 0 28 28" fill="none" xmlns="http://www.w3.org/2000/svg">
<path fill-rule="evenodd" clip-rule="evenodd" d="M14 3.20001C11.349 3.20001 9.2 5.34905 9.2 8.00001V11.0026C8.31094 11.0122 7.78662 11.0577 7.36502 11.2725C6.89462 11.5122 6.51217 11.8946 6.27248 12.365C6 12.8998 6 13.5999 6 15V20C6 21.4001 6 22.1002 6.27248 22.635C6.51217 23.1054 6.89462 23.4878 7.36502 23.7275C7.8998 24 8.59987 24 10 24H18C19.4001 24 20.1002 24 20.635 23.7275C21.1054 23.4878 21.4878 23.1054 21.7275 22.635C22 22.1002 22 21.4001 22 20V15C22 13.5999 22 12.8998 21.7275 12.365C21.4878 11.8946 21.1054 11.5122 20.635 11.2725C20.2134 11.0577 19.6891 11.0122 18.8 11.0026V8.00001C18.8 5.34905 16.651 3.20001 14 3.20001ZM17.2 11V8.00001C17.2 6.2327 15.7673 4.80001 14 4.80001C12.2327 4.80001 10.8 6.2327 10.8 8.00001V11H17.2Z" fill="black"/>
</svg>
