<svg width="28" height="28" viewBox="0 0 28 28" fill="none" xmlns="http://www.w3.org/2000/svg">
<path fill-rule="evenodd" clip-rule="evenodd" d="M5.12819 7.16362C5 7.50421 5 7.89914 5 8.689V17.2899C5 18.6812 5.65504 19.9913 6.76805 20.826C8.25301 21.9397 9.83517 22.9176 11.4954 23.7477L13.1735 24.5867C13.6938 24.8469 14.3062 24.8469 14.8265 24.5867L16.5046 23.7477C18.1648 22.9176 19.747 21.9397 21.2319 20.826C22.345 19.9913 23 18.6812 23 17.2899V8.689C23 7.89914 23 7.50421 22.8718 7.16362C22.7586 6.86271 22.5744 6.59354 22.335 6.37892C22.0641 6.13601 21.696 5.99287 20.9598 5.70659L16.3197 3.90207C15.4621 3.56856 15.0333 3.40181 14.5913 3.33575C14.1993 3.27716 13.8007 3.27716 13.4087 3.33575C12.9667 3.40181 12.5379 3.56856 11.6803 3.90207L7.04017 5.70658L7.04017 5.70659C6.30402 5.99287 5.93594 6.13601 5.66498 6.37892C5.42557 6.59354 5.24144 6.86271 5.12819 7.16362ZM11.5 10.5C11.5 9.11927 12.6193 7.99999 14 7.99999C15.3807 7.99999 16.5 9.11927 16.5 10.5V12H17C17.5523 12 18 12.4477 18 13V17C18 17.5523 17.5523 18 17 18H14H11C10.4477 18 10 17.5523 10 17V13C10 12.4477 10.4477 12 11 12H11.5V10.5ZM15.5 10.5V12H12.5V10.5C12.5 9.67156 13.1716 8.99999 14 8.99999C14.8284 8.99999 15.5 9.67156 15.5 10.5Z" fill="black"/>
</svg>
