<svg width="28" height="28" viewBox="0 0 28 28" fill="none" xmlns="http://www.w3.org/2000/svg">
<path fill-rule="evenodd" clip-rule="evenodd" d="M25.8586 9.67L23.8312 4.93946L23.8312 4.93943C23.5306 4.23804 23.3803 3.88735 23.1383 3.62991C22.9243 3.40238 22.66 3.22813 22.3666 3.1211C22.0346 3 21.6531 3 20.89 3H7.11012C6.34701 3 5.96546 3 5.63348 3.1211C5.34006 3.22813 5.07579 3.40238 4.86184 3.62991C4.61976 3.88735 4.46946 4.23805 4.16885 4.93946L2.14148 9.67H25.8586ZM4.00005 15.5206C4.54559 15.7207 5.13502 15.83 5.75004 15.83C6.7631 15.83 7.70767 15.5326 8.50004 15.0217C9.29241 15.5326 10.237 15.83 11.25 15.83C12.2631 15.83 13.2077 15.5326 14 15.0217C14.7924 15.5326 15.737 15.83 16.75 15.83C17.7631 15.83 18.7077 15.5326 19.5 15.0217C20.2924 15.5326 21.237 15.83 22.25 15.83C22.8651 15.83 23.4545 15.7207 24 15.5206V21.8C24 22.9201 24 23.4802 23.7821 23.908C23.5903 24.2843 23.2844 24.5903 22.908 24.782C22.4802 25 21.9202 25 20.8 25H7.20005C6.07995 25 5.51989 25 5.09207 24.782C4.71574 24.5903 4.40978 24.2843 4.21804 23.908C4.00005 23.4802 4.00005 22.9201 4.00005 21.8V15.5206ZM6 19.6C6 19.0399 6 18.7599 6.10899 18.546C6.20487 18.3578 6.35785 18.2049 6.54601 18.109C6.75992 18 7.03995 18 7.6 18H11.4C11.9601 18 12.2401 18 12.454 18.109C12.6422 18.2049 12.7951 18.3578 12.891 18.546C13 18.7599 13 19.0399 13 19.6V21.4C13 21.9601 13 22.2401 12.891 22.454C12.7951 22.6422 12.6422 22.7951 12.454 22.891C12.2401 23 11.9601 23 11.4 23H7.6C7.03995 23 6.75992 23 6.54601 22.891C6.35785 22.7951 6.20487 22.6422 6.10899 22.454C6 22.2401 6 21.9601 6 21.4V19.6ZM5.74998 14.5C3.76292 14.5 2.13683 12.9545 2.00818 11H25.9918C25.8631 12.9545 24.237 14.5 22.25 14.5C21.1634 14.5 20.1849 14.0379 19.5 13.2995C18.8151 14.0379 17.8365 14.5 16.75 14.5C15.6634 14.5 14.6849 14.0379 14 13.2995C13.3151 14.0379 12.3365 14.5 11.25 14.5C10.1635 14.5 9.18485 14.0379 8.49998 13.2995C7.8151 14.0379 6.8365 14.5 5.74998 14.5Z" fill="black"/>
</svg>
