<svg width="28" height="28" viewBox="0 0 28 28" fill="none" xmlns="http://www.w3.org/2000/svg">
<path fill-rule="evenodd" clip-rule="evenodd" d="M20 6C20 4.89543 20.8954 4 22 4C23.1046 4 24 4.89543 24 6V21C24 22.1046 23.1046 23 22 23C20.8954 23 20 22.1046 20 21V6ZM19 20.5541V6.5C19 6.5 16.5 8.99999 11 8.99999H7.49875C5.01347 8.99999 3 11.0147 3 13.5C3 15.9853 5.01346 18 7.49874 18L11 18C16.5 18 19 20.5541 19 20.5541ZM8.9653 23.0816L7.29517 19.5H11.7087L12.5905 21.3911C13.0573 22.3922 12.6242 23.5822 11.6232 24.049C10.6221 24.5158 9.43211 24.0827 8.9653 23.0816Z" fill="black"/>
</svg>
