<svg width="28" height="28" viewBox="0 0 28 28" fill="none" xmlns="http://www.w3.org/2000/svg">
<path fill-rule="evenodd" clip-rule="evenodd" d="M4.79995 13.0914C4.79995 8.5825 8.84547 4.80049 14 4.80049C16.613 4.80049 18.9592 5.78132 20.6263 7.34125C22.2301 8.84198 23.2 10.8706 23.2 13.0914C23.2 17.6003 19.1544 21.3823 14 21.3823C13.7542 21.3823 13.5108 21.3736 13.2701 21.3566L13.2701 21.3566L13.2488 21.3551L13.2488 21.3551C12.7268 21.3171 12.2176 21.2398 11.7247 21.1268C11.5719 21.0917 11.4314 21.0964 11.3079 21.121L5.00452 14.8785C4.86952 14.311 4.79995 13.7147 4.79995 13.0914ZM5.00581 14.884L5.00452 14.8785L3.19995 13.0914C3.19995 7.55875 8.10874 3.20049 14 3.20049C17.0141 3.20049 19.7524 4.33237 21.7195 6.17294C23.615 7.94657 24.7999 10.3863 24.7999 13.0914C24.7999 18.624 19.8912 22.9823 14 22.9823C13.7165 22.9823 13.4355 22.9723 13.1574 22.9526L11.3079 21.121L11.2924 21.1243L5.00581 14.884ZM11.6339 22.7442C12.122 22.8441 12.6224 22.9137 13.1325 22.9508L11.2924 21.1243C11.0816 21.1698 10.922 21.2726 10.8374 21.3319C10.6959 21.431 10.5476 21.5681 10.4272 21.6795L10.4271 21.6795L10.4271 21.6795L10.4271 21.6796L10.4043 21.7006L10.9471 22.2883L10.4043 21.7006C10.0759 22.004 9.62576 22.4191 8.87495 22.8402C8.59895 22.995 8.26848 23.0993 7.93502 23.1632C8.02154 23.0498 8.10885 22.9277 8.19397 22.7972C8.62617 22.1347 8.74938 21.416 8.7202 20.8313C8.70561 20.5389 8.6522 20.2616 8.56694 20.023C8.49396 19.8187 8.35456 19.5194 8.08615 19.3229C6.50005 18.1617 5.43078 16.6644 5.00581 14.884L3.19995 13.0914C3.19995 16.201 4.64821 18.7544 7.05668 20.5516L7.06025 20.5614C7.08684 20.6358 7.11448 20.7566 7.12219 20.9111C7.13762 21.2203 7.07048 21.591 6.8539 21.923C6.62932 22.2673 6.37949 22.5397 6.15389 22.7841L6.14703 22.7915L6.14694 22.7916L6.14676 22.7918C6.07096 22.8739 5.9889 22.9628 5.91879 23.0454C5.85128 23.125 5.75926 23.2393 5.68904 23.3711C5.62739 23.4868 5.49893 23.7689 5.59999 24.111C5.70925 24.481 6.00099 24.6493 6.16248 24.717C6.28575 24.7688 6.41406 24.7926 6.49758 24.8056C6.59628 24.8209 6.70601 24.8314 6.82096 24.8376C7.05149 24.85 7.33168 24.8467 7.63555 24.819C8.23199 24.7646 8.99051 24.6098 9.65758 24.2357C10.5746 23.7215 11.1353 23.2035 11.488 22.8778L11.4899 22.876C11.5468 22.8234 11.5931 22.7807 11.6339 22.7442ZM11.6339 22.7442C11.5445 22.7259 11.4555 22.7066 11.367 22.6863C11.5023 22.7173 11.6164 22.6964 11.6852 22.6732C11.7246 22.6599 11.7495 22.6458 11.7572 22.6411L11.7554 22.6423C11.7423 22.6515 11.7153 22.6724 11.6662 22.7155L11.6339 22.7442ZM7.0414 20.5154C7.05242 20.5323 7.08233 20.571 7.14099 20.6139C7.11276 20.5933 7.08465 20.5725 7.05668 20.5516C7.05022 20.5344 7.04496 20.5226 7.0414 20.5154ZM7.0414 20.5154C7.03778 20.5098 7.0362 20.5066 7.03631 20.5064C7.03635 20.5063 7.03654 20.5065 7.03688 20.507C7.03714 20.5074 7.03751 20.508 7.03796 20.5088L7.0414 20.5154ZM6.71706 23.2198L6.72108 23.2207C6.7183 23.2201 6.71701 23.2198 6.71706 23.2198ZM14 14.5C14.6903 14.5 15.25 13.9404 15.25 13.25C15.25 12.5596 14.6903 12 14 12C13.3096 12 12.75 12.5596 12.75 13.25C12.75 13.9404 13.3096 14.5 14 14.5ZM10.25 13.25C10.25 13.9404 9.69031 14.5 8.99995 14.5C8.3096 14.5 7.74995 13.9404 7.74995 13.25C7.74995 12.5596 8.3096 12 8.99995 12C9.69031 12 10.25 12.5596 10.25 13.25ZM19 14.5C19.6903 14.5 20.25 13.9404 20.25 13.25C20.25 12.5596 19.6903 12 19 12C18.3096 12 17.75 12.5596 17.75 13.25C17.75 13.9404 18.3096 14.5 19 14.5Z" fill="black"/>
</svg>
