<svg width="28" height="28" viewBox="0 0 28 28" fill="none" xmlns="http://www.w3.org/2000/svg">
<path d="M21.1729 6.7571C19.3558 5.05685 16.8136 4.00049 14 4.00049C8.47715 4.00049 4 8.07063 4 13.0914C4 15.9549 5.33757 18.3021 7.61362 19.9684C7.90468 20.1815 8.17277 21.3656 7.52398 22.3601C7.25868 22.7668 6.96661 23.0832 6.74176 23.3268C6.41675 23.6788 6.2322 23.8787 6.47197 23.9793C6.72206 24.0842 8.19977 24.1361 9.26631 23.538C10.1011 23.0698 10.6067 22.6028 10.9472 22.2883C11.2287 22.0282 11.3974 21.8725 11.5459 21.9065C12.0785 22.0287 12.628 22.112 13.1907 22.153C13.1984 22.1535 13.2061 22.1541 13.2138 22.1546C13.4732 22.173 13.7354 22.1823 14 22.1823C19.5228 22.1823 24 18.1122 24 13.0914C24 10.6285 22.9226 8.39428 21.1729 6.7571Z" stroke="black" stroke-width="1.6" stroke-linecap="round"/>
</svg>
