<svg width="28" height="28" viewBox="0 0 28 28" fill="none" xmlns="http://www.w3.org/2000/svg">
<path fill-rule="evenodd" clip-rule="evenodd" d="M14 25C20.0751 25 25 20.0751 25 14C25 7.92487 20.0751 3 14 3C7.92487 3 3 7.92487 3 14C3 20.0751 7.92487 25 14 25ZM17.7562 19.1737H10.2441H10.2432C8.8629 19.1737 7.98747 17.6819 8.68139 16.4793L13.3185 8.44352C13.621 7.91883 14.3793 7.91883 14.6818 8.44352L19.318 16.4793C20.0128 17.6838 19.1374 19.1737 17.7562 19.1737ZM14.6865 10.8552V17.801H17.7571C18.0937 17.801 18.2922 17.4436 18.1315 17.1648L15.6952 12.8074L14.6865 10.8552ZM12.306 12.8065L9.87069 17.1657C9.70997 17.4446 9.9085 17.8019 10.2451 17.8019H13.3157V10.8533L12.306 12.8065Z" fill="black"/>
</svg>
