<svg width="28" height="28" viewBox="0 0 28 28" fill="none" xmlns="http://www.w3.org/2000/svg">
<path fill-rule="evenodd" clip-rule="evenodd" d="M7.76595 5.20001L7.79995 5.20001H20.2L20.2339 5.20001C21.0452 5.2 21.7025 5.2 22.2355 5.24354C22.7852 5.28846 23.2727 5.38366 23.7251 5.61419C24.4401 5.97851 25.0215 6.55983 25.3858 7.27485C25.6163 7.72729 25.7115 8.21474 25.7564 8.76447C25.8 9.29742 25.8 9.95475 25.8 10.7659V10.8V17.2V17.2341C25.8 18.0453 25.8 18.7026 25.7564 19.2356C25.7115 19.7853 25.6163 20.2727 25.3858 20.7252C25.0215 21.4402 24.4401 22.0215 23.7251 22.3858C23.2727 22.6164 22.7852 22.7116 22.2355 22.7565C21.7025 22.8 21.0452 22.8 20.234 22.8H20.2H7.79995H7.76587C6.95469 22.8 6.29736 22.8 5.76441 22.7565C5.21468 22.7116 4.72723 22.6164 4.27479 22.3858C3.55977 22.0215 2.97845 21.4402 2.61413 20.7252C2.3836 20.2727 2.2884 19.7853 2.24348 19.2356C2.19994 18.7026 2.19994 18.0452 2.19995 17.234L2.19995 17.2V10.8L2.19995 10.766C2.19994 9.95479 2.19994 9.29744 2.24348 8.76447C2.2884 8.21474 2.3836 7.72729 2.61413 7.27485C2.97845 6.55983 3.55977 5.97851 4.27479 5.61419C4.72723 5.38366 5.21468 5.28846 5.76441 5.24354C6.29738 5.2 6.95473 5.2 7.76595 5.20001ZM5.8947 6.83823C5.44392 6.87506 5.19047 6.94335 5.00117 7.0398C4.58722 7.25072 4.25066 7.58728 4.03974 8.00123C3.94329 8.19053 3.875 8.44398 3.83817 8.89476C3.80057 9.35489 3.79995 9.94673 3.79995 10.8V17.2C3.79995 18.0533 3.80057 18.6451 3.83817 19.1053C3.875 19.556 3.94329 19.8095 4.03974 19.9988C4.25066 20.4127 4.58722 20.7493 5.00117 20.9602C5.19047 21.0567 5.44392 21.125 5.8947 21.1618C6.35483 21.1994 6.94667 21.2 7.79995 21.2H20.2C21.0532 21.2 21.6451 21.1994 22.1052 21.1618C22.556 21.125 22.8094 21.0567 22.9987 20.9602C23.4127 20.7493 23.7492 20.4127 23.9602 19.9988C24.0566 19.8095 24.1249 19.556 24.1617 19.1053C24.1993 18.6451 24.2 18.0533 24.2 17.2V10.8C24.2 9.94673 24.1993 9.35489 24.1617 8.89476C24.1249 8.44398 24.0566 8.19053 23.9602 8.00123C23.7492 7.58728 23.4127 7.25072 22.9987 7.0398C22.8094 6.94335 22.556 6.87506 22.1052 6.83823C21.6451 6.80063 21.0532 6.80001 20.2 6.80001H7.79995C6.94667 6.80001 6.35483 6.80063 5.8947 6.83823Z" fill="black"/>
<path fill-rule="evenodd" clip-rule="evenodd" d="M10.5666 17.809C10.4946 18.2169 10.767 18.6059 11.1749 18.6778C11.5829 18.7497 11.9719 18.4774 12.0438 18.0694L12.2764 16.75H14.7533L14.5666 17.809C14.4946 18.2169 14.767 18.6059 15.1749 18.6778C15.5829 18.7497 15.9719 18.4774 16.0438 18.0694L16.2764 16.75H17.25C17.6642 16.75 18 16.4142 18 16C18 15.5858 17.6642 15.25 17.25 15.25H16.5409L16.9817 12.75H18.2485C18.6627 12.75 18.9985 12.4142 18.9985 12C18.9985 11.5858 18.6627 11.25 18.2485 11.25H17.2462L17.433 10.191C17.5049 9.78305 17.2325 9.39405 16.8246 9.32213C16.4167 9.2502 16.0277 9.52258 15.9558 9.9305L15.7231 11.25H13.2462L13.433 10.191C13.5049 9.78305 13.2325 9.39405 12.8246 9.32213C12.4167 9.2502 12.0277 9.52258 11.9558 9.9305L11.7231 11.25H10.75C10.3358 11.25 10 11.5858 10 12C10 12.4142 10.3358 12.75 10.75 12.75H11.4586L11.0178 15.25H9.75C9.33579 15.25 9 15.5858 9 16C9 16.4142 9.33579 16.75 9.75 16.75H10.7533L10.5666 17.809ZM12.5409 15.25H15.0178L15.4586 12.75H12.9817L12.5409 15.25Z" fill="black"/>
</svg>
