<svg width="28" height="28" viewBox="0 0 28 28" fill="none" xmlns="http://www.w3.org/2000/svg">
<path fill-rule="evenodd" clip-rule="evenodd" d="M9.45541 3.35838C9.04794 3.61348 8.7203 4.00557 8.06491 4.78978L5.98715 7.27635L3.89913 9.75438L3.89804 9.75566C3.2402 10.5363 2.91122 10.9269 2.73092 11.3722C2.57125 11.7665 2.49667 12.19 2.51181 12.615C2.52902 13.0954 2.70468 13.5752 3.05624 14.5349L4.17074 17.5776L5.27279 20.6248C5.62033 21.5859 5.79415 22.0664 6.08981 22.4455C6.35141 22.7809 6.68075 23.0573 7.05648 23.2566C7.48117 23.482 7.98458 23.5697 8.99142 23.7451L12.1837 24.3012L15.3737 24.8705C16.3798 25.05 16.8828 25.1398 17.359 25.0732C17.7802 25.0144 18.1843 24.8673 18.5448 24.6416C18.9522 24.3866 19.2799 23.9944 19.9351 23.2102L22.013 20.7236L24.101 18.2456C24.7595 17.4641 25.0887 17.0733 25.2693 16.6278C25.4289 16.2335 25.5035 15.81 25.4884 15.385C25.4712 14.9048 25.2956 14.4252 24.9443 13.4663L24.9439 13.4651L23.8294 10.4224L22.7274 7.37517C22.3798 6.41411 22.206 5.93358 21.9104 5.55452C21.6488 5.21916 21.3193 4.94273 20.9437 4.74336C20.519 4.51802 20.0156 4.43031 19.0088 4.25493L15.8165 3.69878L12.6264 3.12953C11.6203 2.95003 11.1173 2.86024 10.6412 2.92677C10.2199 2.98561 9.81588 3.13271 9.45541 3.35838ZM14 18C16.2091 18 18 16.2092 18 14C18 11.7909 16.2091 10 14 10C11.7909 10 9.99996 11.7909 9.99996 14C9.99996 16.2092 11.7909 18 14 18Z" fill="black"/>
</svg>
