<svg width="28" height="28" viewBox="0 0 28 28" fill="none" xmlns="http://www.w3.org/2000/svg">
<path d="M11.0785 12.3237C10.9424 12.5851 10.7437 12.7158 10.4823 12.7158C10.2209 12.7158 10.0204 12.5851 9.88074 12.3237C9.74467 12.0587 9.67664 11.672 9.67664 11.1635C9.67664 10.6658 9.74467 10.2863 9.88074 10.0249C10.0204 9.76348 10.2209 9.63278 10.4823 9.63278C10.7437 9.63278 10.9424 9.76348 11.0785 10.0249C11.2181 10.2863 11.288 10.6658 11.288 11.1635C11.288 11.672 11.2181 12.0587 11.0785 12.3237Z" fill="black"/>
<path d="M18.0985 17.2168C17.9624 17.4817 17.7637 17.6142 17.5023 17.6142C17.2409 17.6142 17.0404 17.4817 16.9008 17.2168C16.7647 16.9518 16.6967 16.5669 16.6967 16.062C16.6967 15.5607 16.7647 15.1811 16.9008 14.9233C17.0404 14.6619 17.2409 14.5312 17.5023 14.5312C17.7637 14.5312 17.9624 14.6619 18.0985 14.9233C18.2382 15.1811 18.308 15.5607 18.308 16.062C18.308 16.5669 18.2382 16.9518 18.0985 17.2168Z" fill="black"/>
<path fill-rule="evenodd" clip-rule="evenodd" d="M14 2.50143C7.92487 2.50143 3 7.4263 3 13.5014C3 19.5766 7.92487 24.5014 14 24.5014C20.0751 24.5014 25 19.5766 25 13.5014C25 7.4263 20.0751 2.50143 14 2.50143ZM8.89246 13.1025C9.28634 13.5716 9.81628 13.8061 10.4823 13.8061C11.1519 13.8061 11.6818 13.5716 12.0721 13.1025C12.4624 12.6299 12.6576 11.9835 12.6576 11.1635C12.6576 10.3364 12.4607 9.69365 12.0668 9.23532C11.6765 8.77699 11.1483 8.54782 10.4823 8.54782C9.81986 8.54782 9.29171 8.77878 8.89783 9.24069C8.50395 9.69903 8.30701 10.34 8.30701 11.1635C8.30701 11.9871 8.50216 12.6334 8.89246 13.1025ZM15.9125 17.9956C16.3064 18.4647 16.8363 18.6992 17.5023 18.6992C18.1719 18.6992 18.7019 18.4629 19.0922 17.9902C19.4825 17.5211 19.6776 16.8784 19.6776 16.062C19.6776 15.2348 19.4807 14.5921 19.0868 14.1338C18.6965 13.6718 18.1683 13.4409 17.5023 13.4409C16.8399 13.4409 16.3117 13.6718 15.9178 14.1338C15.524 14.5921 15.327 15.2348 15.327 16.062C15.327 16.8855 15.5222 17.5301 15.9125 17.9956ZM10.3373 18.2534C10.3731 18.4288 10.4716 18.5649 10.6327 18.6616C10.7831 18.7475 10.9478 18.7744 11.1268 18.7422C11.3094 18.7099 11.4545 18.6133 11.5619 18.4521L17.5345 9.51462C17.6527 9.33558 17.6903 9.15654 17.6473 8.97751C17.608 8.79489 17.5077 8.65703 17.3466 8.56393C17.1997 8.48158 17.0404 8.46009 16.8685 8.49948C16.7002 8.53887 16.557 8.64271 16.4388 8.811L10.4662 17.7216C10.3444 17.9007 10.3015 18.0779 10.3373 18.2534Z" fill="black"/>
</svg>
