<svg width="28" height="28" viewBox="0 0 28 28" fill="none" xmlns="http://www.w3.org/2000/svg">
<path opacity="0.4" fill-rule="evenodd" clip-rule="evenodd" d="M21.3514 3.49933C23.5355 3.49933 25.0266 5.14268 25.0266 7.17456C25.0266 9.06993 23.7315 10.6293 21.7767 10.8235C21.6358 10.8431 21.4936 10.8519 21.3514 10.8498C19.1672 10.8498 17.6761 9.20644 17.6761 7.17456C17.676 6.93971 17.6977 6.70536 17.7409 6.47451C18.0402 4.78041 19.4263 3.49933 21.3514 3.49933ZM26.9729 24.3469C27.0714 24.2484 27.1267 24.1148 27.1267 23.9756V23.9586C27.1268 21.856 27.127 11.2202 22.0689 11.6461C20.254 11.8036 19.6713 12.8362 19.2565 14.1067C19.1776 14.3483 19.105 14.5984 19.0313 14.8523C18.7172 15.9341 18.3826 17.0867 17.4556 17.957L17.3139 18.083C17.1265 18.2315 16.9301 18.3683 16.7258 18.4925C16.6572 18.5396 16.5853 18.5818 16.5106 18.6185C16.4864 18.6323 16.4623 18.6438 16.4366 18.6561C16.4233 18.6625 16.4095 18.6691 16.3951 18.6763C15.8173 18.9747 15.1886 19.1617 14.5417 19.2276H14.4997C14.3369 19.2486 14.1689 19.2486 14.0062 19.2486H14.0062C13.8434 19.2486 13.6754 19.2433 13.5179 19.2276C13.4855 19.5842 13.4715 19.9423 13.4759 20.3004C13.4747 20.336 13.4807 20.3716 13.4936 20.4049C13.5064 20.4381 13.5258 20.4685 13.5506 20.4942C13.5754 20.5198 13.6052 20.5402 13.638 20.5541C13.6709 20.568 13.7062 20.5752 13.7419 20.5751H14.5207C14.5562 20.5746 14.5915 20.5814 14.6242 20.5951C14.657 20.6087 14.6867 20.629 14.7113 20.6546C14.7359 20.6802 14.755 20.7106 14.7674 20.7439C14.7797 20.7772 14.7851 20.8127 14.7832 20.8482C14.7569 21.3565 14.7569 21.8659 14.7832 22.3742L14.7833 22.3742C14.8515 22.369 14.9197 22.3637 14.9827 22.3532C15.198 22.3322 15.408 22.2955 15.6128 22.2587C15.669 22.2475 15.7313 22.2332 15.7892 22.22C15.8392 22.2085 15.886 22.1978 15.9225 22.1905C15.9875 22.1775 16.0489 22.1609 16.1126 22.1437C16.1261 22.1401 16.1397 22.1364 16.1535 22.1327C16.2725 22.1012 16.3671 22.075 16.5036 22.033C16.6401 21.991 16.7818 21.9437 16.9078 21.8965C16.929 21.8885 16.9499 21.8808 16.9706 21.8731C17.073 21.8351 17.1705 21.799 17.2754 21.7495C17.3197 21.7285 17.3641 21.7084 17.4083 21.6884C17.4895 21.6517 17.5699 21.6153 17.6481 21.5744C18.0261 21.3947 18.3894 21.1858 18.735 20.9497C18.8014 21.4133 18.8313 21.8814 18.8242 22.3497C18.8242 22.7978 18.7997 23.4978 18.7665 24.0229C18.7624 24.0841 18.7709 24.1456 18.7916 24.2035C18.8123 24.2613 18.8447 24.3143 18.8867 24.3591C18.9287 24.4039 18.9795 24.4396 19.0359 24.4639C19.0923 24.4883 19.1531 24.5008 19.2145 24.5006H26.6017C26.7409 24.5006 26.8745 24.4453 26.9729 24.3469Z" fill="black"/>
<path fill-rule="evenodd" clip-rule="evenodd" d="M6.65045 3.49933C4.46806 3.49933 2.97522 5.14268 2.97522 7.17456C2.97522 9.06993 4.2738 10.6293 6.22517 10.8235C6.36607 10.843 6.50823 10.8518 6.65045 10.8498C8.83459 10.8498 10.3257 9.20644 10.3257 7.17456C10.327 6.93982 10.3064 6.70547 10.2644 6.47451C9.96691 4.78041 8.57557 3.49933 6.65045 3.49933ZM14.5767 22.3813C14.647 22.3814 14.7172 22.3761 14.7867 22.3655L14.7884 22.3603C14.7617 21.8525 14.7617 21.3437 14.7884 20.8359C14.7903 20.8004 14.785 20.7648 14.7726 20.7314C14.7602 20.698 14.7412 20.6675 14.7166 20.6418C14.692 20.616 14.6624 20.5956 14.6296 20.5817C14.5968 20.5679 14.5615 20.5609 14.5259 20.5611H13.7401C13.6706 20.5611 13.6039 20.5338 13.5545 20.485C13.505 20.4362 13.4768 20.3699 13.4758 20.3004C13.4729 19.944 13.4881 19.5877 13.5214 19.2328C12.8284 19.1711 12.1551 18.9699 11.542 18.6413C11.4441 18.5952 11.3493 18.5425 11.2585 18.4838C11.2473 18.4769 11.2364 18.4702 11.2255 18.4636C11.1697 18.4295 11.1169 18.3973 11.0642 18.3578C10.9697 18.2981 10.8785 18.2332 10.7912 18.1635C9.67968 17.2757 9.3154 16.0248 8.97467 14.8547C8.89694 14.5877 8.82043 14.325 8.73655 14.0717C8.33403 12.8187 7.74424 11.7966 5.93638 11.6443C0.874769 11.2204 0.875013 21.8437 0.875061 23.9565V23.9756C0.875061 24.1149 0.930378 24.2484 1.02884 24.3469C1.1273 24.4453 1.26085 24.5006 1.40009 24.5006H8.78381C8.84739 24.5006 8.91029 24.4874 8.96854 24.4619C9.0268 24.4364 9.07917 24.3992 9.12238 24.3525C9.16559 24.3059 9.1987 24.2508 9.21964 24.1908C9.24058 24.1307 9.2489 24.067 9.24409 24.0036C9.21083 23.4873 9.18808 22.7943 9.18808 22.3463C9.18072 21.8779 9.21057 21.4098 9.27734 20.9462C9.35959 21.0109 9.4471 21.0687 9.5346 21.1212C9.56378 21.1387 9.59335 21.1562 9.62292 21.1737C9.68202 21.2087 9.74113 21.2437 9.79712 21.2787C9.88113 21.3312 9.97038 21.3784 10.0649 21.4257C10.1685 21.486 10.2754 21.5403 10.3852 21.5885C10.4504 21.6201 10.5182 21.6496 10.5832 21.6779C10.6368 21.7013 10.6885 21.7238 10.7352 21.746C10.8034 21.7783 10.873 21.8053 10.9433 21.8325C10.9794 21.8465 11.0157 21.8606 11.0519 21.8755C11.2822 21.9734 11.5197 22.053 11.7625 22.1135L12.0985 22.1922C12.2035 22.2185 12.3033 22.2395 12.4083 22.2605C12.613 22.2973 12.8231 22.334 13.0383 22.355C13.1013 22.3655 13.1696 22.376 13.2378 22.376H13.2851H13.3586C13.3845 22.3777 13.4107 22.3798 13.4373 22.382C13.4952 22.3868 13.5547 22.3918 13.6159 22.3918H13.6246C13.7506 22.4023 13.8766 22.4023 14.0079 22.4023C14.0742 22.4023 14.1391 22.3996 14.2034 22.3969C14.2664 22.3943 14.3288 22.3918 14.3912 22.3918H14.4017C14.4357 22.3918 14.4679 22.3888 14.4983 22.3861C14.5257 22.3836 14.5518 22.3813 14.5767 22.3813Z" fill="black"/>
</svg>
