<svg width="28" height="28" viewBox="0 0 28 28" fill="none" xmlns="http://www.w3.org/2000/svg">
<path d="M5.9347 13.9109C5.37687 13.9109 4.86811 13.7637 4.40841 13.4693C3.94872 13.1749 3.582 12.7797 3.30825 12.2839C3.03966 11.788 2.90537 11.2354 2.90537 10.6259C2.90537 10.0422 3.03966 9.50766 3.30825 9.02214C3.582 8.53145 3.94872 8.1389 4.40841 7.84449C4.86811 7.55008 5.37687 7.40288 5.9347 7.40288C6.49769 7.40288 7.00904 7.55008 7.46873 7.84449C7.92843 8.13374 8.29257 8.5237 8.56115 9.01439C8.8349 9.49991 8.97178 10.0371 8.97178 10.6259C8.97178 11.2302 8.8349 11.7803 8.56115 12.2761C8.29257 12.772 7.92843 13.1697 7.46873 13.4693C7.00904 13.7637 6.49769 13.9109 5.9347 13.9109ZM1.68899 20.5739C1.14149 20.5739 0.723114 20.468 0.433868 20.2562C0.144623 20.0445 0 19.732 0 19.3188C0 18.8539 0.13171 18.3658 0.39513 17.8545C0.663715 17.3431 1.05368 16.8679 1.56502 16.4289C2.07637 15.9847 2.69876 15.6257 3.43221 15.352C4.16565 15.073 4.99982 14.9336 5.9347 14.9336C6.86958 14.9336 7.70374 15.073 8.43719 15.352C9.17063 15.6257 9.79303 15.9847 10.3044 16.4289C10.8157 16.8679 11.2031 17.3431 11.4665 17.8545C11.7351 18.3658 11.8694 18.8539 11.8694 19.3188C11.8694 19.732 11.7248 20.0445 11.4355 20.2562C11.1463 20.468 10.7305 20.5739 10.1882 20.5739H1.68899ZM22.0653 13.9341C21.5023 13.9341 20.991 13.7869 20.5313 13.4925C20.0767 13.1981 19.7126 12.803 19.4388 12.3071C19.1703 11.8061 19.036 11.2535 19.036 10.6491C19.036 10.0655 19.1703 9.5309 19.4388 9.04538C19.7126 8.55469 20.0793 8.16215 20.539 7.86774C20.9987 7.57333 21.5075 7.42612 22.0653 7.42612C22.6283 7.42612 23.1396 7.57333 23.5993 7.86774C24.059 8.15698 24.4232 8.54695 24.6918 9.03763C24.9655 9.52315 25.1024 10.0577 25.1024 10.6414C25.1024 11.2509 24.9655 11.8035 24.6918 12.2994C24.4232 12.7952 24.059 13.193 23.5993 13.4925C23.1396 13.7869 22.6283 13.9341 22.0653 13.9341ZM17.8196 20.5971C17.2721 20.5971 16.8537 20.4887 16.5645 20.2717C16.2752 20.06 16.1306 19.75 16.1306 19.342C16.1306 18.8771 16.2623 18.389 16.5257 17.8777C16.7943 17.3664 17.1843 16.8912 17.6956 16.4521C18.207 16.0079 18.8294 15.649 19.5628 15.3752C20.2963 15.0963 21.1304 14.9568 22.0653 14.9568C23.0002 14.9568 23.8343 15.0963 24.5678 15.3752C25.3012 15.649 25.9236 16.0079 26.435 16.4521C26.9463 16.8912 27.3337 17.3664 27.5971 17.8777C27.8657 18.389 28 18.8771 28 19.342C28 19.75 27.8554 20.06 27.5661 20.2717C27.2769 20.4887 26.8585 20.5971 26.311 20.5971H17.8196ZM11.1954 14.2131C10.9681 14.2131 10.7718 14.1304 10.6065 13.9651C10.4412 13.7999 10.3586 13.601 10.3586 13.3686C10.3586 13.1413 10.4412 12.945 10.6065 12.7797C10.7718 12.6145 10.9681 12.5318 11.1954 12.5318C11.4329 12.5318 11.6318 12.6145 11.7919 12.7797C11.9572 12.9399 12.0398 13.1361 12.0398 13.3686C12.0398 13.601 11.9572 13.7999 11.7919 13.9651C11.6318 14.1304 11.4329 14.2131 11.1954 14.2131ZM14 14.2131C13.7676 14.2131 13.5687 14.1304 13.4034 13.9651C13.2433 13.7999 13.1633 13.601 13.1633 13.3686C13.1633 13.1413 13.2459 12.945 13.4112 12.7797C13.5765 12.6145 13.7727 12.5318 14 12.5318C14.2324 12.5318 14.4313 12.6145 14.5966 12.7797C14.7619 12.9399 14.8445 13.1361 14.8445 13.3686C14.8445 13.601 14.7619 13.7999 14.5966 13.9651C14.4313 14.1304 14.2324 14.2131 14 14.2131ZM16.7969 14.2131C16.5696 14.2131 16.3734 14.1304 16.2081 13.9651C16.0428 13.7999 15.9602 13.601 15.9602 13.3686C15.9602 13.1413 16.0428 12.945 16.2081 12.7797C16.3734 12.6145 16.5696 12.5318 16.7969 12.5318C17.0293 12.5318 17.2282 12.6145 17.3935 12.7797C17.5588 12.9399 17.6414 13.1361 17.6414 13.3686C17.6414 13.601 17.5588 13.7999 17.3935 13.9651C17.2282 14.1304 17.0293 14.2131 16.7969 14.2131Z" fill="black"/>
</svg>
