<svg width="28" height="28" viewBox="0 0 28 28" fill="none" xmlns="http://www.w3.org/2000/svg">
<path fill-rule="evenodd" clip-rule="evenodd" d="M14 3.8C8.36665 3.8 3.79995 8.36669 3.79995 14C3.79995 19.6333 8.36665 24.2 14 24.2C19.6333 24.2 24.2 19.6333 24.2 14C24.2 8.36669 19.6333 3.8 14 3.8ZM2.19995 14C2.19995 7.48304 7.48299 2.2 14 2.2C20.5169 2.2 25.7999 7.48304 25.7999 14C25.7999 20.517 20.5169 25.8 14 25.8C7.48299 25.8 2.19995 20.517 2.19995 14ZM14 8.7C14.4418 8.7 14.8 9.05817 14.8 9.5V13.2H18.5C18.9418 13.2 19.3 13.5582 19.3 14C19.3 14.4418 18.9418 14.8 18.5 14.8H14.8V18.5C14.8 18.9418 14.4418 19.3 14 19.3C13.5581 19.3 13.2 18.9418 13.2 18.5V14.8H9.49995C9.05812 14.8 8.69995 14.4418 8.69995 14C8.69995 13.5582 9.05812 13.2 9.49995 13.2H13.2V9.5C13.2 9.05817 13.5581 8.7 14 8.7Z" fill="black"/>
</svg>
