<svg width="28" height="28" viewBox="0 0 28 28" fill="none" xmlns="http://www.w3.org/2000/svg">
<path fill-rule="evenodd" clip-rule="evenodd" d="M15.6976 5.08182C14.6903 4.30734 13.2879 4.30817 12.2815 5.08384L5.59011 10.2414C4.90234 10.7715 4.49945 11.5908 4.49945 12.4591V20.6991C4.49945 22.2455 5.75305 23.4991 7.29945 23.4991H20.7006C22.247 23.4991 23.5006 22.2455 23.5006 20.6991V12.4606C23.5006 11.5911 23.0966 10.7709 22.4073 10.2409L15.6976 5.08182ZM13.2583 6.35109C13.6896 6.01866 14.2906 6.01831 14.7223 6.35022L21.432 11.5093C21.7275 11.7364 21.9006 12.0879 21.9006 12.4606V20.6991C21.9006 21.3618 21.3633 21.8991 20.7006 21.8991H7.29945C6.63671 21.8991 6.09945 21.3618 6.09945 20.6991V12.4591C6.09945 12.087 6.27212 11.7359 6.56687 11.5087L13.2583 6.35109ZM14.0004 10.5835C14.4422 10.5835 14.8004 10.9416 14.8004 11.3835L14.8004 14.2265H17.6996C18.1414 14.2265 18.4996 14.5847 18.4996 15.0265C18.4996 15.4683 18.1414 15.8265 17.6996 15.8265H14.8004L14.8005 18.779C14.8005 19.2209 14.4423 19.5791 14.0005 19.5791C13.5587 19.5791 13.2005 19.2209 13.2005 18.7791L13.2004 15.8265H10.3004C9.85855 15.8265 9.50038 15.4683 9.50038 15.0265C9.50038 14.5847 9.85855 14.2265 10.3004 14.2265H13.2004L13.2004 11.3835C13.2004 10.9417 13.5585 10.5835 14.0004 10.5835Z" fill="black"/>
</svg>
