<svg width="28" height="28" viewBox="0 0 28 28" fill="none" xmlns="http://www.w3.org/2000/svg">
<path fill-rule="evenodd" clip-rule="evenodd" d="M9.88119 8.9078L12.7675 3.27464C13.1005 2.62478 13.9056 2.36369 14.5657 2.69149C14.8249 2.82018 15.0345 3.02831 15.1631 3.28451L17.8889 8.71705C18.1116 9.16083 18.5469 9.46384 19.0462 9.52253L24.7543 10.1936C25.5293 10.2847 26.0824 10.977 25.9899 11.7399C25.9518 12.0541 25.806 12.3461 25.5766 12.5677L21.0649 16.9272C20.8827 17.1032 20.7944 17.3529 20.8262 17.6022L21.576 23.4878C21.6833 24.3303 21.0765 25.099 20.2206 25.2047C19.8963 25.2447 19.5673 25.1836 19.2801 25.0299L14.5134 22.478C14.1685 22.2934 13.7534 22.2881 13.4038 22.4639L8.46508 24.9464C7.77002 25.2958 6.91885 25.0244 6.56394 24.3401C6.43115 24.0841 6.38218 23.7939 6.42378 23.5093L6.81849 20.8091C7.01155 19.4883 7.84535 18.3427 9.05361 17.738L14.5388 14.9931C14.6853 14.9198 14.7437 14.7435 14.6692 14.5993C14.6115 14.4876 14.4881 14.4244 14.362 14.442L7.65361 15.3836C6.62811 15.5276 5.5881 15.2439 4.78407 14.6009L2.54965 12.814C1.91201 12.3041 1.815 11.3819 2.33297 10.7542C2.57385 10.4623 2.91957 10.2728 3.2985 10.225L9.0269 9.50254C9.3943 9.45621 9.71438 9.23337 9.88119 8.9078Z" fill="black"/>
</svg>
