<svg width="28" height="28" viewBox="0 0 28 28" fill="none" xmlns="http://www.w3.org/2000/svg">
<path fill-rule="evenodd" clip-rule="evenodd" d="M7.20005 3.175L7.16709 3.175C6.63511 3.17499 6.1866 3.17498 5.81927 3.20499C5.43475 3.23641 5.06712 3.30478 4.71753 3.48291C4.18597 3.75375 3.7538 4.18592 3.48296 4.71748C3.30483 5.06708 3.23645 5.4347 3.20504 5.81923C3.17503 6.18656 3.17504 6.63507 3.17505 7.16705L3.17505 7.2V8.8L3.17505 8.83296C3.17504 9.36494 3.17503 9.81345 3.20504 10.1808C3.23645 10.5653 3.30483 10.9329 3.48296 11.2825C3.7538 11.8141 4.18597 12.2463 4.71753 12.5171C5.06712 12.6952 5.43475 12.7636 5.81927 12.795C6.1866 12.825 6.63511 12.825 7.16708 12.825H7.20005H8.80005H8.83302C9.36499 12.825 9.8135 12.825 10.1808 12.795C10.5654 12.7636 10.933 12.6952 11.2826 12.5171C11.8141 12.2463 12.2463 11.8141 12.5171 11.2825C12.6953 10.9329 12.7636 10.5653 12.7951 10.1808C12.8251 9.81345 12.8251 9.36495 12.825 8.83297V8.8V7.2V7.16704C12.8251 6.63506 12.8251 6.18655 12.7951 5.81923C12.7636 5.4347 12.6953 5.06708 12.5171 4.71748C12.2463 4.18592 11.8141 3.75375 11.2826 3.48291C10.933 3.30478 10.5654 3.23641 10.1808 3.20499C9.8135 3.17498 9.36499 3.17499 8.83301 3.175L8.80005 3.175H7.20005ZM5.46661 4.95307C5.54484 4.91321 5.67115 4.87259 5.95364 4.84951C6.24575 4.82565 6.62638 4.825 7.20005 4.825H8.80005C9.37372 4.825 9.75435 4.82565 10.0465 4.84951C10.329 4.87259 10.4553 4.91321 10.5335 4.95307C10.7546 5.06572 10.9343 5.24547 11.047 5.46657C11.0868 5.54479 11.1275 5.6711 11.1505 5.95359C11.1744 6.24571 11.175 6.62634 11.175 7.2V8.8C11.175 9.37367 11.1744 9.7543 11.1505 10.0464C11.1275 10.3289 11.0868 10.4552 11.047 10.5334C10.9343 10.7545 10.7546 10.9343 10.5335 11.0469C10.4553 11.0868 10.329 11.1274 10.0465 11.1505C9.75435 11.1744 9.37372 11.175 8.80005 11.175H7.20005C6.62638 11.175 6.24575 11.1744 5.95363 11.1505C5.67115 11.1274 5.54484 11.0868 5.46661 11.0469C5.24552 10.9343 5.06577 10.7545 4.95312 10.5334C4.91326 10.4552 4.87264 10.3289 4.84956 10.0464C4.82569 9.7543 4.82505 9.37367 4.82505 8.8V7.2C4.82505 6.62634 4.82569 6.24571 4.84956 5.95359C4.87264 5.6711 4.91326 5.54479 4.95312 5.46657C5.06577 5.24547 5.24552 5.06572 5.46661 4.95307ZM7.20005 15.175H7.16709C6.63511 15.175 6.1866 15.175 5.81927 15.205C5.43475 15.2364 5.06712 15.3048 4.71753 15.4829C4.18597 15.7538 3.7538 16.1859 3.48296 16.7175C3.30483 17.0671 3.23645 17.4347 3.20504 17.8192C3.17503 18.1866 3.17504 18.6351 3.17505 19.167L3.17505 19.2V20.8L3.17505 20.833C3.17504 21.3649 3.17503 21.8134 3.20504 22.1808C3.23645 22.5653 3.30483 22.9329 3.48296 23.2825C3.7538 23.8141 4.18597 24.2463 4.71753 24.5171C5.06712 24.6952 5.43475 24.7636 5.81927 24.795C6.1866 24.825 6.63511 24.825 7.16708 24.825H7.20005H8.80005H8.83302C9.36499 24.825 9.8135 24.825 10.1808 24.795C10.5654 24.7636 10.933 24.6952 11.2826 24.5171C11.8141 24.2463 12.2463 23.8141 12.5171 23.2825C12.6953 22.9329 12.7636 22.5653 12.7951 22.1808C12.8251 21.8135 12.8251 21.3649 12.825 20.833V20.8V19.2V19.167C12.8251 18.6351 12.8251 18.1866 12.7951 17.8192C12.7636 17.4347 12.6953 17.0671 12.5171 16.7175C12.2463 16.1859 11.8141 15.7538 11.2826 15.4829C10.933 15.3048 10.5654 15.2364 10.1808 15.205C9.8135 15.175 9.36499 15.175 8.83301 15.175H8.80005H7.20005ZM5.46661 16.9531C5.54484 16.9132 5.67115 16.8726 5.95364 16.8495C6.24575 16.8256 6.62638 16.825 7.20005 16.825H8.80005C9.37372 16.825 9.75435 16.8256 10.0465 16.8495C10.329 16.8726 10.4553 16.9132 10.5335 16.9531C10.7546 17.0657 10.9343 17.2455 11.047 17.4666C11.0868 17.5448 11.1275 17.6711 11.1505 17.9536C11.1744 18.2457 11.175 18.6263 11.175 19.2V20.8C11.175 21.3737 11.1744 21.7543 11.1505 22.0464C11.1275 22.3289 11.0868 22.4552 11.047 22.5334C10.9343 22.7545 10.7546 22.9343 10.5335 23.0469C10.4553 23.0868 10.329 23.1274 10.0465 23.1505C9.75435 23.1744 9.37372 23.175 8.80005 23.175H7.20005C6.62638 23.175 6.24575 23.1744 5.95363 23.1505C5.67115 23.1274 5.54484 23.0868 5.46661 23.0469C5.24552 22.9343 5.06577 22.7545 4.95312 22.5334C4.91326 22.4552 4.87264 22.3289 4.84956 22.0464C4.82569 21.7543 4.82505 21.3737 4.82505 20.8V19.2C4.82505 18.6263 4.82569 18.2457 4.84956 17.9536C4.87264 17.6711 4.91326 17.5448 4.95312 17.4666C5.06577 17.2455 5.24552 17.0657 5.46661 16.9531ZM15.75 16.55C15.75 16.27 15.75 16.13 15.8045 16.023C15.8525 15.9289 15.929 15.8524 16.0231 15.8045C16.13 15.75 16.27 15.75 16.55 15.75H17.45C17.7301 15.75 17.8701 15.75 17.977 15.8045C18.0711 15.8524 18.1476 15.9289 18.1956 16.023C18.25 16.13 18.25 16.27 18.25 16.55V17.45C18.25 17.73 18.25 17.87 18.1956 17.977C18.1476 18.0711 18.0711 18.1476 17.977 18.1955C17.8701 18.25 17.7301 18.25 17.45 18.25H16.55C16.27 18.25 16.13 18.25 16.0231 18.1955C15.929 18.1476 15.8525 18.0711 15.8045 17.977C15.75 17.87 15.75 17.73 15.75 17.45V16.55ZM18.75 19.55C18.75 19.27 18.75 19.13 18.8045 19.023C18.8525 18.9289 18.929 18.8524 19.0231 18.8045C19.13 18.75 19.27 18.75 19.55 18.75H20.4501C20.7301 18.75 20.8701 18.75 20.977 18.8045C21.0711 18.8524 21.1476 18.9289 21.1956 19.023C21.25 19.13 21.25 19.27 21.25 19.55V20.45C21.25 20.73 21.25 20.87 21.1956 20.977C21.1476 21.0711 21.0711 21.1476 20.977 21.1955C20.8701 21.25 20.7301 21.25 20.4501 21.25H19.55C19.27 21.25 19.13 21.25 19.0231 21.1955C18.929 21.1476 18.8525 21.0711 18.8045 20.977C18.75 20.87 18.75 20.73 18.75 20.45V19.55ZM15.8045 22.023C15.75 22.13 15.75 22.27 15.75 22.55V23.45C15.75 23.73 15.75 23.87 15.8045 23.977C15.8525 24.0711 15.929 24.1476 16.0231 24.1955C16.13 24.25 16.27 24.25 16.55 24.25H17.45C17.7301 24.25 17.8701 24.25 17.977 24.1955C18.0711 24.1476 18.1476 24.0711 18.1956 23.977C18.25 23.87 18.25 23.73 18.25 23.45V22.55C18.25 22.27 18.25 22.13 18.1956 22.023C18.1476 21.9289 18.0711 21.8524 17.977 21.8045C17.8701 21.75 17.7301 21.75 17.45 21.75H16.55C16.27 21.75 16.13 21.75 16.0231 21.8045C15.929 21.8524 15.8525 21.9289 15.8045 22.023ZM21.75 16.55C21.75 16.27 21.75 16.13 21.8045 16.023C21.8525 15.9289 21.929 15.8524 22.0231 15.8045C22.13 15.75 22.27 15.75 22.55 15.75H23.4501C23.7301 15.75 23.8701 15.75 23.977 15.8045C24.0711 15.8524 24.1476 15.9289 24.1956 16.023C24.25 16.13 24.25 16.27 24.25 16.55V17.45C24.25 17.73 24.25 17.87 24.1956 17.977C24.1476 18.0711 24.0711 18.1476 23.977 18.1955C23.8701 18.25 23.7301 18.25 23.4501 18.25H22.55C22.27 18.25 22.13 18.25 22.0231 18.1955C21.929 18.1476 21.8525 18.0711 21.8045 17.977C21.75 17.87 21.75 17.73 21.75 17.45V16.55ZM21.8045 22.023C21.75 22.13 21.75 22.27 21.75 22.55V23.45C21.75 23.73 21.75 23.87 21.8045 23.977C21.8525 24.0711 21.929 24.1476 22.0231 24.1955C22.13 24.25 22.27 24.25 22.55 24.25H23.4501C23.7301 24.25 23.8701 24.25 23.977 24.1955C24.0711 24.1476 24.1476 24.0711 24.1956 23.977C24.25 23.87 24.25 23.73 24.25 23.45V22.55C24.25 22.27 24.25 22.13 24.1956 22.023C24.1476 21.9289 24.0711 21.8524 23.977 21.8045C23.8701 21.75 23.7301 21.75 23.4501 21.75H22.55C22.27 21.75 22.13 21.75 22.0231 21.8045C21.929 21.8524 21.8525 21.9289 21.8045 22.023ZM19.2 3.175L19.1671 3.175C18.6351 3.17499 18.1866 3.17498 17.8193 3.20499C17.4347 3.23641 17.0671 3.30478 16.7175 3.48291C16.186 3.75375 15.7538 4.18592 15.483 4.71748C15.3048 5.06708 15.2365 5.4347 15.205 5.81923C15.175 6.18656 15.175 6.63507 15.175 7.16705V7.2V8.8V8.83296C15.175 9.36494 15.175 9.81345 15.205 10.1808C15.2365 10.5653 15.3048 10.9329 15.483 11.2825C15.7538 11.8141 16.186 12.2463 16.7175 12.5171C17.0671 12.6952 17.4347 12.7636 17.8193 12.795C18.1866 12.825 18.6351 12.825 19.1671 12.825H19.2H20.8001H20.833C21.365 12.825 21.8135 12.825 22.1808 12.795C22.5653 12.7636 22.933 12.6952 23.2826 12.5171C23.8141 12.2463 24.2463 11.8141 24.5171 11.2825C24.6953 10.9329 24.7636 10.5653 24.7951 10.1808C24.8251 9.81345 24.8251 9.36495 24.8251 8.83297V8.8V7.2V7.16704C24.8251 6.63506 24.8251 6.18655 24.7951 5.81923C24.7636 5.4347 24.6953 5.06708 24.5171 4.71748C24.2463 4.18592 23.8141 3.75375 23.2826 3.48291C22.933 3.30478 22.5653 3.23641 22.1808 3.20499C21.8135 3.17498 21.365 3.17499 20.833 3.175L20.8001 3.175H19.2ZM17.4666 4.95307C17.5448 4.91321 17.6711 4.87259 17.9536 4.84951C18.2458 4.82565 18.6264 4.825 19.2 4.825H20.8001C21.3737 4.825 21.7543 4.82565 22.0465 4.84951C22.329 4.87259 22.4553 4.91321 22.5335 4.95307C22.7546 5.06572 22.9343 5.24547 23.047 5.46657C23.0868 5.54479 23.1275 5.6711 23.1505 5.95359C23.1744 6.24571 23.1751 6.62634 23.1751 7.2V8.8C23.1751 9.37367 23.1744 9.7543 23.1505 10.0464C23.1275 10.3289 23.0868 10.4552 23.047 10.5334C22.9343 10.7545 22.7546 10.9343 22.5335 11.0469C22.4553 11.0868 22.329 11.1274 22.0465 11.1505C21.7543 11.1744 21.3737 11.175 20.8001 11.175H19.2C18.6264 11.175 18.2458 11.1744 17.9536 11.1505C17.6711 11.1274 17.5448 11.0868 17.4666 11.0469C17.2455 10.9343 17.0658 10.7545 16.9531 10.5334C16.9133 10.4552 16.8726 10.3289 16.8496 10.0464C16.8257 9.7543 16.825 9.37367 16.825 8.8V7.2C16.825 6.62634 16.8257 6.24571 16.8496 5.95359C16.8726 5.6711 16.9133 5.54479 16.9531 5.46657C17.0658 5.24547 17.2455 5.06572 17.4666 4.95307Z" fill="black"/>
</svg>
