<svg width="28" height="28" viewBox="0 0 28 28" fill="none" xmlns="http://www.w3.org/2000/svg">
<path fill-rule="evenodd" clip-rule="evenodd" d="M19.1615 3H19.2H20.8H20.8385H20.8386C21.3657 2.99998 21.8205 2.99997 22.195 3.03057C22.5904 3.06287 22.9836 3.13419 23.362 3.32698C23.9265 3.6146 24.3854 4.07354 24.673 4.63803C24.8658 5.01641 24.9371 5.40963 24.9694 5.80497C25 6.17954 25 6.63431 25 7.16145V7.16148V7.2V8.8V8.83852V8.83855C25 9.3657 25 9.82046 24.9694 10.195C24.9371 10.5904 24.8658 10.9836 24.673 11.362C24.3854 11.9265 23.9265 12.3854 23.362 12.673C22.9836 12.8658 22.5904 12.9371 22.195 12.9694C21.8205 13 21.3657 13 20.8386 13H20.8385H20.8H19.2H19.1615H19.1614C18.6343 13 18.1795 13 17.805 12.9694C17.4096 12.9371 17.0164 12.8658 16.638 12.673C16.0735 12.3854 15.6146 11.9265 15.327 11.362C15.1342 10.9836 15.0629 10.5904 15.0306 10.195C15 9.82046 15 9.3657 15 8.83855L15 8.8V7.2L15 7.16146C15 6.63431 15 6.17955 15.0306 5.80497C15.0629 5.40963 15.1342 5.01641 15.327 4.63803C15.6146 4.07354 16.0735 3.6146 16.638 3.32698C17.0164 3.13419 17.4096 3.06287 17.805 3.03057C18.1795 2.99997 18.6343 2.99998 19.1614 3H19.1615ZM17.9678 5.02393C17.6962 5.04613 17.5955 5.0838 17.546 5.109C17.3578 5.20487 17.2049 5.35785 17.109 5.54601C17.0838 5.59546 17.0461 5.69618 17.0239 5.96784C17.0008 6.25118 17 6.62345 17 7.2V8.8C17 9.37656 17.0008 9.74883 17.0239 10.0322C17.0461 10.3038 17.0838 10.4045 17.109 10.454C17.2049 10.6422 17.3578 10.7951 17.546 10.891C17.5955 10.9162 17.6962 10.9539 17.9678 10.9761C18.2512 10.9992 18.6234 11 19.2 11H20.8C21.3766 11 21.7488 10.9992 22.0322 10.9761C22.3038 10.9539 22.4045 10.9162 22.454 10.891C22.6422 10.7951 22.7951 10.6422 22.891 10.454C22.9162 10.4045 22.9539 10.3038 22.9761 10.0322C22.9992 9.74883 23 9.37656 23 8.8V7.2C23 6.62345 22.9992 6.25118 22.9761 5.96784C22.9539 5.69618 22.9162 5.59546 22.891 5.54601C22.7951 5.35785 22.6422 5.20487 22.454 5.109C22.4045 5.0838 22.3038 5.04613 22.0322 5.02393C21.7488 5.00078 21.3766 5 20.8 5H19.2C18.6234 5 18.2512 5.00078 17.9678 5.02393ZM18.625 7.50501C18.625 7.19698 18.625 7.04297 18.685 6.92532C18.7377 6.82183 18.8219 6.73769 18.9253 6.68496C19.043 6.62501 19.197 6.62501 19.505 6.62501H20.495C20.8031 6.62501 20.9571 6.62501 21.0747 6.68496C21.1782 6.73769 21.2624 6.82183 21.3151 6.92532C21.375 7.04297 21.375 7.19698 21.375 7.50501V8.49501C21.375 8.80304 21.375 8.95706 21.3151 9.07471C21.2624 9.1782 21.1782 9.26234 21.0747 9.31507C20.9571 9.37501 20.8031 9.37501 20.495 9.37501H19.505C19.197 9.37501 19.043 9.37501 18.9253 9.31507C18.8219 9.26234 18.7377 9.1782 18.685 9.07471C18.625 8.95706 18.625 8.80304 18.625 8.49501V7.50501ZM7.16138 3.00001L7.19992 3.00001H8.79992L8.83847 3.00001H8.83847C9.36562 2.99999 9.82038 2.99998 10.1949 3.03058C10.5903 3.06288 10.9835 3.1342 11.3619 3.32699C11.9264 3.61461 12.3853 4.07356 12.6729 4.63804C12.8657 5.01642 12.9371 5.40964 12.9694 5.80499C13 6.17955 12.9999 6.63432 12.9999 7.16146V7.16149V7.20001V8.80001V8.83854V8.83857C12.9999 9.36571 13 9.82047 12.9694 10.195C12.9371 10.5904 12.8657 10.9836 12.6729 11.362C12.3853 11.9265 11.9264 12.3854 11.3619 12.673C10.9835 12.8658 10.5903 12.9371 10.1949 12.9694C9.82038 13 9.36562 13 8.83847 13H8.83844H8.79992H7.19992H7.1614H7.16137C6.63422 13 6.17946 13 5.80489 12.9694C5.40955 12.9371 5.01633 12.8658 4.63795 12.673C4.07346 12.3854 3.61452 11.9265 3.3269 11.362C3.13411 10.9836 3.06279 10.5904 3.03049 10.195C2.99989 9.82047 2.9999 9.36571 2.99992 8.83856V8.83856L2.99992 8.80001V7.20001L2.99992 7.16147C2.9999 6.63432 2.99989 6.17956 3.03049 5.80499C3.06279 5.40964 3.13411 5.01642 3.3269 4.63804C3.61452 4.07356 4.07346 3.61461 4.63795 3.32699C5.01633 3.1342 5.40955 3.06288 5.80489 3.03058C6.17946 2.99998 6.63423 2.99999 7.16137 3.00001H7.16138ZM5.96776 5.02394C5.69609 5.04614 5.59537 5.08381 5.54593 5.10901C5.35777 5.20488 5.20479 5.35786 5.10891 5.54602C5.08372 5.59547 5.04604 5.69619 5.02385 5.96785C5.0007 6.25119 4.99992 6.62346 4.99992 7.20001V8.80001C4.99992 9.37657 5.0007 9.74884 5.02385 10.0322C5.04604 10.3038 5.08372 10.4046 5.10891 10.454C5.20479 10.6422 5.35777 10.7951 5.54593 10.891C5.59537 10.9162 5.69609 10.9539 5.96776 10.9761C6.25109 10.9992 6.62337 11 7.19992 11H8.79992C9.37647 11 9.74875 10.9992 10.0321 10.9761C10.3037 10.9539 10.4045 10.9162 10.4539 10.891C10.6421 10.7951 10.7951 10.6422 10.8909 10.454C10.9161 10.4046 10.9538 10.3038 10.976 10.0322C10.9991 9.74884 10.9999 9.37657 10.9999 8.80001V7.20001C10.9999 6.62346 10.9991 6.25119 10.976 5.96785C10.9538 5.69619 10.9161 5.59547 10.8909 5.54602C10.7951 5.35786 10.6421 5.20488 10.4539 5.10901C10.4045 5.08381 10.3037 5.04614 10.0321 5.02394C9.74875 5.00079 9.37647 5.00001 8.79992 5.00001H7.19992C6.62337 5.00001 6.25109 5.00079 5.96776 5.02394ZM6.6249 7.50502C6.6249 7.19699 6.6249 7.04298 6.68485 6.92533C6.73758 6.82184 6.82172 6.7377 6.92521 6.68497C7.04286 6.62502 7.19687 6.62502 7.5049 6.62502H8.4949C8.80293 6.62502 8.95694 6.62502 9.0746 6.68497C9.17809 6.7377 9.26222 6.82184 9.31495 6.92533C9.3749 7.04298 9.3749 7.19699 9.3749 7.50502V8.49502C9.3749 8.80305 9.3749 8.95707 9.31495 9.07472C9.26222 9.17821 9.17809 9.26235 9.0746 9.31508C8.95694 9.37502 8.80293 9.37502 8.4949 9.37502H7.5049C7.19687 9.37502 7.04286 9.37502 6.92521 9.31508C6.82172 9.26235 6.73758 9.17821 6.68485 9.07472C6.6249 8.95707 6.6249 8.80305 6.6249 8.49502V7.50502ZM7.16134 15L7.19988 15H8.79988L8.83842 15C9.36557 15 9.82034 15 10.1949 15.0306C10.5903 15.0629 10.9835 15.1342 11.3619 15.327C11.9263 15.6146 12.3853 16.0736 12.6729 16.638C12.8657 17.0164 12.937 17.4096 12.9693 17.805C12.9999 18.1796 12.9999 18.6343 12.9999 19.1615V19.1615V19.2V20.8V20.8385V20.8386C12.9999 21.3657 12.9999 21.8205 12.9693 22.195C12.937 22.5904 12.8657 22.9836 12.6729 23.362C12.3853 23.9265 11.9263 24.3854 11.3619 24.673C10.9835 24.8658 10.5903 24.9371 10.1949 24.9694C9.82036 25 9.36562 25 8.8385 25H8.83848H8.83846H8.83843H8.8384H8.79988H7.19988H7.16136H7.16133H7.16131H7.16128H7.16126C6.63414 25 6.17941 25 5.80485 24.9694C5.40951 24.9371 5.01629 24.8658 4.63791 24.673C4.07342 24.3854 3.61448 23.9265 3.32686 23.362C3.13407 22.9836 3.06275 22.5904 3.03045 22.195C2.99985 21.8205 2.99986 21.3657 2.99988 20.8386V20.8386V20.8V19.2V19.1615V19.1614C2.99986 18.6343 2.99985 18.1795 3.03045 17.805C3.06275 17.4096 3.13407 17.0164 3.32686 16.638C3.61448 16.0736 4.07342 15.6146 4.63791 15.327C5.01629 15.1342 5.40951 15.0629 5.80485 15.0306C6.17942 15 6.63419 15 7.16134 15ZM5.96772 17.0239C5.69605 17.0461 5.59533 17.0838 5.54589 17.109C5.35773 17.2049 5.20475 17.3579 5.10887 17.546C5.08368 17.5955 5.046 17.6962 5.02381 17.9678C5.00066 18.2512 4.99988 18.6235 4.99988 19.2V20.8C4.99988 21.3766 5.00066 21.7488 5.02381 22.0322C5.046 22.3038 5.08368 22.4046 5.10887 22.454C5.20475 22.6422 5.35773 22.7951 5.54589 22.891C5.59533 22.9162 5.69605 22.9539 5.96772 22.9761C6.25105 22.9992 6.62333 23 7.19988 23H8.79988C9.37643 23 9.74871 22.9992 10.032 22.9761C10.3037 22.9539 10.4044 22.9162 10.4539 22.891C10.642 22.7951 10.795 22.6422 10.8909 22.454C10.9161 22.4046 10.9538 22.3038 10.976 22.0322C10.9991 21.7488 10.9999 21.3766 10.9999 20.8V19.2C10.9999 18.6235 10.9991 18.2512 10.976 17.9678C10.9538 17.6962 10.9161 17.5955 10.8909 17.546C10.795 17.3579 10.642 17.2049 10.4539 17.109C10.4044 17.0838 10.3037 17.0461 10.032 17.0239C9.74871 17.0008 9.37643 17 8.79988 17H7.19988C6.62333 17 6.25105 17.0008 5.96772 17.0239ZM6.62498 19.505C6.62498 19.197 6.62498 19.043 6.68493 18.9253C6.73766 18.8218 6.8218 18.7377 6.92529 18.6849C7.04294 18.625 7.19695 18.625 7.50498 18.625H8.49498C8.80301 18.625 8.95703 18.625 9.07468 18.6849C9.17817 18.7377 9.26231 18.8218 9.31504 18.9253C9.37498 19.043 9.37498 19.197 9.37498 19.505V20.495C9.37498 20.803 9.37498 20.957 9.31504 21.0747C9.26231 21.1782 9.17817 21.2623 9.07468 21.3151C8.95703 21.375 8.80301 21.375 8.49498 21.375H7.50498C7.19695 21.375 7.04294 21.375 6.92529 21.3151C6.8218 21.2623 6.73766 21.1782 6.68493 21.0747C6.62498 20.957 6.62498 20.803 6.62498 20.495V19.505ZM15.6249 16.505C15.6249 16.197 15.6249 16.0429 15.6848 15.9253C15.7376 15.8218 15.8217 15.7377 15.9252 15.6849C16.0429 15.625 16.1969 15.625 16.5049 15.625H17.4949C17.8029 15.625 17.9569 15.625 18.0746 15.6849C18.1781 15.7377 18.2622 15.8218 18.315 15.9253C18.3749 16.0429 18.3749 16.197 18.3749 16.505V17.495C18.3749 17.803 18.3749 17.957 18.315 18.0747C18.2622 18.1782 18.1781 18.2623 18.0746 18.315C17.9569 18.375 17.8029 18.375 17.4949 18.375H16.5049C16.1969 18.375 16.0429 18.375 15.9252 18.315C15.8217 18.2623 15.7376 18.1782 15.6848 18.0747C15.6249 17.957 15.6249 17.803 15.6249 17.495V16.505ZM18.6249 19.505C18.6249 19.197 18.6249 19.0429 18.6848 18.9253C18.7376 18.8218 18.8217 18.7377 18.9252 18.6849C19.0429 18.625 19.1969 18.625 19.5049 18.625H20.4949C20.8029 18.625 20.9569 18.625 21.0746 18.6849C21.1781 18.7377 21.2622 18.8218 21.315 18.9253C21.3749 19.0429 21.3749 19.197 21.3749 19.505V20.495C21.3749 20.803 21.3749 20.957 21.315 21.0747C21.2622 21.1782 21.1781 21.2623 21.0746 21.315C20.9569 21.375 20.8029 21.375 20.4949 21.375H19.5049C19.1969 21.375 19.0429 21.375 18.9252 21.315C18.8217 21.2623 18.7376 21.1782 18.6848 21.0747C18.6249 20.957 18.6249 20.803 18.6249 20.495V19.505ZM15.6848 21.9253C15.6249 22.0429 15.6249 22.197 15.6249 22.505V23.495C15.6249 23.803 15.6249 23.957 15.6848 24.0747C15.7376 24.1782 15.8217 24.2623 15.9252 24.315C16.0429 24.375 16.1969 24.375 16.5049 24.375H17.4949C17.8029 24.375 17.9569 24.375 18.0746 24.315C18.1781 24.2623 18.2622 24.1782 18.315 24.0747C18.3749 23.957 18.3749 23.803 18.3749 23.495V22.505C18.3749 22.197 18.3749 22.0429 18.315 21.9253C18.2622 21.8218 18.1781 21.7377 18.0746 21.6849C17.9569 21.625 17.8029 21.625 17.4949 21.625H16.5049C16.1969 21.625 16.0429 21.625 15.9252 21.6849C15.8217 21.7377 15.7376 21.8218 15.6848 21.9253ZM21.6249 16.505C21.6249 16.197 21.6249 16.0429 21.6848 15.9253C21.7376 15.8218 21.8217 15.7377 21.9252 15.6849C22.0429 15.625 22.1969 15.625 22.5049 15.625H23.4949C23.8029 15.625 23.9569 15.625 24.0746 15.6849C24.1781 15.7377 24.2622 15.8218 24.315 15.9253C24.3749 16.0429 24.3749 16.197 24.3749 16.505V17.495C24.3749 17.803 24.3749 17.957 24.315 18.0747C24.2622 18.1782 24.1781 18.2623 24.0746 18.315C23.9569 18.375 23.8029 18.375 23.4949 18.375H22.5049C22.1969 18.375 22.0429 18.375 21.9252 18.315C21.8217 18.2623 21.7376 18.1782 21.6848 18.0747C21.6249 17.957 21.6249 17.803 21.6249 17.495V16.505ZM21.6848 21.9253C21.6249 22.0429 21.6249 22.197 21.6249 22.505V23.495C21.6249 23.803 21.6249 23.957 21.6848 24.0747C21.7376 24.1782 21.8217 24.2623 21.9252 24.315C22.0429 24.375 22.1969 24.375 22.5049 24.375H23.4949C23.8029 24.375 23.9569 24.375 24.0746 24.315C24.1781 24.2623 24.2622 24.1782 24.315 24.0747C24.3749 23.957 24.3749 23.803 24.3749 23.495V22.505C24.3749 22.197 24.3749 22.0429 24.315 21.9253C24.2622 21.8218 24.1781 21.7377 24.0746 21.6849C23.9569 21.625 23.8029 21.625 23.4949 21.625H22.5049C22.1969 21.625 22.0429 21.625 21.9252 21.6849C21.8217 21.7377 21.7376 21.8218 21.6848 21.9253Z" fill="black"/>
</svg>
