<svg width="28" height="28" viewBox="0 0 28 28" fill="none" xmlns="http://www.w3.org/2000/svg">
<path fill-rule="evenodd" clip-rule="evenodd" d="M14 3.8C8.3667 3.8 3.8 8.3667 3.8 14C3.8 19.6333 8.3667 24.2 14 24.2C19.6333 24.2 24.2 19.6333 24.2 14C24.2 8.3667 19.6333 3.8 14 3.8ZM2.2 14C2.2 7.48304 7.48304 2.2 14 2.2C20.517 2.2 25.8 7.48304 25.8 14C25.8 20.517 20.517 25.8 14 25.8C7.48304 25.8 2.2 20.517 2.2 14ZM16.555 8.41123C17.3062 9.00318 17.7997 9.90067 17.7997 11.0435C17.7997 12.0573 17.5649 12.8109 17.1281 13.3899C16.7094 13.9448 16.1609 14.2551 15.7654 14.4786C15.3279 14.7258 15.0743 14.8717 14.889 15.0939C14.7373 15.2759 14.5795 15.5799 14.5795 16.2317C14.5795 16.6928 14.2056 17.0667 13.7445 17.0667C13.2833 17.0667 12.9095 16.6928 12.9095 16.2317C12.9095 15.2754 13.1542 14.5669 13.6063 14.0246C13.9964 13.5566 14.5022 13.2727 14.8667 13.068L14.9437 13.0247C15.3533 12.7932 15.6099 12.6294 15.795 12.3841C15.9619 12.1628 16.1297 11.7898 16.1297 11.0436C16.1297 10.4264 15.8819 10.007 15.5214 9.72292C15.1388 9.42139 14.5901 9.24674 14.0018 9.248C13.4136 9.24926 12.8635 9.42628 12.4792 9.7296C12.1166 10.0158 11.8704 10.4346 11.8704 11.0436C11.8704 11.5047 11.4966 11.8786 11.0354 11.8786C10.5742 11.8786 10.2004 11.5047 10.2004 11.0436C10.2004 9.90514 10.6953 9.01021 11.4445 8.41882C12.172 7.84449 13.1041 7.57992 13.9982 7.578C14.8923 7.57609 15.8259 7.83669 16.555 8.41123ZM13.7623 20.5917C14.4057 20.5917 14.9273 20.0701 14.9273 19.4267C14.9273 18.7833 14.4057 18.2617 13.7623 18.2617C13.1189 18.2617 12.5973 18.7833 12.5973 19.4267C12.5973 20.0701 13.1189 20.5917 13.7623 20.5917Z" fill="black"/>
</svg>
