<svg width="28" height="28" viewBox="0 0 28 28" fill="none" xmlns="http://www.w3.org/2000/svg">
<path fill-rule="evenodd" clip-rule="evenodd" d="M8.76228 3.10001H8.79998H9.99998C10.497 3.10001 10.9 3.50295 10.9 4.00001C10.9 4.49706 10.497 4.90001 9.99998 4.90001H8.79998C7.94505 4.90001 7.35798 4.90071 6.90287 4.93789C6.45827 4.97422 6.21944 5.04082 6.0466 5.12889C5.65146 5.33023 5.3302 5.65149 5.12886 6.04663C5.04079 6.21947 4.97419 6.4583 4.93786 6.9029C4.90068 7.35801 4.89998 7.94508 4.89998 8.80001V10C4.89998 10.4971 4.49703 10.9 3.99998 10.9C3.50292 10.9 3.09998 10.4971 3.09998 10V8.80001V8.76231V8.76229C3.09997 7.95424 3.09996 7.2934 3.14384 6.75632C3.18926 6.20041 3.28614 5.69833 3.52505 5.22944C3.89896 4.49561 4.49558 3.89899 5.22941 3.52508C5.6983 3.28617 6.20038 3.18929 6.75629 3.14387C7.29337 3.09999 7.95421 3.1 8.76226 3.10001H8.76228ZM8.76228 24.9H8.79998H9.99998C10.497 24.9 10.9 24.4971 10.9 24C10.9 23.503 10.497 23.1 9.99998 23.1H8.79998C7.94505 23.1 7.35798 23.0993 6.90287 23.0621C6.45827 23.0258 6.21944 22.9592 6.0466 22.8711C5.65146 22.6698 5.3302 22.3485 5.12886 21.9534C5.04079 21.7805 4.97419 21.5417 4.93786 21.0971C4.90068 20.642 4.89998 20.0549 4.89998 19.2V18C4.89998 17.503 4.49703 17.1 3.99998 17.1C3.50292 17.1 3.09998 17.503 3.09998 18V19.2V19.2377V19.2377C3.09997 20.0458 3.09996 20.7066 3.14384 21.2437C3.18926 21.7996 3.28614 22.3017 3.52505 22.7706C3.89896 23.5044 4.49558 24.101 5.22941 24.4749C5.6983 24.7138 6.20038 24.8107 6.75629 24.8561C7.29337 24.9 7.95422 24.9 8.76228 24.9ZM19.2 3.10001H19.2377H19.2377C20.0457 3.1 20.7066 3.09999 21.2437 3.14387C21.7996 3.18929 22.3017 3.28617 22.7705 3.52508C23.5044 3.89899 24.101 4.49561 24.4749 5.22944C24.7138 5.69833 24.8107 6.20041 24.8561 6.75632C24.9 7.2934 24.9 7.95425 24.9 8.76231V8.80001V10C24.9 10.4971 24.497 10.9 24 10.9C23.5029 10.9 23.1 10.4971 23.1 10V8.80001C23.1 7.94508 23.0993 7.35801 23.0621 6.9029C23.0258 6.4583 22.9592 6.21947 22.8711 6.04663C22.6698 5.65149 22.3485 5.33023 21.9534 5.12889C21.7805 5.04082 21.5417 4.97422 21.0971 4.93789C20.642 4.90071 20.0549 4.90001 19.2 4.90001H18C17.5029 4.90001 17.1 4.49706 17.1 4.00001C17.1 3.50295 17.5029 3.10001 18 3.10001H19.2ZM19.2377 24.9H19.2H18C17.5029 24.9 17.1 24.4971 17.1 24C17.1 23.503 17.5029 23.1 18 23.1H19.2C20.0549 23.1 20.642 23.0993 21.0971 23.0621C21.5417 23.0258 21.7805 22.9592 21.9534 22.8711C22.3485 22.6698 22.6698 22.3485 22.8711 21.9534C22.9592 21.7805 23.0258 21.5417 23.0621 21.0971C23.0993 20.642 23.1 20.0549 23.1 19.2V18C23.1 17.503 23.5029 17.1 24 17.1C24.497 17.1 24.9 17.503 24.9 18V19.2V19.2377C24.9 20.0458 24.9 20.7066 24.8561 21.2437C24.8107 21.7996 24.7138 22.3017 24.4749 22.7706C24.101 23.5044 23.5044 24.101 22.7705 24.4749C22.3017 24.7138 21.7996 24.8107 21.2437 24.8561C20.7066 24.9 20.0457 24.9 19.2377 24.9ZM8.00037 13.1004C7.50331 13.1004 7.10037 13.5033 7.10037 14.0004C7.10037 14.4975 7.50331 14.9004 8.00037 14.9004H20.0004C20.4974 14.9004 20.9004 14.4975 20.9004 14.0004C20.9004 13.5033 20.4974 13.1004 20.0004 13.1004H8.00037Z" fill="black"/>
</svg>
