<svg width="28" height="28" viewBox="0 0 28 28" fill="none" xmlns="http://www.w3.org/2000/svg">
<g clip-path="url(#clip0_202_73)">
<path d="M6.13867 6.15625C6.62044 5.67448 7.1901 5.36198 7.84766 5.21875C8.51172 5.07552 9.23763 5.00391 10.0254 5.00391H10.1426V6.57617H9.9668C9.45247 6.57617 8.94792 6.62174 8.45312 6.71289C7.96484 6.80404 7.57422 6.99935 7.28125 7.29883C6.98828 7.5918 6.79622 7.98242 6.70508 8.4707C6.61393 8.95247 6.56836 9.45052 6.56836 9.96484V10.1211H4.99609V10.0234C4.99609 9.22917 5.06771 8.50651 5.21094 7.85547C5.35417 7.19792 5.66341 6.63151 6.13867 6.15625ZM11.4805 6.57617V5.00391H16.5195V6.57617H11.4805ZM21.8613 6.15625C22.3366 6.63151 22.6458 7.19792 22.7891 7.85547C22.9323 8.50651 23.0039 9.23893 23.0039 10.0527V10.1211H21.4316V9.93555C21.4316 9.43424 21.3861 8.94596 21.2949 8.4707C21.2038 7.98893 21.0085 7.59831 20.709 7.29883C20.416 7.00586 20.0254 6.8138 19.5371 6.72266C19.0553 6.625 18.5638 6.57617 18.0625 6.57617H17.8477V5.00391H17.9453C18.7526 5.00391 19.485 5.07552 20.1426 5.21875C20.8001 5.35547 21.373 5.66797 21.8613 6.15625ZM21.4316 16.4688V11.459H23.0039V16.4688H21.4316ZM21.8613 21.7715C21.3796 22.2533 20.8066 22.5658 20.1426 22.709C19.485 22.8522 18.7526 22.9238 17.9453 22.9238H17.8477V21.3516H18.0625C18.5638 21.3516 19.0553 21.3027 19.5371 21.2051C20.0254 21.1139 20.416 20.9219 20.709 20.6289C21.002 20.3294 21.194 19.9421 21.2852 19.4668C21.3828 18.985 21.4316 18.4902 21.4316 17.9824V17.8066H23.0039V17.875C23.0039 18.6823 22.9323 19.4147 22.7891 20.0723C22.6458 20.7298 22.3366 21.2962 21.8613 21.7715ZM11.4805 22.9238V21.3516H16.5195V22.9238H11.4805ZM6.13867 21.7715C5.6569 21.2962 5.3444 20.7298 5.20117 20.0723C5.06445 19.4147 4.99609 18.6823 4.99609 17.875V17.8066H6.56836V17.9824C6.56836 18.4902 6.61393 18.985 6.70508 19.4668C6.79622 19.9421 6.98828 20.3294 7.28125 20.6289C7.58073 20.9219 7.97135 21.1139 8.45312 21.2051C8.94141 21.3027 9.4362 21.3516 9.9375 21.3516H10.1426V22.9238H10.0449C9.24414 22.9238 8.51172 22.8522 7.84766 22.709C7.1901 22.5658 6.62044 22.2533 6.13867 21.7715ZM4.99609 16.4688V11.459H6.56836V16.4688H4.99609Z" fill="black"/>
</g>
<defs>
<clipPath id="clip0_202_73">
<rect width="28" height="28" fill="white"/>
</clipPath>
</defs>
</svg>
