<svg width="28" height="28" viewBox="0 0 28 28" fill="none" xmlns="http://www.w3.org/2000/svg">
<path fill-rule="evenodd" clip-rule="evenodd" d="M13.5832 25.94C13.7271 25.98 13.8511 26 13.955 26C14.067 26 14.1949 25.98 14.3388 25.94C14.4828 25.908 14.6347 25.8521 14.7946 25.7721C16.5137 24.8846 17.957 24.077 19.1244 23.3493C20.2919 22.6297 21.2274 21.914 21.931 21.2024C22.6347 20.4908 23.1424 19.7271 23.4543 18.9115C23.7661 18.088 23.922 17.1404 23.922 16.069V7.14543C23.922 6.44178 23.7821 5.92604 23.5022 5.5982C23.2304 5.27036 22.7986 4.98651 22.2069 4.74663C21.943 4.63468 21.5752 4.49075 21.1034 4.31484C20.6397 4.13893 20.1199 3.95102 19.5442 3.75112C18.9765 3.54323 18.4048 3.33533 17.8291 3.12744C17.2614 2.91954 16.7456 2.73563 16.2819 2.57571C15.8181 2.41579 15.4583 2.29185 15.2024 2.2039C15.0025 2.14793 14.7946 2.09995 14.5787 2.05997C14.3708 2.01999 14.1629 2 13.955 2C13.7551 2 13.5512 2.01999 13.3433 2.05997C13.1354 2.09995 12.9315 2.14793 12.7316 2.2039C12.4758 2.29185 12.1119 2.41579 11.6402 2.57571C11.1764 2.73563 10.6567 2.91954 10.081 3.12744C9.51324 3.32734 8.94153 3.53123 8.36582 3.73913C7.7981 3.94703 7.27836 4.14293 6.8066 4.32684C6.34283 4.50275 5.97901 4.64268 5.71514 4.74663C5.13143 4.98651 4.69965 5.27036 4.41979 5.5982C4.13993 5.92604 4 6.44178 4 7.14543V16.069C4 17.1404 4.15992 18.08 4.47976 18.8876C4.7996 19.6952 5.31534 20.4468 6.02699 21.1424C6.73863 21.8301 7.67816 22.5377 8.84558 23.2654C10.013 24.001 11.4403 24.8366 13.1274 25.7721C13.2874 25.8521 13.4393 25.908 13.5832 25.94ZM13.3032 7.34598C13.6857 7.01999 14.2484 7.01999 14.6309 7.34598L15.8038 8.34552C15.9677 8.48521 16.1715 8.56964 16.3862 8.58677L17.9224 8.70935C18.4234 8.74933 18.8212 9.14717 18.8612 9.64818L18.9838 11.1843C19.0009 11.399 19.0853 11.6028 19.225 11.7668L20.2246 12.9397C20.5506 13.3222 20.5506 13.8848 20.2246 14.2674L19.225 15.4403C19.0853 15.6042 19.0009 15.808 18.9838 16.0227L18.8612 17.5588C18.8212 18.0598 18.4234 18.4577 17.9224 18.4977L16.3862 18.6202C16.1715 18.6374 15.9677 18.7218 15.8038 18.8615L14.6309 19.861C14.2484 20.187 13.6857 20.187 13.3032 19.861L12.1303 18.8615C11.9664 18.7218 11.7626 18.6374 11.5479 18.6202L10.0117 18.4977C9.51072 18.4577 9.11288 18.0598 9.0729 17.5588L8.95031 16.0227C8.93318 15.808 8.84876 15.6042 8.70906 15.4403L7.70953 14.2674C7.38353 13.8848 7.38353 13.3222 7.70953 12.9397L8.70906 11.7668C8.84876 11.6028 8.93318 11.399 8.95031 11.1843L9.0729 9.64818C9.11288 9.14717 9.51072 8.74933 10.0117 8.70935L11.5479 8.58677C11.7626 8.56964 11.9664 8.48521 12.1303 8.34551L13.3032 7.34598ZM17.1487 11.7865C17.3985 12.0363 17.3985 12.4414 17.1487 12.6912L13.737 16.1028C13.4872 16.3526 13.0822 16.3526 12.8324 16.1028L11.1266 14.397C10.8768 14.1472 10.8768 13.7422 11.1266 13.4923C11.3764 13.2425 11.7814 13.2425 12.0312 13.4923L13.2847 14.7458L16.244 11.7865C16.4938 11.5367 16.8989 11.5367 17.1487 11.7865Z" fill="black"/>
</svg>
