<svg width="28" height="28" viewBox="0 0 28 28" fill="none" xmlns="http://www.w3.org/2000/svg">
<path d="M4 16.0317V6.94257C4 6.31683 4.13069 5.86931 4.39208 5.6C4.66139 5.32277 5.04554 5.08119 5.54455 4.87525C5.82178 4.75644 6.20594 4.60198 6.69703 4.41188C7.18812 4.22178 7.73069 4.01584 8.32475 3.79406C8.91881 3.57228 9.50891 3.35446 10.095 3.14059C10.6891 2.91881 11.2317 2.72475 11.7228 2.55842C12.2139 2.38416 12.602 2.25743 12.8871 2.17822C13.0455 2.13861 13.2079 2.09901 13.3743 2.05941C13.5406 2.0198 13.7069 2 13.8733 2C14.0396 2 14.2059 2.0198 14.3723 2.05941C14.5465 2.09109 14.7129 2.13069 14.8713 2.17822C15.1485 2.27327 15.5327 2.40792 16.0238 2.58218C16.5149 2.75644 17.0574 2.9505 17.6515 3.16436C18.2455 3.37822 18.8356 3.59604 19.4218 3.81782C20.0158 4.03168 20.5584 4.23366 21.0495 4.42376C21.5406 4.60594 21.9248 4.75644 22.202 4.87525C22.7089 5.08911 23.0931 5.33069 23.3545 5.6C23.6158 5.86931 23.7465 6.31683 23.7465 6.94257V16.0317C23.7465 17.1168 23.5881 18.0634 23.2713 18.8713C22.9624 19.6713 22.4554 20.4158 21.7505 21.1049C21.0455 21.7941 20.1109 22.503 18.9465 23.2317C17.7901 23.9683 16.3644 24.8119 14.6693 25.7624C14.5188 25.8416 14.3723 25.901 14.2297 25.9406C14.0871 25.9802 13.9683 26 13.8733 26C13.7782 26 13.6594 25.9802 13.5168 25.9406C13.3743 25.901 13.2277 25.8416 13.0772 25.7624C11.3901 24.8119 9.96436 23.9683 8.8 23.2317C7.64356 22.4951 6.71287 21.7822 6.00792 21.0931C5.30297 20.404 4.79208 19.6594 4.47525 18.8594C4.15842 18.0594 4 17.1168 4 16.0317ZM14.1228 23.802C14.1941 23.7782 14.2693 23.7465 14.3485 23.7069C14.4356 23.6673 14.5228 23.6198 14.6099 23.5644C15.9802 22.7327 17.1287 22.0158 18.0554 21.4139C18.9901 20.8119 19.7347 20.2416 20.2891 19.703C20.8515 19.1644 21.2515 18.5743 21.4891 17.9327C21.7347 17.2911 21.8574 16.5109 21.8574 15.5921V7.31089C21.8574 7.11287 21.8297 6.96238 21.7743 6.85941C21.7267 6.75644 21.6238 6.67723 21.4653 6.62178C21.0931 6.49505 20.6653 6.34852 20.1822 6.18218C19.7069 6.00792 19.204 5.82574 18.6733 5.63564C18.1505 5.44554 17.6238 5.25545 17.0931 5.06535C16.5703 4.86733 16.0713 4.68119 15.596 4.50693C15.1208 4.32475 14.705 4.16238 14.3485 4.0198C14.301 3.99604 14.2574 3.9802 14.2178 3.97228C14.1861 3.96436 14.1545 3.95644 14.1228 3.94851V23.802Z" fill="black"/>
</svg>
