<svg width="28" height="28" viewBox="0 0 28 28" fill="none" xmlns="http://www.w3.org/2000/svg">
<path fill-rule="evenodd" clip-rule="evenodd" d="M10.0863 12.4055C9.75793 12.0817 9.22925 12.0854 8.90545 12.4137C8.58165 12.7421 8.58535 13.2708 8.91371 13.5946L13.4137 18.0321C13.7388 18.3527 14.2612 18.3527 14.5863 18.0321L19.0863 13.5946C19.4147 13.2708 19.4183 12.7421 19.0945 12.4137C18.7707 12.0854 18.2421 12.0817 17.9137 12.4055L14.835 15.4414V6H17.6C19.8402 6 20.9603 6 21.816 6.43597C22.5686 6.81947 23.1805 7.43139 23.564 8.18404C24 9.03968 24 10.1598 24 12.4V17.6C24 19.8402 24 20.9603 23.564 21.816C23.1805 22.5686 22.5686 23.1805 21.816 23.564C20.9603 24 19.8402 24 17.6 24H10.4C8.15979 24 7.03969 24 6.18404 23.564C5.43139 23.1805 4.81947 22.5686 4.43597 21.816C4 20.9603 4 19.8402 4 17.6V12.4C4 10.1598 4 9.03968 4.43597 8.18404C4.81947 7.43139 5.43139 6.81947 6.18404 6.43597C7.03969 6 8.15979 6 10.4 6H13.165V15.4414L10.0863 12.4055ZM13.165 6V2.06251C13.165 1.60135 13.5388 1.22751 14 1.22751C14.4612 1.22751 14.835 1.60135 14.835 2.06251V6H13.165Z" fill="black"/>
</svg>
