<svg width="28" height="28" viewBox="0 0 28 28" fill="none" xmlns="http://www.w3.org/2000/svg">
<path fill-rule="evenodd" clip-rule="evenodd" d="M14.5905 3.39511C14.4339 3.23852 14.2215 3.15054 14 3.15054C13.7786 3.15054 13.5662 3.23852 13.4096 3.39511L7.75094 9.05379C7.42485 9.37988 7.42485 9.90857 7.75094 10.2347C8.07703 10.5607 8.60572 10.5607 8.93181 10.2347L13.165 6.00142V16.5604C13.165 17.0216 13.5389 17.3954 14 17.3954C14.4612 17.3954 14.835 17.0216 14.835 16.5604V6.00142L19.0683 10.2347C19.3943 10.5607 19.923 10.5607 20.2491 10.2347C20.5752 9.90857 20.5752 9.37988 20.2491 9.05379L14.5905 3.39511ZM6.03267 17.1891C6.03267 16.728 5.65883 16.3541 5.19767 16.3541C4.73651 16.3541 4.36267 16.728 4.36267 17.1891V18.8239L4.36267 18.8584C4.36266 19.5333 4.36265 20.0901 4.39971 20.5437C4.43819 21.0147 4.52077 21.4474 4.7278 21.8537C5.04897 22.484 5.56145 22.9965 6.19178 23.3177C6.59811 23.5247 7.03078 23.6073 7.5018 23.6458C7.95535 23.6828 8.51218 23.6828 9.18711 23.6828H9.22162H18.7784H18.8129C19.4879 23.6828 20.0447 23.6828 20.4983 23.6458C20.9693 23.6073 21.402 23.5247 21.8083 23.3177C22.4386 22.9965 22.9511 22.484 23.2723 21.8537C23.4793 21.4474 23.5619 21.0147 23.6003 20.5437C23.6374 20.0901 23.6374 19.5333 23.6374 18.8583V18.8239V17.1891C23.6374 16.728 23.2635 16.3541 22.8024 16.3541C22.3412 16.3541 21.9674 16.728 21.9674 17.1891V18.8239C21.9674 19.5419 21.9667 20.0302 21.9359 20.4077C21.9058 20.7754 21.8514 20.9639 21.7843 21.0955C21.6232 21.4116 21.3662 21.6686 21.0501 21.8297C20.9184 21.8968 20.73 21.9513 20.3623 21.9813C19.9848 22.0122 19.4965 22.0128 18.7784 22.0128H9.22162C8.50358 22.0128 8.01527 22.0122 7.63779 21.9813C7.27005 21.9513 7.08161 21.8968 6.94995 21.8297C6.63384 21.6686 6.37684 21.4116 6.21578 21.0955C6.14869 20.9639 6.09421 20.7754 6.06416 20.4077C6.03332 20.0302 6.03267 19.5419 6.03267 18.8239V17.1891Z" fill="black"/>
</svg>
