<svg width="28" height="28" viewBox="0 0 28 28" fill="none" xmlns="http://www.w3.org/2000/svg">
<path d="M15.4985 27C15.3112 27 15.1501 26.9363 15.0152 26.8089C14.8803 26.6815 14.7941 26.5166 14.7566 26.3143C14.5768 25.1078 14.3857 24.0961 14.1833 23.2793C13.981 22.4625 13.7187 21.7918 13.3965 21.2672C13.0743 20.7426 12.6546 20.323 12.1375 20.0082C11.6204 19.6935 10.9572 19.4387 10.1479 19.2438C9.34605 19.049 8.35311 18.8729 7.16908 18.7155C6.95925 18.693 6.78689 18.6106 6.652 18.4682C6.5246 18.3258 6.46091 18.1572 6.46091 17.9624C6.46091 17.7675 6.5246 17.5989 6.652 17.4566C6.78689 17.3142 6.95925 17.2317 7.16908 17.2093C8.35311 17.0819 9.3498 16.9282 10.1591 16.7484C10.976 16.561 11.6467 16.3062 12.1712 15.984C12.6958 15.6618 13.1192 15.2346 13.4415 14.7026C13.7637 14.1705 14.0222 13.4923 14.2171 12.668C14.4194 11.8361 14.5993 10.817 14.7566 9.61046C14.7866 9.40813 14.869 9.24701 15.0039 9.12711C15.1463 8.99971 15.3112 8.93601 15.4985 8.93601C15.6934 8.93601 15.8582 8.99971 15.9931 9.12711C16.128 9.24701 16.2142 9.40813 16.2517 9.61046C16.424 10.817 16.6114 11.8324 16.8137 12.6567C17.016 13.481 17.2746 14.1592 17.5893 14.6913C17.9115 15.2234 18.335 15.6505 18.8595 15.9728C19.3841 16.2875 20.0473 16.5386 20.8491 16.7259C21.6585 16.9058 22.6552 17.0669 23.8392 17.2093C24.049 17.2392 24.2176 17.3254 24.345 17.4678C24.4724 17.6027 24.5361 17.7675 24.5361 17.9624C24.5361 18.1572 24.4687 18.3258 24.3338 18.4682C24.2064 18.6106 24.0415 18.693 23.8392 18.7155C22.6552 18.8504 21.6547 19.0115 20.8379 19.1989C20.0286 19.3787 19.3616 19.626 18.837 19.9408C18.3125 20.2555 17.8891 20.6827 17.5668 21.2222C17.2446 21.7543 16.9861 22.4325 16.7912 23.2568C16.5964 24.0886 16.4165 25.1078 16.2517 26.3143C16.2142 26.5166 16.128 26.6815 15.9931 26.8089C15.8657 26.9363 15.7009 27 15.4985 27ZM7.60747 14.5115C7.33769 14.5115 7.18781 14.3653 7.15784 14.0731C7.06791 13.3387 6.97049 12.7616 6.86558 12.342C6.76816 11.9148 6.61078 11.5963 6.39346 11.3865C6.17614 11.1692 5.85016 11.0081 5.41551 10.9032C4.98836 10.7907 4.39634 10.6746 3.63946 10.5547C3.33221 10.5097 3.17859 10.3561 3.17859 10.0938C3.17859 9.83153 3.31348 9.67791 3.58326 9.63294C4.35513 9.49056 4.95838 9.36316 5.39303 9.25076C5.83517 9.13085 6.1649 8.96974 6.38222 8.7674C6.60704 8.55757 6.76816 8.24658 6.86558 7.83441C6.97049 7.42225 7.06791 6.84522 7.15784 6.10333C7.18781 5.81107 7.33769 5.66494 7.60747 5.66494C7.88474 5.66494 8.03837 5.80732 8.06834 6.09209C8.16576 6.84897 8.26318 7.44099 8.3606 7.86814C8.46552 8.29529 8.62664 8.61752 8.84396 8.83485C9.06128 9.05217 9.38726 9.21329 9.82191 9.3182C10.2566 9.42312 10.8598 9.52803 11.6317 9.63294C11.7516 9.64793 11.849 9.69664 11.9239 9.77907C12.0064 9.86151 12.0476 9.96642 12.0476 10.0938C12.0476 10.3486 11.9127 10.5022 11.6429 10.5547C10.8636 10.6971 10.2566 10.8282 9.82191 10.9481C9.38726 11.0605 9.06128 11.2216 8.84396 11.4315C8.62664 11.6413 8.46552 11.956 8.3606 12.3757C8.26318 12.7879 8.16576 13.3611 8.06834 14.0955C8.05335 14.2154 8.00464 14.3166 7.92221 14.399C7.83978 14.474 7.73487 14.5115 7.60747 14.5115ZM13.0705 6.57544C12.8981 6.57544 12.8007 6.48552 12.7782 6.30566C12.6958 5.84854 12.6246 5.49258 12.5647 5.23779C12.5047 4.9755 12.4073 4.77691 12.2724 4.64202C12.145 4.50713 11.9464 4.40222 11.6766 4.32728C11.4144 4.24485 11.0434 4.16242 10.5638 4.07998C10.3765 4.05001 10.2828 3.95259 10.2828 3.78772C10.2828 3.62286 10.3727 3.52544 10.5526 3.49546C11.0322 3.39804 11.4069 3.31186 11.6766 3.23692C11.9464 3.16198 12.145 3.05707 12.2724 2.92218C12.4073 2.78729 12.5047 2.59245 12.5647 2.33766C12.6246 2.08286 12.6958 1.73065 12.7782 1.28102C12.8007 1.09367 12.8981 1 13.0705 1C13.2354 1 13.3328 1.08993 13.3628 1.26978C13.4377 1.72691 13.5051 2.08661 13.5651 2.3489C13.6325 2.61118 13.73 2.80977 13.8574 2.94466C13.9923 3.07955 14.1908 3.18446 14.4531 3.2594C14.7229 3.32685 15.1013 3.40553 15.5884 3.49546C15.7683 3.52544 15.8582 3.62286 15.8582 3.78772C15.8582 3.95259 15.7683 4.05001 15.5884 4.07998C15.1088 4.16991 14.7341 4.25609 14.4644 4.33852C14.1946 4.41346 13.996 4.51837 13.8686 4.65326C13.7412 4.78815 13.6438 4.98674 13.5763 5.24903C13.5089 5.50382 13.4377 5.85603 13.3628 6.30566C13.3328 6.48552 13.2354 6.57544 13.0705 6.57544Z" fill="black"/>
</svg>
