<svg width="28" height="28" viewBox="0 0 28 28" fill="none" xmlns="http://www.w3.org/2000/svg">
<path d="M3.01224 13.7327C8.91892 11.1598 12.8566 9.46346 14.8255 8.64393C20.4537 6.30373 21.6217 5.89729 22.3845 5.88368C22.5523 5.88083 22.9258 5.9223 23.1695 6.1195C23.3721 6.28569 23.4292 6.51043 23.4577 6.66807C23.483 6.82571 23.5178 7.18499 23.4893 7.46544C23.1855 10.6689 21.8655 18.4425 21.1944 22.0305C20.9127 23.5487 20.3524 24.0577 19.8111 24.1074C18.6335 24.2157 17.7409 23.33 16.6013 22.5832C14.8192 21.4142 13.8126 20.6868 12.0811 19.5463C10.0806 18.2282 11.3784 17.5036 12.5179 16.3198C12.8155 16.0099 18.0004 11.295 18.0985 10.8673C18.1112 10.8138 18.1239 10.6144 18.0036 10.5093C17.8865 10.4039 17.7123 10.44 17.5857 10.4685C17.4053 10.509 14.5596 12.3918 9.03906 16.1166C8.23188 16.6718 7.50069 16.9424 6.84228 16.9282C6.12056 16.9127 4.72787 16.5192 3.69278 16.183C2.42661 15.7706 1.41679 15.5525 1.50542 14.852C1.54974 14.4873 2.05312 14.1141 3.01224 13.7327Z" fill="black"/>
</svg>
