<svg width="28" height="28" viewBox="0 0 28 28" fill="none" xmlns="http://www.w3.org/2000/svg">
<path fill-rule="evenodd" clip-rule="evenodd" d="M1.45672 8.7039C1 9.80653 1 11.2044 1 14C1 16.7956 1 18.1935 1.45672 19.2961C2.06569 20.7663 3.23373 21.9343 4.7039 22.5433C5.80653 23 7.20435 23 10 23H18C20.7957 23 22.1935 23 23.2961 22.5433C24.7663 21.9343 25.9343 20.7663 26.5433 19.2961C27 18.1935 27 16.7956 27 14C27 11.2044 27 9.80653 26.5433 8.7039C25.9343 7.23373 24.7663 6.06569 23.2961 5.45672C22.1935 5 20.7956 5 18 5H10C7.20435 5 5.80653 5 4.7039 5.45672C3.23373 6.06569 2.06569 7.23373 1.45672 8.7039ZM6.81992 12.7578V16.1445C6.81992 17.252 7.4 17.8203 8.54258 17.8203H8.60117C9.32187 17.8203 9.81406 17.5625 9.81406 17.0586C9.81406 16.6602 9.58555 16.4844 9.16367 16.4375L9.05234 16.4258C8.6832 16.3965 8.53086 16.209 8.53086 15.7637V12.7578H9.13437C9.53867 12.7578 9.79062 12.5059 9.79062 12.1133C9.79062 11.7207 9.53867 11.4688 9.13437 11.4688H8.53086V10.7715C8.53086 10.2207 8.20859 9.88086 7.67539 9.88086C7.14219 9.88086 6.81992 10.2207 6.81992 10.7715V11.4688H6.4918C6.0875 11.4688 5.82969 11.7148 5.82969 12.1133C5.82969 12.5117 6.0875 12.7578 6.4918 12.7578H6.81992ZM3.55547 16.877C3.55547 17.3984 3.97148 17.8203 4.49883 17.8203C5.02031 17.8203 5.44219 17.3984 5.44219 16.877C5.44219 16.3496 5.02031 15.9336 4.49883 15.9336C3.97148 15.9336 3.55547 16.3496 3.55547 16.877ZM13.6176 17.8848C11.7191 17.8848 10.5063 16.666 10.5063 14.6035C10.5063 12.5703 11.7367 11.334 13.6176 11.334C15.4984 11.334 16.7289 12.5645 16.7289 14.6035C16.7289 16.6719 15.516 17.8848 13.6176 17.8848ZM13.6176 16.5781C14.4555 16.5781 14.9887 15.8691 14.9887 14.6094C14.9887 13.3613 14.4496 12.6406 13.6176 12.6406C12.7855 12.6406 12.2406 13.3613 12.2406 14.6094C12.2406 15.8691 12.7738 16.5781 13.6176 16.5781ZM17.8137 16.9824C17.8137 17.5684 18.1711 17.873 18.6691 17.873C19.173 17.873 19.5246 17.5684 19.5246 16.9824V14.1465C19.5246 13.332 20.0109 12.7695 20.7785 12.7695C21.5461 12.7695 21.9328 13.2383 21.9328 14.0586V16.9824C21.9328 17.5684 22.2844 17.873 22.7883 17.873C23.2863 17.873 23.6437 17.5684 23.6437 16.9824V13.7012C23.6437 12.2305 22.8586 11.3516 21.4641 11.3516C20.4973 11.3516 19.8645 11.7793 19.5305 12.5586H19.4953V12.207C19.4953 11.668 19.1555 11.3398 18.6398 11.3398C18.1242 11.3398 17.8137 11.668 17.8137 12.2012V16.9824Z" fill="black"/>
</svg>
