<svg width="28" height="28" viewBox="0 0 28 28" fill="none" xmlns="http://www.w3.org/2000/svg">
<path fill-rule="evenodd" clip-rule="evenodd" d="M14 25C20.0751 25 25 20.0751 25 14C25 7.92487 20.0751 3 14 3C7.92487 3 3 7.92487 3 14C3 20.0751 7.92487 25 14 25ZM10.2437 9.05H17.7558H17.7567C19.137 9.05 20.0124 10.5418 19.3185 11.7444L14.6814 19.7802C14.3788 20.3049 13.6206 20.3049 13.3181 19.7802L8.68191 11.7444C7.98704 10.5399 8.86247 9.05 10.2437 9.05ZM13.3134 17.3686V10.4227H10.2427C9.90619 10.4227 9.70765 10.7801 9.86837 11.059L12.3046 15.4163L13.3134 17.3686ZM15.6939 15.4172L18.1292 11.058C18.2899 10.7791 18.0914 10.4218 17.7548 10.4218H14.6842V17.3704L15.6939 15.4172Z" fill="black"/>
</svg>
