<svg width="28" height="28" viewBox="0 0 28 28" fill="none" xmlns="http://www.w3.org/2000/svg">
<path fill-rule="evenodd" clip-rule="evenodd" d="M14 25.5C20.3513 25.5 25.5 20.3513 25.5 14C25.5 7.64873 20.3513 2.5 14 2.5C7.64873 2.5 2.5 7.64873 2.5 14C2.5 20.3513 7.64873 25.5 14 25.5ZM18 11.5C18 13.9853 16.2091 16 14 16C11.7909 16 10 13.9853 10 11.5C10 9.01472 11.7909 7 14 7C16.2091 7 18 9.01472 18 11.5ZM20.1747 19.7068C20.5524 19.9443 20.7412 20.063 20.8658 20.3279C20.9558 20.5191 20.9768 20.8673 20.9104 21.0679C20.8184 21.3458 20.6442 21.4872 20.2957 21.7699C18.5768 23.1644 16.386 24 14 24C11.6141 24 9.42331 23.1644 7.70437 21.7699C7.35591 21.4872 7.18168 21.3458 7.08969 21.0679C7.02331 20.8673 7.04427 20.5191 7.13423 20.3279C7.25889 20.063 7.44771 19.9443 7.82535 19.7068C9.52556 18.6377 11.6697 18 14 18C16.3304 18 18.4745 18.6377 20.1747 19.7068Z" fill="black"/>
</svg>
