<svg width="28" height="28" viewBox="0 0 28 28" fill="none" xmlns="http://www.w3.org/2000/svg">
<path fill-rule="evenodd" clip-rule="evenodd" d="M14 3.8C8.36665 3.8 3.79995 8.36669 3.79995 14C3.79995 16.6093 4.77974 18.9898 6.39149 20.7936C7.98684 19.1146 10.7981 18 14 18C17.2018 18 20.0131 19.1146 21.6084 20.7936C23.2202 18.9898 24.2 16.6093 24.2 14C24.2 8.36669 19.6333 3.8 14 3.8ZM2.19995 14C2.19995 7.48304 7.48299 2.2 14 2.2C20.5169 2.2 25.7999 7.48304 25.7999 14C25.7999 20.517 20.5169 25.8 14 25.8C7.48299 25.8 2.19995 20.517 2.19995 14ZM18 11.5C18 13.9853 16.2091 16 14 16C11.7908 16 9.99995 13.9853 9.99995 11.5C9.99995 9.01472 11.7908 7 14 7C16.2091 7 18 9.01472 18 11.5Z" fill="black"/>
</svg>
