<svg width="28" height="28" viewBox="0 0 28 28" fill="none" xmlns="http://www.w3.org/2000/svg">
<path fill-rule="evenodd" clip-rule="evenodd" d="M14 25C20.0751 25 25 20.0751 25 14C25 7.92487 20.0751 3 14 3C7.92487 3 3 7.92487 3 14C3 20.0751 7.92487 25 14 25ZM9.43451 9.43431C9.74693 9.12189 10.2535 9.12189 10.5659 9.43431L14.0002 12.8686L17.4345 9.43431C17.7469 9.12189 18.2535 9.12189 18.5659 9.43431C18.8783 9.74673 18.8783 10.2533 18.5659 10.5657L15.1316 14L18.5659 17.4343C18.8783 17.7467 18.8783 18.2533 18.5659 18.5657C18.2535 18.8781 17.7469 18.8781 17.4345 18.5657L14.0002 15.1314L10.5659 18.5657C10.2535 18.8781 9.74693 18.8781 9.43451 18.5657C9.12209 18.2533 9.12209 17.7467 9.43451 17.4343L12.8688 14L9.43451 10.5657C9.12209 10.2533 9.12209 9.74673 9.43451 9.43431Z" fill="black"/>
</svg>
